<?xml version="1.0" encoding="UTF-8" standalone="no"?><svg xmlns="http://www.w3.org/2000/svg" xmlns:xlink="http://www.w3.org/1999/xlink" contentStyleType="text/css" height="1025px" preserveAspectRatio="none" style="width:1469px;height:1025px;background:#FFFFFF;" version="1.1" viewBox="0 0 1469 1025" width="1469px" zoomAndPan="magnify"><defs/><g><!--MD5=[2cb47ba637a0d19583e6199456f6ad0b]
class Player--><g id="elem_Player"><rect codeLine="1" fill="#F1F1F1" height="96.8906" id="Player" rx="2.5" ry="2.5" style="stroke:#181818;stroke-width:0.5;" width="136" x="852.5" y="7"/><ellipse cx="895.85" cy="23" fill="#ADD1B2" rx="11" ry="11" style="stroke:#181818;stroke-width:1.0;"/><path d="M898.8188,28.6406 Q898.2406,28.9375 897.6,29.0781 Q896.9594,29.2344 896.2563,29.2344 Q893.7563,29.2344 892.4281,27.5938 Q891.1156,25.9375 891.1156,22.8125 Q891.1156,19.6875 892.4281,18.0313 Q893.7563,16.375 896.2563,16.375 Q896.9594,16.375 897.6,16.5313 Q898.2563,16.6875 898.8188,16.9844 L898.8188,19.7031 Q898.1938,19.125 897.6,18.8594 Q897.0063,18.5781 896.3813,18.5781 Q895.0375,18.5781 894.35,19.6563 Q893.6625,20.7188 893.6625,22.8125 Q893.6625,24.9063 894.35,25.9844 Q895.0375,27.0469 896.3813,27.0469 Q897.0063,27.0469 897.6,26.7813 Q898.1938,26.5 898.8188,25.9219 L898.8188,28.6406 Z " fill="#000000"/><text fill="#000000" font-family="sans-serif" font-size="14" lengthAdjust="spacing" textLength="41" x="916.15" y="27.8467">Player</text><line style="stroke:#181818;stroke-width:0.5;" x1="853.5" x2="987.5" y1="39" y2="39"/><rect fill="none" height="6" style="stroke:#C82930;stroke-width:1.0;" width="6" x="860.5" y="47"/><text fill="#000000" font-family="sans-serif" font-size="14" lengthAdjust="spacing" textLength="46" x="872.5" y="55.9951">long id</text><rect fill="none" height="6" style="stroke:#C82930;stroke-width:1.0;" width="6" x="860.5" y="63.2969"/><text fill="#000000" font-family="sans-serif" font-size="14" lengthAdjust="spacing" textLength="83" x="872.5" y="72.292">String name</text><rect fill="none" height="6" style="stroke:#C82930;stroke-width:1.0;" width="6" x="860.5" y="79.5938"/><text fill="#000000" font-family="sans-serif" font-size="14" lengthAdjust="spacing" textLength="110" x="872.5" y="88.5889">String sessionId</text><line style="stroke:#181818;stroke-width:0.5;" x1="853.5" x2="987.5" y1="95.8906" y2="95.8906"/></g><!--MD5=[3fd616f346a44cd59a91eb10b19e157c]
class User--><g id="elem_User"><rect codeLine="7" fill="#F1F1F1" height="96.8906" id="User" rx="2.5" ry="2.5" style="stroke:#181818;stroke-width:0.5;" width="172" x="887.5" y="213"/><ellipse cx="953.25" cy="229" fill="#ADD1B2" rx="11" ry="11" style="stroke:#181818;stroke-width:1.0;"/><path d="M956.2188,234.6406 Q955.6406,234.9375 955,235.0781 Q954.3594,235.2344 953.6563,235.2344 Q951.1563,235.2344 949.8281,233.5938 Q948.5156,231.9375 948.5156,228.8125 Q948.5156,225.6875 949.8281,224.0313 Q951.1563,222.375 953.6563,222.375 Q954.3594,222.375 955,222.5313 Q955.6563,222.6875 956.2188,222.9844 L956.2188,225.7031 Q955.5938,225.125 955,224.8594 Q954.4063,224.5781 953.7813,224.5781 Q952.4375,224.5781 951.75,225.6563 Q951.0625,226.7188 951.0625,228.8125 Q951.0625,230.9063 951.75,231.9844 Q952.4375,233.0469 953.7813,233.0469 Q954.4063,233.0469 955,232.7813 Q955.5938,232.5 956.2188,231.9219 L956.2188,234.6406 Z " fill="#000000"/><text fill="#000000" font-family="sans-serif" font-size="14" lengthAdjust="spacing" textLength="32" x="973.75" y="233.8467">User</text><line style="stroke:#181818;stroke-width:0.5;" x1="888.5" x2="1058.5" y1="245" y2="245"/><rect fill="none" height="6" style="stroke:#C82930;stroke-width:1.0;" width="6" x="895.5" y="253"/><text fill="#000000" font-family="sans-serif" font-size="14" lengthAdjust="spacing" textLength="46" x="907.5" y="261.9951">long id</text><rect fill="none" height="6" style="stroke:#C82930;stroke-width:1.0;" width="6" x="895.5" y="269.2969"/><text fill="#000000" font-family="sans-serif" font-size="14" lengthAdjust="spacing" textLength="114" x="907.5" y="278.292">String username</text><rect fill="none" height="6" style="stroke:#C82930;stroke-width:1.0;" width="6" x="895.5" y="285.5938"/><text fill="#000000" font-family="sans-serif" font-size="14" lengthAdjust="spacing" textLength="146" x="907.5" y="294.5889">String passwordHash</text><line style="stroke:#181818;stroke-width:0.5;" x1="888.5" x2="1058.5" y1="301.8906" y2="301.8906"/></g><!--MD5=[48e88c162c5505361c629eb6ff3812a8]
class GameState--><g id="elem_GameState"><rect codeLine="13" fill="#F1F1F1" height="96.8906" id="GameState" rx="2.5" ry="2.5" style="stroke:#181818;stroke-width:0.5;" width="141" x="1119" y="7"/><ellipse cx="1148.4" cy="23" fill="#EB937F" rx="11" ry="11" style="stroke:#181818;stroke-width:1.0;"/><path d="M1152.5094,29 L1144.7906,29 L1144.7906,16.6094 L1152.5094,16.6094 L1152.5094,18.7656 L1147.2438,18.7656 L1147.2438,21.4375 L1152.0094,21.4375 L1152.0094,23.5938 L1147.2438,23.5938 L1147.2438,26.8438 L1152.5094,26.8438 L1152.5094,29 Z " fill="#000000"/><text fill="#000000" font-family="sans-serif" font-size="14" lengthAdjust="spacing" textLength="77" x="1165.6" y="27.8467">GameState</text><line style="stroke:#181818;stroke-width:0.5;" x1="1120" x2="1259" y1="39" y2="39"/><text fill="#000000" font-family="sans-serif" font-size="14" lengthAdjust="spacing" textLength="129" x="1125" y="55.9951">FINDING_PLAYERS,</text><text fill="#000000" font-family="sans-serif" font-size="14" lengthAdjust="spacing" textLength="62" x="1125" y="72.292">PLAYING,</text><text fill="#000000" font-family="sans-serif" font-size="14" lengthAdjust="spacing" textLength="57" x="1125" y="88.5889">CLOSED</text><line style="stroke:#181818;stroke-width:0.5;" x1="1120" x2="1259" y1="95.8906" y2="95.8906"/></g><!--MD5=[b6dcce5e5ef3c84b0b048d11301373dd]
class Game--><g id="elem_Game"><rect codeLine="19" fill="#F1F1F1" height="96.8906" id="Game" rx="2.5" ry="2.5" style="stroke:#181818;stroke-width:0.5;" width="142" x="593.5" y="419"/><ellipse cx="639.75" cy="435" fill="#ADD1B2" rx="11" ry="11" style="stroke:#181818;stroke-width:1.0;"/><path d="M642.7188,440.6406 Q642.1406,440.9375 641.5,441.0781 Q640.8594,441.2344 640.1563,441.2344 Q637.6563,441.2344 636.3281,439.5938 Q635.0156,437.9375 635.0156,434.8125 Q635.0156,431.6875 636.3281,430.0313 Q637.6563,428.375 640.1563,428.375 Q640.8594,428.375 641.5,428.5313 Q642.1563,428.6875 642.7188,428.9844 L642.7188,431.7031 Q642.0938,431.125 641.5,430.8594 Q640.9063,430.5781 640.2813,430.5781 Q638.9375,430.5781 638.25,431.6563 Q637.5625,432.7188 637.5625,434.8125 Q637.5625,436.9063 638.25,437.9844 Q638.9375,439.0469 640.2813,439.0469 Q640.9063,439.0469 641.5,438.7813 Q642.0938,438.5 642.7188,437.9219 L642.7188,440.6406 Z " fill="#000000"/><text fill="#000000" font-family="sans-serif" font-size="14" lengthAdjust="spacing" textLength="41" x="660.25" y="439.8467">Game</text><line style="stroke:#181818;stroke-width:0.5;" x1="594.5" x2="734.5" y1="451" y2="451"/><rect fill="none" height="6" style="stroke:#C82930;stroke-width:1.0;" width="6" x="601.5" y="459"/><text fill="#000000" font-family="sans-serif" font-size="14" lengthAdjust="spacing" textLength="46" x="613.5" y="467.9951">long id</text><rect fill="none" height="6" style="stroke:#C82930;stroke-width:1.0;" width="6" x="601.5" y="475.2969"/><text fill="#000000" font-family="sans-serif" font-size="14" lengthAdjust="spacing" textLength="116" x="613.5" y="484.292">GameState state</text><rect fill="none" height="6" style="stroke:#C82930;stroke-width:1.0;" width="6" x="601.5" y="491.5938"/><text fill="#000000" font-family="sans-serif" font-size="14" lengthAdjust="spacing" textLength="83" x="613.5" y="500.5889">String name</text><line style="stroke:#181818;stroke-width:0.5;" x1="594.5" x2="734.5" y1="507.8906" y2="507.8906"/></g><!--MD5=[23bb12025fb3ea604555f955dd7f38e8]
class Participation--><g id="elem_Participation"><rect codeLine="25" fill="#F1F1F1" height="113.1875" id="Participation" rx="2.5" ry="2.5" style="stroke:#181818;stroke-width:0.5;" width="159" x="693" y="205"/><ellipse cx="727.35" cy="221" fill="#ADD1B2" rx="11" ry="11" style="stroke:#181818;stroke-width:1.0;"/><path d="M730.3188,226.6406 Q729.7406,226.9375 729.1,227.0781 Q728.4594,227.2344 727.7563,227.2344 Q725.2563,227.2344 723.9281,225.5938 Q722.6156,223.9375 722.6156,220.8125 Q722.6156,217.6875 723.9281,216.0313 Q725.2563,214.375 727.7563,214.375 Q728.4594,214.375 729.1,214.5313 Q729.7563,214.6875 730.3188,214.9844 L730.3188,217.7031 Q729.6938,217.125 729.1,216.8594 Q728.5063,216.5781 727.8813,216.5781 Q726.5375,216.5781 725.85,217.6563 Q725.1625,218.7188 725.1625,220.8125 Q725.1625,222.9063 725.85,223.9844 Q726.5375,225.0469 727.8813,225.0469 Q728.5063,225.0469 729.1,224.7813 Q729.6938,224.5 730.3188,223.9219 L730.3188,226.6406 Z " fill="#000000"/><text fill="#000000" font-family="sans-serif" font-size="14" lengthAdjust="spacing" textLength="84" x="745.65" y="225.8467">Participation</text><line style="stroke:#181818;stroke-width:0.5;" x1="694" x2="851" y1="237" y2="237"/><rect fill="none" height="6" style="stroke:#C82930;stroke-width:1.0;" width="6" x="701" y="245"/><text fill="#000000" font-family="sans-serif" font-size="14" lengthAdjust="spacing" textLength="46" x="713" y="253.9951">long id</text><rect fill="none" height="6" style="stroke:#C82930;stroke-width:1.0;" width="6" x="701" y="261.2969"/><text fill="#000000" font-family="sans-serif" font-size="14" lengthAdjust="spacing" textLength="100" x="713" y="270.292">boolean active</text><rect fill="none" height="6" style="stroke:#C82930;stroke-width:1.0;" width="6" x="701" y="277.5938"/><text fill="#000000" font-family="sans-serif" font-size="14" lengthAdjust="spacing" textLength="133" x="713" y="286.5889">Integer playerOrder</text><line style="stroke:#181818;stroke-width:0.5;" x1="694" x2="851" y1="293.8906" y2="293.8906"/><ellipse cx="704" cy="304.8906" fill="#84BE84" rx="3" ry="3" style="stroke:#038048;stroke-width:1.0;"/><text fill="#000000" font-family="sans-serif" font-size="14" lengthAdjust="spacing" textLength="94" x="713" y="310.8857">int getScore()</text></g><path d="M425,244 L425,269.1328 A0,0 0 0 0 425,269.1328 L658,269.1328 A0,0 0 0 0 658,269.1328 L658,262 L697,306.0391 L658,254 L658,254 L648,244 L425,244 A0,0 0 0 0 425,244 " fill="#FEFFDD" style="stroke:#181818;stroke-width:0.5;"/><path d="M648,244 L648,254 L658,254 L648,244 " fill="#FEFFDD" style="stroke:#181818;stroke-width:0.5;"/><text fill="#000000" font-family="sans-serif" font-size="13" lengthAdjust="spacing" textLength="212" x="431" y="261.0669">Sums up the scores of the hands</text><!--MD5=[5f0899136ed8f523b18ed05779c24112]
class Match--><g id="elem_Match"><rect codeLine="37" fill="#F1F1F1" height="113.1875" id="Match" rx="2.5" ry="2.5" style="stroke:#181818;stroke-width:0.5;" width="256" x="536.5" y="576"/><ellipse cx="639.25" cy="592" fill="#ADD1B2" rx="11" ry="11" style="stroke:#181818;stroke-width:1.0;"/><path d="M642.2188,597.6406 Q641.6406,597.9375 641,598.0781 Q640.3594,598.2344 639.6563,598.2344 Q637.1563,598.2344 635.8281,596.5938 Q634.5156,594.9375 634.5156,591.8125 Q634.5156,588.6875 635.8281,587.0313 Q637.1563,585.375 639.6563,585.375 Q640.3594,585.375 641,585.5313 Q641.6563,585.6875 642.2188,585.9844 L642.2188,588.7031 Q641.5938,588.125 641,587.8594 Q640.4063,587.5781 639.7813,587.5781 Q638.4375,587.5781 637.75,588.6563 Q637.0625,589.7188 637.0625,591.8125 Q637.0625,593.9063 637.75,594.9844 Q638.4375,596.0469 639.7813,596.0469 Q640.4063,596.0469 641,595.7813 Q641.5938,595.5 642.2188,594.9219 L642.2188,597.6406 Z " fill="#000000"/><text fill="#000000" font-family="sans-serif" font-size="14" lengthAdjust="spacing" textLength="42" x="659.75" y="596.8467">Match</text><line style="stroke:#181818;stroke-width:0.5;" x1="537.5" x2="791.5" y1="608" y2="608"/><rect fill="none" height="6" style="stroke:#C82930;stroke-width:1.0;" width="6" x="544.5" y="616"/><text fill="#000000" font-family="sans-serif" font-size="14" lengthAdjust="spacing" textLength="46" x="556.5" y="624.9951">long id</text><rect fill="none" height="6" style="stroke:#C82930;stroke-width:1.0;" width="6" x="544.5" y="632.2969"/><text fill="#000000" font-family="sans-serif" font-size="14" lengthAdjust="spacing" textLength="119" x="556.5" y="641.292">int matchNumber</text><rect fill="none" height="6" style="stroke:#C82930;stroke-width:1.0;" width="6" x="544.5" y="648.5938"/><text fill="#000000" font-family="sans-serif" font-size="14" lengthAdjust="spacing" textLength="160" x="556.5" y="657.5889">MatchState matchstate</text><line style="stroke:#181818;stroke-width:0.5;" x1="537.5" x2="791.5" y1="664.8906" y2="664.8906"/><ellipse cx="547.5" cy="675.8906" fill="#84BE84" rx="3" ry="3" style="stroke:#038048;stroke-width:1.0;"/><text fill="#000000" font-family="sans-serif" font-size="14" lengthAdjust="spacing" textLength="230" x="556.5" y="681.8857">List&lt;Round&gt; getSortedRounds()</text></g><!--MD5=[99f6b3a515749813b582928e9bdbe090]
class MatchState--><g id="elem_MatchState"><rect codeLine="45" fill="#F1F1F1" height="96.8906" id="MatchState" rx="2.5" ry="2.5" style="stroke:#181818;stroke-width:0.5;" width="167" x="1295" y="7"/><ellipse cx="1335.65" cy="23" fill="#EB937F" rx="11" ry="11" style="stroke:#181818;stroke-width:1.0;"/><path d="M1339.7594,29 L1332.0406,29 L1332.0406,16.6094 L1339.7594,16.6094 L1339.7594,18.7656 L1334.4938,18.7656 L1334.4938,21.4375 L1339.2594,21.4375 L1339.2594,23.5938 L1334.4938,23.5938 L1334.4938,26.8438 L1339.7594,26.8438 L1339.7594,29 Z " fill="#000000"/><text fill="#000000" font-family="sans-serif" font-size="14" lengthAdjust="spacing" textLength="78" x="1355.35" y="27.8467">MatchState</text><line style="stroke:#181818;stroke-width:0.5;" x1="1296" x2="1461" y1="39" y2="39"/><text fill="#000000" font-family="sans-serif" font-size="14" lengthAdjust="spacing" textLength="155" x="1301" y="55.9951">ANNOUNCING_TRICKS,</text><text fill="#000000" font-family="sans-serif" font-size="14" lengthAdjust="spacing" textLength="118" x="1301" y="72.292">PLAYING_CARDS,</text><text fill="#000000" font-family="sans-serif" font-size="14" lengthAdjust="spacing" textLength="63" x="1301" y="88.5889">FINISHED</text><line style="stroke:#181818;stroke-width:0.5;" x1="1296" x2="1461" y1="95.8906" y2="95.8906"/></g><!--MD5=[b3a980551af4fb5504d75634056fd54d]
class Hand--><g id="elem_Hand"><rect codeLine="51" fill="#F1F1F1" height="96.8906" id="Hand" rx="2.5" ry="2.5" style="stroke:#181818;stroke-width:0.5;" width="222" x="770.5" y="419"/><ellipse cx="859.25" cy="435" fill="#ADD1B2" rx="11" ry="11" style="stroke:#181818;stroke-width:1.0;"/><path d="M862.2188,440.6406 Q861.6406,440.9375 861,441.0781 Q860.3594,441.2344 859.6563,441.2344 Q857.1563,441.2344 855.8281,439.5938 Q854.5156,437.9375 854.5156,434.8125 Q854.5156,431.6875 855.8281,430.0313 Q857.1563,428.375 859.6563,428.375 Q860.3594,428.375 861,428.5313 Q861.6563,428.6875 862.2188,428.9844 L862.2188,431.7031 Q861.5938,431.125 861,430.8594 Q860.4063,430.5781 859.7813,430.5781 Q858.4375,430.5781 857.75,431.6563 Q857.0625,432.7188 857.0625,434.8125 Q857.0625,436.9063 857.75,437.9844 Q858.4375,439.0469 859.7813,439.0469 Q860.4063,439.0469 861,438.7813 Q861.5938,438.5 862.2188,437.9219 L862.2188,440.6406 Z " fill="#000000"/><text fill="#000000" font-family="sans-serif" font-size="14" lengthAdjust="spacing" textLength="36" x="879.75" y="439.8467">Hand</text><line style="stroke:#181818;stroke-width:0.5;" x1="771.5" x2="991.5" y1="451" y2="451"/><text fill="#000000" font-family="sans-serif" font-size="14" lengthAdjust="spacing" textLength="140" x="776.5" y="467.9951">int announcedScore</text><line style="stroke:#181818;stroke-width:0.5;" x1="771.5" x2="991.5" y1="475.2969" y2="475.2969"/><ellipse cx="781.5" cy="486.2969" fill="#84BE84" rx="3" ry="3" style="stroke:#038048;stroke-width:1.0;"/><text fill="#000000" font-family="sans-serif" font-size="14" lengthAdjust="spacing" textLength="196" x="790.5" y="492.292">int getNumberOfWonTricks()</text><ellipse cx="781.5" cy="502.5938" fill="#84BE84" rx="3" ry="3" style="stroke:#038048;stroke-width:1.0;"/><text fill="#000000" font-family="sans-serif" font-size="14" lengthAdjust="spacing" textLength="94" x="790.5" y="508.5889">int getScore()</text></g><g id="elem_GMN12"><path d="M935,582 L935,682.7969 A0,0 0 0 0 935,682.7969 L1274,682.7969 A0,0 0 0 0 1274,682.7969 L1274,592 L1264,582 L1040.6,582 L946.6,516.08 L1032.6,582 L935,582 A0,0 0 0 0 935,582 " fill="#FEFFDD" style="stroke:#181818;stroke-width:0.5;"/><path d="M1264,582 L1264,592 L1274,592 L1264,582 " fill="#FEFFDD" style="stroke:#181818;stroke-width:0.5;"/><text fill="#000000" font-family="sans-serif" font-size="13" lengthAdjust="spacing" textLength="198" x="941" y="599.0669">getNumberOfWonTricks looks if</text><text fill="#000000" font-family="sans-serif" font-size="13" lengthAdjust="spacing" textLength="232" x="941" y="614.1997">the winner card of a round is in hand</text><text fill="#000000" font-family="sans-serif" font-size="13" lengthAdjust="spacing" textLength="318" x="941" y="629.3325">can evaluate stacks with Match::getSortedRounds</text><text fill="#000000" font-family="sans-serif" font-size="13" lengthAdjust="spacing" textLength="4" x="941" y="644.4653"> </text><text fill="#000000" font-family="sans-serif" font-size="13" lengthAdjust="spacing" textLength="281" x="941" y="659.5981">getScore is hardcoded here in the first step.</text><text fill="#000000" font-family="sans-serif" font-size="13" lengthAdjust="spacing" textLength="283" x="941" y="674.731">Maybe we extract it later to the serialization.</text></g><!--MD5=[d75b0a238b734941260681f0026bbb88]
class Round--><g id="elem_Round"><rect codeLine="67" fill="#F1F1F1" height="113.1875" id="Round" rx="2.5" ry="2.5" style="stroke:#181818;stroke-width:0.5;" width="235" x="420" y="749"/><ellipse cx="510.25" cy="765" fill="#ADD1B2" rx="11" ry="11" style="stroke:#181818;stroke-width:1.0;"/><path d="M513.2188,770.6406 Q512.6406,770.9375 512,771.0781 Q511.3594,771.2344 510.6563,771.2344 Q508.1563,771.2344 506.8281,769.5938 Q505.5156,767.9375 505.5156,764.8125 Q505.5156,761.6875 506.8281,760.0313 Q508.1563,758.375 510.6563,758.375 Q511.3594,758.375 512,758.5313 Q512.6563,758.6875 513.2188,758.9844 L513.2188,761.7031 Q512.5938,761.125 512,760.8594 Q511.4063,760.5781 510.7813,760.5781 Q509.4375,760.5781 508.75,761.6563 Q508.0625,762.7188 508.0625,764.8125 Q508.0625,766.9063 508.75,767.9844 Q509.4375,769.0469 510.7813,769.0469 Q511.4063,769.0469 512,768.7813 Q512.5938,768.5 513.2188,767.9219 L513.2188,770.6406 Z " fill="#000000"/><text fill="#000000" font-family="sans-serif" font-size="14" lengthAdjust="spacing" textLength="46" x="530.75" y="769.8467">Round</text><line style="stroke:#181818;stroke-width:0.5;" x1="421" x2="654" y1="781" y2="781"/><rect fill="none" height="6" style="stroke:#C82930;stroke-width:1.0;" width="6" x="428" y="789"/><text fill="#000000" font-family="sans-serif" font-size="14" lengthAdjust="spacing" textLength="46" x="440" y="797.9951">long id</text><rect fill="none" height="6" style="stroke:#C82930;stroke-width:1.0;" width="6" x="428" y="805.2969"/><text fill="#000000" font-family="sans-serif" font-size="14" lengthAdjust="spacing" textLength="117" x="440" y="814.292">int roundNumber</text><line style="stroke:#181818;stroke-width:0.5;" x1="421" x2="654" y1="821.5938" y2="821.5938"/><ellipse cx="431" cy="832.5938" fill="#84BE84" rx="3" ry="3" style="stroke:#038048;stroke-width:1.0;"/><text fill="#000000" font-family="sans-serif" font-size="14" lengthAdjust="spacing" textLength="209" x="440" y="838.5889">Set&lt;Card&gt; getHighestCards()</text><ellipse cx="431" cy="848.8906" fill="#84BE84" rx="3" ry="3" style="stroke:#038048;stroke-width:1.0;"/><text fill="#000000" font-family="sans-serif" font-size="14" lengthAdjust="spacing" textLength="137" x="440" y="854.8857">boolean isStacked()</text></g><path d="M690.5,788 L690.5,796.5664 L649,833.7422 L690.5,804.5664 L690.5,813.1328 A0,0 0 0 0 690.5,813.1328 L828.5,813.1328 A0,0 0 0 0 828.5,813.1328 L828.5,798 L818.5,788 L690.5,788 A0,0 0 0 0 690.5,788 " fill="#FEFFDD" style="stroke:#181818;stroke-width:0.5;"/><path d="M818.5,788 L818.5,798 L828.5,798 L818.5,788 " fill="#FEFFDD" style="stroke:#181818;stroke-width:0.5;"/><text fill="#000000" font-family="sans-serif" font-size="13" lengthAdjust="spacing" textLength="117" x="696.5" y="805.0669">not exposed in api</text><path d="M6,780.5 L6,820.7656 A0,0 0 0 0 6,820.7656 L385,820.7656 A0,0 0 0 0 385,820.7656 L385,804.6328 L424,850.0391 L385,796.6328 L385,790.5 L375,780.5 L6,780.5 A0,0 0 0 0 6,780.5 " fill="#FEFFDD" style="stroke:#181818;stroke-width:0.5;"/><path d="M375,780.5 L375,790.5 L385,790.5 L375,780.5 " fill="#FEFFDD" style="stroke:#181818;stroke-width:0.5;"/><text fill="#000000" font-family="sans-serif" font-size="13" lengthAdjust="spacing" textLength="194" x="12" y="797.5669">getHighestCards().size() == 1</text><text fill="#000000" font-family="sans-serif" font-size="13" lengthAdjust="spacing" textLength="358" x="12" y="812.6997">Makes it easy in the frontend to show if round is stacked</text><!--MD5=[5e305716458bbdabbd2d7f572ed2bae2]
class Card--><g id="elem_Card"><rect codeLine="84" fill="#F1F1F1" height="96.8906" id="Card" rx="2.5" ry="2.5" style="stroke:#181818;stroke-width:0.5;" width="258" x="580.5" y="922"/><ellipse cx="689.25" cy="938" fill="#ADD1B2" rx="11" ry="11" style="stroke:#181818;stroke-width:1.0;"/><path d="M692.2188,943.6406 Q691.6406,943.9375 691,944.0781 Q690.3594,944.2344 689.6563,944.2344 Q687.1563,944.2344 685.8281,942.5938 Q684.5156,940.9375 684.5156,937.8125 Q684.5156,934.6875 685.8281,933.0313 Q687.1563,931.375 689.6563,931.375 Q690.3594,931.375 691,931.5313 Q691.6563,931.6875 692.2188,931.9844 L692.2188,934.7031 Q691.5938,934.125 691,933.8594 Q690.4063,933.5781 689.7813,933.5781 Q688.4375,933.5781 687.75,934.6563 Q687.0625,935.7188 687.0625,937.8125 Q687.0625,939.9063 687.75,940.9844 Q688.4375,942.0469 689.7813,942.0469 Q690.4063,942.0469 691,941.7813 Q691.5938,941.5 692.2188,940.9219 L692.2188,943.6406 Z " fill="#000000"/><text fill="#000000" font-family="sans-serif" font-size="14" lengthAdjust="spacing" textLength="32" x="709.75" y="942.8467">Card</text><line style="stroke:#181818;stroke-width:0.5;" x1="581.5" x2="837.5" y1="954" y2="954"/><rect fill="none" height="6" style="stroke:#C82930;stroke-width:1.0;" width="6" x="588.5" y="962"/><text fill="#000000" font-family="sans-serif" font-size="14" lengthAdjust="spacing" textLength="55" x="600.5" y="970.9951">Suit suit</text><rect fill="none" height="6" style="stroke:#C82930;stroke-width:1.0;" width="6" x="588.5" y="978.2969"/><text fill="#000000" font-family="sans-serif" font-size="14" lengthAdjust="spacing" textLength="69" x="600.5" y="987.292">Rank rank</text><line style="stroke:#181818;stroke-width:0.5;" x1="581.5" x2="837.5" y1="994.5938" y2="994.5938"/><ellipse cx="591.5" cy="1005.5938" fill="#84BE84" rx="3" ry="3" style="stroke:#038048;stroke-width:1.0;"/><text fill="#000000" font-family="sans-serif" font-size="14" lengthAdjust="spacing" textLength="232" x="600.5" y="1011.5889">boolean isHighestCardsInRound()</text></g><path d="M212,945.5 L212,985.7656 A0,0 0 0 0 212,985.7656 L545,985.7656 A0,0 0 0 0 545,985.7656 L545,969.6328 L584.5,1006.7422 L545,961.6328 L545,955.5 L535,945.5 L212,945.5 A0,0 0 0 0 212,945.5 " fill="#FEFFDD" style="stroke:#181818;stroke-width:0.5;"/><path d="M535,945.5 L535,955.5 L545,955.5 L535,945.5 " fill="#FEFFDD" style="stroke:#181818;stroke-width:0.5;"/><text fill="#000000" font-family="sans-serif" font-size="13" lengthAdjust="spacing" textLength="249" x="218" y="962.5669">round.getHighestCards().contains(this)</text><text fill="#000000" font-family="sans-serif" font-size="13" lengthAdjust="spacing" textLength="312" x="218" y="977.6997">Makes it easy in the frontend to show the winner.</text><!--MD5=[8afaa0cc9be9ac1cdc24999fa1642fa3]
class Suit--><g id="elem_Suit"><rect codeLine="96" fill="#F1F1F1" height="113.1875" id="Suit" rx="2.5" ry="2.5" style="stroke:#181818;stroke-width:0.5;" width="83" x="1148" y="205"/><ellipse cx="1174.25" cy="221" fill="#EB937F" rx="11" ry="11" style="stroke:#181818;stroke-width:1.0;"/><path d="M1178.3594,227 L1170.6406,227 L1170.6406,214.6094 L1178.3594,214.6094 L1178.3594,216.7656 L1173.0938,216.7656 L1173.0938,219.4375 L1177.8594,219.4375 L1177.8594,221.5938 L1173.0938,221.5938 L1173.0938,224.8438 L1178.3594,224.8438 L1178.3594,227 Z " fill="#000000"/><text fill="#000000" font-family="sans-serif" font-size="14" lengthAdjust="spacing" textLength="26" x="1190.75" y="225.8467">Suit</text><line style="stroke:#181818;stroke-width:0.5;" x1="1149" x2="1230" y1="237" y2="237"/><text fill="#000000" font-family="sans-serif" font-size="14" lengthAdjust="spacing" textLength="41" x="1154" y="253.9951">CLUB,</text><text fill="#000000" font-family="sans-serif" font-size="14" lengthAdjust="spacing" textLength="71" x="1154" y="270.292">DIAMOND,</text><text fill="#000000" font-family="sans-serif" font-size="14" lengthAdjust="spacing" textLength="51" x="1154" y="286.5889">HEART,</text><text fill="#000000" font-family="sans-serif" font-size="14" lengthAdjust="spacing" textLength="47" x="1154" y="302.8857">SPADE</text><line style="stroke:#181818;stroke-width:0.5;" x1="1149" x2="1230" y1="310.1875" y2="310.1875"/></g><!--MD5=[0f690a215a17a0cf4b9f948ca5dd1b3e]
class Rank--><g id="elem_Rank"><rect codeLine="103" fill="#F1F1F1" height="194.6719" id="Rank" rx="2.5" ry="2.5" style="stroke:#181818;stroke-width:0.5;" width="67" x="1266" y="164"/><ellipse cx="1281" cy="180" fill="#EB937F" rx="11" ry="11" style="stroke:#181818;stroke-width:1.0;"/><path d="M1285.1094,186 L1277.3906,186 L1277.3906,173.6094 L1285.1094,173.6094 L1285.1094,175.7656 L1279.8438,175.7656 L1279.8438,178.4375 L1284.6094,178.4375 L1284.6094,180.5938 L1279.8438,180.5938 L1279.8438,183.8438 L1285.1094,183.8438 L1285.1094,186 Z " fill="#000000"/><text fill="#000000" font-family="sans-serif" font-size="14" lengthAdjust="spacing" textLength="35" x="1295" y="184.8467">Rank</text><line style="stroke:#181818;stroke-width:0.5;" x1="1267" x2="1332" y1="196" y2="196"/><text fill="#000000" font-family="sans-serif" font-size="14" lengthAdjust="spacing" textLength="32" x="1272" y="212.9951">ACE,</text><text fill="#000000" font-family="sans-serif" font-size="14" lengthAdjust="spacing" textLength="25" x="1272" y="229.292">SIX,</text><text fill="#000000" font-family="sans-serif" font-size="14" lengthAdjust="spacing" textLength="50" x="1272" y="245.5889">SEVEN,</text><text fill="#000000" font-family="sans-serif" font-size="14" lengthAdjust="spacing" textLength="46" x="1272" y="261.8857">EIGHT,</text><text fill="#000000" font-family="sans-serif" font-size="14" lengthAdjust="spacing" textLength="36" x="1272" y="278.1826">NINE,</text><text fill="#000000" font-family="sans-serif" font-size="14" lengthAdjust="spacing" textLength="32" x="1272" y="294.4795">TEN,</text><text fill="#000000" font-family="sans-serif" font-size="14" lengthAdjust="spacing" textLength="35" x="1272" y="310.7764">JACK,</text><text fill="#000000" font-family="sans-serif" font-size="14" lengthAdjust="spacing" textLength="53" x="1272" y="327.0732">QUEEN,</text><text fill="#000000" font-family="sans-serif" font-size="14" lengthAdjust="spacing" textLength="33" x="1272" y="343.3701">KING</text><line style="stroke:#181818;stroke-width:0.5;" x1="1267" x2="1332" y1="350.6719" y2="350.6719"/></g><!--MD5=[e6d530180ba9d13ac17c95685e3f6980]
link Participation$$$LEFT to Participation--></g></svg>