<?xml version="1.0" encoding="UTF-8" standalone="no"?><svg xmlns="http://www.w3.org/2000/svg" xmlns:xlink="http://www.w3.org/1999/xlink" contentStyleType="text/css" height="1482px" preserveAspectRatio="none" style="width:569px;height:1482px;background:#FFFFFF;" version="1.1" viewBox="0 0 569 1482" width="569px" zoomAndPan="magnify"><defs/><g><ellipse cx="104.5" cy="20" fill="#222222" rx="10" ry="10" style="stroke:#222222;stroke-width:1.0;"/><rect fill="#F1F1F1" height="33.9688" rx="12.5" ry="12.5" style="stroke:#181818;stroke-width:0.5;" width="187" x="11" y="50"/><text fill="#000000" font-family="sans-serif" font-size="12" lengthAdjust="spacing" textLength="167" x="21" y="71.1387">PersonEntersStartingPage</text><rect fill="#F1F1F1" height="33.9688" rx="12.5" ry="12.5" style="stroke:#181818;stroke-width:0.5;" width="135" x="37" y="103.9688"/><text fill="#000000" font-family="sans-serif" font-size="12" lengthAdjust="spacing" textLength="115" x="47" y="125.1074">EnterPlayersName</text><rect fill="#F1F1F1" height="33.9688" rx="12.5" ry="12.5" style="stroke:#181818;stroke-width:0.5;" width="73" x="68" y="157.9375"/><text fill="#000000" font-family="sans-serif" font-size="12" lengthAdjust="spacing" textLength="53" x="78" y="179.0762">ClickPlay</text><rect fill="#F1F1F1" height="33.9688" rx="12.5" ry="12.5" style="stroke:#181818;stroke-width:0.5;" width="90" x="59.5" y="211.9063"/><text fill="#000000" font-family="sans-serif" font-size="12" lengthAdjust="spacing" textLength="70" x="69.5" y="233.0449">EnterLobby</text><rect fill="#F1F1F1" height="33.9688" rx="12.5" ry="12.5" style="stroke:#181818;stroke-width:0.5;" width="89" x="60" y="265.875"/><text fill="#000000" font-family="sans-serif" font-size="12" lengthAdjust="spacing" textLength="69" x="70" y="287.0137">EnterRoom</text><polygon fill="#F1F1F1" points="62.5,451.8438,146.5,451.8438,158.5,463.8438,146.5,475.8438,62.5,475.8438,50.5,463.8438,62.5,451.8438" style="stroke:#181818;stroke-width:0.5;"/><text fill="#000000" font-family="sans-serif" font-size="11" lengthAdjust="spacing" textLength="84" x="62.5" y="467.6519">PlayersInRoom</text><text fill="#000000" font-family="sans-serif" font-size="11" lengthAdjust="spacing" textLength="24" x="26.5" y="461.2495">else</text><text fill="#000000" font-family="sans-serif" font-size="11" lengthAdjust="spacing" textLength="231" x="158.5" y="461.2495">NoOfPlayers &gt; 1 and SomeoneClickStart</text><rect fill="#F1F1F1" height="33.9688" rx="12.5" ry="12.5" style="stroke:#181818;stroke-width:0.5;" width="47" x="17" y="485.8438"/><text fill="#000000" font-family="sans-serif" font-size="12" lengthAdjust="spacing" textLength="27" x="27" y="506.9824">Wait</text><rect fill="#F1F1F1" height="33.9688" rx="12.5" ry="12.5" style="stroke:#181818;stroke-width:0.5;" width="87" x="125" y="539.8125"/><text fill="#000000" font-family="sans-serif" font-size="12" lengthAdjust="spacing" textLength="67" x="135" y="560.9512">StartGame</text><rect fill="#F1F1F1" height="33.9688" rx="12.5" ry="12.5" style="stroke:#181818;stroke-width:0.5;" width="89" x="124" y="637.7813"/><text fill="#000000" font-family="sans-serif" font-size="12" lengthAdjust="spacing" textLength="69" x="134" y="658.9199">StartMatch</text><rect fill="#F1F1F1" height="33.9688" rx="12.5" ry="12.5" style="stroke:#181818;stroke-width:0.5;" width="117" x="110" y="691.75"/><text fill="#000000" font-family="sans-serif" font-size="12" lengthAdjust="spacing" textLength="97" x="120" y="712.8887">DistributeCards</text><rect fill="#F1F1F1" height="33.9688" rx="12.5" ry="12.5" style="stroke:#181818;stroke-width:0.5;" width="119" x="109" y="745.7188"/><text fill="#000000" font-family="sans-serif" font-size="12" lengthAdjust="spacing" textLength="99" x="119" y="766.8574">AnnounceTricks</text><rect fill="#F1F1F1" height="33.9688" rx="12.5" ry="12.5" style="stroke:#181818;stroke-width:0.5;" width="166" x="85.5" y="799.6875"/><text fill="#000000" font-family="sans-serif" font-size="12" lengthAdjust="spacing" textLength="146" x="95.5" y="820.8262">DisplayAnnouncements</text><rect fill="#F1F1F1" height="33.9688" rx="12.5" ry="12.5" style="stroke:#181818;stroke-width:0.5;" width="85" x="126" y="853.6563"/><text fill="#000000" font-family="sans-serif" font-size="12" lengthAdjust="spacing" textLength="65" x="136" y="874.7949">PlayRound</text><rect fill="#F1F1F1" height="33.9688" rx="12.5" ry="12.5" style="stroke:#181818;stroke-width:0.5;" width="119" x="109" y="964.6563"/><text fill="#000000" font-family="sans-serif" font-size="12" lengthAdjust="spacing" textLength="99" x="119" y="985.7949">PlayerPlaysCard</text><polygon fill="#F1F1F1" points="168.5,920.6563,180.5,932.6563,168.5,944.6563,156.5,932.6563,168.5,920.6563" style="stroke:#181818;stroke-width:0.5;"/><polygon fill="#F1F1F1" points="114.5,1018.625,222.5,1018.625,234.5,1030.625,222.5,1042.625,114.5,1042.625,102.5,1030.625,114.5,1018.625" style="stroke:#181818;stroke-width:0.5;"/><text fill="#000000" font-family="sans-serif" font-size="11" lengthAdjust="spacing" textLength="108" x="114.5" y="1034.4331">NotEveryonePlayed</text><rect fill="#F1F1F1" height="33.9688" rx="12.5" ry="12.5" style="stroke:#181818;stroke-width:0.5;" width="100" x="118.5" y="1062.625"/><text fill="#000000" font-family="sans-serif" font-size="12" lengthAdjust="spacing" textLength="80" x="128.5" y="1083.7637">DisplayScore</text><polygon fill="#F1F1F1" points="168.5,593.7813,180.5,605.7813,168.5,617.7813,156.5,605.7813,168.5,593.7813" style="stroke:#181818;stroke-width:0.5;"/><polygon fill="#F1F1F1" points="114.5,1116.5938,222.5,1116.5938,234.5,1128.5938,222.5,1140.5938,114.5,1140.5938,102.5,1128.5938,114.5,1116.5938" style="stroke:#181818;stroke-width:0.5;"/><text fill="#000000" font-family="sans-serif" font-size="11" lengthAdjust="spacing" textLength="108" x="114.5" y="1132.4019">MatchesPlayed &lt; 9</text><rect fill="#F1F1F1" height="33.9688" rx="12.5" ry="12.5" style="stroke:#181818;stroke-width:0.5;" width="117" x="282.5" y="856.6875"/><text fill="#000000" font-family="sans-serif" font-size="12" lengthAdjust="spacing" textLength="93" x="296.5" y="877.8262">PlayNextRound</text><rect fill="#F1F1F1" height="33.9688" rx="12.5" ry="12.5" style="stroke:#181818;stroke-width:0.5;" width="137" x="100" y="1160.5938"/><text fill="#000000" font-family="sans-serif" font-size="12" lengthAdjust="spacing" textLength="117" x="110" y="1181.7324">DisplayScoreBoard</text><polygon fill="#F1F1F1" points="168.5,485.8438,180.5,497.8438,168.5,509.8438,156.5,497.8438,168.5,485.8438" style="stroke:#181818;stroke-width:0.5;"/><polygon fill="#F1F1F1" points="134.5,1214.5625,202.5,1214.5625,214.5,1226.5625,202.5,1238.5625,134.5,1238.5625,122.5,1226.5625,134.5,1214.5625" style="stroke:#181818;stroke-width:0.5;"/><text fill="#000000" font-family="sans-serif" font-size="11" lengthAdjust="spacing" textLength="68" x="134.5" y="1230.3706">ThatWasFun</text><rect fill="#F1F1F1" height="33.9688" rx="12.5" ry="12.5" style="stroke:#181818;stroke-width:0.5;" width="84" x="409.5" y="856.6875"/><text fill="#000000" font-family="sans-serif" font-size="12" lengthAdjust="spacing" textLength="60" x="423.5" y="877.8262">PlayAgain</text><rect fill="#F1F1F1" height="33.9688" rx="12.5" ry="12.5" style="stroke:#181818;stroke-width:0.5;" width="91" x="123" y="1258.5625"/><text fill="#000000" font-family="sans-serif" font-size="12" lengthAdjust="spacing" textLength="71" x="133" y="1279.7012">LeaveRoom</text><ellipse cx="168.5" cy="1323.5313" rx="11" ry="11" style="stroke:#222222;stroke-width:1.0;fill:none;"/><ellipse cx="168.5" cy="1323.5313" fill="#222222" rx="6" ry="6" style="stroke:#111111;stroke-width:1.0;"/><polygon fill="#F1F1F1" points="104.5,407.8438,116.5,419.8438,104.5,431.8438,92.5,419.8438,104.5,407.8438" style="stroke:#181818;stroke-width:0.5;"/><polygon fill="#F1F1F1" points="59.5,1354.5313,149.5,1354.5313,161.5,1366.5313,149.5,1378.5313,59.5,1378.5313,47.5,1366.5313,59.5,1354.5313" style="stroke:#181818;stroke-width:0.5;"/><text fill="#000000" font-family="sans-serif" font-size="11" lengthAdjust="spacing" textLength="90" x="59.5" y="1370.3394">MorePlayersJoin</text><polygon fill="#F1F1F1" points="104.5,363.8438,116.5,375.8438,104.5,387.8438,92.5,375.8438,104.5,363.8438" style="stroke:#181818;stroke-width:0.5;"/><polygon fill="#F1F1F1" points="50.5,1398.5313,158.5,1398.5313,170.5,1410.5313,158.5,1422.5313,50.5,1422.5313,38.5,1410.5313,50.5,1398.5313" style="stroke:#181818;stroke-width:0.5;"/><text fill="#000000" font-family="sans-serif" font-size="11" lengthAdjust="spacing" textLength="108" x="50.5" y="1414.3394">SomeoneClickStart</text><polygon fill="#F1F1F1" points="104.5,319.8438,116.5,331.8438,104.5,343.8438,92.5,331.8438,104.5,319.8438" style="stroke:#181818;stroke-width:0.5;"/><line style="stroke:#181818;stroke-width:1.0;" x1="104.5" x2="104.5" y1="30" y2="50"/><polygon fill="#181818" points="100.5,40,104.5,50,108.5,40,104.5,44" style="stroke:#181818;stroke-width:1.0;"/><line style="stroke:#181818;stroke-width:1.0;" x1="104.5" x2="104.5" y1="83.9688" y2="103.9688"/><polygon fill="#181818" points="100.5,93.9688,104.5,103.9688,108.5,93.9688,104.5,97.9688" style="stroke:#181818;stroke-width:1.0;"/><line style="stroke:#181818;stroke-width:1.0;" x1="104.5" x2="104.5" y1="137.9375" y2="157.9375"/><polygon fill="#181818" points="100.5,147.9375,104.5,157.9375,108.5,147.9375,104.5,151.9375" style="stroke:#181818;stroke-width:1.0;"/><line style="stroke:#181818;stroke-width:1.0;" x1="104.5" x2="104.5" y1="191.9063" y2="211.9063"/><polygon fill="#181818" points="100.5,201.9063,104.5,211.9063,108.5,201.9063,104.5,205.9063" style="stroke:#181818;stroke-width:1.0;"/><line style="stroke:#181818;stroke-width:1.0;" x1="104.5" x2="104.5" y1="245.875" y2="265.875"/><polygon fill="#181818" points="100.5,255.875,104.5,265.875,108.5,255.875,104.5,259.875" style="stroke:#181818;stroke-width:1.0;"/><line style="stroke:#181818;stroke-width:1.0;" x1="168.5" x2="168.5" y1="671.75" y2="691.75"/><polygon fill="#181818" points="164.5,681.75,168.5,691.75,172.5,681.75,168.5,685.75" style="stroke:#181818;stroke-width:1.0;"/><line style="stroke:#181818;stroke-width:1.0;" x1="168.5" x2="168.5" y1="725.7188" y2="745.7188"/><polygon fill="#181818" points="164.5,735.7188,168.5,745.7188,172.5,735.7188,168.5,739.7188" style="stroke:#181818;stroke-width:1.0;"/><line style="stroke:#181818;stroke-width:1.0;" x1="168.5" x2="168.5" y1="779.6875" y2="799.6875"/><polygon fill="#181818" points="164.5,789.6875,168.5,799.6875,172.5,789.6875,168.5,793.6875" style="stroke:#181818;stroke-width:1.0;"/><line style="stroke:#181818;stroke-width:1.0;" x1="168.5" x2="168.5" y1="833.6563" y2="853.6563"/><polygon fill="#181818" points="164.5,843.6563,168.5,853.6563,172.5,843.6563,168.5,847.6563" style="stroke:#181818;stroke-width:1.0;"/><line style="stroke:#181818;stroke-width:1.0;" x1="168.5" x2="168.5" y1="944.6563" y2="964.6563"/><polygon fill="#181818" points="164.5,954.6563,168.5,964.6563,172.5,954.6563,168.5,958.6563" style="stroke:#181818;stroke-width:1.0;"/><line style="stroke:#181818;stroke-width:1.0;" x1="234.5" x2="246.5" y1="1030.625" y2="1030.625"/><polygon fill="#181818" points="242.5,991.6406,246.5,981.6406,250.5,991.6406,246.5,987.6406" style="stroke:#181818;stroke-width:1.0;"/><line style="stroke:#181818;stroke-width:1.0;" x1="246.5" x2="246.5" y1="932.6563" y2="1030.625"/><line style="stroke:#181818;stroke-width:1.0;" x1="246.5" x2="180.5" y1="932.6563" y2="932.6563"/><polygon fill="#181818" points="190.5,928.6563,180.5,932.6563,190.5,936.6563,186.5,932.6563" style="stroke:#181818;stroke-width:1.0;"/><line style="stroke:#181818;stroke-width:1.0;" x1="168.5" x2="168.5" y1="998.625" y2="1018.625"/><polygon fill="#181818" points="164.5,1008.625,168.5,1018.625,172.5,1008.625,168.5,1012.625" style="stroke:#181818;stroke-width:1.0;"/><line style="stroke:#181818;stroke-width:1.0;" x1="168.5" x2="168.5" y1="887.625" y2="920.6563"/><polygon fill="#181818" points="164.5,910.6563,168.5,920.6563,172.5,910.6563,168.5,914.6563" style="stroke:#181818;stroke-width:1.0;"/><line style="stroke:#181818;stroke-width:1.0;" x1="168.5" x2="168.5" y1="1042.625" y2="1062.625"/><polygon fill="#181818" points="164.5,1052.625,168.5,1062.625,172.5,1052.625,168.5,1056.625" style="stroke:#181818;stroke-width:1.0;"/><line style="stroke:#181818;stroke-width:1.0;" x1="168.5" x2="168.5" y1="617.7813" y2="637.7813"/><polygon fill="#181818" points="164.5,627.7813,168.5,637.7813,172.5,627.7813,168.5,631.7813" style="stroke:#181818;stroke-width:1.0;"/><line style="stroke:#181818;stroke-width:1.0;" x1="234.5" x2="341" y1="1128.5938" y2="1128.5938"/><line style="stroke:#181818;stroke-width:1.0;" x1="341" x2="341" y1="890.6563" y2="1128.5938"/><polygon fill="#181818" points="337,900.6563,341,890.6563,345,900.6563,341,896.6563" style="stroke:#181818;stroke-width:1.0;"/><line style="stroke:#181818;stroke-width:1.0;" x1="341" x2="341" y1="605.7813" y2="856.6875"/><line style="stroke:#181818;stroke-width:1.0;" x1="341" x2="180.5" y1="605.7813" y2="605.7813"/><polygon fill="#181818" points="190.5,601.7813,180.5,605.7813,190.5,609.7813,186.5,605.7813" style="stroke:#181818;stroke-width:1.0;"/><line style="stroke:#181818;stroke-width:1.0;" x1="168.5" x2="168.5" y1="1096.5938" y2="1116.5938"/><polygon fill="#181818" points="164.5,1106.5938,168.5,1116.5938,172.5,1106.5938,168.5,1110.5938" style="stroke:#181818;stroke-width:1.0;"/><line style="stroke:#181818;stroke-width:1.0;" x1="168.5" x2="168.5" y1="573.7813" y2="593.7813"/><polygon fill="#181818" points="164.5,583.7813,168.5,593.7813,172.5,583.7813,168.5,587.7813" style="stroke:#181818;stroke-width:1.0;"/><line style="stroke:#181818;stroke-width:1.0;" x1="168.5" x2="168.5" y1="1140.5938" y2="1160.5938"/><polygon fill="#181818" points="164.5,1150.5938,168.5,1160.5938,172.5,1150.5938,168.5,1154.5938" style="stroke:#181818;stroke-width:1.0;"/><line style="stroke:#181818;stroke-width:1.0;" x1="168.5" x2="168.5" y1="509.8438" y2="539.8125"/><polygon fill="#181818" points="164.5,529.8125,168.5,539.8125,172.5,529.8125,168.5,533.8125" style="stroke:#181818;stroke-width:1.0;"/><line style="stroke:#181818;stroke-width:1.0;" x1="214.5" x2="451.5" y1="1226.5625" y2="1226.5625"/><line style="stroke:#181818;stroke-width:1.0;" x1="451.5" x2="451.5" y1="890.6563" y2="1226.5625"/><polygon fill="#181818" points="447.5,900.6563,451.5,890.6563,455.5,900.6563,451.5,896.6563" style="stroke:#181818;stroke-width:1.0;"/><line style="stroke:#181818;stroke-width:1.0;" x1="451.5" x2="451.5" y1="497.8438" y2="856.6875"/><line style="stroke:#181818;stroke-width:1.0;" x1="451.5" x2="180.5" y1="497.8438" y2="497.8438"/><polygon fill="#181818" points="190.5,493.8438,180.5,497.8438,190.5,501.8438,186.5,497.8438" style="stroke:#181818;stroke-width:1.0;"/><line style="stroke:#181818;stroke-width:1.0;" x1="168.5" x2="168.5" y1="1194.5625" y2="1214.5625"/><polygon fill="#181818" points="164.5,1204.5625,168.5,1214.5625,172.5,1204.5625,168.5,1208.5625" style="stroke:#181818;stroke-width:1.0;"/><line style="stroke:#181818;stroke-width:1.0;" x1="168.5" x2="168.5" y1="1238.5625" y2="1258.5625"/><polygon fill="#181818" points="164.5,1248.5625,168.5,1258.5625,172.5,1248.5625,168.5,1252.5625" style="stroke:#181818;stroke-width:1.0;"/><line style="stroke:#181818;stroke-width:1.0;" x1="168.5" x2="168.5" y1="1292.5313" y2="1312.5313"/><polygon fill="#181818" points="164.5,1302.5313,168.5,1312.5313,172.5,1302.5313,168.5,1306.5313" style="stroke:#181818;stroke-width:1.0;"/><line style="stroke:#181818;stroke-width:1.0;" x1="50.5" x2="40.5" y1="463.8438" y2="463.8438"/><line style="stroke:#181818;stroke-width:1.0;" x1="40.5" x2="40.5" y1="463.8438" y2="485.8438"/><polygon fill="#181818" points="36.5,475.8438,40.5,485.8438,44.5,475.8438,40.5,479.8438" style="stroke:#181818;stroke-width:1.0;"/><line style="stroke:#181818;stroke-width:1.0;" x1="158.5" x2="168.5" y1="463.8438" y2="463.8438"/><line style="stroke:#181818;stroke-width:1.0;" x1="168.5" x2="168.5" y1="463.8438" y2="485.8438"/><polygon fill="#181818" points="164.5,475.8438,168.5,485.8438,172.5,475.8438,168.5,479.8438" style="stroke:#181818;stroke-width:1.0;"/><line style="stroke:#181818;stroke-width:1.0;" x1="40.5" x2="40.5" y1="519.8125" y2="1339.5313"/><line style="stroke:#181818;stroke-width:1.0;" x1="40.5" x2="104.5" y1="1339.5313" y2="1339.5313"/><line style="stroke:#181818;stroke-width:1.0;" x1="104.5" x2="104.5" y1="1339.5313" y2="1354.5313"/><polygon fill="#181818" points="100.5,1344.5313,104.5,1354.5313,108.5,1344.5313,104.5,1348.5313" style="stroke:#181818;stroke-width:1.0;"/><line style="stroke:#181818;stroke-width:1.0;" x1="104.5" x2="104.5" y1="431.8438" y2="451.8438"/><polygon fill="#181818" points="100.5,441.8438,104.5,451.8438,108.5,441.8438,104.5,445.8438" style="stroke:#181818;stroke-width:1.0;"/><line style="stroke:#181818;stroke-width:1.0;" x1="161.5" x2="507.5" y1="1366.5313" y2="1366.5313"/><polygon fill="#181818" points="503.5,930.6875,507.5,920.6875,511.5,930.6875,507.5,926.6875" style="stroke:#181818;stroke-width:1.0;"/><line style="stroke:#181818;stroke-width:1.0;" x1="507.5" x2="507.5" y1="419.8438" y2="1366.5313"/><line style="stroke:#181818;stroke-width:1.0;" x1="507.5" x2="116.5" y1="419.8438" y2="419.8438"/><polygon fill="#181818" points="126.5,415.8438,116.5,419.8438,126.5,423.8438,122.5,419.8438" style="stroke:#181818;stroke-width:1.0;"/><line style="stroke:#181818;stroke-width:1.0;" x1="104.5" x2="104.5" y1="387.8438" y2="407.8438"/><polygon fill="#181818" points="100.5,397.8438,104.5,407.8438,108.5,397.8438,104.5,401.8438" style="stroke:#181818;stroke-width:1.0;"/><line style="stroke:#181818;stroke-width:1.0;" x1="170.5" x2="525.5" y1="1410.5313" y2="1410.5313"/><polygon fill="#181818" points="521.5,930.6875,525.5,920.6875,529.5,930.6875,525.5,926.6875" style="stroke:#181818;stroke-width:1.0;"/><line style="stroke:#181818;stroke-width:1.0;" x1="525.5" x2="525.5" y1="375.8438" y2="1410.5313"/><line style="stroke:#181818;stroke-width:1.0;" x1="525.5" x2="116.5" y1="375.8438" y2="375.8438"/><polygon fill="#181818" points="126.5,371.8438,116.5,375.8438,126.5,379.8438,122.5,375.8438" style="stroke:#181818;stroke-width:1.0;"/><line style="stroke:#181818;stroke-width:1.0;" x1="104.5" x2="104.5" y1="1378.5313" y2="1398.5313"/><polygon fill="#181818" points="100.5,1388.5313,104.5,1398.5313,108.5,1388.5313,104.5,1392.5313" style="stroke:#181818;stroke-width:1.0;"/><line style="stroke:#181818;stroke-width:1.0;" x1="104.5" x2="104.5" y1="343.8438" y2="363.8438"/><polygon fill="#181818" points="100.5,353.8438,104.5,363.8438,108.5,353.8438,104.5,357.8438" style="stroke:#181818;stroke-width:1.0;"/><line style="stroke:#181818;stroke-width:1.0;" x1="104.5" x2="104.5" y1="1422.5313" y2="1470.5313"/><line style="stroke:#181818;stroke-width:1.0;" x1="104.5" x2="543.5" y1="1470.5313" y2="1470.5313"/><polygon fill="#181818" points="539.5,924.6875,543.5,914.6875,547.5,924.6875,543.5,920.6875" style="stroke:#181818;stroke-width:1.0;"/><line style="stroke:#181818;stroke-width:1.0;" x1="543.5" x2="543.5" y1="331.8438" y2="1470.5313"/><line style="stroke:#181818;stroke-width:1.0;" x1="543.5" x2="116.5" y1="331.8438" y2="331.8438"/><polygon fill="#181818" points="126.5,327.8438,116.5,331.8438,126.5,335.8438,122.5,331.8438" style="stroke:#181818;stroke-width:1.0;"/><line style="stroke:#181818;stroke-width:1.0;" x1="104.5" x2="104.5" y1="299.8438" y2="319.8438"/><polygon fill="#181818" points="100.5,309.8438,104.5,319.8438,108.5,309.8438,104.5,313.8438" style="stroke:#181818;stroke-width:1.0;"/><!--MD5=[b79ee461f3001fe79ff791710d5d77b4]
@startuml
'https://plantuml.com/activity-diagram-beta

start
:PersonEntersStartingPage;
:EnterPlayersName;
:ClickPlay;
:EnterLobby;
'if (EnterRoom) then (CreateNewRoom)
    ':CreateNewRoom;
'else (ExistingRoom)
    ':EnterExistingRoom;
'endif
:EnterRoom;
repeat
repeat
repeat
    if (PlayersInRoom) then (else)
        :Wait;
    else (NoOfPlayers > 1 and SomeoneClickStart)
        repeat
        :StartGame;
        repeat
            :StartMatch;
            :DistributeCards;
            :AnnounceTricks;
            :DisplayAnnouncements;
            :PlayRound;
            repeat
            :PlayerPlaysCard;
            repeat while (NotEveryonePlayed)
            :DisplayScore;
            backward: PlayNextRound;
        repeat while (MatchesPlayed < 9)
        :DisplayScoreBoard;
        backward: PlayAgain;
        repeat while (ThatWasFun)
        :LeaveRoom;
        stop
    endif
repeat while (MorePlayersJoin)
repeat while (SomeoneClickStart)

@enduml

@startuml

start
:PersonEntersStartingPage;
:EnterPlayersName;
:ClickPlay;
:EnterLobby;
:EnterRoom;
repeat
repeat
repeat
    if (PlayersInRoom) then (else)
        :Wait;
    else (NoOfPlayers > 1 and SomeoneClickStart)
        repeat
        :StartGame;
        repeat
            :StartMatch;
            :DistributeCards;
            :AnnounceTricks;
            :DisplayAnnouncements;
            :PlayRound;
            repeat
            :PlayerPlaysCard;
            repeat while (NotEveryonePlayed)
            :DisplayScore;
            backward: PlayNextRound;
        repeat while (MatchesPlayed < 9)
        :DisplayScoreBoard;
        backward: PlayAgain;
        repeat while (ThatWasFun)
        :LeaveRoom;
        stop
    endif
repeat while (MorePlayersJoin)
repeat while (SomeoneClickStart)

@enduml

PlantUML version 1.2022.2(Sat Mar 05 16:30:19 UTC 2022)
(GPL source distribution)
Java Runtime: OpenJDK Runtime Environment
JVM: OpenJDK 64-Bit Server VM
Default Encoding: UTF-8
Language: en
Country: null
--></g></svg>