<?xml version="1.0" encoding="UTF-8" standalone="no"?><svg xmlns="http://www.w3.org/2000/svg" xmlns:xlink="http://www.w3.org/1999/xlink" contentStyleType="text/css" height="961px" preserveAspectRatio="none" style="width:795px;height:961px;background:#FFFFFF;" version="1.1" viewBox="0 0 795 961" width="795px" zoomAndPan="magnify"><defs/><g><!--MD5=[2cb47ba637a0d19583e6199456f6ad0b]
class Player--><g id="elem_Player"><rect codeLine="1" fill="#F1F1F1" height="96.8906" id="Player" rx="2.5" ry="2.5" style="stroke:#181818;stroke-width:0.5;" width="136" x="430.5" y="7"/><ellipse cx="473.85" cy="23" fill="#ADD1B2" rx="11" ry="11" style="stroke:#181818;stroke-width:1.0;"/><path d="M476.8188,28.6406 Q476.2406,28.9375 475.6,29.0781 Q474.9594,29.2344 474.2563,29.2344 Q471.7563,29.2344 470.4281,27.5938 Q469.1156,25.9375 469.1156,22.8125 Q469.1156,19.6875 470.4281,18.0313 Q471.7563,16.375 474.2563,16.375 Q474.9594,16.375 475.6,16.5313 Q476.2563,16.6875 476.8188,16.9844 L476.8188,19.7031 Q476.1938,19.125 475.6,18.8594 Q475.0063,18.5781 474.3813,18.5781 Q473.0375,18.5781 472.35,19.6563 Q471.6625,20.7188 471.6625,22.8125 Q471.6625,24.9063 472.35,25.9844 Q473.0375,27.0469 474.3813,27.0469 Q475.0063,27.0469 475.6,26.7813 Q476.1938,26.5 476.8188,25.9219 L476.8188,28.6406 Z " fill="#000000"/><text fill="#000000" font-family="sans-serif" font-size="14" lengthAdjust="spacing" textLength="41" x="494.15" y="27.8467">Player</text><line style="stroke:#181818;stroke-width:0.5;" x1="431.5" x2="565.5" y1="39" y2="39"/><rect fill="none" height="6" style="stroke:#C82930;stroke-width:1.0;" width="6" x="438.5" y="47"/><text fill="#000000" font-family="sans-serif" font-size="14" lengthAdjust="spacing" textLength="46" x="450.5" y="55.9951">long id</text><rect fill="none" height="6" style="stroke:#C82930;stroke-width:1.0;" width="6" x="438.5" y="63.2969"/><text fill="#000000" font-family="sans-serif" font-size="14" lengthAdjust="spacing" textLength="83" x="450.5" y="72.292">String name</text><rect fill="none" height="6" style="stroke:#C82930;stroke-width:1.0;" width="6" x="438.5" y="79.5938"/><text fill="#000000" font-family="sans-serif" font-size="14" lengthAdjust="spacing" textLength="110" x="450.5" y="88.5889">String sessionId</text><line style="stroke:#181818;stroke-width:0.5;" x1="431.5" x2="565.5" y1="95.8906" y2="95.8906"/></g><!--MD5=[3fd616f346a44cd59a91eb10b19e157c]
class User--><g id="elem_User"><rect codeLine="7" fill="#F1F1F1" height="96.8906" id="User" rx="2.5" ry="2.5" style="stroke:#181818;stroke-width:0.5;" width="172" x="334.5" y="213"/><ellipse cx="400.25" cy="229" fill="#ADD1B2" rx="11" ry="11" style="stroke:#181818;stroke-width:1.0;"/><path d="M403.2188,234.6406 Q402.6406,234.9375 402,235.0781 Q401.3594,235.2344 400.6563,235.2344 Q398.1563,235.2344 396.8281,233.5938 Q395.5156,231.9375 395.5156,228.8125 Q395.5156,225.6875 396.8281,224.0313 Q398.1563,222.375 400.6563,222.375 Q401.3594,222.375 402,222.5313 Q402.6563,222.6875 403.2188,222.9844 L403.2188,225.7031 Q402.5938,225.125 402,224.8594 Q401.4063,224.5781 400.7813,224.5781 Q399.4375,224.5781 398.75,225.6563 Q398.0625,226.7188 398.0625,228.8125 Q398.0625,230.9063 398.75,231.9844 Q399.4375,233.0469 400.7813,233.0469 Q401.4063,233.0469 402,232.7813 Q402.5938,232.5 403.2188,231.9219 L403.2188,234.6406 Z " fill="#000000"/><text fill="#000000" font-family="sans-serif" font-size="14" lengthAdjust="spacing" textLength="32" x="420.75" y="233.8467">User</text><line style="stroke:#181818;stroke-width:0.5;" x1="335.5" x2="505.5" y1="245" y2="245"/><rect fill="none" height="6" style="stroke:#C82930;stroke-width:1.0;" width="6" x="342.5" y="253"/><text fill="#000000" font-family="sans-serif" font-size="14" lengthAdjust="spacing" textLength="46" x="354.5" y="261.9951">long id</text><rect fill="none" height="6" style="stroke:#C82930;stroke-width:1.0;" width="6" x="342.5" y="269.2969"/><text fill="#000000" font-family="sans-serif" font-size="14" lengthAdjust="spacing" textLength="114" x="354.5" y="278.292">String username</text><rect fill="none" height="6" style="stroke:#C82930;stroke-width:1.0;" width="6" x="342.5" y="285.5938"/><text fill="#000000" font-family="sans-serif" font-size="14" lengthAdjust="spacing" textLength="146" x="354.5" y="294.5889">String passwordHash</text><line style="stroke:#181818;stroke-width:0.5;" x1="335.5" x2="505.5" y1="301.8906" y2="301.8906"/></g><!--MD5=[48e88c162c5505361c629eb6ff3812a8]
class GameState--><g id="elem_GameState"><rect codeLine="13" fill="#F1F1F1" height="96.8906" id="GameState" rx="2.5" ry="2.5" style="stroke:#181818;stroke-width:0.5;" width="141" x="7" y="7"/><ellipse cx="36.4" cy="23" fill="#EB937F" rx="11" ry="11" style="stroke:#181818;stroke-width:1.0;"/><path d="M40.5094,29 L32.7906,29 L32.7906,16.6094 L40.5094,16.6094 L40.5094,18.7656 L35.2438,18.7656 L35.2438,21.4375 L40.0094,21.4375 L40.0094,23.5938 L35.2438,23.5938 L35.2438,26.8438 L40.5094,26.8438 L40.5094,29 Z " fill="#000000"/><text fill="#000000" font-family="sans-serif" font-size="14" lengthAdjust="spacing" textLength="77" x="53.6" y="27.8467">GameState</text><line style="stroke:#181818;stroke-width:0.5;" x1="8" x2="147" y1="39" y2="39"/><text fill="#000000" font-family="sans-serif" font-size="14" lengthAdjust="spacing" textLength="129" x="13" y="55.9951">FINDING_PLAYERS,</text><text fill="#000000" font-family="sans-serif" font-size="14" lengthAdjust="spacing" textLength="62" x="13" y="72.292">PLAYING,</text><text fill="#000000" font-family="sans-serif" font-size="14" lengthAdjust="spacing" textLength="57" x="13" y="88.5889">CLOSED</text><line style="stroke:#181818;stroke-width:0.5;" x1="8" x2="147" y1="95.8906" y2="95.8906"/></g><!--MD5=[b6dcce5e5ef3c84b0b048d11301373dd]
class Game--><g id="elem_Game"><rect codeLine="19" fill="#F1F1F1" height="96.8906" id="Game" rx="2.5" ry="2.5" style="stroke:#181818;stroke-width:0.5;" width="142" x="459.5" y="419"/><ellipse cx="505.75" cy="435" fill="#ADD1B2" rx="11" ry="11" style="stroke:#181818;stroke-width:1.0;"/><path d="M508.7188,440.6406 Q508.1406,440.9375 507.5,441.0781 Q506.8594,441.2344 506.1563,441.2344 Q503.6563,441.2344 502.3281,439.5938 Q501.0156,437.9375 501.0156,434.8125 Q501.0156,431.6875 502.3281,430.0313 Q503.6563,428.375 506.1563,428.375 Q506.8594,428.375 507.5,428.5313 Q508.1563,428.6875 508.7188,428.9844 L508.7188,431.7031 Q508.0938,431.125 507.5,430.8594 Q506.9063,430.5781 506.2813,430.5781 Q504.9375,430.5781 504.25,431.6563 Q503.5625,432.7188 503.5625,434.8125 Q503.5625,436.9063 504.25,437.9844 Q504.9375,439.0469 506.2813,439.0469 Q506.9063,439.0469 507.5,438.7813 Q508.0938,438.5 508.7188,437.9219 L508.7188,440.6406 Z " fill="#000000"/><text fill="#000000" font-family="sans-serif" font-size="14" lengthAdjust="spacing" textLength="41" x="526.25" y="439.8467">Game</text><line style="stroke:#181818;stroke-width:0.5;" x1="460.5" x2="600.5" y1="451" y2="451"/><rect fill="none" height="6" style="stroke:#C82930;stroke-width:1.0;" width="6" x="467.5" y="459"/><text fill="#000000" font-family="sans-serif" font-size="14" lengthAdjust="spacing" textLength="46" x="479.5" y="467.9951">long id</text><rect fill="none" height="6" style="stroke:#C82930;stroke-width:1.0;" width="6" x="467.5" y="475.2969"/><text fill="#000000" font-family="sans-serif" font-size="14" lengthAdjust="spacing" textLength="116" x="479.5" y="484.292">GameState state</text><rect fill="none" height="6" style="stroke:#C82930;stroke-width:1.0;" width="6" x="467.5" y="491.5938"/><text fill="#000000" font-family="sans-serif" font-size="14" lengthAdjust="spacing" textLength="83" x="479.5" y="500.5889">String name</text><line style="stroke:#181818;stroke-width:0.5;" x1="460.5" x2="600.5" y1="507.8906" y2="507.8906"/></g><!--MD5=[23bb12025fb3ea604555f955dd7f38e8]
class Participation--><g id="elem_Participation"><rect codeLine="25" fill="#F1F1F1" height="96.8906" id="Participation" rx="2.5" ry="2.5" style="stroke:#181818;stroke-width:0.5;" width="159" x="542" y="213"/><ellipse cx="576.35" cy="229" fill="#ADD1B2" rx="11" ry="11" style="stroke:#181818;stroke-width:1.0;"/><path d="M579.3188,234.6406 Q578.7406,234.9375 578.1,235.0781 Q577.4594,235.2344 576.7563,235.2344 Q574.2563,235.2344 572.9281,233.5938 Q571.6156,231.9375 571.6156,228.8125 Q571.6156,225.6875 572.9281,224.0313 Q574.2563,222.375 576.7563,222.375 Q577.4594,222.375 578.1,222.5313 Q578.7563,222.6875 579.3188,222.9844 L579.3188,225.7031 Q578.6938,225.125 578.1,224.8594 Q577.5063,224.5781 576.8813,224.5781 Q575.5375,224.5781 574.85,225.6563 Q574.1625,226.7188 574.1625,228.8125 Q574.1625,230.9063 574.85,231.9844 Q575.5375,233.0469 576.8813,233.0469 Q577.5063,233.0469 578.1,232.7813 Q578.6938,232.5 579.3188,231.9219 L579.3188,234.6406 Z " fill="#000000"/><text fill="#000000" font-family="sans-serif" font-size="14" lengthAdjust="spacing" textLength="84" x="594.65" y="233.8467">Participation</text><line style="stroke:#181818;stroke-width:0.5;" x1="543" x2="700" y1="245" y2="245"/><rect fill="none" height="6" style="stroke:#C82930;stroke-width:1.0;" width="6" x="550" y="253"/><text fill="#000000" font-family="sans-serif" font-size="14" lengthAdjust="spacing" textLength="46" x="562" y="261.9951">long id</text><rect fill="none" height="6" style="stroke:#C82930;stroke-width:1.0;" width="6" x="550" y="269.2969"/><text fill="#000000" font-family="sans-serif" font-size="14" lengthAdjust="spacing" textLength="100" x="562" y="278.292">boolean active</text><rect fill="none" height="6" style="stroke:#C82930;stroke-width:1.0;" width="6" x="550" y="285.5938"/><text fill="#000000" font-family="sans-serif" font-size="14" lengthAdjust="spacing" textLength="133" x="562" y="294.5889">Integer playerOrder</text><line style="stroke:#181818;stroke-width:0.5;" x1="543" x2="700" y1="301.8906" y2="301.8906"/></g><!--MD5=[5f0899136ed8f523b18ed05779c24112]
class Match--><g id="elem_Match"><rect codeLine="31" fill="#F1F1F1" height="96.8906" id="Match" rx="2.5" ry="2.5" style="stroke:#181818;stroke-width:0.5;" width="186" x="473.5" y="576"/><ellipse cx="541.25" cy="592" fill="#ADD1B2" rx="11" ry="11" style="stroke:#181818;stroke-width:1.0;"/><path d="M544.2188,597.6406 Q543.6406,597.9375 543,598.0781 Q542.3594,598.2344 541.6563,598.2344 Q539.1563,598.2344 537.8281,596.5938 Q536.5156,594.9375 536.5156,591.8125 Q536.5156,588.6875 537.8281,587.0313 Q539.1563,585.375 541.6563,585.375 Q542.3594,585.375 543,585.5313 Q543.6563,585.6875 544.2188,585.9844 L544.2188,588.7031 Q543.5938,588.125 543,587.8594 Q542.4063,587.5781 541.7813,587.5781 Q540.4375,587.5781 539.75,588.6563 Q539.0625,589.7188 539.0625,591.8125 Q539.0625,593.9063 539.75,594.9844 Q540.4375,596.0469 541.7813,596.0469 Q542.4063,596.0469 543,595.7813 Q543.5938,595.5 544.2188,594.9219 L544.2188,597.6406 Z " fill="#000000"/><text fill="#000000" font-family="sans-serif" font-size="14" lengthAdjust="spacing" textLength="42" x="561.75" y="596.8467">Match</text><line style="stroke:#181818;stroke-width:0.5;" x1="474.5" x2="658.5" y1="608" y2="608"/><rect fill="none" height="6" style="stroke:#C82930;stroke-width:1.0;" width="6" x="481.5" y="616"/><text fill="#000000" font-family="sans-serif" font-size="14" lengthAdjust="spacing" textLength="46" x="493.5" y="624.9951">long id</text><rect fill="none" height="6" style="stroke:#C82930;stroke-width:1.0;" width="6" x="481.5" y="632.2969"/><text fill="#000000" font-family="sans-serif" font-size="14" lengthAdjust="spacing" textLength="119" x="493.5" y="641.292">int matchNumber</text><rect fill="none" height="6" style="stroke:#C82930;stroke-width:1.0;" width="6" x="481.5" y="648.5938"/><text fill="#000000" font-family="sans-serif" font-size="14" lengthAdjust="spacing" textLength="160" x="493.5" y="657.5889">MatchState matchstate</text><line style="stroke:#181818;stroke-width:0.5;" x1="474.5" x2="658.5" y1="664.8906" y2="664.8906"/></g><!--MD5=[99f6b3a515749813b582928e9bdbe090]
class MatchState--><g id="elem_MatchState"><rect codeLine="37" fill="#F1F1F1" height="96.8906" id="MatchState" rx="2.5" ry="2.5" style="stroke:#181818;stroke-width:0.5;" width="167" x="183" y="7"/><ellipse cx="223.65" cy="23" fill="#EB937F" rx="11" ry="11" style="stroke:#181818;stroke-width:1.0;"/><path d="M227.7594,29 L220.0406,29 L220.0406,16.6094 L227.7594,16.6094 L227.7594,18.7656 L222.4938,18.7656 L222.4938,21.4375 L227.2594,21.4375 L227.2594,23.5938 L222.4938,23.5938 L222.4938,26.8438 L227.7594,26.8438 L227.7594,29 Z " fill="#000000"/><text fill="#000000" font-family="sans-serif" font-size="14" lengthAdjust="spacing" textLength="78" x="243.35" y="27.8467">MatchState</text><line style="stroke:#181818;stroke-width:0.5;" x1="184" x2="349" y1="39" y2="39"/><text fill="#000000" font-family="sans-serif" font-size="14" lengthAdjust="spacing" textLength="155" x="189" y="55.9951">ANNOUNCING_TRICKS,</text><text fill="#000000" font-family="sans-serif" font-size="14" lengthAdjust="spacing" textLength="118" x="189" y="72.292">PLAYING_CARDS,</text><text fill="#000000" font-family="sans-serif" font-size="14" lengthAdjust="spacing" textLength="63" x="189" y="88.5889">FINISHED</text><line style="stroke:#181818;stroke-width:0.5;" x1="184" x2="349" y1="95.8906" y2="95.8906"/></g><!--MD5=[b3a980551af4fb5504d75634056fd54d]
class Hand--><g id="elem_Hand"><rect codeLine="43" fill="#F1F1F1" height="64.2969" id="Hand" rx="2.5" ry="2.5" style="stroke:#181818;stroke-width:0.5;" width="152" x="636.5" y="435.5"/><ellipse cx="690.25" cy="451.5" fill="#ADD1B2" rx="11" ry="11" style="stroke:#181818;stroke-width:1.0;"/><path d="M693.2188,457.1406 Q692.6406,457.4375 692,457.5781 Q691.3594,457.7344 690.6563,457.7344 Q688.1563,457.7344 686.8281,456.0938 Q685.5156,454.4375 685.5156,451.3125 Q685.5156,448.1875 686.8281,446.5313 Q688.1563,444.875 690.6563,444.875 Q691.3594,444.875 692,445.0313 Q692.6563,445.1875 693.2188,445.4844 L693.2188,448.2031 Q692.5938,447.625 692,447.3594 Q691.4063,447.0781 690.7813,447.0781 Q689.4375,447.0781 688.75,448.1563 Q688.0625,449.2188 688.0625,451.3125 Q688.0625,453.4063 688.75,454.4844 Q689.4375,455.5469 690.7813,455.5469 Q691.4063,455.5469 692,455.2813 Q692.5938,455 693.2188,454.4219 L693.2188,457.1406 Z " fill="#000000"/><text fill="#000000" font-family="sans-serif" font-size="14" lengthAdjust="spacing" textLength="36" x="710.75" y="456.3467">Hand</text><line style="stroke:#181818;stroke-width:0.5;" x1="637.5" x2="787.5" y1="467.5" y2="467.5"/><text fill="#000000" font-family="sans-serif" font-size="14" lengthAdjust="spacing" textLength="140" x="642.5" y="484.4951">int announcedScore</text><line style="stroke:#181818;stroke-width:0.5;" x1="637.5" x2="787.5" y1="491.7969" y2="491.7969"/></g><!--MD5=[d75b0a238b734941260681f0026bbb88]
class Round--><g id="elem_Round"><rect codeLine="48" fill="#F1F1F1" height="80.5938" id="Round" rx="2.5" ry="2.5" style="stroke:#181818;stroke-width:0.5;" width="143" x="506" y="733"/><ellipse cx="550.25" cy="749" fill="#ADD1B2" rx="11" ry="11" style="stroke:#181818;stroke-width:1.0;"/><path d="M553.2188,754.6406 Q552.6406,754.9375 552,755.0781 Q551.3594,755.2344 550.6563,755.2344 Q548.1563,755.2344 546.8281,753.5938 Q545.5156,751.9375 545.5156,748.8125 Q545.5156,745.6875 546.8281,744.0313 Q548.1563,742.375 550.6563,742.375 Q551.3594,742.375 552,742.5313 Q552.6563,742.6875 553.2188,742.9844 L553.2188,745.7031 Q552.5938,745.125 552,744.8594 Q551.4063,744.5781 550.7813,744.5781 Q549.4375,744.5781 548.75,745.6563 Q548.0625,746.7188 548.0625,748.8125 Q548.0625,750.9063 548.75,751.9844 Q549.4375,753.0469 550.7813,753.0469 Q551.4063,753.0469 552,752.7813 Q552.5938,752.5 553.2188,751.9219 L553.2188,754.6406 Z " fill="#000000"/><text fill="#000000" font-family="sans-serif" font-size="14" lengthAdjust="spacing" textLength="46" x="570.75" y="753.8467">Round</text><line style="stroke:#181818;stroke-width:0.5;" x1="507" x2="648" y1="765" y2="765"/><rect fill="none" height="6" style="stroke:#C82930;stroke-width:1.0;" width="6" x="514" y="773"/><text fill="#000000" font-family="sans-serif" font-size="14" lengthAdjust="spacing" textLength="46" x="526" y="781.9951">long id</text><rect fill="none" height="6" style="stroke:#C82930;stroke-width:1.0;" width="6" x="514" y="789.2969"/><text fill="#000000" font-family="sans-serif" font-size="14" lengthAdjust="spacing" textLength="117" x="526" y="798.292">int roundNumber</text><line style="stroke:#181818;stroke-width:0.5;" x1="507" x2="648" y1="805.5938" y2="805.5938"/></g><!--MD5=[5e305716458bbdabbd2d7f572ed2bae2]
class Card--><g id="elem_Card"><rect codeLine="53" fill="#F1F1F1" height="80.5938" id="Card" rx="2.5" ry="2.5" style="stroke:#181818;stroke-width:0.5;" width="95" x="592" y="874"/><ellipse cx="620.95" cy="890" fill="#ADD1B2" rx="11" ry="11" style="stroke:#181818;stroke-width:1.0;"/><path d="M623.9188,895.6406 Q623.3406,895.9375 622.7,896.0781 Q622.0594,896.2344 621.3563,896.2344 Q618.8563,896.2344 617.5281,894.5938 Q616.2156,892.9375 616.2156,889.8125 Q616.2156,886.6875 617.5281,885.0313 Q618.8563,883.375 621.3563,883.375 Q622.0594,883.375 622.7,883.5313 Q623.3563,883.6875 623.9188,883.9844 L623.9188,886.7031 Q623.2938,886.125 622.7,885.8594 Q622.1063,885.5781 621.4813,885.5781 Q620.1375,885.5781 619.45,886.6563 Q618.7625,887.7188 618.7625,889.8125 Q618.7625,891.9063 619.45,892.9844 Q620.1375,894.0469 621.4813,894.0469 Q622.1063,894.0469 622.7,893.7813 Q623.2938,893.5 623.9188,892.9219 L623.9188,895.6406 Z " fill="#000000"/><text fill="#000000" font-family="sans-serif" font-size="14" lengthAdjust="spacing" textLength="32" x="638.05" y="894.8467">Card</text><line style="stroke:#181818;stroke-width:0.5;" x1="593" x2="686" y1="906" y2="906"/><rect fill="none" height="6" style="stroke:#C82930;stroke-width:1.0;" width="6" x="600" y="914"/><text fill="#000000" font-family="sans-serif" font-size="14" lengthAdjust="spacing" textLength="55" x="612" y="922.9951">Suit suit</text><rect fill="none" height="6" style="stroke:#C82930;stroke-width:1.0;" width="6" x="600" y="930.2969"/><text fill="#000000" font-family="sans-serif" font-size="14" lengthAdjust="spacing" textLength="69" x="612" y="939.292">Rank rank</text><line style="stroke:#181818;stroke-width:0.5;" x1="593" x2="686" y1="946.5938" y2="946.5938"/></g><!--MD5=[8afaa0cc9be9ac1cdc24999fa1642fa3]
class Suit--><g id="elem_Suit"><rect codeLine="58" fill="#F1F1F1" height="113.1875" id="Suit" rx="2.5" ry="2.5" style="stroke:#181818;stroke-width:0.5;" width="83" x="36" y="205"/><ellipse cx="62.25" cy="221" fill="#EB937F" rx="11" ry="11" style="stroke:#181818;stroke-width:1.0;"/><path d="M66.3594,227 L58.6406,227 L58.6406,214.6094 L66.3594,214.6094 L66.3594,216.7656 L61.0938,216.7656 L61.0938,219.4375 L65.8594,219.4375 L65.8594,221.5938 L61.0938,221.5938 L61.0938,224.8438 L66.3594,224.8438 L66.3594,227 Z " fill="#000000"/><text fill="#000000" font-family="sans-serif" font-size="14" lengthAdjust="spacing" textLength="26" x="78.75" y="225.8467">Suit</text><line style="stroke:#181818;stroke-width:0.5;" x1="37" x2="118" y1="237" y2="237"/><text fill="#000000" font-family="sans-serif" font-size="14" lengthAdjust="spacing" textLength="41" x="42" y="253.9951">CLUB,</text><text fill="#000000" font-family="sans-serif" font-size="14" lengthAdjust="spacing" textLength="71" x="42" y="270.292">DIAMOND,</text><text fill="#000000" font-family="sans-serif" font-size="14" lengthAdjust="spacing" textLength="51" x="42" y="286.5889">HEART,</text><text fill="#000000" font-family="sans-serif" font-size="14" lengthAdjust="spacing" textLength="47" x="42" y="302.8857">SPADE</text><line style="stroke:#181818;stroke-width:0.5;" x1="37" x2="118" y1="310.1875" y2="310.1875"/></g><!--MD5=[0f690a215a17a0cf4b9f948ca5dd1b3e]
class Rank--><g id="elem_Rank"><rect codeLine="65" fill="#F1F1F1" height="194.6719" id="Rank" rx="2.5" ry="2.5" style="stroke:#181818;stroke-width:0.5;" width="67" x="154" y="164"/><ellipse cx="169" cy="180" fill="#EB937F" rx="11" ry="11" style="stroke:#181818;stroke-width:1.0;"/><path d="M173.1094,186 L165.3906,186 L165.3906,173.6094 L173.1094,173.6094 L173.1094,175.7656 L167.8438,175.7656 L167.8438,178.4375 L172.6094,178.4375 L172.6094,180.5938 L167.8438,180.5938 L167.8438,183.8438 L173.1094,183.8438 L173.1094,186 Z " fill="#000000"/><text fill="#000000" font-family="sans-serif" font-size="14" lengthAdjust="spacing" textLength="35" x="183" y="184.8467">Rank</text><line style="stroke:#181818;stroke-width:0.5;" x1="155" x2="220" y1="196" y2="196"/><text fill="#000000" font-family="sans-serif" font-size="14" lengthAdjust="spacing" textLength="32" x="160" y="212.9951">ACE,</text><text fill="#000000" font-family="sans-serif" font-size="14" lengthAdjust="spacing" textLength="25" x="160" y="229.292">SIX,</text><text fill="#000000" font-family="sans-serif" font-size="14" lengthAdjust="spacing" textLength="50" x="160" y="245.5889">SEVEN,</text><text fill="#000000" font-family="sans-serif" font-size="14" lengthAdjust="spacing" textLength="46" x="160" y="261.8857">EIGHT,</text><text fill="#000000" font-family="sans-serif" font-size="14" lengthAdjust="spacing" textLength="36" x="160" y="278.1826">NINE,</text><text fill="#000000" font-family="sans-serif" font-size="14" lengthAdjust="spacing" textLength="32" x="160" y="294.4795">TEN,</text><text fill="#000000" font-family="sans-serif" font-size="14" lengthAdjust="spacing" textLength="35" x="160" y="310.7764">JACK,</text><text fill="#000000" font-family="sans-serif" font-size="14" lengthAdjust="spacing" textLength="53" x="160" y="327.0732">QUEEN,</text><text fill="#000000" font-family="sans-serif" font-size="14" lengthAdjust="spacing" textLength="33" x="160" y="343.3701">KING</text><line style="stroke:#181818;stroke-width:0.5;" x1="155" x2="220" y1="350.6719" y2="350.6719"/></g><!--MD5=[831236ba57dae0bc776a9527ec9f7aa2]
link Player to User--><g id="link_Player_User"><path codeLine="77" d="M480.31,104.07 C467.8,136.8 451.24,180.11 438.72,212.85 " fill="none" id="Player-User" style="stroke:#181818;stroke-width:1.0;"/><text fill="#000000" font-family="sans-serif" font-size="13" lengthAdjust="spacing" textLength="7" x="470.2598" y="124.0388">*</text><text fill="#000000" font-family="sans-serif" font-size="13" lengthAdjust="spacing" textLength="8" x="432.7197" y="202.0378">1</text></g><!--MD5=[2948b15446720d046723ef865ff3eac8]
link Player to Participation--><g id="link_Player_Participation"><path codeLine="78" d="M527.18,104.07 C546.92,136.8 573.03,180.11 592.77,212.85 " fill="none" id="Player-Participation" style="stroke:#181818;stroke-width:1.0;"/><text fill="#000000" font-family="sans-serif" font-size="13" lengthAdjust="spacing" textLength="8" x="522.6506" y="124.0388">1</text><text fill="#000000" font-family="sans-serif" font-size="13" lengthAdjust="spacing" textLength="7" x="581.2377" y="202.0378">*</text></g><!--MD5=[dbf2e35fe06e7f5c60e786b569169e48]
link Participation to Game--><g id="link_Participation_Game"><path codeLine="80" d="M600.28,310.07 C585.68,342.8 566.36,386.11 551.75,418.85 " fill="none" id="Participation-Game" style="stroke:#181818;stroke-width:1.0;"/><text fill="#000000" font-family="sans-serif" font-size="13" lengthAdjust="spacing" textLength="7" x="589.8037" y="330.0388">*</text><text fill="#000000" font-family="sans-serif" font-size="13" lengthAdjust="spacing" textLength="8" x="546.1758" y="408.0378">1</text></g><!--MD5=[4a26cb6579843e3e14e1f7ba4255fdc5]
link Participation to Hand--><g id="link_Participation_Hand"><path codeLine="81" d="M642.72,310.07 C659.95,348.69 683.74,402.03 698.62,435.37 " fill="none" id="Participation-Hand" style="stroke:#181818;stroke-width:1.0;"/><text fill="#000000" font-family="sans-serif" font-size="13" lengthAdjust="spacing" textLength="8" x="637.1416" y="330.0388">1</text><text fill="#000000" font-family="sans-serif" font-size="13" lengthAdjust="spacing" textLength="7" x="688.0354" y="424.2463">*</text></g><!--MD5=[ebc4fdae77490ce4a26bbddba5e34eab]
link Hand to Match--><g id="link_Hand_Match"><path codeLine="83" d="M682.95,499.87 C662.37,521.72 634.55,551.26 611.26,575.98 " fill="none" id="Hand-Match" style="stroke:#181818;stroke-width:1.0;"/><text fill="#000000" font-family="sans-serif" font-size="13" lengthAdjust="spacing" textLength="7" x="669.4433" y="519.7702">*</text><text fill="#000000" font-family="sans-serif" font-size="13" lengthAdjust="spacing" textLength="8" x="609.2466" y="564.8367">1</text></g><!--MD5=[2f16b817737525477c59504130fd53f7]
link Hand to Card--><g id="link_Hand_Card"><path codeLine="84" d="M709.75,499.7 C704.06,560.56 689.61,699.21 666.5,814 C662.51,833.83 656.78,855.54 651.63,873.61 " fill="none" id="Hand-Card" style="stroke:#181818;stroke-width:1.0;"/><text fill="#000000" font-family="sans-serif" font-size="13" lengthAdjust="spacing" textLength="8" x="700.3578" y="519.9381">1</text><text fill="#000000" font-family="sans-serif" font-size="13" lengthAdjust="spacing" textLength="24" x="627.6507" y="863.0077">1..5</text></g><!--MD5=[70c92096be01b0f4dd26a6744feaffbd]
link Game to Match--><g id="link_Game_Match"><path codeLine="86" d="M541.59,516.27 C546,535.22 551.04,556.96 555.44,575.89 " fill="none" id="Game-Match" style="stroke:#181818;stroke-width:1.0;"/><text fill="#000000" font-family="sans-serif" font-size="13" lengthAdjust="spacing" textLength="8" x="534.5427" y="535.9144">1</text><text fill="#000000" font-family="sans-serif" font-size="13" lengthAdjust="spacing" textLength="24" x="528.1972" y="565.0835">1..9</text></g><!--MD5=[7a51bdac25b04a43197b4f59647f1e71]
link Match to Round--><g id="link_Match_Round"><path codeLine="88" d="M570.07,673.23 C571.51,692.51 573.16,714.5 574.53,732.88 " fill="none" id="Match-Round" style="stroke:#181818;stroke-width:1.0;"/><text fill="#000000" font-family="sans-serif" font-size="13" lengthAdjust="spacing" textLength="8" x="562.0122" y="692.8691">1</text><text fill="#000000" font-family="sans-serif" font-size="13" lengthAdjust="spacing" textLength="24" x="548.0506" y="722.0217">1..5</text></g><!--MD5=[dabd1d0dea4e282335ad7f4495eecc99]
link Round to Card--><g id="link_Round_Card"><path codeLine="90" d="M595.27,814.33 C603.57,832.94 613.43,855.05 621.73,873.66 " fill="none" id="Round-Card" style="stroke:#181818;stroke-width:1.0;"/><text fill="#000000" font-family="sans-serif" font-size="13" lengthAdjust="spacing" textLength="8" x="589.2925" y="833.535">1</text><text fill="#000000" font-family="sans-serif" font-size="13" lengthAdjust="spacing" textLength="24" x="592.9854" y="863.0657">1..7</text></g><!--MD5=[73fb65a6a03c8791848a6c4b89986757]
link GameState to MatchState--></g></svg>