<?xml version="1.0" encoding="UTF-8" standalone="no"?><svg xmlns="http://www.w3.org/2000/svg" xmlns:xlink="http://www.w3.org/1999/xlink" contentStyleType="text/css" height="1123px" preserveAspectRatio="none" style="width:997px;height:1123px;background:#FFFFFF;" version="1.1" viewBox="0 0 997 1123" width="997px" zoomAndPan="magnify"><defs/><g><!--MD5=[2cb47ba637a0d19583e6199456f6ad0b]
class Player--><g id="elem_Player"><rect codeLine="1" fill="#F1F1F1" height="96.8906" id="Player" rx="2.5" ry="2.5" style="stroke:#181818;stroke-width:0.5;" width="136" x="448.5" y="7"/><ellipse cx="491.85" cy="23" fill="#ADD1B2" rx="11" ry="11" style="stroke:#181818;stroke-width:1.0;"/><path d="M494.8188,28.6406 Q494.2406,28.9375 493.6,29.0781 Q492.9594,29.2344 492.2563,29.2344 Q489.7563,29.2344 488.4281,27.5938 Q487.1156,25.9375 487.1156,22.8125 Q487.1156,19.6875 488.4281,18.0313 Q489.7563,16.375 492.2563,16.375 Q492.9594,16.375 493.6,16.5313 Q494.2563,16.6875 494.8188,16.9844 L494.8188,19.7031 Q494.1938,19.125 493.6,18.8594 Q493.0063,18.5781 492.3813,18.5781 Q491.0375,18.5781 490.35,19.6563 Q489.6625,20.7188 489.6625,22.8125 Q489.6625,24.9063 490.35,25.9844 Q491.0375,27.0469 492.3813,27.0469 Q493.0063,27.0469 493.6,26.7813 Q494.1938,26.5 494.8188,25.9219 L494.8188,28.6406 Z " fill="#000000"/><text fill="#000000" font-family="sans-serif" font-size="14" lengthAdjust="spacing" textLength="41" x="512.15" y="27.8467">Player</text><line style="stroke:#181818;stroke-width:0.5;" x1="449.5" x2="583.5" y1="39" y2="39"/><rect fill="none" height="6" style="stroke:#C82930;stroke-width:1.0;" width="6" x="456.5" y="47"/><text fill="#000000" font-family="sans-serif" font-size="14" lengthAdjust="spacing" textLength="46" x="468.5" y="55.9951">long id</text><rect fill="none" height="6" style="stroke:#C82930;stroke-width:1.0;" width="6" x="456.5" y="63.2969"/><text fill="#000000" font-family="sans-serif" font-size="14" lengthAdjust="spacing" textLength="83" x="468.5" y="72.292">String name</text><rect fill="none" height="6" style="stroke:#C82930;stroke-width:1.0;" width="6" x="456.5" y="79.5938"/><text fill="#000000" font-family="sans-serif" font-size="14" lengthAdjust="spacing" textLength="110" x="468.5" y="88.5889">String sessionId</text><line style="stroke:#181818;stroke-width:0.5;" x1="449.5" x2="583.5" y1="95.8906" y2="95.8906"/></g><!--MD5=[3fd616f346a44cd59a91eb10b19e157c]
class User--><g id="elem_User"><rect codeLine="7" fill="#F1F1F1" height="96.8906" id="User" rx="2.5" ry="2.5" style="stroke:#181818;stroke-width:0.5;" width="172" x="361.5" y="213"/><ellipse cx="427.25" cy="229" fill="#ADD1B2" rx="11" ry="11" style="stroke:#181818;stroke-width:1.0;"/><path d="M430.2188,234.6406 Q429.6406,234.9375 429,235.0781 Q428.3594,235.2344 427.6563,235.2344 Q425.1563,235.2344 423.8281,233.5938 Q422.5156,231.9375 422.5156,228.8125 Q422.5156,225.6875 423.8281,224.0313 Q425.1563,222.375 427.6563,222.375 Q428.3594,222.375 429,222.5313 Q429.6563,222.6875 430.2188,222.9844 L430.2188,225.7031 Q429.5938,225.125 429,224.8594 Q428.4063,224.5781 427.7813,224.5781 Q426.4375,224.5781 425.75,225.6563 Q425.0625,226.7188 425.0625,228.8125 Q425.0625,230.9063 425.75,231.9844 Q426.4375,233.0469 427.7813,233.0469 Q428.4063,233.0469 429,232.7813 Q429.5938,232.5 430.2188,231.9219 L430.2188,234.6406 Z " fill="#000000"/><text fill="#000000" font-family="sans-serif" font-size="14" lengthAdjust="spacing" textLength="32" x="447.75" y="233.8467">User</text><line style="stroke:#181818;stroke-width:0.5;" x1="362.5" x2="532.5" y1="245" y2="245"/><rect fill="none" height="6" style="stroke:#C82930;stroke-width:1.0;" width="6" x="369.5" y="253"/><text fill="#000000" font-family="sans-serif" font-size="14" lengthAdjust="spacing" textLength="46" x="381.5" y="261.9951">long id</text><rect fill="none" height="6" style="stroke:#C82930;stroke-width:1.0;" width="6" x="369.5" y="269.2969"/><text fill="#000000" font-family="sans-serif" font-size="14" lengthAdjust="spacing" textLength="114" x="381.5" y="278.292">String username</text><rect fill="none" height="6" style="stroke:#C82930;stroke-width:1.0;" width="6" x="369.5" y="285.5938"/><text fill="#000000" font-family="sans-serif" font-size="14" lengthAdjust="spacing" textLength="146" x="381.5" y="294.5889">String passwordHash</text><line style="stroke:#181818;stroke-width:0.5;" x1="362.5" x2="532.5" y1="301.8906" y2="301.8906"/></g><!--MD5=[48e88c162c5505361c629eb6ff3812a8]
class GameState--><g id="elem_GameState"><rect codeLine="13" fill="#F1F1F1" height="96.8906" id="GameState" rx="2.5" ry="2.5" style="stroke:#181818;stroke-width:0.5;" width="141" x="7" y="7"/><ellipse cx="36.4" cy="23" fill="#EB937F" rx="11" ry="11" style="stroke:#181818;stroke-width:1.0;"/><path d="M40.5094,29 L32.7906,29 L32.7906,16.6094 L40.5094,16.6094 L40.5094,18.7656 L35.2438,18.7656 L35.2438,21.4375 L40.0094,21.4375 L40.0094,23.5938 L35.2438,23.5938 L35.2438,26.8438 L40.5094,26.8438 L40.5094,29 Z " fill="#000000"/><text fill="#000000" font-family="sans-serif" font-size="14" lengthAdjust="spacing" textLength="77" x="53.6" y="27.8467">GameState</text><line style="stroke:#181818;stroke-width:0.5;" x1="8" x2="147" y1="39" y2="39"/><text fill="#000000" font-family="sans-serif" font-size="14" lengthAdjust="spacing" textLength="129" x="13" y="55.9951">FINDING_PLAYERS,</text><text fill="#000000" font-family="sans-serif" font-size="14" lengthAdjust="spacing" textLength="62" x="13" y="72.292">PLAYING,</text><text fill="#000000" font-family="sans-serif" font-size="14" lengthAdjust="spacing" textLength="57" x="13" y="88.5889">CLOSED</text><line style="stroke:#181818;stroke-width:0.5;" x1="8" x2="147" y1="95.8906" y2="95.8906"/></g><!--MD5=[b6dcce5e5ef3c84b0b048d11301373dd]
class Game--><g id="elem_Game"><rect codeLine="19" fill="#F1F1F1" height="129.4844" id="Game" rx="2.5" ry="2.5" style="stroke:#181818;stroke-width:0.5;" width="257" x="393" y="419"/><ellipse cx="496.75" cy="435" fill="#ADD1B2" rx="11" ry="11" style="stroke:#181818;stroke-width:1.0;"/><path d="M499.7188,440.6406 Q499.1406,440.9375 498.5,441.0781 Q497.8594,441.2344 497.1563,441.2344 Q494.6563,441.2344 493.3281,439.5938 Q492.0156,437.9375 492.0156,434.8125 Q492.0156,431.6875 493.3281,430.0313 Q494.6563,428.375 497.1563,428.375 Q497.8594,428.375 498.5,428.5313 Q499.1563,428.6875 499.7188,428.9844 L499.7188,431.7031 Q499.0938,431.125 498.5,430.8594 Q497.9063,430.5781 497.2813,430.5781 Q495.9375,430.5781 495.25,431.6563 Q494.5625,432.7188 494.5625,434.8125 Q494.5625,436.9063 495.25,437.9844 Q495.9375,439.0469 497.2813,439.0469 Q497.9063,439.0469 498.5,438.7813 Q499.0938,438.5 499.7188,437.9219 L499.7188,440.6406 Z " fill="#000000"/><text fill="#000000" font-family="sans-serif" font-size="14" lengthAdjust="spacing" textLength="41" x="517.25" y="439.8467">Game</text><line style="stroke:#181818;stroke-width:0.5;" x1="394" x2="649" y1="451" y2="451"/><rect fill="none" height="6" style="stroke:#C82930;stroke-width:1.0;" width="6" x="401" y="459"/><text fill="#000000" font-family="sans-serif" font-size="14" lengthAdjust="spacing" textLength="46" x="413" y="467.9951">long id</text><rect fill="none" height="6" style="stroke:#C82930;stroke-width:1.0;" width="6" x="401" y="475.2969"/><text fill="#000000" font-family="sans-serif" font-size="14" lengthAdjust="spacing" textLength="116" x="413" y="484.292">GameState state</text><rect fill="none" height="6" style="stroke:#C82930;stroke-width:1.0;" width="6" x="401" y="491.5938"/><text fill="#000000" font-family="sans-serif" font-size="14" lengthAdjust="spacing" textLength="83" x="413" y="500.5889">String name</text><line style="stroke:#181818;stroke-width:0.5;" x1="394" x2="649" y1="507.8906" y2="507.8906"/><ellipse cx="404" cy="518.8906" fill="#84BE84" rx="3" ry="3" style="stroke:#038048;stroke-width:1.0;"/><text fill="#000000" font-family="sans-serif" font-size="14" lengthAdjust="spacing" textLength="231" x="413" y="524.8857">List&lt;Match&gt; getSortedMatches()</text><ellipse cx="404" cy="535.1875" fill="#84BE84" rx="3" ry="3" style="stroke:#038048;stroke-width:1.0;"/><text fill="#000000" font-family="sans-serif" font-size="14" lengthAdjust="spacing" textLength="230" x="413" y="541.1826">Optional&lt;Match&gt; getLastMatch()</text></g><!--MD5=[23bb12025fb3ea604555f955dd7f38e8]
class Participation--><g id="elem_Participation"><rect codeLine="27" fill="#F1F1F1" height="96.8906" id="Participation" rx="2.5" ry="2.5" style="stroke:#181818;stroke-width:0.5;" width="159" x="569" y="213"/><ellipse cx="603.35" cy="229" fill="#ADD1B2" rx="11" ry="11" style="stroke:#181818;stroke-width:1.0;"/><path d="M606.3188,234.6406 Q605.7406,234.9375 605.1,235.0781 Q604.4594,235.2344 603.7563,235.2344 Q601.2563,235.2344 599.9281,233.5938 Q598.6156,231.9375 598.6156,228.8125 Q598.6156,225.6875 599.9281,224.0313 Q601.2563,222.375 603.7563,222.375 Q604.4594,222.375 605.1,222.5313 Q605.7563,222.6875 606.3188,222.9844 L606.3188,225.7031 Q605.6938,225.125 605.1,224.8594 Q604.5063,224.5781 603.8813,224.5781 Q602.5375,224.5781 601.85,225.6563 Q601.1625,226.7188 601.1625,228.8125 Q601.1625,230.9063 601.85,231.9844 Q602.5375,233.0469 603.8813,233.0469 Q604.5063,233.0469 605.1,232.7813 Q605.6938,232.5 606.3188,231.9219 L606.3188,234.6406 Z " fill="#000000"/><text fill="#000000" font-family="sans-serif" font-size="14" lengthAdjust="spacing" textLength="84" x="621.65" y="233.8467">Participation</text><line style="stroke:#181818;stroke-width:0.5;" x1="570" x2="727" y1="245" y2="245"/><rect fill="none" height="6" style="stroke:#C82930;stroke-width:1.0;" width="6" x="577" y="253"/><text fill="#000000" font-family="sans-serif" font-size="14" lengthAdjust="spacing" textLength="46" x="589" y="261.9951">long id</text><rect fill="none" height="6" style="stroke:#C82930;stroke-width:1.0;" width="6" x="577" y="269.2969"/><text fill="#000000" font-family="sans-serif" font-size="14" lengthAdjust="spacing" textLength="100" x="589" y="278.292">boolean active</text><rect fill="none" height="6" style="stroke:#C82930;stroke-width:1.0;" width="6" x="577" y="285.5938"/><text fill="#000000" font-family="sans-serif" font-size="14" lengthAdjust="spacing" textLength="133" x="589" y="294.5889">Integer playerOrder</text><line style="stroke:#181818;stroke-width:0.5;" x1="570" x2="727" y1="301.8906" y2="301.8906"/></g><!--MD5=[5f0899136ed8f523b18ed05779c24112]
class Match--><g id="elem_Match"><rect codeLine="33" fill="#F1F1F1" height="162.0781" id="Match" rx="2.5" ry="2.5" style="stroke:#181818;stroke-width:0.5;" width="264" x="445.5" y="608"/><ellipse cx="552.25" cy="624" fill="#ADD1B2" rx="11" ry="11" style="stroke:#181818;stroke-width:1.0;"/><path d="M555.2188,629.6406 Q554.6406,629.9375 554,630.0781 Q553.3594,630.2344 552.6563,630.2344 Q550.1563,630.2344 548.8281,628.5938 Q547.5156,626.9375 547.5156,623.8125 Q547.5156,620.6875 548.8281,619.0313 Q550.1563,617.375 552.6563,617.375 Q553.3594,617.375 554,617.5313 Q554.6563,617.6875 555.2188,617.9844 L555.2188,620.7031 Q554.5938,620.125 554,619.8594 Q553.4063,619.5781 552.7813,619.5781 Q551.4375,619.5781 550.75,620.6563 Q550.0625,621.7188 550.0625,623.8125 Q550.0625,625.9063 550.75,626.9844 Q551.4375,628.0469 552.7813,628.0469 Q553.4063,628.0469 554,627.7813 Q554.5938,627.5 555.2188,626.9219 L555.2188,629.6406 Z " fill="#000000"/><text fill="#000000" font-family="sans-serif" font-size="14" lengthAdjust="spacing" textLength="42" x="572.75" y="628.8467">Match</text><line style="stroke:#181818;stroke-width:0.5;" x1="446.5" x2="708.5" y1="640" y2="640"/><rect fill="none" height="6" style="stroke:#C82930;stroke-width:1.0;" width="6" x="453.5" y="648"/><text fill="#000000" font-family="sans-serif" font-size="14" lengthAdjust="spacing" textLength="46" x="465.5" y="656.9951">long id</text><rect fill="none" height="6" style="stroke:#C82930;stroke-width:1.0;" width="6" x="453.5" y="664.2969"/><text fill="#000000" font-family="sans-serif" font-size="14" lengthAdjust="spacing" textLength="119" x="465.5" y="673.292">int matchNumber</text><rect fill="none" height="6" style="stroke:#C82930;stroke-width:1.0;" width="6" x="453.5" y="680.5938"/><text fill="#000000" font-family="sans-serif" font-size="14" lengthAdjust="spacing" textLength="160" x="465.5" y="689.5889">MatchState matchstate</text><line style="stroke:#181818;stroke-width:0.5;" x1="446.5" x2="708.5" y1="696.8906" y2="696.8906"/><ellipse cx="456.5" cy="707.8906" fill="#84BE84" rx="3" ry="3" style="stroke:#038048;stroke-width:1.0;"/><text fill="#000000" font-family="sans-serif" font-size="14" lengthAdjust="spacing" textLength="218" x="465.5" y="713.8857">List&lt;Hands&gt; getSortedHands()</text><ellipse cx="456.5" cy="724.1875" fill="#84BE84" rx="3" ry="3" style="stroke:#038048;stroke-width:1.0;"/><text fill="#000000" font-family="sans-serif" font-size="14" lengthAdjust="spacing" textLength="230" x="465.5" y="730.1826">List&lt;Round&gt; getSortedRounds()</text><ellipse cx="456.5" cy="740.4844" fill="#84BE84" rx="3" ry="3" style="stroke:#038048;stroke-width:1.0;"/><text fill="#000000" font-family="sans-serif" font-size="14" lengthAdjust="spacing" textLength="212" x="465.5" y="746.4795">boolean allScoresAnnounced()</text><ellipse cx="456.5" cy="756.7813" fill="#84BE84" rx="3" ry="3" style="stroke:#038048;stroke-width:1.0;"/><text fill="#000000" font-family="sans-serif" font-size="14" lengthAdjust="spacing" textLength="238" x="465.5" y="762.7764">Optional&lt;Round&gt; getLastRound()</text></g><!--MD5=[99f6b3a515749813b582928e9bdbe090]
class MatchState--><g id="elem_MatchState"><rect codeLine="43" fill="#F1F1F1" height="96.8906" id="MatchState" rx="2.5" ry="2.5" style="stroke:#181818;stroke-width:0.5;" width="167" x="183" y="7"/><ellipse cx="223.65" cy="23" fill="#EB937F" rx="11" ry="11" style="stroke:#181818;stroke-width:1.0;"/><path d="M227.7594,29 L220.0406,29 L220.0406,16.6094 L227.7594,16.6094 L227.7594,18.7656 L222.4938,18.7656 L222.4938,21.4375 L227.2594,21.4375 L227.2594,23.5938 L222.4938,23.5938 L222.4938,26.8438 L227.7594,26.8438 L227.7594,29 Z " fill="#000000"/><text fill="#000000" font-family="sans-serif" font-size="14" lengthAdjust="spacing" textLength="78" x="243.35" y="27.8467">MatchState</text><line style="stroke:#181818;stroke-width:0.5;" x1="184" x2="349" y1="39" y2="39"/><text fill="#000000" font-family="sans-serif" font-size="14" lengthAdjust="spacing" textLength="155" x="189" y="55.9951">ANNOUNCING_TRICKS,</text><text fill="#000000" font-family="sans-serif" font-size="14" lengthAdjust="spacing" textLength="118" x="189" y="72.292">PLAYING_CARDS,</text><text fill="#000000" font-family="sans-serif" font-size="14" lengthAdjust="spacing" textLength="63" x="189" y="88.5889">FINISHED</text><line style="stroke:#181818;stroke-width:0.5;" x1="184" x2="349" y1="95.8906" y2="95.8906"/></g><!--MD5=[b3a980551af4fb5504d75634056fd54d]
class Hand--><g id="elem_Hand"><rect codeLine="49" fill="#F1F1F1" height="80.5938" id="Hand" rx="2.5" ry="2.5" style="stroke:#181818;stroke-width:0.5;" width="180" x="685.5" y="443"/><ellipse cx="753.25" cy="459" fill="#ADD1B2" rx="11" ry="11" style="stroke:#181818;stroke-width:1.0;"/><path d="M756.2188,464.6406 Q755.6406,464.9375 755,465.0781 Q754.3594,465.2344 753.6563,465.2344 Q751.1563,465.2344 749.8281,463.5938 Q748.5156,461.9375 748.5156,458.8125 Q748.5156,455.6875 749.8281,454.0313 Q751.1563,452.375 753.6563,452.375 Q754.3594,452.375 755,452.5313 Q755.6563,452.6875 756.2188,452.9844 L756.2188,455.7031 Q755.5938,455.125 755,454.8594 Q754.4063,454.5781 753.7813,454.5781 Q752.4375,454.5781 751.75,455.6563 Q751.0625,456.7188 751.0625,458.8125 Q751.0625,460.9063 751.75,461.9844 Q752.4375,463.0469 753.7813,463.0469 Q754.4063,463.0469 755,462.7813 Q755.5938,462.5 756.2188,461.9219 L756.2188,464.6406 Z " fill="#000000"/><text fill="#000000" font-family="sans-serif" font-size="14" lengthAdjust="spacing" textLength="36" x="773.75" y="463.8467">Hand</text><line style="stroke:#181818;stroke-width:0.5;" x1="686.5" x2="864.5" y1="475" y2="475"/><rect fill="none" height="6" style="stroke:#C82930;stroke-width:1.0;" width="6" x="693.5" y="483"/><text fill="#000000" font-family="sans-serif" font-size="14" lengthAdjust="spacing" textLength="140" x="705.5" y="491.9951">int announcedScore</text><line style="stroke:#181818;stroke-width:0.5;" x1="686.5" x2="864.5" y1="499.2969" y2="499.2969"/><ellipse cx="696.5" cy="510.2969" fill="#84BE84" rx="3" ry="3" style="stroke:#038048;stroke-width:1.0;"/><text fill="#000000" font-family="sans-serif" font-size="14" lengthAdjust="spacing" textLength="154" x="705.5" y="516.292">boolean isTurnActive()</text></g><!--MD5=[d75b0a238b734941260681f0026bbb88]
class Round--><g id="elem_Round"><rect codeLine="55" fill="#F1F1F1" height="96.8906" id="Round" rx="2.5" ry="2.5" style="stroke:#181818;stroke-width:0.5;" width="290" x="432.5" y="830"/><ellipse cx="550.25" cy="846" fill="#ADD1B2" rx="11" ry="11" style="stroke:#181818;stroke-width:1.0;"/><path d="M553.2188,851.6406 Q552.6406,851.9375 552,852.0781 Q551.3594,852.2344 550.6563,852.2344 Q548.1563,852.2344 546.8281,850.5938 Q545.5156,848.9375 545.5156,845.8125 Q545.5156,842.6875 546.8281,841.0313 Q548.1563,839.375 550.6563,839.375 Q551.3594,839.375 552,839.5313 Q552.6563,839.6875 553.2188,839.9844 L553.2188,842.7031 Q552.5938,842.125 552,841.8594 Q551.4063,841.5781 550.7813,841.5781 Q549.4375,841.5781 548.75,842.6563 Q548.0625,843.7188 548.0625,845.8125 Q548.0625,847.9063 548.75,848.9844 Q549.4375,850.0469 550.7813,850.0469 Q551.4063,850.0469 552,849.7813 Q552.5938,849.5 553.2188,848.9219 L553.2188,851.6406 Z " fill="#000000"/><text fill="#000000" font-family="sans-serif" font-size="14" lengthAdjust="spacing" textLength="46" x="570.75" y="850.8467">Round</text><line style="stroke:#181818;stroke-width:0.5;" x1="433.5" x2="721.5" y1="862" y2="862"/><rect fill="none" height="6" style="stroke:#C82930;stroke-width:1.0;" width="6" x="440.5" y="870"/><text fill="#000000" font-family="sans-serif" font-size="14" lengthAdjust="spacing" textLength="46" x="452.5" y="878.9951">long id</text><rect fill="none" height="6" style="stroke:#C82930;stroke-width:1.0;" width="6" x="440.5" y="886.2969"/><text fill="#000000" font-family="sans-serif" font-size="14" lengthAdjust="spacing" textLength="117" x="452.5" y="895.292">int roundNumber</text><line style="stroke:#181818;stroke-width:0.5;" x1="433.5" x2="721.5" y1="902.5938" y2="902.5938"/><ellipse cx="443.5" cy="913.5938" fill="#84BE84" rx="3" ry="3" style="stroke:#038048;stroke-width:1.0;"/><text fill="#000000" font-family="sans-serif" font-size="14" lengthAdjust="spacing" textLength="264" x="452.5" y="919.5889">Collection&lt;Long&gt; getTrickWinnerIds()</text></g><!--MD5=[5e305716458bbdabbd2d7f572ed2bae2]
class Card--><g id="elem_Card"><rect codeLine="61" fill="#F1F1F1" height="129.4844" id="Card" rx="2.5" ry="2.5" style="stroke:#181818;stroke-width:0.5;" width="238" x="656.5" y="987"/><ellipse cx="755.25" cy="1003" fill="#ADD1B2" rx="11" ry="11" style="stroke:#181818;stroke-width:1.0;"/><path d="M758.2188,1008.6406 Q757.6406,1008.9375 757,1009.0781 Q756.3594,1009.2344 755.6563,1009.2344 Q753.1563,1009.2344 751.8281,1007.5938 Q750.5156,1005.9375 750.5156,1002.8125 Q750.5156,999.6875 751.8281,998.0313 Q753.1563,996.375 755.6563,996.375 Q756.3594,996.375 757,996.5313 Q757.6563,996.6875 758.2188,996.9844 L758.2188,999.7031 Q757.5938,999.125 757,998.8594 Q756.4063,998.5781 755.7813,998.5781 Q754.4375,998.5781 753.75,999.6563 Q753.0625,1000.7188 753.0625,1002.8125 Q753.0625,1004.9063 753.75,1005.9844 Q754.4375,1007.0469 755.7813,1007.0469 Q756.4063,1007.0469 757,1006.7813 Q757.5938,1006.5 758.2188,1005.9219 L758.2188,1008.6406 Z " fill="#000000"/><text fill="#000000" font-family="sans-serif" font-size="14" lengthAdjust="spacing" textLength="32" x="775.75" y="1007.8467">Card</text><line style="stroke:#181818;stroke-width:0.5;" x1="657.5" x2="893.5" y1="1019" y2="1019"/><rect fill="none" height="6" style="stroke:#C82930;stroke-width:1.0;" width="6" x="664.5" y="1027"/><text fill="#000000" font-family="sans-serif" font-size="14" lengthAdjust="spacing" textLength="118" x="676.5" y="1035.9951">CardSuit cardSuit</text><rect fill="none" height="6" style="stroke:#C82930;stroke-width:1.0;" width="6" x="664.5" y="1043.2969"/><text fill="#000000" font-family="sans-serif" font-size="14" lengthAdjust="spacing" textLength="136" x="676.5" y="1052.292">CardRank cardRank</text><line style="stroke:#181818;stroke-width:0.5;" x1="657.5" x2="893.5" y1="1059.5938" y2="1059.5938"/><ellipse cx="667.5" cy="1070.5938" fill="#84BE84" rx="3" ry="3" style="stroke:#038048;stroke-width:1.0;"/><text fill="#000000" font-family="sans-serif" font-size="14" lengthAdjust="spacing" textLength="154" x="676.5" y="1076.5889">int compareTo(Card c)</text><ellipse cx="667.5" cy="1086.8906" fill="#84BE84" rx="3" ry="3" style="stroke:#038048;stroke-width:1.0;"/><text fill="#000000" font-family="sans-serif" font-size="14" lengthAdjust="spacing" textLength="212" x="676.5" y="1092.8857">boolean isGreaterThan(Card c)</text><ellipse cx="667.5" cy="1103.1875" fill="#84BE84" rx="3" ry="3" style="stroke:#038048;stroke-width:1.0;"/><text fill="#000000" font-family="sans-serif" font-size="14" lengthAdjust="spacing" textLength="181" x="676.5" y="1109.1826">boolean isEqualTo(Card c)</text></g><!--MD5=[deb573be58b1ade8befb458d2a00fdef]
class CardSuit--><g id="elem_CardSuit"><rect codeLine="69" fill="#F1F1F1" height="113.1875" id="CardSuit" rx="2.5" ry="2.5" style="stroke:#181818;stroke-width:0.5;" width="90" x="32.5" y="205"/><ellipse cx="47.5" cy="221" fill="#EB937F" rx="11" ry="11" style="stroke:#181818;stroke-width:1.0;"/><path d="M51.6094,227 L43.8906,227 L43.8906,214.6094 L51.6094,214.6094 L51.6094,216.7656 L46.3438,216.7656 L46.3438,219.4375 L51.1094,219.4375 L51.1094,221.5938 L46.3438,221.5938 L46.3438,224.8438 L51.6094,224.8438 L51.6094,227 Z " fill="#000000"/><text fill="#000000" font-family="sans-serif" font-size="14" lengthAdjust="spacing" textLength="58" x="61.5" y="225.8467">CardSuit</text><line style="stroke:#181818;stroke-width:0.5;" x1="33.5" x2="121.5" y1="237" y2="237"/><text fill="#000000" font-family="sans-serif" font-size="14" lengthAdjust="spacing" textLength="41" x="38.5" y="253.9951">CLUB,</text><text fill="#000000" font-family="sans-serif" font-size="14" lengthAdjust="spacing" textLength="71" x="38.5" y="270.292">DIAMOND,</text><text fill="#000000" font-family="sans-serif" font-size="14" lengthAdjust="spacing" textLength="51" x="38.5" y="286.5889">HEART,</text><text fill="#000000" font-family="sans-serif" font-size="14" lengthAdjust="spacing" textLength="47" x="38.5" y="302.8857">SPADE</text><line style="stroke:#181818;stroke-width:0.5;" x1="33.5" x2="121.5" y1="310.1875" y2="310.1875"/></g><!--MD5=[d306d02be67e3e66164efd483084370b]
class CardRank--><g id="elem_CardRank"><rect codeLine="76" fill="#F1F1F1" height="194.6719" id="CardRank" rx="2.5" ry="2.5" style="stroke:#181818;stroke-width:0.5;" width="99" x="158" y="164"/><ellipse cx="173" cy="180" fill="#EB937F" rx="11" ry="11" style="stroke:#181818;stroke-width:1.0;"/><path d="M177.1094,186 L169.3906,186 L169.3906,173.6094 L177.1094,173.6094 L177.1094,175.7656 L171.8438,175.7656 L171.8438,178.4375 L176.6094,178.4375 L176.6094,180.5938 L171.8438,180.5938 L171.8438,183.8438 L177.1094,183.8438 L177.1094,186 Z " fill="#000000"/><text fill="#000000" font-family="sans-serif" font-size="14" lengthAdjust="spacing" textLength="67" x="187" y="184.8467">CardRank</text><line style="stroke:#181818;stroke-width:0.5;" x1="159" x2="256" y1="196" y2="196"/><text fill="#000000" font-family="sans-serif" font-size="14" lengthAdjust="spacing" textLength="32" x="164" y="212.9951">ACE,</text><text fill="#000000" font-family="sans-serif" font-size="14" lengthAdjust="spacing" textLength="25" x="164" y="229.292">SIX,</text><text fill="#000000" font-family="sans-serif" font-size="14" lengthAdjust="spacing" textLength="50" x="164" y="245.5889">SEVEN,</text><text fill="#000000" font-family="sans-serif" font-size="14" lengthAdjust="spacing" textLength="46" x="164" y="261.8857">EIGHT,</text><text fill="#000000" font-family="sans-serif" font-size="14" lengthAdjust="spacing" textLength="36" x="164" y="278.1826">NINE,</text><text fill="#000000" font-family="sans-serif" font-size="14" lengthAdjust="spacing" textLength="32" x="164" y="294.4795">TEN,</text><text fill="#000000" font-family="sans-serif" font-size="14" lengthAdjust="spacing" textLength="35" x="164" y="310.7764">JACK,</text><text fill="#000000" font-family="sans-serif" font-size="14" lengthAdjust="spacing" textLength="53" x="164" y="327.0732">QUEEN,</text><text fill="#000000" font-family="sans-serif" font-size="14" lengthAdjust="spacing" textLength="33" x="164" y="343.3701">KING</text><line style="stroke:#181818;stroke-width:0.5;" x1="159" x2="256" y1="350.6719" y2="350.6719"/></g><!--MD5=[7de3b112b0a8b474f8b286eb49113d82]
class CardDeck--><g id="elem_CardDeck"><rect codeLine="88" fill="#F1F1F1" height="64.2969" id="CardDeck" rx="2.5" ry="2.5" style="stroke:#181818;stroke-width:0.5;" width="137" x="841" y="657"/><ellipse cx="872.65" cy="673" fill="#B4A7E5" rx="11" ry="11" style="stroke:#181818;stroke-width:1.0;"/><path d="M868.5719,668.7656 L868.5719,666.6094 L875.9625,666.6094 L875.9625,668.7656 L873.4938,668.7656 L873.4938,676.8438 L875.9625,676.8438 L875.9625,679 L868.5719,679 L868.5719,676.8438 L871.0406,676.8438 L871.0406,668.7656 L868.5719,668.7656 Z " fill="#000000"/><text fill="#000000" font-family="sans-serif" font-size="14" font-style="italic" lengthAdjust="spacing" textLength="68" x="890.35" y="677.8467">CardDeck</text><line style="stroke:#181818;stroke-width:0.5;" x1="842" x2="977" y1="689" y2="689"/><line style="stroke:#181818;stroke-width:0.5;" x1="842" x2="977" y1="697" y2="697"/><ellipse cx="852" cy="708" fill="#84BE84" rx="3" ry="3" style="stroke:#038048;stroke-width:1.0;"/><text fill="#000000" font-family="sans-serif" font-size="14" lengthAdjust="spacing" textLength="111" x="861" y="713.9951">Card drawCard()</text></g><!--MD5=[3e6fadcb3e88398160575ec1f5417402]
class StandardCardDeck--><g id="elem_StandardCardDeck"><rect codeLine="92" fill="#F1F1F1" height="64.2969" id="StandardCardDeck" rx="2.5" ry="2.5" style="stroke:#181818;stroke-width:0.5;" width="162" x="828.5" y="846.5"/><ellipse cx="843.5" cy="862.5" fill="#ADD1B2" rx="11" ry="11" style="stroke:#181818;stroke-width:1.0;"/><path d="M846.4688,868.1406 Q845.8906,868.4375 845.25,868.5781 Q844.6094,868.7344 843.9063,868.7344 Q841.4063,868.7344 840.0781,867.0938 Q838.7656,865.4375 838.7656,862.3125 Q838.7656,859.1875 840.0781,857.5313 Q841.4063,855.875 843.9063,855.875 Q844.6094,855.875 845.25,856.0313 Q845.9063,856.1875 846.4688,856.4844 L846.4688,859.2031 Q845.8438,858.625 845.25,858.3594 Q844.6563,858.0781 844.0313,858.0781 Q842.6875,858.0781 842,859.1563 Q841.3125,860.2188 841.3125,862.3125 Q841.3125,864.4063 842,865.4844 Q842.6875,866.5469 844.0313,866.5469 Q844.6563,866.5469 845.25,866.2813 Q845.8438,866 846.4688,865.4219 L846.4688,868.1406 Z " fill="#000000"/><text fill="#000000" font-family="sans-serif" font-size="14" lengthAdjust="spacing" textLength="130" x="857.5" y="867.3467">StandardCardDeck</text><line style="stroke:#181818;stroke-width:0.5;" x1="829.5" x2="989.5" y1="878.5" y2="878.5"/><line style="stroke:#181818;stroke-width:0.5;" x1="829.5" x2="989.5" y1="886.5" y2="886.5"/><ellipse cx="839.5" cy="897.5" fill="#84BE84" rx="3" ry="3" style="stroke:#038048;stroke-width:1.0;"/><text fill="#000000" font-family="sans-serif" font-size="14" lengthAdjust="spacing" textLength="88" x="848.5" y="903.4951">void shuffle()</text></g><!--MD5=[831236ba57dae0bc776a9527ec9f7aa2]
link Player to User--><g id="link_Player_User"><path codeLine="96" d="M500.41,104.07 C489.34,136.8 474.69,180.11 463.62,212.85 " fill="none" id="Player-User" style="stroke:#181818;stroke-width:1.0;"/><text fill="#000000" font-family="sans-serif" font-size="13" lengthAdjust="spacing" textLength="7" x="490.6552" y="124.0388">*</text><text fill="#000000" font-family="sans-serif" font-size="13" lengthAdjust="spacing" textLength="8" x="457.3244" y="202.0378">1</text></g><!--MD5=[2948b15446720d046723ef865ff3eac8]
link Player to Participation--><g id="link_Player_Participation"><path codeLine="97" d="M547.28,104.07 C568.46,136.8 596.48,180.11 617.67,212.85 " fill="none" id="Player-Participation" style="stroke:#181818;stroke-width:1.0;"/><text fill="#000000" font-family="sans-serif" font-size="13" lengthAdjust="spacing" textLength="8" x="543.0459" y="124.0388">1</text><text fill="#000000" font-family="sans-serif" font-size="13" lengthAdjust="spacing" textLength="7" x="605.8423" y="202.0378">*</text></g><!--MD5=[dbf2e35fe06e7f5c60e786b569169e48]
link Participation to Game--><g id="link_Participation_Game"><path codeLine="99" d="M620.94,310.24 C602.56,342.08 578.18,384.31 558.16,418.99 " fill="none" id="Participation-Game" style="stroke:#181818;stroke-width:1.0;"/><text fill="#000000" font-family="sans-serif" font-size="13" lengthAdjust="spacing" textLength="7" x="609.7663" y="329.8804">*</text><text fill="#000000" font-family="sans-serif" font-size="13" lengthAdjust="spacing" textLength="8" x="553.9363" y="407.7104">1</text></g><!--MD5=[4a26cb6579843e3e14e1f7ba4255fdc5]
link Participation to Hand--><g id="link_Participation_Hand"><path codeLine="100" d="M676.06,310.24 C698.96,349.92 731.18,405.72 752.66,442.94 " fill="none" id="Participation-Hand" style="stroke:#181818;stroke-width:1.0;"/><text fill="#000000" font-family="sans-serif" font-size="13" lengthAdjust="spacing" textLength="8" x="671.2259" y="329.8804">1</text><text fill="#000000" font-family="sans-serif" font-size="13" lengthAdjust="spacing" textLength="7" x="741.1328" y="431.7929">*</text></g><!--MD5=[ebc4fdae77490ce4a26bbddba5e34eab]
link Hand to Match--><g id="link_Hand_Match"><path codeLine="102" d="M736.85,524.22 C713.67,548.05 683.35,579.21 655.38,607.96 " fill="none" id="Hand-Match" style="stroke:#181818;stroke-width:1.0;"/><text fill="#000000" font-family="sans-serif" font-size="13" lengthAdjust="spacing" textLength="7" x="723.3958" y="543.7119">*</text><text fill="#000000" font-family="sans-serif" font-size="13" lengthAdjust="spacing" textLength="8" x="654.1908" y="596.8671">1</text></g><!--MD5=[2f16b817737525477c59504130fd53f7]
link Hand to Card--><g id="link_Hand_Card"><path codeLine="103" d="M775.5,524.3 C775.5,621.05 775.5,869.25 775.5,986.86 " fill="none" id="Hand-Card" style="stroke:#181818;stroke-width:1.0;"/><text fill="#000000" font-family="sans-serif" font-size="13" lengthAdjust="spacing" textLength="8" x="766.8875" y="543.8041">1</text><text fill="#000000" font-family="sans-serif" font-size="13" lengthAdjust="spacing" textLength="24" x="750.1875" y="976.0174">1..5</text></g><!--MD5=[70c92096be01b0f4dd26a6744feaffbd]
link Game to Match--><g id="link_Game_Match"><path codeLine="105" d="M538.99,548.05 C544.19,566.94 549.95,587.89 555.4,607.7 " fill="none" id="Game-Match" style="stroke:#181818;stroke-width:1.0;"/><text fill="#000000" font-family="sans-serif" font-size="13" lengthAdjust="spacing" textLength="8" x="532.5498" y="568.4274">1</text><text fill="#000000" font-family="sans-serif" font-size="13" lengthAdjust="spacing" textLength="24" x="528.363" y="596.8606">1..9</text></g><!--MD5=[7a51bdac25b04a43197b4f59647f1e71]
link Match to Round--><g id="link_Match_Round"><path codeLine="107" d="M577.5,770.06 C577.5,790.47 577.5,811.75 577.5,829.95 " fill="none" id="Match-Round" style="stroke:#181818;stroke-width:1.0;"/><text fill="#000000" font-family="sans-serif" font-size="13" lengthAdjust="spacing" textLength="8" x="569.1438" y="790.0167">1</text><text fill="#000000" font-family="sans-serif" font-size="13" lengthAdjust="spacing" textLength="24" x="551.7375" y="818.8023">1..5</text></g><!--MD5=[dabd1d0dea4e282335ad7f4495eecc99]
link Round to Card--><g id="link_Round_Card"><path codeLine="109" d="M632.65,927.13 C654.05,945.61 678.87,967.05 701.77,986.82 " fill="none" id="Round-Card" style="stroke:#181818;stroke-width:1.0;"/><text fill="#000000" font-family="sans-serif" font-size="13" lengthAdjust="spacing" textLength="8" x="631.843" y="947.1072">1</text><text fill="#000000" font-family="sans-serif" font-size="13" lengthAdjust="spacing" textLength="24" x="668.3933" y="975.973">1..7</text></g><!--MD5=[c2ebea39c25e8e6fce5f9dfb23c28ae0]
reverse link CardDeck to StandardCardDeck--><g id="link_CardDeck_StandardCardDeck"><path codeLine="111" d="M909.5,741.4 C909.5,775 909.5,817.78 909.5,846.33 " fill="none" id="CardDeck-backto-StandardCardDeck" style="stroke:#181818;stroke-width:1.0;"/><polygon fill="none" points="902.5,741.38,909.5,721.38,916.5,741.38,902.5,741.38" style="stroke:#181818;stroke-width:1.0;"/></g><!--MD5=[77334f3e417b043fbacad2b615cf6a07]
link StandardCardDeck to Card--><g id="link_StandardCardDeck_Card"><path codeLine="113" d="M884.92,910.86 C868.3,932.08 845.76,960.84 825.46,986.75 " fill="none" id="StandardCardDeck-Card" style="stroke:#181818;stroke-width:1.0;"/><text fill="#000000" font-family="sans-serif" font-size="13" lengthAdjust="spacing" textLength="8" x="871.2933" y="930.7582">1</text><text fill="#000000" font-family="sans-serif" font-size="13" lengthAdjust="spacing" textLength="7" x="823.5416" y="975.8953">*</text></g><!--MD5=[73fb65a6a03c8791848a6c4b89986757]
link GameState to MatchState--></g></svg>