<?xml version="1.0" encoding="UTF-8" standalone="no"?><svg xmlns="http://www.w3.org/2000/svg" xmlns:xlink="http://www.w3.org/1999/xlink" contentStyleType="text/css" height="1750px" preserveAspectRatio="none" style="width:672px;height:1750px;background:#FFFFFF;" version="1.1" viewBox="0 0 672 1750" width="672px" zoomAndPan="magnify"><defs/><g><ellipse cx="126" cy="20" fill="#222222" rx="10" ry="10" style="stroke:#222222;stroke-width:1.0;"/><rect fill="#F1F1F1" height="33.9688" rx="12.5" ry="12.5" style="stroke:#181818;stroke-width:0.5;" width="187" x="32.5" y="50"/><text fill="#000000" font-family="sans-serif" font-size="12" lengthAdjust="spacing" textLength="167" x="42.5" y="71.1387">PersonEntersStartingPage</text><rect fill="#F1F1F1" height="61.9063" rx="12.5" ry="12.5" style="stroke:#181818;stroke-width:0.5;" width="135" x="58.5" y="103.9688"/><text fill="#000000" font-family="sans-serif" font-size="12" lengthAdjust="spacing" textLength="115" x="68.5" y="125.1074">EnterPlayersName</text><text fill="#000000" font-family="sans-serif" font-size="12" lengthAdjust="spacing" textLength="85" x="68.5" y="139.0762">POST /players</text><text fill="#000000" font-family="sans-serif" font-size="12" lengthAdjust="spacing" textLength="4" x="68.5" y="153.0449"> </text><rect fill="#F1F1F1" height="33.9688" rx="12.5" ry="12.5" style="stroke:#181818;stroke-width:0.5;" width="73" x="89.5" y="185.875"/><text fill="#000000" font-family="sans-serif" font-size="12" lengthAdjust="spacing" textLength="53" x="99.5" y="207.0137">ClickPlay</text><rect fill="#F1F1F1" height="61.9063" rx="12.5" ry="12.5" style="stroke:#181818;stroke-width:0.5;" width="94" x="79" y="239.8438"/><text fill="#000000" font-family="sans-serif" font-size="12" lengthAdjust="spacing" textLength="70" x="89" y="260.9824">EnterLobby</text><text fill="#000000" font-family="sans-serif" font-size="12" lengthAdjust="spacing" textLength="74" x="89" y="274.9512">GET /games</text><text fill="#000000" font-family="sans-serif" font-size="12" lengthAdjust="spacing" textLength="4" x="89" y="288.9199"> </text><rect fill="#F1F1F1" height="75.875" rx="12.5" ry="12.5" style="stroke:#181818;stroke-width:0.5;" width="146" x="53" y="321.75"/><text fill="#000000" font-family="sans-serif" font-size="12" lengthAdjust="spacing" textLength="69" x="63" y="342.8887">EnterRoom</text><text fill="#000000" font-family="sans-serif" font-size="12" lengthAdjust="spacing" textLength="126" x="63" y="356.8574">POST /participations</text><text fill="#000000" font-family="sans-serif" font-size="12" lengthAdjust="spacing" textLength="126" x="63" y="370.8262">(Oder POST /games)</text><text fill="#000000" font-family="sans-serif" font-size="12" lengthAdjust="spacing" textLength="4" x="63" y="384.7949"> </text><polygon fill="#F1F1F1" points="84,549.625,168,549.625,180,561.625,168,573.625,84,573.625,72,561.625,84,549.625" style="stroke:#181818;stroke-width:0.5;"/><text fill="#000000" font-family="sans-serif" font-size="11" lengthAdjust="spacing" textLength="84" x="84" y="565.4331">PlayersInRoom</text><text fill="#000000" font-family="sans-serif" font-size="11" lengthAdjust="spacing" textLength="24" x="48" y="559.0308">else</text><text fill="#000000" font-family="sans-serif" font-size="11" lengthAdjust="spacing" textLength="231" x="180" y="559.0308">NoOfPlayers &gt; 1 and SomeoneClickStart</text><rect fill="#F1F1F1" height="33.9688" rx="12.5" ry="12.5" style="stroke:#181818;stroke-width:0.5;" width="47" x="11" y="583.625"/><text fill="#000000" font-family="sans-serif" font-size="12" lengthAdjust="spacing" textLength="27" x="21" y="604.7637">Wait</text><rect fill="#F1F1F1" height="47.9375" rx="12.5" ry="12.5" style="stroke:#181818;stroke-width:0.5;" width="279" x="78" y="583.625"/><text fill="#000000" font-family="sans-serif" font-size="12" lengthAdjust="spacing" textLength="69" x="88" y="604.7637">start game</text><text fill="#000000" font-family="sans-serif" font-size="12" lengthAdjust="spacing" textLength="259" x="88" y="618.7324">PATCH /games/1 {gameState: "PLAYING"}</text><rect fill="#F1F1F1" height="33.9688" rx="12.5" ry="12.5" style="stroke:#181818;stroke-width:0.5;" width="87" x="174" y="695.5625"/><text fill="#000000" font-family="sans-serif" font-size="12" lengthAdjust="spacing" textLength="67" x="184" y="716.7012">StartGame</text><rect fill="#F1F1F1" height="33.9688" rx="12.5" ry="12.5" style="stroke:#181818;stroke-width:0.5;" width="89" x="173" y="793.5313"/><text fill="#000000" font-family="sans-serif" font-size="12" lengthAdjust="spacing" textLength="69" x="183" y="814.6699">StartMatch</text><rect fill="#F1F1F1" height="33.9688" rx="12.5" ry="12.5" style="stroke:#181818;stroke-width:0.5;" width="117" x="159" y="847.5"/><text fill="#000000" font-family="sans-serif" font-size="12" lengthAdjust="spacing" textLength="97" x="169" y="868.6387">DistributeCards</text><rect fill="#F1F1F1" height="33.9688" rx="12.5" ry="12.5" style="stroke:#181818;stroke-width:0.5;" width="152" x="141.5" y="901.4688"/><text fill="#000000" font-family="sans-serif" font-size="12" lengthAdjust="spacing" textLength="128" x="155.5" y="922.6074">GET /games/1 pollen</text><rect fill="#F1F1F1" height="47.9375" rx="12.5" ry="12.5" style="stroke:#181818;stroke-width:0.5;" width="262" x="86.5" y="955.4375"/><text fill="#000000" font-family="sans-serif" font-size="12" lengthAdjust="spacing" textLength="99" x="96.5" y="976.5762">AnnounceTricks</text><text fill="#000000" font-family="sans-serif" font-size="12" lengthAdjust="spacing" textLength="242" x="96.5" y="990.5449">PATCH /hands/1 {announcedScore: 3}</text><rect fill="#F1F1F1" height="61.9063" rx="12.5" ry="12.5" style="stroke:#181818;stroke-width:0.5;" width="166" x="134.5" y="1023.375"/><text fill="#000000" font-family="sans-serif" font-size="12" lengthAdjust="spacing" textLength="146" x="144.5" y="1044.5137">DisplayAnnouncements</text><text fill="#000000" font-family="sans-serif" font-size="12" lengthAdjust="spacing" textLength="128" x="144.5" y="1058.4824">GET /games/1 pollen</text><text fill="#000000" font-family="sans-serif" font-size="12" lengthAdjust="spacing" textLength="4" x="144.5" y="1072.4512"> </text><rect fill="#F1F1F1" height="33.9688" rx="12.5" ry="12.5" style="stroke:#181818;stroke-width:0.5;" width="85" x="175" y="1120.2813"/><text fill="#000000" font-family="sans-serif" font-size="12" lengthAdjust="spacing" textLength="65" x="185" y="1141.4199">PlayRound</text><rect fill="#F1F1F1" height="47.9375" rx="12.5" ry="12.5" style="stroke:#181818;stroke-width:0.5;" width="240" x="97.5" y="1218.25"/><text fill="#000000" font-family="sans-serif" font-size="12" lengthAdjust="spacing" textLength="99" x="107.5" y="1239.3887">PlayerPlaysCard</text><text fill="#000000" font-family="sans-serif" font-size="12" lengthAdjust="spacing" textLength="220" x="107.5" y="1253.3574">PATCH /cards/1 {round: /rounds/1}</text><polygon fill="#F1F1F1" points="217.5,1174.25,229.5,1186.25,217.5,1198.25,205.5,1186.25,217.5,1174.25" style="stroke:#181818;stroke-width:0.5;"/><polygon fill="#F1F1F1" points="163.5,1286.1875,271.5,1286.1875,283.5,1298.1875,271.5,1310.1875,163.5,1310.1875,151.5,1298.1875,163.5,1286.1875" style="stroke:#181818;stroke-width:0.5;"/><text fill="#000000" font-family="sans-serif" font-size="11" lengthAdjust="spacing" textLength="108" x="163.5" y="1301.9956">NotEveryonePlayed</text><rect fill="#F1F1F1" height="33.9688" rx="12.5" ry="12.5" style="stroke:#181818;stroke-width:0.5;" width="100" x="167.5" y="1330.1875"/><text fill="#000000" font-family="sans-serif" font-size="12" lengthAdjust="spacing" textLength="80" x="177.5" y="1351.3262">DisplayScore</text><polygon fill="#F1F1F1" points="217.5,749.5313,229.5,761.5313,217.5,773.5313,205.5,761.5313,217.5,749.5313" style="stroke:#181818;stroke-width:0.5;"/><polygon fill="#F1F1F1" points="163.5,1384.1563,271.5,1384.1563,283.5,1396.1563,271.5,1408.1563,163.5,1408.1563,151.5,1396.1563,163.5,1384.1563" style="stroke:#181818;stroke-width:0.5;"/><text fill="#000000" font-family="sans-serif" font-size="11" lengthAdjust="spacing" textLength="108" x="163.5" y="1399.9644">MatchesPlayed &lt; 9</text><rect fill="#F1F1F1" height="33.9688" rx="12.5" ry="12.5" style="stroke:#181818;stroke-width:0.5;" width="117" x="385.5" y="1074.8594"/><text fill="#000000" font-family="sans-serif" font-size="12" lengthAdjust="spacing" textLength="93" x="399.5" y="1095.998">PlayNextRound</text><rect fill="#F1F1F1" height="33.9688" rx="12.5" ry="12.5" style="stroke:#181818;stroke-width:0.5;" width="137" x="149" y="1428.1563"/><text fill="#000000" font-family="sans-serif" font-size="12" lengthAdjust="spacing" textLength="117" x="159" y="1449.2949">DisplayScoreBoard</text><polygon fill="#F1F1F1" points="217.5,651.5625,229.5,663.5625,217.5,675.5625,205.5,663.5625,217.5,651.5625" style="stroke:#181818;stroke-width:0.5;"/><polygon fill="#F1F1F1" points="183.5,1482.125,251.5,1482.125,263.5,1494.125,251.5,1506.125,183.5,1506.125,171.5,1494.125,183.5,1482.125" style="stroke:#181818;stroke-width:0.5;"/><text fill="#000000" font-family="sans-serif" font-size="11" lengthAdjust="spacing" textLength="68" x="183.5" y="1497.9331">ThatWasFun</text><rect fill="#F1F1F1" height="33.9688" rx="12.5" ry="12.5" style="stroke:#181818;stroke-width:0.5;" width="84" x="512.5" y="1074.8594"/><text fill="#000000" font-family="sans-serif" font-size="12" lengthAdjust="spacing" textLength="60" x="526.5" y="1095.998">PlayAgain</text><rect fill="#F1F1F1" height="33.9688" rx="12.5" ry="12.5" style="stroke:#181818;stroke-width:0.5;" width="91" x="172" y="1526.125"/><text fill="#000000" font-family="sans-serif" font-size="12" lengthAdjust="spacing" textLength="71" x="182" y="1547.2637">LeaveRoom</text><ellipse cx="217.5" cy="1591.0938" rx="11" ry="11" style="stroke:#222222;stroke-width:1.0;fill:none;"/><ellipse cx="217.5" cy="1591.0938" fill="#222222" rx="6" ry="6" style="stroke:#111111;stroke-width:1.0;"/><polygon fill="#F1F1F1" points="126,505.625,138,517.625,126,529.625,114,517.625,126,505.625" style="stroke:#181818;stroke-width:0.5;"/><polygon fill="#F1F1F1" points="81,1622.0938,171,1622.0938,183,1634.0938,171,1646.0938,81,1646.0938,69,1634.0938,81,1622.0938" style="stroke:#181818;stroke-width:0.5;"/><text fill="#000000" font-family="sans-serif" font-size="11" lengthAdjust="spacing" textLength="90" x="81" y="1637.9019">MorePlayersJoin</text><polygon fill="#F1F1F1" points="126,461.625,138,473.625,126,485.625,114,473.625,126,461.625" style="stroke:#181818;stroke-width:0.5;"/><polygon fill="#F1F1F1" points="72,1666.0938,180,1666.0938,192,1678.0938,180,1690.0938,72,1690.0938,60,1678.0938,72,1666.0938" style="stroke:#181818;stroke-width:0.5;"/><text fill="#000000" font-family="sans-serif" font-size="11" lengthAdjust="spacing" textLength="108" x="72" y="1681.9019">SomeoneClickStart</text><polygon fill="#F1F1F1" points="126,417.625,138,429.625,126,441.625,114,429.625,126,417.625" style="stroke:#181818;stroke-width:0.5;"/><line style="stroke:#181818;stroke-width:1.0;" x1="126" x2="126" y1="30" y2="50"/><polygon fill="#181818" points="122,40,126,50,130,40,126,44" style="stroke:#181818;stroke-width:1.0;"/><line style="stroke:#181818;stroke-width:1.0;" x1="126" x2="126" y1="83.9688" y2="103.9688"/><polygon fill="#181818" points="122,93.9688,126,103.9688,130,93.9688,126,97.9688" style="stroke:#181818;stroke-width:1.0;"/><line style="stroke:#181818;stroke-width:1.0;" x1="126" x2="126" y1="165.875" y2="185.875"/><polygon fill="#181818" points="122,175.875,126,185.875,130,175.875,126,179.875" style="stroke:#181818;stroke-width:1.0;"/><line style="stroke:#181818;stroke-width:1.0;" x1="126" x2="126" y1="219.8438" y2="239.8438"/><polygon fill="#181818" points="122,229.8438,126,239.8438,130,229.8438,126,233.8438" style="stroke:#181818;stroke-width:1.0;"/><line style="stroke:#181818;stroke-width:1.0;" x1="126" x2="126" y1="301.75" y2="321.75"/><polygon fill="#181818" points="122,311.75,126,321.75,130,311.75,126,315.75" style="stroke:#181818;stroke-width:1.0;"/><line style="stroke:#181818;stroke-width:1.0;" x1="217.5" x2="217.5" y1="827.5" y2="847.5"/><polygon fill="#181818" points="213.5,837.5,217.5,847.5,221.5,837.5,217.5,841.5" style="stroke:#181818;stroke-width:1.0;"/><line style="stroke:#181818;stroke-width:1.0;" x1="217.5" x2="217.5" y1="881.4688" y2="901.4688"/><polygon fill="#181818" points="213.5,891.4688,217.5,901.4688,221.5,891.4688,217.5,895.4688" style="stroke:#181818;stroke-width:1.0;"/><line style="stroke:#181818;stroke-width:1.0;" x1="217.5" x2="217.5" y1="935.4375" y2="955.4375"/><polygon fill="#181818" points="213.5,945.4375,217.5,955.4375,221.5,945.4375,217.5,949.4375" style="stroke:#181818;stroke-width:1.0;"/><line style="stroke:#181818;stroke-width:1.0;" x1="217.5" x2="217.5" y1="1003.375" y2="1023.375"/><polygon fill="#181818" points="213.5,1013.375,217.5,1023.375,221.5,1013.375,217.5,1017.375" style="stroke:#181818;stroke-width:1.0;"/><line style="stroke:#181818;stroke-width:1.0;" x1="217.5" x2="217.5" y1="1085.2813" y2="1120.2813"/><polygon fill="#181818" points="213.5,1110.2813,217.5,1120.2813,221.5,1110.2813,217.5,1114.2813" style="stroke:#181818;stroke-width:1.0;"/><line style="stroke:#181818;stroke-width:1.0;" x1="217.5" x2="217.5" y1="1198.25" y2="1218.25"/><polygon fill="#181818" points="213.5,1208.25,217.5,1218.25,221.5,1208.25,217.5,1212.25" style="stroke:#181818;stroke-width:1.0;"/><line style="stroke:#181818;stroke-width:1.0;" x1="283.5" x2="349.5" y1="1298.1875" y2="1298.1875"/><polygon fill="#181818" points="345.5,1252.2188,349.5,1242.2188,353.5,1252.2188,349.5,1248.2188" style="stroke:#181818;stroke-width:1.0;"/><line style="stroke:#181818;stroke-width:1.0;" x1="349.5" x2="349.5" y1="1186.25" y2="1298.1875"/><line style="stroke:#181818;stroke-width:1.0;" x1="349.5" x2="229.5" y1="1186.25" y2="1186.25"/><polygon fill="#181818" points="239.5,1182.25,229.5,1186.25,239.5,1190.25,235.5,1186.25" style="stroke:#181818;stroke-width:1.0;"/><line style="stroke:#181818;stroke-width:1.0;" x1="217.5" x2="217.5" y1="1266.1875" y2="1286.1875"/><polygon fill="#181818" points="213.5,1276.1875,217.5,1286.1875,221.5,1276.1875,217.5,1280.1875" style="stroke:#181818;stroke-width:1.0;"/><line style="stroke:#181818;stroke-width:1.0;" x1="217.5" x2="217.5" y1="1154.25" y2="1174.25"/><polygon fill="#181818" points="213.5,1164.25,217.5,1174.25,221.5,1164.25,217.5,1168.25" style="stroke:#181818;stroke-width:1.0;"/><line style="stroke:#181818;stroke-width:1.0;" x1="217.5" x2="217.5" y1="1310.1875" y2="1330.1875"/><polygon fill="#181818" points="213.5,1320.1875,217.5,1330.1875,221.5,1320.1875,217.5,1324.1875" style="stroke:#181818;stroke-width:1.0;"/><line style="stroke:#181818;stroke-width:1.0;" x1="217.5" x2="217.5" y1="773.5313" y2="793.5313"/><polygon fill="#181818" points="213.5,783.5313,217.5,793.5313,221.5,783.5313,217.5,787.5313" style="stroke:#181818;stroke-width:1.0;"/><line style="stroke:#181818;stroke-width:1.0;" x1="283.5" x2="444" y1="1396.1563" y2="1396.1563"/><line style="stroke:#181818;stroke-width:1.0;" x1="444" x2="444" y1="1108.8281" y2="1396.1563"/><polygon fill="#181818" points="440,1118.8281,444,1108.8281,448,1118.8281,444,1114.8281" style="stroke:#181818;stroke-width:1.0;"/><line style="stroke:#181818;stroke-width:1.0;" x1="444" x2="444" y1="761.5313" y2="1074.8594"/><line style="stroke:#181818;stroke-width:1.0;" x1="444" x2="229.5" y1="761.5313" y2="761.5313"/><polygon fill="#181818" points="239.5,757.5313,229.5,761.5313,239.5,765.5313,235.5,761.5313" style="stroke:#181818;stroke-width:1.0;"/><line style="stroke:#181818;stroke-width:1.0;" x1="217.5" x2="217.5" y1="1364.1563" y2="1384.1563"/><polygon fill="#181818" points="213.5,1374.1563,217.5,1384.1563,221.5,1374.1563,217.5,1378.1563" style="stroke:#181818;stroke-width:1.0;"/><line style="stroke:#181818;stroke-width:1.0;" x1="217.5" x2="217.5" y1="729.5313" y2="749.5313"/><polygon fill="#181818" points="213.5,739.5313,217.5,749.5313,221.5,739.5313,217.5,743.5313" style="stroke:#181818;stroke-width:1.0;"/><line style="stroke:#181818;stroke-width:1.0;" x1="217.5" x2="217.5" y1="1408.1563" y2="1428.1563"/><polygon fill="#181818" points="213.5,1418.1563,217.5,1428.1563,221.5,1418.1563,217.5,1422.1563" style="stroke:#181818;stroke-width:1.0;"/><line style="stroke:#181818;stroke-width:1.0;" x1="217.5" x2="217.5" y1="675.5625" y2="695.5625"/><polygon fill="#181818" points="213.5,685.5625,217.5,695.5625,221.5,685.5625,217.5,689.5625" style="stroke:#181818;stroke-width:1.0;"/><line style="stroke:#181818;stroke-width:1.0;" x1="263.5" x2="554.5" y1="1494.125" y2="1494.125"/><line style="stroke:#181818;stroke-width:1.0;" x1="554.5" x2="554.5" y1="1108.8281" y2="1494.125"/><polygon fill="#181818" points="550.5,1118.8281,554.5,1108.8281,558.5,1118.8281,554.5,1114.8281" style="stroke:#181818;stroke-width:1.0;"/><line style="stroke:#181818;stroke-width:1.0;" x1="554.5" x2="554.5" y1="663.5625" y2="1074.8594"/><line style="stroke:#181818;stroke-width:1.0;" x1="554.5" x2="229.5" y1="663.5625" y2="663.5625"/><polygon fill="#181818" points="239.5,659.5625,229.5,663.5625,239.5,667.5625,235.5,663.5625" style="stroke:#181818;stroke-width:1.0;"/><line style="stroke:#181818;stroke-width:1.0;" x1="217.5" x2="217.5" y1="1462.125" y2="1482.125"/><polygon fill="#181818" points="213.5,1472.125,217.5,1482.125,221.5,1472.125,217.5,1476.125" style="stroke:#181818;stroke-width:1.0;"/><line style="stroke:#181818;stroke-width:1.0;" x1="217.5" x2="217.5" y1="631.5625" y2="651.5625"/><polygon fill="#181818" points="213.5,641.5625,217.5,651.5625,221.5,641.5625,217.5,645.5625" style="stroke:#181818;stroke-width:1.0;"/><line style="stroke:#181818;stroke-width:1.0;" x1="217.5" x2="217.5" y1="1506.125" y2="1526.125"/><polygon fill="#181818" points="213.5,1516.125,217.5,1526.125,221.5,1516.125,217.5,1520.125" style="stroke:#181818;stroke-width:1.0;"/><line style="stroke:#181818;stroke-width:1.0;" x1="217.5" x2="217.5" y1="1560.0938" y2="1580.0938"/><polygon fill="#181818" points="213.5,1570.0938,217.5,1580.0938,221.5,1570.0938,217.5,1574.0938" style="stroke:#181818;stroke-width:1.0;"/><line style="stroke:#181818;stroke-width:1.0;" x1="72" x2="34.5" y1="561.625" y2="561.625"/><line style="stroke:#181818;stroke-width:1.0;" x1="34.5" x2="34.5" y1="561.625" y2="583.625"/><polygon fill="#181818" points="30.5,573.625,34.5,583.625,38.5,573.625,34.5,577.625" style="stroke:#181818;stroke-width:1.0;"/><line style="stroke:#181818;stroke-width:1.0;" x1="180" x2="217.5" y1="561.625" y2="561.625"/><line style="stroke:#181818;stroke-width:1.0;" x1="217.5" x2="217.5" y1="561.625" y2="583.625"/><polygon fill="#181818" points="213.5,573.625,217.5,583.625,221.5,573.625,217.5,577.625" style="stroke:#181818;stroke-width:1.0;"/><line style="stroke:#181818;stroke-width:1.0;" x1="34.5" x2="34.5" y1="617.5938" y2="1607.0938"/><line style="stroke:#181818;stroke-width:1.0;" x1="34.5" x2="126" y1="1607.0938" y2="1607.0938"/><line style="stroke:#181818;stroke-width:1.0;" x1="126" x2="126" y1="1607.0938" y2="1622.0938"/><polygon fill="#181818" points="122,1612.0938,126,1622.0938,130,1612.0938,126,1616.0938" style="stroke:#181818;stroke-width:1.0;"/><line style="stroke:#181818;stroke-width:1.0;" x1="126" x2="126" y1="529.625" y2="549.625"/><polygon fill="#181818" points="122,539.625,126,549.625,130,539.625,126,543.625" style="stroke:#181818;stroke-width:1.0;"/><line style="stroke:#181818;stroke-width:1.0;" x1="183" x2="610.5" y1="1634.0938" y2="1634.0938"/><polygon fill="#181818" points="606.5,1109.3594,610.5,1099.3594,614.5,1109.3594,610.5,1105.3594" style="stroke:#181818;stroke-width:1.0;"/><line style="stroke:#181818;stroke-width:1.0;" x1="610.5" x2="610.5" y1="517.625" y2="1634.0938"/><line style="stroke:#181818;stroke-width:1.0;" x1="610.5" x2="138" y1="517.625" y2="517.625"/><polygon fill="#181818" points="148,513.625,138,517.625,148,521.625,144,517.625" style="stroke:#181818;stroke-width:1.0;"/><line style="stroke:#181818;stroke-width:1.0;" x1="126" x2="126" y1="485.625" y2="505.625"/><polygon fill="#181818" points="122,495.625,126,505.625,130,495.625,126,499.625" style="stroke:#181818;stroke-width:1.0;"/><line style="stroke:#181818;stroke-width:1.0;" x1="192" x2="628.5" y1="1678.0938" y2="1678.0938"/><polygon fill="#181818" points="624.5,1109.3594,628.5,1099.3594,632.5,1109.3594,628.5,1105.3594" style="stroke:#181818;stroke-width:1.0;"/><line style="stroke:#181818;stroke-width:1.0;" x1="628.5" x2="628.5" y1="473.625" y2="1678.0938"/><line style="stroke:#181818;stroke-width:1.0;" x1="628.5" x2="138" y1="473.625" y2="473.625"/><polygon fill="#181818" points="148,469.625,138,473.625,148,477.625,144,473.625" style="stroke:#181818;stroke-width:1.0;"/><line style="stroke:#181818;stroke-width:1.0;" x1="126" x2="126" y1="1646.0938" y2="1666.0938"/><polygon fill="#181818" points="122,1656.0938,126,1666.0938,130,1656.0938,126,1660.0938" style="stroke:#181818;stroke-width:1.0;"/><line style="stroke:#181818;stroke-width:1.0;" x1="126" x2="126" y1="441.625" y2="461.625"/><polygon fill="#181818" points="122,451.625,126,461.625,130,451.625,126,455.625" style="stroke:#181818;stroke-width:1.0;"/><line style="stroke:#181818;stroke-width:1.0;" x1="126" x2="126" y1="1690.0938" y2="1738.0938"/><line style="stroke:#181818;stroke-width:1.0;" x1="126" x2="646.5" y1="1738.0938" y2="1738.0938"/><polygon fill="#181818" points="642.5,1103.3594,646.5,1093.3594,650.5,1103.3594,646.5,1099.3594" style="stroke:#181818;stroke-width:1.0;"/><line style="stroke:#181818;stroke-width:1.0;" x1="646.5" x2="646.5" y1="429.625" y2="1738.0938"/><line style="stroke:#181818;stroke-width:1.0;" x1="646.5" x2="138" y1="429.625" y2="429.625"/><polygon fill="#181818" points="148,425.625,138,429.625,148,433.625,144,429.625" style="stroke:#181818;stroke-width:1.0;"/><line style="stroke:#181818;stroke-width:1.0;" x1="126" x2="126" y1="397.625" y2="417.625"/><polygon fill="#181818" points="122,407.625,126,417.625,130,407.625,126,411.625" style="stroke:#181818;stroke-width:1.0;"/><!--MD5=[d52543f3112cd80ce0598f099314f24f]
@startuml
'https://plantuml.com/activity-diagram-beta

start
:PersonEntersStartingPage;
:EnterPlayersName
POST /players
;
:ClickPlay;
:EnterLobby
GET /games
;
'if (EnterRoom) then (CreateNewRoom)
    ':CreateNewRoom;
'else (ExistingRoom)
    ':EnterExistingRoom;
'endif
:EnterRoom
POST /participations
(Oder POST /games)
;
repeat
repeat
repeat
    if (PlayersInRoom) then (else)
        :Wait;
    else (NoOfPlayers > 1 and SomeoneClickStart)
        :start game
        PATCH /games/1 {gameState: "PLAYING"};
        repeat
        :StartGame;
        repeat
            :StartMatch;
            :DistributeCards;
            : GET /games/1 pollen;
            :AnnounceTricks
            PATCH /hands/1 {announcedScore: 3};
            :DisplayAnnouncements
            GET /games/1 pollen
            ;
            :PlayRound;
            repeat
            :PlayerPlaysCard
            PATCH /cards/1 {round: /rounds/1};
            repeat while (NotEveryonePlayed)
            :DisplayScore;
            backward: PlayNextRound;
        repeat while (MatchesPlayed < 9)
        :DisplayScoreBoard;
        backward: PlayAgain;
        repeat while (ThatWasFun)
        :LeaveRoom;
        stop
    endif
repeat while (MorePlayersJoin)
repeat while (SomeoneClickStart)

@enduml

@startuml

start
:PersonEntersStartingPage;
:EnterPlayersName
POST /players
;
:ClickPlay;
:EnterLobby
GET /games
;
:EnterRoom
POST /participations
(Oder POST /games)
;
repeat
repeat
repeat
    if (PlayersInRoom) then (else)
        :Wait;
    else (NoOfPlayers > 1 and SomeoneClickStart)
        :start game
        PATCH /games/1 {gameState: "PLAYING"};
        repeat
        :StartGame;
        repeat
            :StartMatch;
            :DistributeCards;
            : GET /games/1 pollen;
            :AnnounceTricks
            PATCH /hands/1 {announcedScore: 3};
            :DisplayAnnouncements
            GET /games/1 pollen
            ;
            :PlayRound;
            repeat
            :PlayerPlaysCard
            PATCH /cards/1 {round: /rounds/1};
            repeat while (NotEveryonePlayed)
            :DisplayScore;
            backward: PlayNextRound;
        repeat while (MatchesPlayed < 9)
        :DisplayScoreBoard;
        backward: PlayAgain;
        repeat while (ThatWasFun)
        :LeaveRoom;
        stop
    endif
repeat while (MorePlayersJoin)
repeat while (SomeoneClickStart)

@enduml

PlantUML version 1.2022.2(Sat Mar 05 16:30:19 UTC 2022)
(GPL source distribution)
Java Runtime: OpenJDK Runtime Environment
JVM: OpenJDK 64-Bit Server VM
Default Encoding: UTF-8
Language: en
Country: null
--></g></svg>