<?xml version="1.0" encoding="UTF-8" standalone="no"?><svg xmlns="http://www.w3.org/2000/svg" xmlns:xlink="http://www.w3.org/1999/xlink" contentStyleType="text/css" height="1546px" preserveAspectRatio="none" style="width:612px;height:1546px;background:#FFFFFF;" version="1.1" viewBox="0 0 612 1546" width="612px" zoomAndPan="magnify"><defs/><g><ellipse cx="147.5" cy="20" fill="#222222" rx="10" ry="10" style="stroke:#222222;stroke-width:1.0;"/><rect fill="#F1F1F1" height="33.9688" rx="12.5" ry="12.5" style="stroke:#181818;stroke-width:0.5;" width="187" x="54" y="50"/><text fill="#000000" font-family="sans-serif" font-size="12" lengthAdjust="spacing" textLength="167" x="64" y="71.1387">PersonEntersStartingPage</text><rect fill="#F1F1F1" height="33.9688" rx="12.5" ry="12.5" style="stroke:#181818;stroke-width:0.5;" width="175" x="60" y="103.9688"/><text fill="#000000" font-family="sans-serif" font-size="12" lengthAdjust="spacing" textLength="155" x="70" y="125.1074">RegisterByEnteringName</text><rect fill="#F1F1F1" height="33.9688" rx="12.5" ry="12.5" style="stroke:#181818;stroke-width:0.5;" width="64" x="115.5" y="157.9375"/><text fill="#000000" font-family="sans-serif" font-size="12" lengthAdjust="spacing" textLength="44" x="125.5" y="179.0762">ClickOk</text><rect fill="#F1F1F1" height="33.9688" rx="12.5" ry="12.5" style="stroke:#181818;stroke-width:0.5;" width="90" x="102.5" y="211.9063"/><text fill="#000000" font-family="sans-serif" font-size="12" lengthAdjust="spacing" textLength="70" x="112.5" y="233.0449">EnterLobby</text><polygon fill="#F1F1F1" points="116.5,265.875,178.5,265.875,190.5,277.875,178.5,289.875,116.5,289.875,104.5,277.875,116.5,265.875" style="stroke:#181818;stroke-width:0.5;"/><text fill="#000000" font-family="sans-serif" font-size="11" lengthAdjust="spacing" textLength="62" x="116.5" y="281.6831">EnterRoom</text><text fill="#000000" font-family="sans-serif" font-size="11" lengthAdjust="spacing" textLength="94" x="10.5" y="275.2808">CreateNewRoom</text><text fill="#000000" font-family="sans-serif" font-size="11" lengthAdjust="spacing" textLength="76" x="190.5" y="275.2808">ExistingRoom</text><rect fill="#F1F1F1" height="33.9688" rx="12.5" ry="12.5" style="stroke:#181818;stroke-width:0.5;" width="123" x="11" y="299.875"/><text fill="#000000" font-family="sans-serif" font-size="12" lengthAdjust="spacing" textLength="103" x="21" y="321.0137">CreateNewRoom</text><rect fill="#F1F1F1" height="33.9688" rx="12.5" ry="12.5" style="stroke:#181818;stroke-width:0.5;" width="137" x="154" y="299.875"/><text fill="#000000" font-family="sans-serif" font-size="12" lengthAdjust="spacing" textLength="117" x="164" y="321.0137">EnterExistingRoom</text><polygon fill="#F1F1F1" points="147.5,339.8438,159.5,351.8438,147.5,363.8438,135.5,351.8438,147.5,339.8438" style="stroke:#181818;stroke-width:0.5;"/><polygon fill="#F1F1F1" points="105.5,515.8438,189.5,515.8438,201.5,527.8438,189.5,539.8438,105.5,539.8438,93.5,527.8438,105.5,515.8438" style="stroke:#181818;stroke-width:0.5;"/><text fill="#000000" font-family="sans-serif" font-size="11" lengthAdjust="spacing" textLength="84" x="105.5" y="531.6519">PlayersInRoom</text><text fill="#000000" font-family="sans-serif" font-size="11" lengthAdjust="spacing" textLength="24" x="69.5" y="525.2495">else</text><text fill="#000000" font-family="sans-serif" font-size="11" lengthAdjust="spacing" textLength="231" x="201.5" y="525.2495">NoOfPlayers &gt; 1 and SomeoneClickStart</text><rect fill="#F1F1F1" height="33.9688" rx="12.5" ry="12.5" style="stroke:#181818;stroke-width:0.5;" width="47" x="60" y="549.8438"/><text fill="#000000" font-family="sans-serif" font-size="12" lengthAdjust="spacing" textLength="27" x="70" y="570.9824">Wait</text><rect fill="#F1F1F1" height="33.9688" rx="12.5" ry="12.5" style="stroke:#181818;stroke-width:0.5;" width="87" x="168" y="603.8125"/><text fill="#000000" font-family="sans-serif" font-size="12" lengthAdjust="spacing" textLength="67" x="178" y="624.9512">StartGame</text><rect fill="#F1F1F1" height="33.9688" rx="12.5" ry="12.5" style="stroke:#181818;stroke-width:0.5;" width="89" x="167" y="701.7813"/><text fill="#000000" font-family="sans-serif" font-size="12" lengthAdjust="spacing" textLength="69" x="177" y="722.9199">StartMatch</text><rect fill="#F1F1F1" height="33.9688" rx="12.5" ry="12.5" style="stroke:#181818;stroke-width:0.5;" width="117" x="153" y="755.75"/><text fill="#000000" font-family="sans-serif" font-size="12" lengthAdjust="spacing" textLength="97" x="163" y="776.8887">DistributeCards</text><rect fill="#F1F1F1" height="33.9688" rx="12.5" ry="12.5" style="stroke:#181818;stroke-width:0.5;" width="119" x="152" y="809.7188"/><text fill="#000000" font-family="sans-serif" font-size="12" lengthAdjust="spacing" textLength="99" x="162" y="830.8574">AnnounceTricks</text><rect fill="#F1F1F1" height="33.9688" rx="12.5" ry="12.5" style="stroke:#181818;stroke-width:0.5;" width="166" x="128.5" y="863.6875"/><text fill="#000000" font-family="sans-serif" font-size="12" lengthAdjust="spacing" textLength="146" x="138.5" y="884.8262">DisplayAnnouncements</text><rect fill="#F1F1F1" height="33.9688" rx="12.5" ry="12.5" style="stroke:#181818;stroke-width:0.5;" width="85" x="169" y="917.6563"/><text fill="#000000" font-family="sans-serif" font-size="12" lengthAdjust="spacing" textLength="65" x="179" y="938.7949">PlayRound</text><rect fill="#F1F1F1" height="33.9688" rx="12.5" ry="12.5" style="stroke:#181818;stroke-width:0.5;" width="119" x="152" y="1028.6563"/><text fill="#000000" font-family="sans-serif" font-size="12" lengthAdjust="spacing" textLength="99" x="162" y="1049.7949">PlayerPlaysCard</text><polygon fill="#F1F1F1" points="211.5,984.6563,223.5,996.6563,211.5,1008.6563,199.5,996.6563,211.5,984.6563" style="stroke:#181818;stroke-width:0.5;"/><polygon fill="#F1F1F1" points="157.5,1082.625,265.5,1082.625,277.5,1094.625,265.5,1106.625,157.5,1106.625,145.5,1094.625,157.5,1082.625" style="stroke:#181818;stroke-width:0.5;"/><text fill="#000000" font-family="sans-serif" font-size="11" lengthAdjust="spacing" textLength="108" x="157.5" y="1098.4331">NotEveryonePlayed</text><rect fill="#F1F1F1" height="33.9688" rx="12.5" ry="12.5" style="stroke:#181818;stroke-width:0.5;" width="100" x="161.5" y="1126.625"/><text fill="#000000" font-family="sans-serif" font-size="12" lengthAdjust="spacing" textLength="80" x="171.5" y="1147.7637">DisplayScore</text><polygon fill="#F1F1F1" points="211.5,657.7813,223.5,669.7813,211.5,681.7813,199.5,669.7813,211.5,657.7813" style="stroke:#181818;stroke-width:0.5;"/><polygon fill="#F1F1F1" points="156.5,1180.5938,266.5,1180.5938,278.5,1192.5938,266.5,1204.5938,156.5,1204.5938,144.5,1192.5938,156.5,1180.5938" style="stroke:#181818;stroke-width:0.5;"/><text fill="#000000" font-family="sans-serif" font-size="11" lengthAdjust="spacing" textLength="110" x="156.5" y="1196.4019">RoundsPlayed &lt; 10</text><rect fill="#F1F1F1" height="33.9688" rx="12.5" ry="12.5" style="stroke:#181818;stroke-width:0.5;" width="117" x="325.5" y="920.6875"/><text fill="#000000" font-family="sans-serif" font-size="12" lengthAdjust="spacing" textLength="93" x="339.5" y="941.8262">PlayNextRound</text><rect fill="#F1F1F1" height="33.9688" rx="12.5" ry="12.5" style="stroke:#181818;stroke-width:0.5;" width="137" x="143" y="1224.5938"/><text fill="#000000" font-family="sans-serif" font-size="12" lengthAdjust="spacing" textLength="117" x="153" y="1245.7324">DisplayScoreBoard</text><polygon fill="#F1F1F1" points="211.5,549.8438,223.5,561.8438,211.5,573.8438,199.5,561.8438,211.5,549.8438" style="stroke:#181818;stroke-width:0.5;"/><polygon fill="#F1F1F1" points="177.5,1278.5625,245.5,1278.5625,257.5,1290.5625,245.5,1302.5625,177.5,1302.5625,165.5,1290.5625,177.5,1278.5625" style="stroke:#181818;stroke-width:0.5;"/><text fill="#000000" font-family="sans-serif" font-size="11" lengthAdjust="spacing" textLength="68" x="177.5" y="1294.3706">ThatWasFun</text><rect fill="#F1F1F1" height="33.9688" rx="12.5" ry="12.5" style="stroke:#181818;stroke-width:0.5;" width="84" x="452.5" y="920.6875"/><text fill="#000000" font-family="sans-serif" font-size="12" lengthAdjust="spacing" textLength="60" x="466.5" y="941.8262">PlayAgain</text><rect fill="#F1F1F1" height="33.9688" rx="12.5" ry="12.5" style="stroke:#181818;stroke-width:0.5;" width="91" x="166" y="1322.5625"/><text fill="#000000" font-family="sans-serif" font-size="12" lengthAdjust="spacing" textLength="71" x="176" y="1343.7012">LeaveRoom</text><ellipse cx="211.5" cy="1387.5313" rx="11" ry="11" style="stroke:#222222;stroke-width:1.0;fill:none;"/><ellipse cx="211.5" cy="1387.5313" fill="#222222" rx="6" ry="6" style="stroke:#111111;stroke-width:1.0;"/><polygon fill="#F1F1F1" points="147.5,471.8438,159.5,483.8438,147.5,495.8438,135.5,483.8438,147.5,471.8438" style="stroke:#181818;stroke-width:0.5;"/><polygon fill="#F1F1F1" points="102.5,1418.5313,192.5,1418.5313,204.5,1430.5313,192.5,1442.5313,102.5,1442.5313,90.5,1430.5313,102.5,1418.5313" style="stroke:#181818;stroke-width:0.5;"/><text fill="#000000" font-family="sans-serif" font-size="11" lengthAdjust="spacing" textLength="90" x="102.5" y="1434.3394">MorePlayersJoin</text><polygon fill="#F1F1F1" points="147.5,427.8438,159.5,439.8438,147.5,451.8438,135.5,439.8438,147.5,427.8438" style="stroke:#181818;stroke-width:0.5;"/><polygon fill="#F1F1F1" points="93.5,1462.5313,201.5,1462.5313,213.5,1474.5313,201.5,1486.5313,93.5,1486.5313,81.5,1474.5313,93.5,1462.5313" style="stroke:#181818;stroke-width:0.5;"/><text fill="#000000" font-family="sans-serif" font-size="11" lengthAdjust="spacing" textLength="108" x="93.5" y="1478.3394">SomeoneClickStart</text><polygon fill="#F1F1F1" points="147.5,383.8438,159.5,395.8438,147.5,407.8438,135.5,395.8438,147.5,383.8438" style="stroke:#181818;stroke-width:0.5;"/><line style="stroke:#181818;stroke-width:1.0;" x1="147.5" x2="147.5" y1="30" y2="50"/><polygon fill="#181818" points="143.5,40,147.5,50,151.5,40,147.5,44" style="stroke:#181818;stroke-width:1.0;"/><line style="stroke:#181818;stroke-width:1.0;" x1="147.5" x2="147.5" y1="83.9688" y2="103.9688"/><polygon fill="#181818" points="143.5,93.9688,147.5,103.9688,151.5,93.9688,147.5,97.9688" style="stroke:#181818;stroke-width:1.0;"/><line style="stroke:#181818;stroke-width:1.0;" x1="147.5" x2="147.5" y1="137.9375" y2="157.9375"/><polygon fill="#181818" points="143.5,147.9375,147.5,157.9375,151.5,147.9375,147.5,151.9375" style="stroke:#181818;stroke-width:1.0;"/><line style="stroke:#181818;stroke-width:1.0;" x1="147.5" x2="147.5" y1="191.9063" y2="211.9063"/><polygon fill="#181818" points="143.5,201.9063,147.5,211.9063,151.5,201.9063,147.5,205.9063" style="stroke:#181818;stroke-width:1.0;"/><line style="stroke:#181818;stroke-width:1.0;" x1="104.5" x2="72.5" y1="277.875" y2="277.875"/><line style="stroke:#181818;stroke-width:1.0;" x1="72.5" x2="72.5" y1="277.875" y2="299.875"/><polygon fill="#181818" points="68.5,289.875,72.5,299.875,76.5,289.875,72.5,293.875" style="stroke:#181818;stroke-width:1.0;"/><line style="stroke:#181818;stroke-width:1.0;" x1="190.5" x2="222.5" y1="277.875" y2="277.875"/><line style="stroke:#181818;stroke-width:1.0;" x1="222.5" x2="222.5" y1="277.875" y2="299.875"/><polygon fill="#181818" points="218.5,289.875,222.5,299.875,226.5,289.875,222.5,293.875" style="stroke:#181818;stroke-width:1.0;"/><line style="stroke:#181818;stroke-width:1.0;" x1="72.5" x2="72.5" y1="333.8438" y2="351.8438"/><line style="stroke:#181818;stroke-width:1.0;" x1="72.5" x2="135.5" y1="351.8438" y2="351.8438"/><polygon fill="#181818" points="125.5,347.8438,135.5,351.8438,125.5,355.8438,129.5,351.8438" style="stroke:#181818;stroke-width:1.0;"/><line style="stroke:#181818;stroke-width:1.0;" x1="222.5" x2="222.5" y1="333.8438" y2="351.8438"/><line style="stroke:#181818;stroke-width:1.0;" x1="222.5" x2="159.5" y1="351.8438" y2="351.8438"/><polygon fill="#181818" points="169.5,347.8438,159.5,351.8438,169.5,355.8438,165.5,351.8438" style="stroke:#181818;stroke-width:1.0;"/><line style="stroke:#181818;stroke-width:1.0;" x1="147.5" x2="147.5" y1="245.875" y2="265.875"/><polygon fill="#181818" points="143.5,255.875,147.5,265.875,151.5,255.875,147.5,259.875" style="stroke:#181818;stroke-width:1.0;"/><line style="stroke:#181818;stroke-width:1.0;" x1="211.5" x2="211.5" y1="735.75" y2="755.75"/><polygon fill="#181818" points="207.5,745.75,211.5,755.75,215.5,745.75,211.5,749.75" style="stroke:#181818;stroke-width:1.0;"/><line style="stroke:#181818;stroke-width:1.0;" x1="211.5" x2="211.5" y1="789.7188" y2="809.7188"/><polygon fill="#181818" points="207.5,799.7188,211.5,809.7188,215.5,799.7188,211.5,803.7188" style="stroke:#181818;stroke-width:1.0;"/><line style="stroke:#181818;stroke-width:1.0;" x1="211.5" x2="211.5" y1="843.6875" y2="863.6875"/><polygon fill="#181818" points="207.5,853.6875,211.5,863.6875,215.5,853.6875,211.5,857.6875" style="stroke:#181818;stroke-width:1.0;"/><line style="stroke:#181818;stroke-width:1.0;" x1="211.5" x2="211.5" y1="897.6563" y2="917.6563"/><polygon fill="#181818" points="207.5,907.6563,211.5,917.6563,215.5,907.6563,211.5,911.6563" style="stroke:#181818;stroke-width:1.0;"/><line style="stroke:#181818;stroke-width:1.0;" x1="211.5" x2="211.5" y1="1008.6563" y2="1028.6563"/><polygon fill="#181818" points="207.5,1018.6563,211.5,1028.6563,215.5,1018.6563,211.5,1022.6563" style="stroke:#181818;stroke-width:1.0;"/><line style="stroke:#181818;stroke-width:1.0;" x1="277.5" x2="289.5" y1="1094.625" y2="1094.625"/><polygon fill="#181818" points="285.5,1055.6406,289.5,1045.6406,293.5,1055.6406,289.5,1051.6406" style="stroke:#181818;stroke-width:1.0;"/><line style="stroke:#181818;stroke-width:1.0;" x1="289.5" x2="289.5" y1="996.6563" y2="1094.625"/><line style="stroke:#181818;stroke-width:1.0;" x1="289.5" x2="223.5" y1="996.6563" y2="996.6563"/><polygon fill="#181818" points="233.5,992.6563,223.5,996.6563,233.5,1000.6563,229.5,996.6563" style="stroke:#181818;stroke-width:1.0;"/><line style="stroke:#181818;stroke-width:1.0;" x1="211.5" x2="211.5" y1="1062.625" y2="1082.625"/><polygon fill="#181818" points="207.5,1072.625,211.5,1082.625,215.5,1072.625,211.5,1076.625" style="stroke:#181818;stroke-width:1.0;"/><line style="stroke:#181818;stroke-width:1.0;" x1="211.5" x2="211.5" y1="951.625" y2="984.6563"/><polygon fill="#181818" points="207.5,974.6563,211.5,984.6563,215.5,974.6563,211.5,978.6563" style="stroke:#181818;stroke-width:1.0;"/><line style="stroke:#181818;stroke-width:1.0;" x1="211.5" x2="211.5" y1="1106.625" y2="1126.625"/><polygon fill="#181818" points="207.5,1116.625,211.5,1126.625,215.5,1116.625,211.5,1120.625" style="stroke:#181818;stroke-width:1.0;"/><line style="stroke:#181818;stroke-width:1.0;" x1="211.5" x2="211.5" y1="681.7813" y2="701.7813"/><polygon fill="#181818" points="207.5,691.7813,211.5,701.7813,215.5,691.7813,211.5,695.7813" style="stroke:#181818;stroke-width:1.0;"/><line style="stroke:#181818;stroke-width:1.0;" x1="278.5" x2="384" y1="1192.5938" y2="1192.5938"/><line style="stroke:#181818;stroke-width:1.0;" x1="384" x2="384" y1="954.6563" y2="1192.5938"/><polygon fill="#181818" points="380,964.6563,384,954.6563,388,964.6563,384,960.6563" style="stroke:#181818;stroke-width:1.0;"/><line style="stroke:#181818;stroke-width:1.0;" x1="384" x2="384" y1="669.7813" y2="920.6875"/><line style="stroke:#181818;stroke-width:1.0;" x1="384" x2="223.5" y1="669.7813" y2="669.7813"/><polygon fill="#181818" points="233.5,665.7813,223.5,669.7813,233.5,673.7813,229.5,669.7813" style="stroke:#181818;stroke-width:1.0;"/><line style="stroke:#181818;stroke-width:1.0;" x1="211.5" x2="211.5" y1="1160.5938" y2="1180.5938"/><polygon fill="#181818" points="207.5,1170.5938,211.5,1180.5938,215.5,1170.5938,211.5,1174.5938" style="stroke:#181818;stroke-width:1.0;"/><line style="stroke:#181818;stroke-width:1.0;" x1="211.5" x2="211.5" y1="637.7813" y2="657.7813"/><polygon fill="#181818" points="207.5,647.7813,211.5,657.7813,215.5,647.7813,211.5,651.7813" style="stroke:#181818;stroke-width:1.0;"/><line style="stroke:#181818;stroke-width:1.0;" x1="211.5" x2="211.5" y1="1204.5938" y2="1224.5938"/><polygon fill="#181818" points="207.5,1214.5938,211.5,1224.5938,215.5,1214.5938,211.5,1218.5938" style="stroke:#181818;stroke-width:1.0;"/><line style="stroke:#181818;stroke-width:1.0;" x1="211.5" x2="211.5" y1="573.8438" y2="603.8125"/><polygon fill="#181818" points="207.5,593.8125,211.5,603.8125,215.5,593.8125,211.5,597.8125" style="stroke:#181818;stroke-width:1.0;"/><line style="stroke:#181818;stroke-width:1.0;" x1="257.5" x2="494.5" y1="1290.5625" y2="1290.5625"/><line style="stroke:#181818;stroke-width:1.0;" x1="494.5" x2="494.5" y1="954.6563" y2="1290.5625"/><polygon fill="#181818" points="490.5,964.6563,494.5,954.6563,498.5,964.6563,494.5,960.6563" style="stroke:#181818;stroke-width:1.0;"/><line style="stroke:#181818;stroke-width:1.0;" x1="494.5" x2="494.5" y1="561.8438" y2="920.6875"/><line style="stroke:#181818;stroke-width:1.0;" x1="494.5" x2="223.5" y1="561.8438" y2="561.8438"/><polygon fill="#181818" points="233.5,557.8438,223.5,561.8438,233.5,565.8438,229.5,561.8438" style="stroke:#181818;stroke-width:1.0;"/><line style="stroke:#181818;stroke-width:1.0;" x1="211.5" x2="211.5" y1="1258.5625" y2="1278.5625"/><polygon fill="#181818" points="207.5,1268.5625,211.5,1278.5625,215.5,1268.5625,211.5,1272.5625" style="stroke:#181818;stroke-width:1.0;"/><line style="stroke:#181818;stroke-width:1.0;" x1="211.5" x2="211.5" y1="1302.5625" y2="1322.5625"/><polygon fill="#181818" points="207.5,1312.5625,211.5,1322.5625,215.5,1312.5625,211.5,1316.5625" style="stroke:#181818;stroke-width:1.0;"/><line style="stroke:#181818;stroke-width:1.0;" x1="211.5" x2="211.5" y1="1356.5313" y2="1376.5313"/><polygon fill="#181818" points="207.5,1366.5313,211.5,1376.5313,215.5,1366.5313,211.5,1370.5313" style="stroke:#181818;stroke-width:1.0;"/><line style="stroke:#181818;stroke-width:1.0;" x1="93.5" x2="83.5" y1="527.8438" y2="527.8438"/><line style="stroke:#181818;stroke-width:1.0;" x1="83.5" x2="83.5" y1="527.8438" y2="549.8438"/><polygon fill="#181818" points="79.5,539.8438,83.5,549.8438,87.5,539.8438,83.5,543.8438" style="stroke:#181818;stroke-width:1.0;"/><line style="stroke:#181818;stroke-width:1.0;" x1="201.5" x2="211.5" y1="527.8438" y2="527.8438"/><line style="stroke:#181818;stroke-width:1.0;" x1="211.5" x2="211.5" y1="527.8438" y2="549.8438"/><polygon fill="#181818" points="207.5,539.8438,211.5,549.8438,215.5,539.8438,211.5,543.8438" style="stroke:#181818;stroke-width:1.0;"/><line style="stroke:#181818;stroke-width:1.0;" x1="83.5" x2="83.5" y1="583.8125" y2="1403.5313"/><line style="stroke:#181818;stroke-width:1.0;" x1="83.5" x2="147.5" y1="1403.5313" y2="1403.5313"/><line style="stroke:#181818;stroke-width:1.0;" x1="147.5" x2="147.5" y1="1403.5313" y2="1418.5313"/><polygon fill="#181818" points="143.5,1408.5313,147.5,1418.5313,151.5,1408.5313,147.5,1412.5313" style="stroke:#181818;stroke-width:1.0;"/><line style="stroke:#181818;stroke-width:1.0;" x1="147.5" x2="147.5" y1="495.8438" y2="515.8438"/><polygon fill="#181818" points="143.5,505.8438,147.5,515.8438,151.5,505.8438,147.5,509.8438" style="stroke:#181818;stroke-width:1.0;"/><line style="stroke:#181818;stroke-width:1.0;" x1="204.5" x2="550.5" y1="1430.5313" y2="1430.5313"/><polygon fill="#181818" points="546.5,994.6875,550.5,984.6875,554.5,994.6875,550.5,990.6875" style="stroke:#181818;stroke-width:1.0;"/><line style="stroke:#181818;stroke-width:1.0;" x1="550.5" x2="550.5" y1="483.8438" y2="1430.5313"/><line style="stroke:#181818;stroke-width:1.0;" x1="550.5" x2="159.5" y1="483.8438" y2="483.8438"/><polygon fill="#181818" points="169.5,479.8438,159.5,483.8438,169.5,487.8438,165.5,483.8438" style="stroke:#181818;stroke-width:1.0;"/><line style="stroke:#181818;stroke-width:1.0;" x1="147.5" x2="147.5" y1="451.8438" y2="471.8438"/><polygon fill="#181818" points="143.5,461.8438,147.5,471.8438,151.5,461.8438,147.5,465.8438" style="stroke:#181818;stroke-width:1.0;"/><line style="stroke:#181818;stroke-width:1.0;" x1="213.5" x2="568.5" y1="1474.5313" y2="1474.5313"/><polygon fill="#181818" points="564.5,994.6875,568.5,984.6875,572.5,994.6875,568.5,990.6875" style="stroke:#181818;stroke-width:1.0;"/><line style="stroke:#181818;stroke-width:1.0;" x1="568.5" x2="568.5" y1="439.8438" y2="1474.5313"/><line style="stroke:#181818;stroke-width:1.0;" x1="568.5" x2="159.5" y1="439.8438" y2="439.8438"/><polygon fill="#181818" points="169.5,435.8438,159.5,439.8438,169.5,443.8438,165.5,439.8438" style="stroke:#181818;stroke-width:1.0;"/><line style="stroke:#181818;stroke-width:1.0;" x1="147.5" x2="147.5" y1="1442.5313" y2="1462.5313"/><polygon fill="#181818" points="143.5,1452.5313,147.5,1462.5313,151.5,1452.5313,147.5,1456.5313" style="stroke:#181818;stroke-width:1.0;"/><line style="stroke:#181818;stroke-width:1.0;" x1="147.5" x2="147.5" y1="407.8438" y2="427.8438"/><polygon fill="#181818" points="143.5,417.8438,147.5,427.8438,151.5,417.8438,147.5,421.8438" style="stroke:#181818;stroke-width:1.0;"/><line style="stroke:#181818;stroke-width:1.0;" x1="147.5" x2="147.5" y1="1486.5313" y2="1534.5313"/><line style="stroke:#181818;stroke-width:1.0;" x1="147.5" x2="586.5" y1="1534.5313" y2="1534.5313"/><polygon fill="#181818" points="582.5,988.6875,586.5,978.6875,590.5,988.6875,586.5,984.6875" style="stroke:#181818;stroke-width:1.0;"/><line style="stroke:#181818;stroke-width:1.0;" x1="586.5" x2="586.5" y1="395.8438" y2="1534.5313"/><line style="stroke:#181818;stroke-width:1.0;" x1="586.5" x2="159.5" y1="395.8438" y2="395.8438"/><polygon fill="#181818" points="169.5,391.8438,159.5,395.8438,169.5,399.8438,165.5,395.8438" style="stroke:#181818;stroke-width:1.0;"/><line style="stroke:#181818;stroke-width:1.0;" x1="147.5" x2="147.5" y1="363.8438" y2="383.8438"/><polygon fill="#181818" points="143.5,373.8438,147.5,383.8438,151.5,373.8438,147.5,377.8438" style="stroke:#181818;stroke-width:1.0;"/><!--MD5=[5bb8e62ce85b6ccf19f0cb63eeb362e0]
@startuml
'https://plantuml.com/activity-diagram-beta

start
:PersonEntersStartingPage;
:RegisterByEnteringName;
:ClickOk;
:EnterLobby;
if (EnterRoom) then (CreateNewRoom)
    :CreateNewRoom;
else (ExistingRoom)
    :EnterExistingRoom;
endif
repeat
repeat
repeat
    if (PlayersInRoom) then (else)
        :Wait;
    else (NoOfPlayers > 1 and SomeoneClickStart)
        repeat
        :StartGame;
        repeat
            :StartMatch;
            :DistributeCards;
            :AnnounceTricks;
            :DisplayAnnouncements;
            :PlayRound;
            repeat
            :PlayerPlaysCard;
            repeat while (NotEveryonePlayed)
            :DisplayScore;
            backward: PlayNextRound;
        repeat while (RoundsPlayed < 10)
        :DisplayScoreBoard;
        backward: PlayAgain;
        repeat while (ThatWasFun)
        :LeaveRoom;
        stop
    endif
repeat while (MorePlayersJoin)
repeat while (SomeoneClickStart)

@enduml

@startuml

start
:PersonEntersStartingPage;
:RegisterByEnteringName;
:ClickOk;
:EnterLobby;
if (EnterRoom) then (CreateNewRoom)
    :CreateNewRoom;
else (ExistingRoom)
    :EnterExistingRoom;
endif
repeat
repeat
repeat
    if (PlayersInRoom) then (else)
        :Wait;
    else (NoOfPlayers > 1 and SomeoneClickStart)
        repeat
        :StartGame;
        repeat
            :StartMatch;
            :DistributeCards;
            :AnnounceTricks;
            :DisplayAnnouncements;
            :PlayRound;
            repeat
            :PlayerPlaysCard;
            repeat while (NotEveryonePlayed)
            :DisplayScore;
            backward: PlayNextRound;
        repeat while (RoundsPlayed < 10)
        :DisplayScoreBoard;
        backward: PlayAgain;
        repeat while (ThatWasFun)
        :LeaveRoom;
        stop
    endif
repeat while (MorePlayersJoin)
repeat while (SomeoneClickStart)

@enduml

PlantUML version 1.2022.2(Sat Mar 05 16:30:19 UTC 2022)
(GPL source distribution)
Java Runtime: OpenJDK Runtime Environment
JVM: OpenJDK 64-Bit Server VM
Default Encoding: UTF-8
Language: en
Country: null
--></g></svg>