<?xml version="1.0" encoding="UTF-8" standalone="no"?><svg xmlns="http://www.w3.org/2000/svg" xmlns:xlink="http://www.w3.org/1999/xlink" contentStyleType="text/css" height="885px" preserveAspectRatio="none" style="width:1186px;height:885px;background:#FFFFFF;" version="1.1" viewBox="0 0 1186 885" width="1186px" zoomAndPan="magnify"><defs/><g><!--MD5=[b6dcce5e5ef3c84b0b048d11301373dd]
class Game--><g id="elem_Game"><rect codeLine="40" fill="#F1F1F1" height="64.2969" id="Game" rx="2.5" ry="2.5" style="stroke:#181818;stroke-width:0.5;" width="172" x="385.62" y="245"/><ellipse cx="446.87" cy="261" fill="#ADD1B2" rx="11" ry="11" style="stroke:#181818;stroke-width:1.0;"/><path d="M449.8388,266.6406 Q449.2606,266.9375 448.62,267.0781 Q447.9794,267.2344 447.2763,267.2344 Q444.7763,267.2344 443.4481,265.5938 Q442.1356,263.9375 442.1356,260.8125 Q442.1356,257.6875 443.4481,256.0313 Q444.7763,254.375 447.2763,254.375 Q447.9794,254.375 448.62,254.5313 Q449.2763,254.6875 449.8388,254.9844 L449.8388,257.7031 Q449.2138,257.125 448.62,256.8594 Q448.0263,256.5781 447.4013,256.5781 Q446.0575,256.5781 445.37,257.6563 Q444.6825,258.7188 444.6825,260.8125 Q444.6825,262.9063 445.37,263.9844 Q446.0575,265.0469 447.4013,265.0469 Q448.0263,265.0469 448.62,264.7813 Q449.2138,264.5 449.8388,263.9219 L449.8388,266.6406 Z " fill="#000000"/><text fill="#000000" font-family="sans-serif" font-size="14" lengthAdjust="spacing" textLength="41" x="467.37" y="265.8467">Game</text><line style="stroke:#181818;stroke-width:0.5;" x1="386.62" x2="556.62" y1="277" y2="277"/><line style="stroke:#181818;stroke-width:0.5;" x1="386.62" x2="556.62" y1="285" y2="285"/><text fill="#000000" font-family="sans-serif" font-size="14" lengthAdjust="spacing" textLength="160" x="391.62" y="301.9951">Game(players: Player[])</text></g><!--MD5=[5f0899136ed8f523b18ed05779c24112]
class Match--><g id="elem_Match"><rect codeLine="76" fill="#F1F1F1" height="48" id="Match" rx="2.5" ry="2.5" style="stroke:#181818;stroke-width:0.5;" width="74" x="308.62" y="491.5"/><ellipse cx="323.62" cy="507.5" fill="#ADD1B2" rx="11" ry="11" style="stroke:#181818;stroke-width:1.0;"/><path d="M326.5888,513.1406 Q326.0106,513.4375 325.37,513.5781 Q324.7294,513.7344 324.0263,513.7344 Q321.5263,513.7344 320.1981,512.0938 Q318.8856,510.4375 318.8856,507.3125 Q318.8856,504.1875 320.1981,502.5313 Q321.5263,500.875 324.0263,500.875 Q324.7294,500.875 325.37,501.0313 Q326.0263,501.1875 326.5888,501.4844 L326.5888,504.2031 Q325.9638,503.625 325.37,503.3594 Q324.7763,503.0781 324.1513,503.0781 Q322.8075,503.0781 322.12,504.1563 Q321.4325,505.2188 321.4325,507.3125 Q321.4325,509.4063 322.12,510.4844 Q322.8075,511.5469 324.1513,511.5469 Q324.7763,511.5469 325.37,511.2813 Q325.9638,511 326.5888,510.4219 L326.5888,513.1406 Z " fill="#000000"/><text fill="#000000" font-family="sans-serif" font-size="14" lengthAdjust="spacing" textLength="42" x="337.62" y="512.3467">Match</text><line style="stroke:#181818;stroke-width:0.5;" x1="309.62" x2="381.62" y1="523.5" y2="523.5"/><line style="stroke:#181818;stroke-width:0.5;" x1="309.62" x2="381.62" y1="531.5" y2="531.5"/></g><!--MD5=[96754845d0aafd9798ab5fd3359fa039]
class ScoreBoard--><g id="elem_ScoreBoard"><rect codeLine="60" fill="#F1F1F1" height="64.2969" id="ScoreBoard" rx="2.5" ry="2.5" style="stroke:#181818;stroke-width:0.5;" width="131" x="142.12" y="483.5"/><ellipse cx="165.22" cy="499.5" fill="#ADD1B2" rx="11" ry="11" style="stroke:#181818;stroke-width:1.0;"/><path d="M168.1888,505.1406 Q167.6106,505.4375 166.97,505.5781 Q166.3294,505.7344 165.6263,505.7344 Q163.1263,505.7344 161.7981,504.0938 Q160.4856,502.4375 160.4856,499.3125 Q160.4856,496.1875 161.7981,494.5313 Q163.1263,492.875 165.6263,492.875 Q166.3294,492.875 166.97,493.0313 Q167.6263,493.1875 168.1888,493.4844 L168.1888,496.2031 Q167.5638,495.625 166.97,495.3594 Q166.3763,495.0781 165.7513,495.0781 Q164.4075,495.0781 163.72,496.1563 Q163.0325,497.2188 163.0325,499.3125 Q163.0325,501.4063 163.72,502.4844 Q164.4075,503.5469 165.7513,503.5469 Q166.3763,503.5469 166.97,503.2813 Q167.5638,503 168.1888,502.4219 L168.1888,505.1406 Z " fill="#000000"/><text fill="#000000" font-family="sans-serif" font-size="14" lengthAdjust="spacing" textLength="81" x="181.02" y="504.3467">ScoreBoard</text><line style="stroke:#181818;stroke-width:0.5;" x1="143.12" x2="272.12" y1="515.5" y2="515.5"/><line style="stroke:#181818;stroke-width:0.5;" x1="143.12" x2="272.12" y1="523.5" y2="523.5"/><ellipse cx="153.12" cy="534.5" fill="#84BE84" rx="3" ry="3" style="stroke:#038048;stroke-width:1.0;"/><text fill="#000000" font-family="sans-serif" font-size="14" lengthAdjust="spacing" textLength="105" x="162.12" y="540.4951">displayScores()</text></g><!--MD5=[107af66394bf1ebaa045812c9c475148]
class Score--><g id="elem_Score"><rect codeLine="64" fill="#F1F1F1" height="64.2969" id="Score" rx="2.5" ry="2.5" style="stroke:#181818;stroke-width:0.5;" width="81" x="12.12" y="245"/><ellipse cx="31.17" cy="261" fill="#ADD1B2" rx="11" ry="11" style="stroke:#181818;stroke-width:1.0;"/><path d="M34.1388,266.6406 Q33.5606,266.9375 32.92,267.0781 Q32.2794,267.2344 31.5763,267.2344 Q29.0763,267.2344 27.7481,265.5938 Q26.4356,263.9375 26.4356,260.8125 Q26.4356,257.6875 27.7481,256.0313 Q29.0763,254.375 31.5763,254.375 Q32.2794,254.375 32.92,254.5313 Q33.5763,254.6875 34.1388,254.9844 L34.1388,257.7031 Q33.5138,257.125 32.92,256.8594 Q32.3263,256.5781 31.7013,256.5781 Q30.3575,256.5781 29.67,257.6563 Q28.9825,258.7188 28.9825,260.8125 Q28.9825,262.9063 29.67,263.9844 Q30.3575,265.0469 31.7013,265.0469 Q32.3263,265.0469 32.92,264.7813 Q33.5138,264.5 34.1388,263.9219 L34.1388,266.6406 Z " fill="#000000"/><text fill="#000000" font-family="sans-serif" font-size="14" lengthAdjust="spacing" textLength="40" x="46.07" y="265.8467">Score</text><line style="stroke:#181818;stroke-width:0.5;" x1="13.12" x2="92.12" y1="277" y2="277"/><text fill="#000000" font-family="sans-serif" font-size="14" lengthAdjust="spacing" textLength="69" x="18.12" y="293.9951">points: int</text><line style="stroke:#181818;stroke-width:0.5;" x1="13.12" x2="92.12" y1="301.2969" y2="301.2969"/></g><!--MD5=[2cb47ba637a0d19583e6199456f6ad0b]
class Player--><g id="elem_Player"><rect codeLine="30" fill="#F1F1F1" height="162.0781" id="Player" rx="2.5" ry="2.5" style="stroke:#181818;stroke-width:0.5;" width="222" x="128.62" y="196"/><ellipse cx="214.87" cy="212" fill="#ADD1B2" rx="11" ry="11" style="stroke:#181818;stroke-width:1.0;"/><path d="M217.8388,217.6406 Q217.2606,217.9375 216.62,218.0781 Q215.9794,218.2344 215.2763,218.2344 Q212.7763,218.2344 211.4481,216.5938 Q210.1356,214.9375 210.1356,211.8125 Q210.1356,208.6875 211.4481,207.0313 Q212.7763,205.375 215.2763,205.375 Q215.9794,205.375 216.62,205.5313 Q217.2763,205.6875 217.8388,205.9844 L217.8388,208.7031 Q217.2138,208.125 216.62,207.8594 Q216.0263,207.5781 215.4013,207.5781 Q214.0575,207.5781 213.37,208.6563 Q212.6825,209.7188 212.6825,211.8125 Q212.6825,213.9063 213.37,214.9844 Q214.0575,216.0469 215.4013,216.0469 Q216.0263,216.0469 216.62,215.7813 Q217.2138,215.5 217.8388,214.9219 L217.8388,217.6406 Z " fill="#000000"/><text fill="#000000" font-family="sans-serif" font-size="14" lengthAdjust="spacing" textLength="41" x="235.37" y="216.8467">Player</text><line style="stroke:#181818;stroke-width:0.5;" x1="129.62" x2="349.62" y1="228" y2="228"/><line style="stroke:#181818;stroke-width:0.5;" x1="129.62" x2="349.62" y1="236" y2="236"/><ellipse cx="139.62" cy="247" fill="#84BE84" rx="3" ry="3" style="stroke:#038048;stroke-width:1.0;"/><text fill="#000000" font-family="sans-serif" font-size="14" lengthAdjust="spacing" textLength="100" x="148.62" y="252.9951">receiveCards()</text><ellipse cx="139.62" cy="263.2969" fill="#84BE84" rx="3" ry="3" style="stroke:#038048;stroke-width:1.0;"/><text fill="#000000" font-family="sans-serif" font-size="14" lengthAdjust="spacing" textLength="69" x="148.62" y="269.292">playCard()</text><ellipse cx="139.62" cy="279.5938" fill="#84BE84" rx="3" ry="3" style="stroke:#038048;stroke-width:1.0;"/><text fill="#000000" font-family="sans-serif" font-size="14" lengthAdjust="spacing" textLength="102" x="148.62" y="285.5889">setNewScore()</text><ellipse cx="139.62" cy="295.8906" fill="#84BE84" rx="3" ry="3" style="stroke:#038048;stroke-width:1.0;"/><text fill="#000000" font-family="sans-serif" font-size="14" lengthAdjust="spacing" textLength="103" x="148.62" y="301.8857">getNewScore()</text><ellipse cx="139.62" cy="312.1875" fill="#84BE84" rx="3" ry="3" style="stroke:#038048;stroke-width:1.0;"/><text fill="#000000" font-family="sans-serif" font-size="14" lengthAdjust="spacing" textLength="154" x="148.62" y="318.1826">getAnnouncedTricks()</text><ellipse cx="139.62" cy="328.4844" fill="#84BE84" rx="3" ry="3" style="stroke:#038048;stroke-width:1.0;"/><text fill="#000000" font-family="sans-serif" font-size="14" lengthAdjust="spacing" textLength="196" x="148.62" y="334.4795">getCurrentNumberOfTricks()</text><ellipse cx="139.62" cy="344.7813" fill="#84BE84" rx="3" ry="3" style="stroke:#038048;stroke-width:1.0;"/><text fill="#000000" font-family="sans-serif" font-size="14" lengthAdjust="spacing" textLength="69" x="148.62" y="350.7764">addTrick()</text></g><!--MD5=[ec0faf56e3ab24cb057dcbc4ec4d17b8]
class AnnouncementRound--><g id="elem_AnnouncementRound"><rect codeLine="85" fill="#F1F1F1" height="64.2969" id="AnnouncementRound" rx="2.5" ry="2.5" style="stroke:#181818;stroke-width:0.5;" width="185" x="149.12" y="681.5"/><ellipse cx="164.12" cy="697.5" fill="#ADD1B2" rx="11" ry="11" style="stroke:#181818;stroke-width:1.0;"/><path d="M167.0888,703.1406 Q166.5106,703.4375 165.87,703.5781 Q165.2294,703.7344 164.5263,703.7344 Q162.0263,703.7344 160.6981,702.0938 Q159.3856,700.4375 159.3856,697.3125 Q159.3856,694.1875 160.6981,692.5313 Q162.0263,690.875 164.5263,690.875 Q165.2294,690.875 165.87,691.0313 Q166.5263,691.1875 167.0888,691.4844 L167.0888,694.2031 Q166.4638,693.625 165.87,693.3594 Q165.2763,693.0781 164.6513,693.0781 Q163.3075,693.0781 162.62,694.1563 Q161.9325,695.2188 161.9325,697.3125 Q161.9325,699.4063 162.62,700.4844 Q163.3075,701.5469 164.6513,701.5469 Q165.2763,701.5469 165.87,701.2813 Q166.4638,701 167.0888,700.4219 L167.0888,703.1406 Z " fill="#000000"/><text fill="#000000" font-family="sans-serif" font-size="14" lengthAdjust="spacing" textLength="153" x="178.12" y="702.3467">AnnouncementRound</text><line style="stroke:#181818;stroke-width:0.5;" x1="150.12" x2="333.12" y1="713.5" y2="713.5"/><line style="stroke:#181818;stroke-width:0.5;" x1="150.12" x2="333.12" y1="721.5" y2="721.5"/><ellipse cx="160.12" cy="732.5" fill="#84BE84" rx="3" ry="3" style="stroke:#038048;stroke-width:1.0;"/><text fill="#000000" font-family="sans-serif" font-size="14" lengthAdjust="spacing" textLength="122" x="169.12" y="738.4951">AnnounceTricks()</text></g><!--MD5=[fc07016acbc13ee4bd2c34ae602fef07]
class PlayRound--><g id="elem_PlayRound"><rect codeLine="89" fill="#F1F1F1" height="80.5938" id="PlayRound" rx="2.5" ry="2.5" style="stroke:#181818;stroke-width:0.5;" width="201" x="369.12" y="673"/><ellipse cx="428.87" cy="689" fill="#ADD1B2" rx="11" ry="11" style="stroke:#181818;stroke-width:1.0;"/><path d="M431.8388,694.6406 Q431.2606,694.9375 430.62,695.0781 Q429.9794,695.2344 429.2763,695.2344 Q426.7763,695.2344 425.4481,693.5938 Q424.1356,691.9375 424.1356,688.8125 Q424.1356,685.6875 425.4481,684.0313 Q426.7763,682.375 429.2763,682.375 Q429.9794,682.375 430.62,682.5313 Q431.2763,682.6875 431.8388,682.9844 L431.8388,685.7031 Q431.2138,685.125 430.62,684.8594 Q430.0263,684.5781 429.4013,684.5781 Q428.0575,684.5781 427.37,685.6563 Q426.6825,686.7188 426.6825,688.8125 Q426.6825,690.9063 427.37,691.9844 Q428.0575,693.0469 429.4013,693.0469 Q430.0263,693.0469 430.62,692.7813 Q431.2138,692.5 431.8388,691.9219 L431.8388,694.6406 Z " fill="#000000"/><text fill="#000000" font-family="sans-serif" font-size="14" lengthAdjust="spacing" textLength="73" x="449.37" y="693.8467">PlayRound</text><line style="stroke:#181818;stroke-width:0.5;" x1="370.12" x2="569.12" y1="705" y2="705"/><line style="stroke:#181818;stroke-width:0.5;" x1="370.12" x2="569.12" y1="713" y2="713"/><ellipse cx="380.12" cy="724" fill="#84BE84" rx="3" ry="3" style="stroke:#038048;stroke-width:1.0;"/><text fill="#000000" font-family="sans-serif" font-size="14" lengthAdjust="spacing" textLength="69" x="389.12" y="729.9951">playCard()</text><ellipse cx="380.12" cy="740.2969" fill="#84BE84" rx="3" ry="3" style="stroke:#038048;stroke-width:1.0;"/><text fill="#000000" font-family="sans-serif" font-size="14" lengthAdjust="spacing" textLength="175" x="389.12" y="746.292">calculateScorePerPlayer()</text></g><!--MD5=[d75b0a238b734941260681f0026bbb88]
class Round--><g id="elem_Round"><rect codeLine="81" fill="#F1F1F1" height="64.2969" id="Round" rx="2.5" ry="2.5" style="stroke:#181818;stroke-width:0.5;" width="117" x="418.12" y="483.5"/><ellipse cx="450.67" cy="499.5" fill="#A9DCDF" rx="11" ry="11" style="stroke:#181818;stroke-width:1.0;"/><path d="M450.7794,494.8438 L449.6231,499.9219 L451.9513,499.9219 L450.7794,494.8438 Z M449.295,492.6094 L452.2794,492.6094 L455.6388,505 L453.1856,505 L452.42,501.9375 L449.1388,501.9375 L448.3888,505 L445.9513,505 L449.295,492.6094 Z " fill="#000000"/><text fill="#000000" font-family="sans-serif" font-size="14" font-style="italic" lengthAdjust="spacing" textLength="46" x="468.57" y="504.3467">Round</text><line style="stroke:#181818;stroke-width:0.5;" x1="419.12" x2="534.12" y1="515.5" y2="515.5"/><line style="stroke:#181818;stroke-width:0.5;" x1="419.12" x2="534.12" y1="523.5" y2="523.5"/><ellipse cx="429.12" cy="534.5" fill="#84BE84" rx="3" ry="3" style="stroke:#038048;stroke-width:1.0;"/><text fill="#000000" font-family="sans-serif" font-size="14" lengthAdjust="spacing" textLength="91" x="438.12" y="540.4951">countTricks()</text></g><!--MD5=[3b80863fe285152c5f995a0988d9c33d]
class CardCollectionPlayer--><g id="elem_CardCollectionPlayer"><rect codeLine="122" fill="#F1F1F1" height="64.2969" id="CardCollectionPlayer" rx="2.5" ry="2.5" style="stroke:#181818;stroke-width:0.5;" width="266" x="605.62" y="681.5"/><ellipse cx="663.87" cy="697.5" fill="#ADD1B2" rx="11" ry="11" style="stroke:#181818;stroke-width:1.0;"/><path d="M666.8388,703.1406 Q666.2606,703.4375 665.62,703.5781 Q664.9794,703.7344 664.2763,703.7344 Q661.7763,703.7344 660.4481,702.0938 Q659.1356,700.4375 659.1356,697.3125 Q659.1356,694.1875 660.4481,692.5313 Q661.7763,690.875 664.2763,690.875 Q664.9794,690.875 665.62,691.0313 Q666.2763,691.1875 666.8388,691.4844 L666.8388,694.2031 Q666.2138,693.625 665.62,693.3594 Q665.0263,693.0781 664.4013,693.0781 Q663.0575,693.0781 662.37,694.1563 Q661.6825,695.2188 661.6825,697.3125 Q661.6825,699.4063 662.37,700.4844 Q663.0575,701.5469 664.4013,701.5469 Q665.0263,701.5469 665.62,701.2813 Q666.2138,701 666.8388,700.4219 L666.8388,703.1406 Z " fill="#000000"/><text fill="#000000" font-family="sans-serif" font-size="14" lengthAdjust="spacing" textLength="141" x="684.37" y="702.3467">CardCollectionPlayer</text><line style="stroke:#181818;stroke-width:0.5;" x1="606.62" x2="870.62" y1="713.5" y2="713.5"/><line style="stroke:#181818;stroke-width:0.5;" x1="606.62" x2="870.62" y1="721.5" y2="721.5"/><ellipse cx="616.62" cy="732.5" fill="#84BE84" rx="3" ry="3" style="stroke:#038048;stroke-width:1.0;"/><text fill="#000000" font-family="sans-serif" font-size="14" lengthAdjust="spacing" textLength="240" x="625.62" y="738.4951">CardCollectionPlayer(cards: Card[])</text></g><!--MD5=[8e75db8e426309d2db0afd2887371429]
class ScoreAchieved--><g id="elem_ScoreAchieved"><rect codeLine="72" fill="#F1F1F1" height="48" id="ScoreAchieved" rx="2.5" ry="2.5" style="stroke:#181818;stroke-width:0.5;" width="135" x="293.12" y="822"/><ellipse cx="308.12" cy="838" fill="#ADD1B2" rx="11" ry="11" style="stroke:#181818;stroke-width:1.0;"/><path d="M311.0888,843.6406 Q310.5106,843.9375 309.87,844.0781 Q309.2294,844.2344 308.5263,844.2344 Q306.0263,844.2344 304.6981,842.5938 Q303.3856,840.9375 303.3856,837.8125 Q303.3856,834.6875 304.6981,833.0313 Q306.0263,831.375 308.5263,831.375 Q309.2294,831.375 309.87,831.5313 Q310.5263,831.6875 311.0888,831.9844 L311.0888,834.7031 Q310.4638,834.125 309.87,833.8594 Q309.2763,833.5781 308.6513,833.5781 Q307.3075,833.5781 306.62,834.6563 Q305.9325,835.7188 305.9325,837.8125 Q305.9325,839.9063 306.62,840.9844 Q307.3075,842.0469 308.6513,842.0469 Q309.2763,842.0469 309.87,841.7813 Q310.4638,841.5 311.0888,840.9219 L311.0888,843.6406 Z " fill="#000000"/><text fill="#000000" font-family="sans-serif" font-size="14" lengthAdjust="spacing" textLength="103" x="322.12" y="842.8467">ScoreAchieved</text><line style="stroke:#181818;stroke-width:0.5;" x1="294.12" x2="427.12" y1="854" y2="854"/><line style="stroke:#181818;stroke-width:0.5;" x1="294.12" x2="427.12" y1="862" y2="862"/></g><!--MD5=[1823204e07e173c7352b03c3cd8f5407]
class ScoreAnnounced--><g id="elem_ScoreAnnounced"><rect codeLine="68" fill="#F1F1F1" height="48" id="ScoreAnnounced" rx="2.5" ry="2.5" style="stroke:#181818;stroke-width:0.5;" width="152" x="66.62" y="822"/><ellipse cx="81.62" cy="838" fill="#ADD1B2" rx="11" ry="11" style="stroke:#181818;stroke-width:1.0;"/><path d="M84.5888,843.6406 Q84.0106,843.9375 83.37,844.0781 Q82.7294,844.2344 82.0263,844.2344 Q79.5263,844.2344 78.1981,842.5938 Q76.8856,840.9375 76.8856,837.8125 Q76.8856,834.6875 78.1981,833.0313 Q79.5263,831.375 82.0263,831.375 Q82.7294,831.375 83.37,831.5313 Q84.0263,831.6875 84.5888,831.9844 L84.5888,834.7031 Q83.9638,834.125 83.37,833.8594 Q82.7763,833.5781 82.1513,833.5781 Q80.8075,833.5781 80.12,834.6563 Q79.4325,835.7188 79.4325,837.8125 Q79.4325,839.9063 80.12,840.9844 Q80.8075,842.0469 82.1513,842.0469 Q82.7763,842.0469 83.37,841.7813 Q83.9638,841.5 84.5888,840.9219 L84.5888,843.6406 Z " fill="#000000"/><text fill="#000000" font-family="sans-serif" font-size="14" lengthAdjust="spacing" textLength="120" x="95.62" y="842.8467">ScoreAnnounced</text><line style="stroke:#181818;stroke-width:0.5;" x1="67.62" x2="217.62" y1="854" y2="854"/><line style="stroke:#181818;stroke-width:0.5;" x1="67.62" x2="217.62" y1="862" y2="862"/></g><!--MD5=[3fd616f346a44cd59a91eb10b19e157c]
class User--><g id="elem_User"><rect fill="#F1F1F1" height="48" id="User" rx="2.5" ry="2.5" style="stroke:#181818;stroke-width:0.5;" width="64" x="207.62" y="47.5"/><ellipse cx="222.62" cy="63.5" fill="#ADD1B2" rx="11" ry="11" style="stroke:#181818;stroke-width:1.0;"/><path d="M225.5888,69.1406 Q225.0106,69.4375 224.37,69.5781 Q223.7294,69.7344 223.0263,69.7344 Q220.5263,69.7344 219.1981,68.0938 Q217.8856,66.4375 217.8856,63.3125 Q217.8856,60.1875 219.1981,58.5313 Q220.5263,56.875 223.0263,56.875 Q223.7294,56.875 224.37,57.0313 Q225.0263,57.1875 225.5888,57.4844 L225.5888,60.2031 Q224.9638,59.625 224.37,59.3594 Q223.7763,59.0781 223.1513,59.0781 Q221.8075,59.0781 221.12,60.1563 Q220.4325,61.2188 220.4325,63.3125 Q220.4325,65.4063 221.12,66.4844 Q221.8075,67.5469 223.1513,67.5469 Q223.7763,67.5469 224.37,67.2813 Q224.9638,67 225.5888,66.4219 L225.5888,69.1406 Z " fill="#000000"/><text fill="#000000" font-family="sans-serif" font-size="14" lengthAdjust="spacing" textLength="32" x="236.62" y="68.3467">User</text><line style="stroke:#181818;stroke-width:0.5;" x1="208.62" x2="270.62" y1="79.5" y2="79.5"/><line style="stroke:#181818;stroke-width:0.5;" x1="208.62" x2="270.62" y1="87.5" y2="87.5"/></g><!--MD5=[614efbda66111f6e37cb9552d183a0f6]
class CardCollection--><g id="elem_CardCollection"><rect codeLine="118" fill="#F1F1F1" height="64.2969" id="CardCollection" rx="2.5" ry="2.5" style="stroke:#181818;stroke-width:0.5;" width="166" x="908.62" y="483.5"/><ellipse cx="938.92" cy="499.5" fill="#A9DCDF" rx="11" ry="11" style="stroke:#181818;stroke-width:1.0;"/><path d="M939.0294,494.8438 L937.8731,499.9219 L940.2013,499.9219 L939.0294,494.8438 Z M937.545,492.6094 L940.5294,492.6094 L943.8888,505 L941.4356,505 L940.67,501.9375 L937.3888,501.9375 L936.6388,505 L934.2013,505 L937.545,492.6094 Z " fill="#000000"/><text fill="#000000" font-family="sans-serif" font-size="14" font-style="italic" lengthAdjust="spacing" textLength="100" x="956.32" y="504.3467">CardCollection</text><line style="stroke:#181818;stroke-width:0.5;" x1="909.62" x2="1073.62" y1="515.5" y2="515.5"/><line style="stroke:#181818;stroke-width:0.5;" x1="909.62" x2="1073.62" y1="523.5" y2="523.5"/><ellipse cx="919.62" cy="534.5" fill="#84BE84" rx="3" ry="3" style="stroke:#038048;stroke-width:1.0;"/><text fill="#000000" font-family="sans-serif" font-size="14" lengthAdjust="spacing" textLength="140" x="928.62" y="540.4951">playCard(card: Card)</text></g><!--MD5=[416987fe1c2e00077f94875e1acb917f]
class CardCollectionTable--><g id="elem_CardCollectionTable"><rect codeLine="127" fill="#F1F1F1" height="64.2969" id="CardCollectionTable" rx="2.5" ry="2.5" style="stroke:#181818;stroke-width:0.5;" width="170" x="482.62" y="814"/><ellipse cx="497.62" cy="830" fill="#ADD1B2" rx="11" ry="11" style="stroke:#181818;stroke-width:1.0;"/><path d="M500.5888,835.6406 Q500.0106,835.9375 499.37,836.0781 Q498.7294,836.2344 498.0263,836.2344 Q495.5263,836.2344 494.1981,834.5938 Q492.8856,832.9375 492.8856,829.8125 Q492.8856,826.6875 494.1981,825.0313 Q495.5263,823.375 498.0263,823.375 Q498.7294,823.375 499.37,823.5313 Q500.0263,823.6875 500.5888,823.9844 L500.5888,826.7031 Q499.9638,826.125 499.37,825.8594 Q498.7763,825.5781 498.1513,825.5781 Q496.8075,825.5781 496.12,826.6563 Q495.4325,827.7188 495.4325,829.8125 Q495.4325,831.9063 496.12,832.9844 Q496.8075,834.0469 498.1513,834.0469 Q498.7763,834.0469 499.37,833.7813 Q499.9638,833.5 500.5888,832.9219 L500.5888,835.6406 Z " fill="#000000"/><text fill="#000000" font-family="sans-serif" font-size="14" lengthAdjust="spacing" textLength="138" x="511.62" y="834.8467">CardCollectionTable</text><line style="stroke:#181818;stroke-width:0.5;" x1="483.62" x2="651.62" y1="846" y2="846"/><line style="stroke:#181818;stroke-width:0.5;" x1="483.62" x2="651.62" y1="854" y2="854"/><ellipse cx="493.62" cy="865" fill="#84BE84" rx="3" ry="3" style="stroke:#038048;stroke-width:1.0;"/><text fill="#000000" font-family="sans-serif" font-size="14" lengthAdjust="spacing" textLength="118" x="502.62" y="870.9951">getHighestCard()</text></g><!--MD5=[5e305716458bbdabbd2d7f572ed2bae2]
class Card--><g id="elem_Card"><rect codeLine="94" fill="#F1F1F1" height="194.6719" id="Card" rx="2.5" ry="2.5" style="stroke:#181818;stroke-width:0.5;" width="70" x="1109.62" y="418"/><ellipse cx="1127.32" cy="434" fill="#EB937F" rx="11" ry="11" style="stroke:#181818;stroke-width:1.0;"/><path d="M1131.4294,440 L1123.7106,440 L1123.7106,427.6094 L1131.4294,427.6094 L1131.4294,429.7656 L1126.1638,429.7656 L1126.1638,432.4375 L1130.9294,432.4375 L1130.9294,434.5938 L1126.1638,434.5938 L1126.1638,437.8438 L1131.4294,437.8438 L1131.4294,440 Z " fill="#000000"/><text fill="#000000" font-family="sans-serif" font-size="14" lengthAdjust="spacing" textLength="32" x="1141.92" y="438.8467">Card</text><line style="stroke:#181818;stroke-width:0.5;" x1="1110.62" x2="1178.62" y1="450" y2="450"/><text fill="#000000" font-family="sans-serif" font-size="14" lengthAdjust="spacing" textLength="27" x="1115.62" y="466.9951">ASS</text><text fill="#000000" font-family="sans-serif" font-size="14" lengthAdjust="spacing" textLength="53" x="1115.62" y="483.292">KOENIG</text><text fill="#000000" font-family="sans-serif" font-size="14" lengthAdjust="spacing" textLength="40" x="1115.62" y="499.5889">OBER</text><text fill="#000000" font-family="sans-serif" font-size="14" lengthAdjust="spacing" textLength="50" x="1115.62" y="515.8857">UNDER</text><text fill="#000000" font-family="sans-serif" font-size="14" lengthAdjust="spacing" textLength="58" x="1115.62" y="532.1826">BANNER</text><text fill="#000000" font-family="sans-serif" font-size="14" lengthAdjust="spacing" textLength="32" x="1115.62" y="548.4795">NINE</text><text fill="#000000" font-family="sans-serif" font-size="14" lengthAdjust="spacing" textLength="42" x="1115.62" y="564.7764">EIGHT</text><text fill="#000000" font-family="sans-serif" font-size="14" lengthAdjust="spacing" textLength="46" x="1115.62" y="581.0732">SEVEN</text><text fill="#000000" font-family="sans-serif" font-size="14" lengthAdjust="spacing" textLength="21" x="1115.62" y="597.3701">SIX</text><line style="stroke:#181818;stroke-width:0.5;" x1="1110.62" x2="1178.62" y1="604.6719" y2="604.6719"/></g><!--MD5=[f8e7078f77c005d15b486c0c98deb1e6]
class Action--><g id="elem_Action"><rect codeLine="106" fill="#F1F1F1" height="80.5938" id="Action" rx="2.5" ry="2.5" style="stroke:#181818;stroke-width:0.5;" width="91" x="570.12" y="475"/><ellipse cx="592.32" cy="491" fill="#EB937F" rx="11" ry="11" style="stroke:#181818;stroke-width:1.0;"/><path d="M596.4294,497 L588.7106,497 L588.7106,484.6094 L596.4294,484.6094 L596.4294,486.7656 L591.1638,486.7656 L591.1638,489.4375 L595.9294,489.4375 L595.9294,491.5938 L591.1638,491.5938 L591.1638,494.8438 L596.4294,494.8438 L596.4294,497 Z " fill="#000000"/><text fill="#000000" font-family="sans-serif" font-size="14" lengthAdjust="spacing" textLength="43" x="607.92" y="495.8467">Action</text><line style="stroke:#181818;stroke-width:0.5;" x1="571.12" x2="660.12" y1="507" y2="507"/><text fill="#000000" font-family="sans-serif" font-size="14" lengthAdjust="spacing" textLength="79" x="576.12" y="523.9951">ANNOUNCE</text><text fill="#000000" font-family="sans-serif" font-size="14" lengthAdjust="spacing" textLength="34" x="576.12" y="540.292">PLAY</text><line style="stroke:#181818;stroke-width:0.5;" x1="571.12" x2="660.12" y1="547.5938" y2="547.5938"/></g><!--MD5=[3a8c45a416d57f012f894325536755c1]
class Lobby--><g id="elem_Lobby"><rect codeLine="46" fill="#F1F1F1" height="48" id="Lobby" rx="2.5" ry="2.5" style="stroke:#181818;stroke-width:0.5;" width="73" x="307.12" y="47.5"/><ellipse cx="322.12" cy="63.5" fill="#ADD1B2" rx="11" ry="11" style="stroke:#181818;stroke-width:1.0;"/><path d="M325.0888,69.1406 Q324.5106,69.4375 323.87,69.5781 Q323.2294,69.7344 322.5263,69.7344 Q320.0263,69.7344 318.6981,68.0938 Q317.3856,66.4375 317.3856,63.3125 Q317.3856,60.1875 318.6981,58.5313 Q320.0263,56.875 322.5263,56.875 Q323.2294,56.875 323.87,57.0313 Q324.5263,57.1875 325.0888,57.4844 L325.0888,60.2031 Q324.4638,59.625 323.87,59.3594 Q323.2763,59.0781 322.6513,59.0781 Q321.3075,59.0781 320.62,60.1563 Q319.9325,61.2188 319.9325,63.3125 Q319.9325,65.4063 320.62,66.4844 Q321.3075,67.5469 322.6513,67.5469 Q323.2763,67.5469 323.87,67.2813 Q324.4638,67 325.0888,66.4219 L325.0888,69.1406 Z " fill="#000000"/><text fill="#000000" font-family="sans-serif" font-size="14" lengthAdjust="spacing" textLength="41" x="336.12" y="68.3467">Lobby</text><line style="stroke:#181818;stroke-width:0.5;" x1="308.12" x2="379.12" y1="79.5" y2="79.5"/><line style="stroke:#181818;stroke-width:0.5;" x1="308.12" x2="379.12" y1="87.5" y2="87.5"/></g><g id="elem_GMN40"><path d="M415.62,51.5 L415.62,67.5 L380.37,71.5 L415.62,75.5 L415.62,91.7656 A0,0 0 0 0 415.62,91.7656 L495.62,91.7656 A0,0 0 0 0 495.62,91.7656 L495.62,61.5 L485.62,51.5 L415.62,51.5 A0,0 0 0 0 415.62,51.5 " fill="#FEFFDD" style="stroke:#181818;stroke-width:0.5;"/><path d="M485.62,51.5 L485.62,61.5 L495.62,61.5 L485.62,51.5 " fill="#FEFFDD" style="stroke:#181818;stroke-width:0.5;"/><text fill="#000000" font-family="sans-serif" font-size="13" lengthAdjust="spacing" textLength="57" x="421.62" y="68.5669">not sure,</text><text fill="#000000" font-family="sans-serif" font-size="13" lengthAdjust="spacing" textLength="59" x="421.62" y="83.6997">if needed</text></g><!--MD5=[7ee2d55aacd2ee63bf235ae41267d830]
class RuleSet--><g id="elem_RuleSet"><rect codeLine="51" fill="#F1F1F1" height="129.4844" id="RuleSet" rx="2.5" ry="2.5" style="stroke:#181818;stroke-width:0.5;" width="409" x="531.12" y="7"/><ellipse cx="704.37" cy="23" fill="#ADD1B2" rx="11" ry="11" style="stroke:#181818;stroke-width:1.0;"/><path d="M707.3388,28.6406 Q706.7606,28.9375 706.12,29.0781 Q705.4794,29.2344 704.7763,29.2344 Q702.2763,29.2344 700.9481,27.5938 Q699.6356,25.9375 699.6356,22.8125 Q699.6356,19.6875 700.9481,18.0313 Q702.2763,16.375 704.7763,16.375 Q705.4794,16.375 706.12,16.5313 Q706.7763,16.6875 707.3388,16.9844 L707.3388,19.7031 Q706.7138,19.125 706.12,18.8594 Q705.5263,18.5781 704.9013,18.5781 Q703.5575,18.5781 702.87,19.6563 Q702.1825,20.7188 702.1825,22.8125 Q702.1825,24.9063 702.87,25.9844 Q703.5575,27.0469 704.9013,27.0469 Q705.5263,27.0469 706.12,26.7813 Q706.7138,26.5 707.3388,25.9219 L707.3388,28.6406 Z " fill="#000000"/><text fill="#000000" font-family="sans-serif" font-size="14" lengthAdjust="spacing" textLength="54" x="724.87" y="27.8467">RuleSet</text><line style="stroke:#181818;stroke-width:0.5;" x1="532.12" x2="939.12" y1="39" y2="39"/><line style="stroke:#181818;stroke-width:0.5;" x1="532.12" x2="939.12" y1="47" y2="47"/><ellipse cx="542.12" cy="58" fill="#84BE84" rx="3" ry="3" style="stroke:#038048;stroke-width:1.0;"/><text fill="#000000" font-family="sans-serif" font-size="14" lengthAdjust="spacing" textLength="379" x="551.12" y="63.9951">DetermineHighestCard (cardCollection: CardCollection)</text><ellipse cx="542.12" cy="74.2969" fill="#84BE84" rx="3" ry="3" style="stroke:#038048;stroke-width:1.0;"/><text fill="#000000" font-family="sans-serif" font-size="14" lengthAdjust="spacing" textLength="315" x="551.12" y="80.292">CalculateAchievedPointsPlayer (player: Player)</text><ellipse cx="542.12" cy="90.5938" fill="#84BE84" rx="3" ry="3" style="stroke:#038048;stroke-width:1.0;"/><text fill="#000000" font-family="sans-serif" font-size="14" lengthAdjust="spacing" textLength="216" x="551.12" y="96.5889">GetScoreBoard (round: Round)</text><ellipse cx="542.12" cy="106.8906" fill="#84BE84" rx="3" ry="3" style="stroke:#038048;stroke-width:1.0;"/><text fill="#000000" font-family="sans-serif" font-size="14" lengthAdjust="spacing" textLength="383" x="551.12" y="112.8857">ValidateAnnouncedPoints (round: Round, score: Score)</text><ellipse cx="542.12" cy="123.1875" fill="#84BE84" rx="3" ry="3" style="stroke:#038048;stroke-width:1.0;"/><text fill="#000000" font-family="sans-serif" font-size="14" lengthAdjust="spacing" textLength="147" x="551.12" y="129.1826">GetNextPlayersTurn()</text></g><g id="elem_GMN44"><path d="M647.62,257 L647.62,297.2656 A0,0 0 0 0 647.62,297.2656 L823.62,297.2656 A0,0 0 0 0 823.62,297.2656 L823.62,267 L813.62,257 L739.62,257 L735.62,136.05 L731.62,257 L647.62,257 A0,0 0 0 0 647.62,257 " fill="#FEFFDD" style="stroke:#181818;stroke-width:0.5;"/><path d="M813.62,257 L813.62,267 L823.62,267 L813.62,257 " fill="#FEFFDD" style="stroke:#181818;stroke-width:0.5;"/><text fill="#000000" font-family="sans-serif" font-size="13" lengthAdjust="spacing" textLength="151" x="653.62" y="274.0669">HelperClass with check-</text><text fill="#000000" font-family="sans-serif" font-size="13" lengthAdjust="spacing" textLength="150" x="653.62" y="289.1997">and validation methods</text></g><g id="elem_GMN47"><path d="M696.62,495.5 L696.62,511.5 L661.47,515.5 L696.62,519.5 L696.62,535.7656 A0,0 0 0 0 696.62,535.7656 L776.62,535.7656 A0,0 0 0 0 776.62,535.7656 L776.62,505.5 L766.62,495.5 L696.62,495.5 A0,0 0 0 0 696.62,495.5 " fill="#FEFFDD" style="stroke:#181818;stroke-width:0.5;"/><path d="M766.62,495.5 L766.62,505.5 L776.62,505.5 L766.62,495.5 " fill="#FEFFDD" style="stroke:#181818;stroke-width:0.5;"/><text fill="#000000" font-family="sans-serif" font-size="13" lengthAdjust="spacing" textLength="57" x="702.62" y="512.5669">not sure,</text><text fill="#000000" font-family="sans-serif" font-size="13" lengthAdjust="spacing" textLength="59" x="702.62" y="527.6997">if needed</text></g><g id="elem_GMN50"><path d="M907.12,701 L907.12,709.5 L871.7,713.5 L907.12,717.5 L907.12,726.1328 A0,0 0 0 0 907.12,726.1328 L972.12,726.1328 A0,0 0 0 0 972.12,726.1328 L972.12,711 L962.12,701 L907.12,701 A0,0 0 0 0 907.12,701 " fill="#FEFFDD" style="stroke:#181818;stroke-width:0.5;"/><path d="M962.12,701 L962.12,711 L972.12,711 L962.12,701 " fill="#FEFFDD" style="stroke:#181818;stroke-width:0.5;"/><text fill="#000000" font-family="sans-serif" font-size="13" lengthAdjust="spacing" textLength="44" x="913.12" y="718.0669">"Hand"</text></g><!--MD5=[f63570cca729e3796f728931014680ef]
reverse link Game to Match--><g id="link_Game_Match"><path codeLine="4" d="M448.65,321.11 C422.02,371.1 379.09,451.68 358.05,491.17 " fill="none" id="Game-backto-Match" style="stroke:#181818;stroke-width:1.0;"/><polygon fill="#181818" points="454.89,309.41,448.5379,312.8234,449.2457,319.9997,455.5977,316.5863,454.89,309.41" style="stroke:#181818;stroke-width:1.0;"/><text fill="#000000" font-family="sans-serif" font-size="13" lengthAdjust="spacing" textLength="8" x="442.8088" y="329.318">1</text><text fill="#000000" font-family="sans-serif" font-size="13" lengthAdjust="spacing" textLength="23" x="335.2767" y="480.4945">1..*</text></g><!--MD5=[3f980a12e5a0e078523f34a5a6e7a721]
reverse link Game to ScoreBoard--><g id="link_Game_ScoreBoard"><path codeLine="5" d="M420.51,317.33 C368.04,357.75 293.59,415.18 290.62,418 C269.3,438.24 247.73,463.49 231.93,483.09 " fill="none" id="Game-backto-ScoreBoard" style="stroke:#181818;stroke-width:1.0;"/><polygon fill="#181818" points="431.01,309.25,423.8156,309.7402,421.501,316.5697,428.6954,316.0795,431.01,309.25" style="stroke:#181818;stroke-width:1.0;"/></g><!--MD5=[ea89496fd3d3964332614f6d4dd31ed9]
link Score to Player--><g id="link_Score_Player"><path codeLine="6" d="M93.16,277 C104.89,277 116.62,277 128.35,277 " fill="none" id="Score-Player" style="stroke:#181818;stroke-width:1.0;"/><text fill="#000000" font-family="sans-serif" font-size="13" lengthAdjust="spacing" textLength="8" x="101.0937" y="272.7163">1</text><text fill="#000000" font-family="sans-serif" font-size="13" lengthAdjust="spacing" textLength="23" x="97.485" y="273.5882">1..*</text></g><!--MD5=[5cd0fd87969e27f75c503a629b8534fb]
reverse link Match to AnnouncementRound--><g id="link_Match_AnnouncementRound"><path codeLine="7" d="M327.11,551.39 C307.56,588.23 277.02,645.78 258.23,681.2 " fill="none" id="Match-backto-AnnouncementRound" style="stroke:#181818;stroke-width:1.0;"/><polygon fill="#181818" points="333.28,539.75,326.933,543.1728,327.6514,550.3481,333.9984,546.9252,333.28,539.75" style="stroke:#181818;stroke-width:1.0;"/><text fill="#000000" font-family="sans-serif" font-size="13" lengthAdjust="spacing" textLength="8" x="321.2971" y="559.5721">1</text><text fill="#000000" font-family="sans-serif" font-size="13" lengthAdjust="spacing" textLength="8" x="252.7126" y="670.4151">1</text></g><!--MD5=[679acd4c7c200acce8a7f023cfdf2b35]
reverse link Match to PlayRound--><g id="link_Match_PlayRound"><path codeLine="8" d="M364.48,551.3 C374.78,569.85 387.97,592.92 400.62,613 C413.28,633.1 428.21,654.84 440.94,672.86 " fill="none" id="Match-backto-PlayRound" style="stroke:#181818;stroke-width:1.0;"/><polygon fill="#181818" points="358.17,539.85,357.5611,547.0354,363.9596,550.361,364.5685,543.1756,358.17,539.85" style="stroke:#181818;stroke-width:1.0;"/><text fill="#000000" font-family="sans-serif" font-size="13" lengthAdjust="spacing" textLength="8" x="352.2541" y="559.6965">1</text><text fill="#000000" font-family="sans-serif" font-size="13" lengthAdjust="spacing" textLength="23" x="411.2852" y="661.9983">1..*</text></g><!--MD5=[8699f9ef4321ac560737602c925ac1da]
reverse link Round to CardCollectionPlayer--><g id="link_Round_CardCollectionPlayer"><path codeLine="11" d="M503.63,558.23 C516.88,576.55 533.99,597.39 552.62,613 C585.88,640.87 628.21,664.26 664.07,681.34 " fill="none" id="Round-backto-CardCollectionPlayer" style="stroke:#181818;stroke-width:1.0;"/><polygon fill="#181818" points="496.1,547.51,496.2736,554.719,502.9948,557.3315,502.8212,550.1225,496.1,547.51" style="stroke:#181818;stroke-width:1.0;"/><text fill="#000000" font-family="sans-serif" font-size="13" lengthAdjust="spacing" textLength="8" x="491.2928" y="567.7089">1</text><text fill="#000000" font-family="sans-serif" font-size="13" lengthAdjust="spacing" textLength="24" x="622.2191" y="670.2101">1..n</text></g><!--MD5=[b962dd83ec798f157c3e851c88d410fa]
reverse link ScoreBoard to Score--><g id="link_ScoreBoard_Score"><path codeLine="12" d="M180.01,472.38 C149.38,425.64 100.67,351.31 73.2,309.41 " fill="none" id="ScoreBoard-backto-Score" style="stroke:#181818;stroke-width:1.0;"/><polygon fill="#181818" points="187.2,483.34,187.2549,476.1291,180.6199,473.305,180.5649,480.5159,187.2,483.34" style="stroke:#181818;stroke-width:1.0;"/><text fill="#000000" font-family="sans-serif" font-size="13" lengthAdjust="spacing" textLength="8" x="174.1634" y="472.2101">1</text><text fill="#000000" font-family="sans-serif" font-size="13" lengthAdjust="spacing" textLength="23" x="51.9876" y="329.318">1..*</text></g><!--MD5=[5c450e5f3d4f2213e2fd9d406983ad9b]
reverse link PlayRound to ScoreAchieved--><g id="link_PlayRound_ScoreAchieved"><path codeLine="13" d="M428.14,764.17 C411.54,784.03 393.24,805.94 379.88,821.94 " fill="none" id="PlayRound-backto-ScoreAchieved" style="stroke:#181818;stroke-width:1.0;"/><polygon fill="none" points="436.62,754.01,429.7051,756.0557,428.9339,763.2254,435.8488,761.1797,436.62,754.01" style="stroke:#181818;stroke-width:1.0;"/><text fill="#000000" font-family="sans-serif" font-size="13" lengthAdjust="spacing" textLength="8" x="422.7231" y="773.7714">1</text><text fill="#000000" font-family="sans-serif" font-size="13" lengthAdjust="spacing" textLength="23" x="358.8685" y="810.9367">1..*</text></g><!--MD5=[2731bedb56f3786c716a2117a3b01615]
reverse link AnnouncementRound to ScoreAnnounced--><g id="link_AnnouncementRound_ScoreAnnounced"><path codeLine="14" d="M209.88,756.34 C193.44,778.01 173.99,803.64 160.25,821.76 " fill="none" id="AnnouncementRound-backto-ScoreAnnounced" style="stroke:#181818;stroke-width:1.0;"/><polygon fill="none" points="217.91,745.76,211.0974,748.124,210.6594,755.3218,217.472,752.9578,217.91,745.76" style="stroke:#181818;stroke-width:1.0;"/><text fill="#000000" font-family="sans-serif" font-size="13" lengthAdjust="spacing" textLength="8" x="204.1948" y="766.0105">1</text><text fill="#000000" font-family="sans-serif" font-size="13" lengthAdjust="spacing" textLength="23" x="138.7442" y="811.1065">1..*</text></g><!--MD5=[702f68b2ad22fef5191ac7472ca929ab]
reverse link User to Player--><g id="link_User_Player"><path codeLine="15" d="M239.62,116.01 C239.62,139.3 239.62,168.71 239.62,195.95 " fill="none" id="User-backto-Player" style="stroke:#181818;stroke-width:1.0;"/><polygon fill="none" points="232.62,115.84,239.62,95.84,246.62,115.84,232.62,115.84" style="stroke:#181818;stroke-width:1.0;"/></g><!--MD5=[00668ba7aeb67630fac8dd522e60bc68]
reverse link Round to AnnouncementRound--><g id="link_Round_AnnouncementRound"><path codeLine="16" d="M443.76,564.06 C431.06,580.6 415.71,598.61 399.62,613 C369.9,639.58 332.26,663.59 301.18,681.36 " fill="none" id="Round-backto-AnnouncementRound" style="stroke:#181818;stroke-width:1.0;"/><polygon fill="none" points="438.21,559.79,455.73,547.87,449.47,568.11,438.21,559.79" style="stroke:#181818;stroke-width:1.0;"/></g><!--MD5=[b1096eba23a33f197ebbf20c8b845f41]
reverse link Round to PlayRound--><g id="link_Round_PlayRound"><path codeLine="17" d="M474.8,567.59 C473.62,600.42 472.12,642.45 471.04,672.78 " fill="none" id="Round-backto-PlayRound" style="stroke:#181818;stroke-width:1.0;"/><polygon fill="none" points="467.8,567.29,475.51,547.56,481.79,567.79,467.8,567.29" style="stroke:#181818;stroke-width:1.0;"/></g><!--MD5=[984aa3b936d222ff488857ba703358e7]
reverse link Score to ScoreAnnounced--><g id="link_Score_ScoreAnnounced"><path codeLine="18" d="M42.65,328.98 C27.49,418.56 6,608.49 62.62,754 C73.07,780.86 95.25,805.03 113.61,821.7 " fill="none" id="Score-backto-ScoreAnnounced" style="stroke:#181818;stroke-width:1.0;"/><polygon fill="none" points="35.77,327.66,46.18,309.2,49.56,330.12,35.77,327.66" style="stroke:#181818;stroke-width:1.0;"/></g><!--MD5=[55b04fd9afe4440d52cbfdc1f81bdd50]
reverse link Score to ScoreAchieved--><g id="link_Score_ScoreAchieved"><path codeLine="19" d="M54.88,329.39 C60.67,438.63 79.43,689.26 131.62,754 C152.6,780.02 233.28,808.18 292.96,826.17 " fill="none" id="Score-backto-ScoreAchieved" style="stroke:#181818;stroke-width:1.0;"/><polygon fill="none" points="47.88,329.55,53.88,309.22,61.87,328.85,47.88,329.55" style="stroke:#181818;stroke-width:1.0;"/></g><!--MD5=[1bfdda4716db63c9eadd20b5aa87700a]
reverse link CardCollection to CardCollectionPlayer--><g id="link_CardCollection_CardCollectionPlayer"><path codeLine="20" d="M935.63,559.88 C888.18,596.64 821.28,648.46 778.94,681.26 " fill="none" id="CardCollection-backto-CardCollectionPlayer" style="stroke:#181818;stroke-width:1.0;"/><polygon fill="none" points="931.43,554.27,951.53,547.56,940.01,565.34,931.43,554.27" style="stroke:#181818;stroke-width:1.0;"/></g><!--MD5=[edbfa4fdc4e5868d0f11fdf0829d28a5]
reverse link CardCollection to CardCollectionTable--><g id="link_CardCollection_CardCollectionTable"><path codeLine="21" d="M1007.74,566.81 C1021.22,619.53 1032.14,701.78 989.62,754 C947.91,805.21 763.61,829.04 652.82,838.92 " fill="none" id="CardCollection-backto-CardCollectionTable" style="stroke:#181818;stroke-width:1.0;"/><polygon fill="none" points="1000.99,568.67,1002.36,547.52,1014.48,564.9,1000.99,568.67" style="stroke:#181818;stroke-width:1.0;"/></g><!--MD5=[86fb2dafc5e601216a471b22a40ae449]
link Player to Game--><g id="link_Player_Game"><path codeLine="23" d="M350.64,277 C362.29,277 373.95,277 385.61,277 " fill="none" id="Player-Game" style="stroke:#181818;stroke-width:1.0;"/><text fill="#000000" font-family="sans-serif" font-size="13" lengthAdjust="spacing" textLength="23" x="358.4889" y="273.5882">1..*</text><text fill="#000000" font-family="sans-serif" font-size="13" lengthAdjust="spacing" textLength="8" x="369.5935" y="273.3916">1</text></g><!--MD5=[732a67a9d609fa8ca9c2abc2ee851e47]
link Player to CardCollectionPlayer--><g id="link_Player_CardCollectionPlayer"><path codeLine="24" d="M350.63,351.06 C356.28,353.6 361.96,355.94 367.62,358 C457.66,390.78 731.75,345.68 794.62,418 C860.35,493.61 795.56,622.03 759.38,681.09 " fill="none" id="Player-CardCollectionPlayer" style="stroke:#181818;stroke-width:1.0;"/><text fill="#000000" font-family="sans-serif" font-size="13" lengthAdjust="spacing" textLength="8" x="358.7166" y="352.8088">1</text><text fill="#000000" font-family="sans-serif" font-size="13" lengthAdjust="spacing" textLength="8" x="754.5749" y="670.5334">1</text></g><!--MD5=[d6ca05f9177df181236beba911584cb8]
reverse link PlayRound to CardCollectionTable--><g id="link_PlayRound_CardCollectionTable"><path codeLine="25" d="M507.28,764.66 C519.73,781.23 533.22,799.19 544.27,813.91 " fill="none" id="PlayRound-backto-CardCollectionTable" style="stroke:#181818;stroke-width:1.0;"/><polygon fill="#181818" points="499.29,754.01,499.7011,761.2094,506.5048,763.5989,506.0937,756.3995,499.29,754.01" style="stroke:#181818;stroke-width:1.0;"/><text fill="#000000" font-family="sans-serif" font-size="13" lengthAdjust="spacing" textLength="8" x="495.3812" y="773.7714">1</text><text fill="#000000" font-family="sans-serif" font-size="13" lengthAdjust="spacing" textLength="8" x="530.6291" y="802.7945">1</text></g><!--MD5=[be599d53a4463bdb392a94b1badc8b45]
link CardCollection to Card--><g id="link_CardCollection_Card"><path codeLine="26" d="M1074.69,515.5 C1086.26,515.5 1097.82,515.5 1109.38,515.5 " fill="none" id="CardCollection-Card" style="stroke:#181818;stroke-width:1.0;"/><text fill="#000000" font-family="sans-serif" font-size="13" lengthAdjust="spacing" textLength="8" x="1082.7168" y="511.8679">1</text><text fill="#000000" font-family="sans-serif" font-size="13" lengthAdjust="spacing" textLength="23" x="1078.6387" y="511.3629">1..*</text></g><!--MD5=[ae751761df5674e2144909e510325978]
link Round to Action--><g id="link_Round_Action"><path codeLine="28" d="M535.26,515.5 C546.88,515.5 558.49,515.5 570.1,515.5 " fill="none" id="Round-Action" style="stroke:#181818;stroke-width:1.0;"/><text fill="#000000" font-family="sans-serif" font-size="13" lengthAdjust="spacing" textLength="8" x="543.2858" y="511.5954">1</text><text fill="#000000" font-family="sans-serif" font-size="13" lengthAdjust="spacing" textLength="8" x="554.2078" y="511.4145">1</text></g><!--MD5=[df5f666611c3c3152948975eb387e2ee]
@startuml
'https://plantuml.com/class-diagram


Game "1" *- - "1..*" Match
Game *- - ScoreBoard
Score "1" - "1..*" Player
Match "1" *- - "1" AnnouncementRound
Match "1" *- - "1..*" PlayRound
/'Round "1" *- - "1..*" Turn
Turn *- - CardCollectionPlayer'/
Round "1" *- - "1..n" CardCollectionPlayer
ScoreBoard "1" *- - "1..*" Score
PlayRound "1" o- - "1..*" ScoreAchieved
AnnouncementRound "1" o- - "1..*" ScoreAnnounced
User <|- - Player
Round <|- - AnnouncementRound
Round <|- - PlayRound
Score <|- - ScoreAnnounced
Score <|- - ScoreAchieved
CardCollection <|- - CardCollectionPlayer
CardCollection <|- - CardCollectionTable

Player "1..*" - "1" Game
Player "1" - "1" CardCollectionPlayer
PlayRound "1" *- - "1" CardCollectionTable
CardCollection "1" - "1..*" Card
/'Lobby "1" - "1..*" Player'/
Round "1" - "1" Action

class Player {
+ receiveCards()
+ playCard()
+ setNewScore()
+ getNewScore()
+ getAnnouncedTricks()
+ getCurrentNumberOfTricks()
+ addTrick()
}

class Game {

Game(players: Player[])

}

class Lobby {

}
note right of Lobby: not sure,\nif needed

class RuleSet {
+ DetermineHighestCard (cardCollection: CardCollection)
+ CalculateAchievedPointsPlayer (player: Player)
+ GetScoreBoard (round: Round)
+ ValidateAnnouncedPoints (round: Round, score: Score)
+ GetNextPlayersTurn()
}
note bottom of RuleSet: HelperClass with check- \nand validation methods

class ScoreBoard {
+displayScores()
}

class Score {
points: int
}

class ScoreAnnounced {

}

class ScoreAchieved {

}

class Match {

}
'note left of Match: not sure,\nif needed

abstract class Round {
+ countTricks()
}

class AnnouncementRound {
+ AnnounceTricks()
}

class PlayRound {
+ playCard()
+ calculateScorePerPlayer()
}

enum Card {
ASS
KOENIG
OBER
UNDER
BANNER
NINE
EIGHT
SEVEN
SIX
}

enum Action {
ANNOUNCE
PLAY
}
note right of Action: not sure,\nif needed

/'class Turn {
+ Turn (player: Player)
+ announceScore()
+ playCard()
}'/

abstract class CardCollection{
+ playCard(card: Card)
}

class CardCollectionPlayer {
+ CardCollectionPlayer(cards: Card[])
}
note right of CardCollectionPlayer: "Hand"

class CardCollectionTable {
+getHighestCard()
}

@enduml

@startuml


Game "1" *- - "1..*" Match
Game *- - ScoreBoard
Score "1" - "1..*" Player
Match "1" *- - "1" AnnouncementRound
Match "1" *- - "1..*" PlayRound
Round "1" *- - "1..n" CardCollectionPlayer
ScoreBoard "1" *- - "1..*" Score
PlayRound "1" o- - "1..*" ScoreAchieved
AnnouncementRound "1" o- - "1..*" ScoreAnnounced
User <|- - Player
Round <|- - AnnouncementRound
Round <|- - PlayRound
Score <|- - ScoreAnnounced
Score <|- - ScoreAchieved
CardCollection <|- - CardCollectionPlayer
CardCollection <|- - CardCollectionTable

Player "1..*" - "1" Game
Player "1" - "1" CardCollectionPlayer
PlayRound "1" *- - "1" CardCollectionTable
CardCollection "1" - "1..*" Card
Round "1" - "1" Action

class Player {
+ receiveCards()
+ playCard()
+ setNewScore()
+ getNewScore()
+ getAnnouncedTricks()
+ getCurrentNumberOfTricks()
+ addTrick()
}

class Game {

Game(players: Player[])

}

class Lobby {

}
note right of Lobby: not sure,\nif needed

class RuleSet {
+ DetermineHighestCard (cardCollection: CardCollection)
+ CalculateAchievedPointsPlayer (player: Player)
+ GetScoreBoard (round: Round)
+ ValidateAnnouncedPoints (round: Round, score: Score)
+ GetNextPlayersTurn()
}
note bottom of RuleSet: HelperClass with check- \nand validation methods

class ScoreBoard {
+displayScores()
}

class Score {
points: int
}

class ScoreAnnounced {

}

class ScoreAchieved {

}

class Match {

}

abstract class Round {
+ countTricks()
}

class AnnouncementRound {
+ AnnounceTricks()
}

class PlayRound {
+ playCard()
+ calculateScorePerPlayer()
}

enum Card {
ASS
KOENIG
OBER
UNDER
BANNER
NINE
EIGHT
SEVEN
SIX
}

enum Action {
ANNOUNCE
PLAY
}
note right of Action: not sure,\nif needed


abstract class CardCollection{
+ playCard(card: Card)
}

class CardCollectionPlayer {
+ CardCollectionPlayer(cards: Card[])
}
note right of CardCollectionPlayer: "Hand"

class CardCollectionTable {
+getHighestCard()
}

@enduml

PlantUML version 1.2022.2(Sat Mar 05 16:30:19 UTC 2022)
(GPL source distribution)
Java Runtime: OpenJDK Runtime Environment
JVM: OpenJDK 64-Bit Server VM
Default Encoding: UTF-8
Language: en
Country: null
--></g></svg>