<?xml version="1.0" encoding="UTF-8" standalone="no"?><svg xmlns="http://www.w3.org/2000/svg" xmlns:xlink="http://www.w3.org/1999/xlink" contentStyleType="text/css" height="912px" preserveAspectRatio="none" style="width:820px;height:912px;background:#FFFFFF;" version="1.1" viewBox="0 0 820 912" width="820px" zoomAndPan="magnify"><defs/><g><!--MD5=[2cb47ba637a0d19583e6199456f6ad0b]
class Player--><g id="elem_Player"><rect codeLine="2" fill="#F1F1F1" height="80.5938" id="Player" rx="2.5" ry="2.5" style="stroke:#181818;stroke-width:0.5;" width="109" x="468" y="23"/><ellipse cx="499.2" cy="39" fill="#ADD1B2" rx="11" ry="11" style="stroke:#181818;stroke-width:1.0;"/><path d="M502.1688,44.6406 Q501.5906,44.9375 500.95,45.0781 Q500.3094,45.2344 499.6063,45.2344 Q497.1063,45.2344 495.7781,43.5938 Q494.4656,41.9375 494.4656,38.8125 Q494.4656,35.6875 495.7781,34.0313 Q497.1063,32.375 499.6063,32.375 Q500.3094,32.375 500.95,32.5313 Q501.6063,32.6875 502.1688,32.9844 L502.1688,35.7031 Q501.5438,35.125 500.95,34.8594 Q500.3563,34.5781 499.7313,34.5781 Q498.3875,34.5781 497.7,35.6563 Q497.0125,36.7188 497.0125,38.8125 Q497.0125,40.9063 497.7,41.9844 Q498.3875,43.0469 499.7313,43.0469 Q500.3563,43.0469 500.95,42.7813 Q501.5438,42.5 502.1688,41.9219 L502.1688,44.6406 Z " fill="#000000"/><text fill="#000000" font-family="sans-serif" font-size="14" lengthAdjust="spacing" textLength="41" x="516.8" y="43.8467">Player</text><line style="stroke:#181818;stroke-width:0.5;" x1="469" x2="576" y1="55" y2="55"/><rect fill="none" height="6" style="stroke:#C82930;stroke-width:1.0;" width="6" x="476" y="63"/><text fill="#000000" font-family="sans-serif" font-size="14" lengthAdjust="spacing" textLength="46" x="488" y="71.9951">long id</text><rect fill="none" height="6" style="stroke:#C82930;stroke-width:1.0;" width="6" x="476" y="79.2969"/><text fill="#000000" font-family="sans-serif" font-size="14" lengthAdjust="spacing" textLength="83" x="488" y="88.292">String name</text><line style="stroke:#181818;stroke-width:0.5;" x1="469" x2="576" y1="95.5938" y2="95.5938"/></g><!--MD5=[3fd616f346a44cd59a91eb10b19e157c]
class User--><g id="elem_User"><rect codeLine="7" fill="#F1F1F1" height="96.8906" id="User" rx="2.5" ry="2.5" style="stroke:#181818;stroke-width:0.5;" width="172" x="146.5" y="229"/><ellipse cx="212.25" cy="245" fill="#ADD1B2" rx="11" ry="11" style="stroke:#181818;stroke-width:1.0;"/><path d="M215.2188,250.6406 Q214.6406,250.9375 214,251.0781 Q213.3594,251.2344 212.6563,251.2344 Q210.1563,251.2344 208.8281,249.5938 Q207.5156,247.9375 207.5156,244.8125 Q207.5156,241.6875 208.8281,240.0313 Q210.1563,238.375 212.6563,238.375 Q213.3594,238.375 214,238.5313 Q214.6563,238.6875 215.2188,238.9844 L215.2188,241.7031 Q214.5938,241.125 214,240.8594 Q213.4063,240.5781 212.7813,240.5781 Q211.4375,240.5781 210.75,241.6563 Q210.0625,242.7188 210.0625,244.8125 Q210.0625,246.9063 210.75,247.9844 Q211.4375,249.0469 212.7813,249.0469 Q213.4063,249.0469 214,248.7813 Q214.5938,248.5 215.2188,247.9219 L215.2188,250.6406 Z " fill="#000000"/><text fill="#000000" font-family="sans-serif" font-size="14" lengthAdjust="spacing" textLength="32" x="232.75" y="249.8467">User</text><line style="stroke:#181818;stroke-width:0.5;" x1="147.5" x2="317.5" y1="261" y2="261"/><rect fill="none" height="6" style="stroke:#C82930;stroke-width:1.0;" width="6" x="154.5" y="269"/><text fill="#000000" font-family="sans-serif" font-size="14" lengthAdjust="spacing" textLength="46" x="166.5" y="277.9951">long id</text><rect fill="none" height="6" style="stroke:#C82930;stroke-width:1.0;" width="6" x="154.5" y="285.2969"/><text fill="#000000" font-family="sans-serif" font-size="14" lengthAdjust="spacing" textLength="114" x="166.5" y="294.292">String username</text><rect fill="none" height="6" style="stroke:#C82930;stroke-width:1.0;" width="6" x="154.5" y="301.5938"/><text fill="#000000" font-family="sans-serif" font-size="14" lengthAdjust="spacing" textLength="146" x="166.5" y="310.5889">String passwordHash</text><line style="stroke:#181818;stroke-width:0.5;" x1="147.5" x2="317.5" y1="317.8906" y2="317.8906"/></g><!--MD5=[48e88c162c5505361c629eb6ff3812a8]
class GameState--><g id="elem_GameState"><rect codeLine="13" fill="#F1F1F1" height="96.8906" id="GameState" rx="2.5" ry="2.5" style="stroke:#181818;stroke-width:0.5;" width="141" x="7" y="15"/><ellipse cx="36.4" cy="31" fill="#EB937F" rx="11" ry="11" style="stroke:#181818;stroke-width:1.0;"/><path d="M40.5094,37 L32.7906,37 L32.7906,24.6094 L40.5094,24.6094 L40.5094,26.7656 L35.2438,26.7656 L35.2438,29.4375 L40.0094,29.4375 L40.0094,31.5938 L35.2438,31.5938 L35.2438,34.8438 L40.5094,34.8438 L40.5094,37 Z " fill="#000000"/><text fill="#000000" font-family="sans-serif" font-size="14" lengthAdjust="spacing" textLength="77" x="53.6" y="35.8467">GameState</text><line style="stroke:#181818;stroke-width:0.5;" x1="8" x2="147" y1="47" y2="47"/><text fill="#000000" font-family="sans-serif" font-size="14" lengthAdjust="spacing" textLength="129" x="13" y="63.9951">FINDING_PLAYERS,</text><text fill="#000000" font-family="sans-serif" font-size="14" lengthAdjust="spacing" textLength="62" x="13" y="80.292">PLAYING,</text><text fill="#000000" font-family="sans-serif" font-size="14" lengthAdjust="spacing" textLength="57" x="13" y="96.5889">CLOSED</text><line style="stroke:#181818;stroke-width:0.5;" x1="8" x2="147" y1="103.8906" y2="103.8906"/></g><!--MD5=[b6dcce5e5ef3c84b0b048d11301373dd]
class Game--><g id="elem_Game"><rect codeLine="19" fill="#F1F1F1" height="96.8906" id="Game" rx="2.5" ry="2.5" style="stroke:#181818;stroke-width:0.5;" width="142" x="353.5" y="229"/><ellipse cx="399.75" cy="245" fill="#ADD1B2" rx="11" ry="11" style="stroke:#181818;stroke-width:1.0;"/><path d="M402.7188,250.6406 Q402.1406,250.9375 401.5,251.0781 Q400.8594,251.2344 400.1563,251.2344 Q397.6563,251.2344 396.3281,249.5938 Q395.0156,247.9375 395.0156,244.8125 Q395.0156,241.6875 396.3281,240.0313 Q397.6563,238.375 400.1563,238.375 Q400.8594,238.375 401.5,238.5313 Q402.1563,238.6875 402.7188,238.9844 L402.7188,241.7031 Q402.0938,241.125 401.5,240.8594 Q400.9063,240.5781 400.2813,240.5781 Q398.9375,240.5781 398.25,241.6563 Q397.5625,242.7188 397.5625,244.8125 Q397.5625,246.9063 398.25,247.9844 Q398.9375,249.0469 400.2813,249.0469 Q400.9063,249.0469 401.5,248.7813 Q402.0938,248.5 402.7188,247.9219 L402.7188,250.6406 Z " fill="#000000"/><text fill="#000000" font-family="sans-serif" font-size="14" lengthAdjust="spacing" textLength="41" x="420.25" y="249.8467">Game</text><line style="stroke:#181818;stroke-width:0.5;" x1="354.5" x2="494.5" y1="261" y2="261"/><rect fill="none" height="6" style="stroke:#C82930;stroke-width:1.0;" width="6" x="361.5" y="269"/><text fill="#000000" font-family="sans-serif" font-size="14" lengthAdjust="spacing" textLength="46" x="373.5" y="277.9951">long id</text><rect fill="none" height="6" style="stroke:#C82930;stroke-width:1.0;" width="6" x="361.5" y="285.2969"/><text fill="#000000" font-family="sans-serif" font-size="14" lengthAdjust="spacing" textLength="116" x="373.5" y="294.292">GameState state</text><rect fill="none" height="6" style="stroke:#C82930;stroke-width:1.0;" width="6" x="361.5" y="301.5938"/><text fill="#000000" font-family="sans-serif" font-size="14" lengthAdjust="spacing" textLength="83" x="373.5" y="310.5889">String name</text><line style="stroke:#181818;stroke-width:0.5;" x1="354.5" x2="494.5" y1="317.8906" y2="317.8906"/></g><!--MD5=[5f0899136ed8f523b18ed05779c24112]
class Match--><g id="elem_Match"><rect codeLine="25" fill="#F1F1F1" height="80.5938" id="Match" rx="2.5" ry="2.5" style="stroke:#181818;stroke-width:0.5;" width="145" x="564" y="435"/><ellipse cx="611.25" cy="451" fill="#ADD1B2" rx="11" ry="11" style="stroke:#181818;stroke-width:1.0;"/><path d="M614.2188,456.6406 Q613.6406,456.9375 613,457.0781 Q612.3594,457.2344 611.6563,457.2344 Q609.1563,457.2344 607.8281,455.5938 Q606.5156,453.9375 606.5156,450.8125 Q606.5156,447.6875 607.8281,446.0313 Q609.1563,444.375 611.6563,444.375 Q612.3594,444.375 613,444.5313 Q613.6563,444.6875 614.2188,444.9844 L614.2188,447.7031 Q613.5938,447.125 613,446.8594 Q612.4063,446.5781 611.7813,446.5781 Q610.4375,446.5781 609.75,447.6563 Q609.0625,448.7188 609.0625,450.8125 Q609.0625,452.9063 609.75,453.9844 Q610.4375,455.0469 611.7813,455.0469 Q612.4063,455.0469 613,454.7813 Q613.5938,454.5 614.2188,453.9219 L614.2188,456.6406 Z " fill="#000000"/><text fill="#000000" font-family="sans-serif" font-size="14" lengthAdjust="spacing" textLength="42" x="631.75" y="455.8467">Match</text><line style="stroke:#181818;stroke-width:0.5;" x1="565" x2="708" y1="467" y2="467"/><rect fill="none" height="6" style="stroke:#C82930;stroke-width:1.0;" width="6" x="572" y="475"/><text fill="#000000" font-family="sans-serif" font-size="14" lengthAdjust="spacing" textLength="46" x="584" y="483.9951">long id</text><rect fill="none" height="6" style="stroke:#C82930;stroke-width:1.0;" width="6" x="572" y="491.2969"/><text fill="#000000" font-family="sans-serif" font-size="14" lengthAdjust="spacing" textLength="119" x="584" y="500.292">int matchNumber</text><line style="stroke:#181818;stroke-width:0.5;" x1="565" x2="708" y1="507.5938" y2="507.5938"/></g><!--MD5=[99df87112e9e40b3a0ddb0db969130b7]
class ScoreAnnouncement--><g id="elem_ScoreAnnouncement"><rect codeLine="30" fill="#F1F1F1" height="64.2969" id="ScoreAnnouncement" rx="2.5" ry="2.5" style="stroke:#181818;stroke-width:0.5;" width="179" x="531" y="245.5"/><ellipse cx="546" cy="261.5" fill="#ADD1B2" rx="11" ry="11" style="stroke:#181818;stroke-width:1.0;"/><path d="M548.9688,267.1406 Q548.3906,267.4375 547.75,267.5781 Q547.1094,267.7344 546.4063,267.7344 Q543.9063,267.7344 542.5781,266.0938 Q541.2656,264.4375 541.2656,261.3125 Q541.2656,258.1875 542.5781,256.5313 Q543.9063,254.875 546.4063,254.875 Q547.1094,254.875 547.75,255.0313 Q548.4063,255.1875 548.9688,255.4844 L548.9688,258.2031 Q548.3438,257.625 547.75,257.3594 Q547.1563,257.0781 546.5313,257.0781 Q545.1875,257.0781 544.5,258.1563 Q543.8125,259.2188 543.8125,261.3125 Q543.8125,263.4063 544.5,264.4844 Q545.1875,265.5469 546.5313,265.5469 Q547.1563,265.5469 547.75,265.2813 Q548.3438,265 548.9688,264.4219 L548.9688,267.1406 Z " fill="#000000"/><text fill="#000000" font-family="sans-serif" font-size="14" lengthAdjust="spacing" textLength="147" x="560" y="266.3467">ScoreAnnouncement</text><line style="stroke:#181818;stroke-width:0.5;" x1="532" x2="709" y1="277.5" y2="277.5"/><rect fill="none" height="6" style="stroke:#C82930;stroke-width:1.0;" width="6" x="539" y="285.5"/><text fill="#000000" font-family="sans-serif" font-size="14" lengthAdjust="spacing" textLength="140" x="551" y="294.4951">int announcedScore</text><line style="stroke:#181818;stroke-width:0.5;" x1="532" x2="709" y1="301.7969" y2="301.7969"/></g><!--MD5=[b3a980551af4fb5504d75634056fd54d]
class Hand--><g id="elem_Hand"><rect codeLine="34" fill="#F1F1F1" height="48" id="Hand" rx="2.5" ry="2.5" style="stroke:#181818;stroke-width:0.5;" width="68" x="745.5" y="253.5"/><ellipse cx="760.5" cy="269.5" fill="#ADD1B2" rx="11" ry="11" style="stroke:#181818;stroke-width:1.0;"/><path d="M763.4688,275.1406 Q762.8906,275.4375 762.25,275.5781 Q761.6094,275.7344 760.9063,275.7344 Q758.4063,275.7344 757.0781,274.0938 Q755.7656,272.4375 755.7656,269.3125 Q755.7656,266.1875 757.0781,264.5313 Q758.4063,262.875 760.9063,262.875 Q761.6094,262.875 762.25,263.0313 Q762.9063,263.1875 763.4688,263.4844 L763.4688,266.2031 Q762.8438,265.625 762.25,265.3594 Q761.6563,265.0781 761.0313,265.0781 Q759.6875,265.0781 759,266.1563 Q758.3125,267.2188 758.3125,269.3125 Q758.3125,271.4063 759,272.4844 Q759.6875,273.5469 761.0313,273.5469 Q761.6563,273.5469 762.25,273.2813 Q762.8438,273 763.4688,272.4219 L763.4688,275.1406 Z " fill="#000000"/><text fill="#000000" font-family="sans-serif" font-size="14" lengthAdjust="spacing" textLength="36" x="774.5" y="274.3467">Hand</text><line style="stroke:#181818;stroke-width:0.5;" x1="746.5" x2="812.5" y1="285.5" y2="285.5"/><line style="stroke:#181818;stroke-width:0.5;" x1="746.5" x2="812.5" y1="293.5" y2="293.5"/></g><!--MD5=[dd91eae41778c45e12552e5329e240e8]
class Turn--><g id="elem_Turn"><rect codeLine="37" fill="#F1F1F1" height="48" id="Turn" rx="2.5" ry="2.5" style="stroke:#181818;stroke-width:0.5;" width="64" x="633.5" y="717"/><ellipse cx="648.5" cy="733" fill="#ADD1B2" rx="11" ry="11" style="stroke:#181818;stroke-width:1.0;"/><path d="M651.4688,738.6406 Q650.8906,738.9375 650.25,739.0781 Q649.6094,739.2344 648.9063,739.2344 Q646.4063,739.2344 645.0781,737.5938 Q643.7656,735.9375 643.7656,732.8125 Q643.7656,729.6875 645.0781,728.0313 Q646.4063,726.375 648.9063,726.375 Q649.6094,726.375 650.25,726.5313 Q650.9063,726.6875 651.4688,726.9844 L651.4688,729.7031 Q650.8438,729.125 650.25,728.8594 Q649.6563,728.5781 649.0313,728.5781 Q647.6875,728.5781 647,729.6563 Q646.3125,730.7188 646.3125,732.8125 Q646.3125,734.9063 647,735.9844 Q647.6875,737.0469 649.0313,737.0469 Q649.6563,737.0469 650.25,736.7813 Q650.8438,736.5 651.4688,735.9219 L651.4688,738.6406 Z " fill="#000000"/><text fill="#000000" font-family="sans-serif" font-size="14" lengthAdjust="spacing" textLength="32" x="662.5" y="737.8467">Turn</text><line style="stroke:#181818;stroke-width:0.5;" x1="634.5" x2="696.5" y1="749" y2="749"/><line style="stroke:#181818;stroke-width:0.5;" x1="634.5" x2="696.5" y1="757" y2="757"/></g><!--MD5=[d75b0a238b734941260681f0026bbb88]
class Round--><g id="elem_Round"><rect codeLine="41" fill="#F1F1F1" height="80.5938" id="Round" rx="2.5" ry="2.5" style="stroke:#181818;stroke-width:0.5;" width="143" x="574" y="576"/><ellipse cx="618.25" cy="592" fill="#ADD1B2" rx="11" ry="11" style="stroke:#181818;stroke-width:1.0;"/><path d="M621.2188,597.6406 Q620.6406,597.9375 620,598.0781 Q619.3594,598.2344 618.6563,598.2344 Q616.1563,598.2344 614.8281,596.5938 Q613.5156,594.9375 613.5156,591.8125 Q613.5156,588.6875 614.8281,587.0313 Q616.1563,585.375 618.6563,585.375 Q619.3594,585.375 620,585.5313 Q620.6563,585.6875 621.2188,585.9844 L621.2188,588.7031 Q620.5938,588.125 620,587.8594 Q619.4063,587.5781 618.7813,587.5781 Q617.4375,587.5781 616.75,588.6563 Q616.0625,589.7188 616.0625,591.8125 Q616.0625,593.9063 616.75,594.9844 Q617.4375,596.0469 618.7813,596.0469 Q619.4063,596.0469 620,595.7813 Q620.5938,595.5 621.2188,594.9219 L621.2188,597.6406 Z " fill="#000000"/><text fill="#000000" font-family="sans-serif" font-size="14" lengthAdjust="spacing" textLength="46" x="638.75" y="596.8467">Round</text><line style="stroke:#181818;stroke-width:0.5;" x1="575" x2="716" y1="608" y2="608"/><rect fill="none" height="6" style="stroke:#C82930;stroke-width:1.0;" width="6" x="582" y="616"/><text fill="#000000" font-family="sans-serif" font-size="14" lengthAdjust="spacing" textLength="46" x="594" y="624.9951">long id</text><rect fill="none" height="6" style="stroke:#C82930;stroke-width:1.0;" width="6" x="582" y="632.2969"/><text fill="#000000" font-family="sans-serif" font-size="14" lengthAdjust="spacing" textLength="117" x="594" y="641.292">int roundNumber</text><line style="stroke:#181818;stroke-width:0.5;" x1="575" x2="716" y1="648.5938" y2="648.5938"/></g><!--MD5=[5e305716458bbdabbd2d7f572ed2bae2]
class Card--><g id="elem_Card"><rect codeLine="46" fill="#F1F1F1" height="80.5938" id="Card" rx="2.5" ry="2.5" style="stroke:#181818;stroke-width:0.5;" width="95" x="660" y="825"/><ellipse cx="688.95" cy="841" fill="#ADD1B2" rx="11" ry="11" style="stroke:#181818;stroke-width:1.0;"/><path d="M691.9188,846.6406 Q691.3406,846.9375 690.7,847.0781 Q690.0594,847.2344 689.3563,847.2344 Q686.8563,847.2344 685.5281,845.5938 Q684.2156,843.9375 684.2156,840.8125 Q684.2156,837.6875 685.5281,836.0313 Q686.8563,834.375 689.3563,834.375 Q690.0594,834.375 690.7,834.5313 Q691.3563,834.6875 691.9188,834.9844 L691.9188,837.7031 Q691.2938,837.125 690.7,836.8594 Q690.1063,836.5781 689.4813,836.5781 Q688.1375,836.5781 687.45,837.6563 Q686.7625,838.7188 686.7625,840.8125 Q686.7625,842.9063 687.45,843.9844 Q688.1375,845.0469 689.4813,845.0469 Q690.1063,845.0469 690.7,844.7813 Q691.2938,844.5 691.9188,843.9219 L691.9188,846.6406 Z " fill="#000000"/><text fill="#000000" font-family="sans-serif" font-size="14" lengthAdjust="spacing" textLength="32" x="706.05" y="845.8467">Card</text><line style="stroke:#181818;stroke-width:0.5;" x1="661" x2="754" y1="857" y2="857"/><rect fill="none" height="6" style="stroke:#C82930;stroke-width:1.0;" width="6" x="668" y="865"/><text fill="#000000" font-family="sans-serif" font-size="14" lengthAdjust="spacing" textLength="55" x="680" y="873.9951">Suit suit</text><rect fill="none" height="6" style="stroke:#C82930;stroke-width:1.0;" width="6" x="668" y="881.2969"/><text fill="#000000" font-family="sans-serif" font-size="14" lengthAdjust="spacing" textLength="69" x="680" y="890.292">Rank rank</text><line style="stroke:#181818;stroke-width:0.5;" x1="661" x2="754" y1="897.5938" y2="897.5938"/></g><!--MD5=[8afaa0cc9be9ac1cdc24999fa1642fa3]
class Suit--><g id="elem_Suit"><rect codeLine="51" fill="#F1F1F1" height="113.1875" id="Suit" rx="2.5" ry="2.5" style="stroke:#181818;stroke-width:0.5;" width="92" x="183.5" y="7"/><ellipse cx="213.8" cy="23" fill="#EB937F" rx="11" ry="11" style="stroke:#181818;stroke-width:1.0;"/><path d="M217.9094,29 L210.1906,29 L210.1906,16.6094 L217.9094,16.6094 L217.9094,18.7656 L212.6438,18.7656 L212.6438,21.4375 L217.4094,21.4375 L217.4094,23.5938 L212.6438,23.5938 L212.6438,26.8438 L217.9094,26.8438 L217.9094,29 Z " fill="#000000"/><text fill="#000000" font-family="sans-serif" font-size="14" lengthAdjust="spacing" textLength="26" x="231.2" y="27.8467">Suit</text><line style="stroke:#181818;stroke-width:0.5;" x1="184.5" x2="274.5" y1="39" y2="39"/><text fill="#000000" font-family="sans-serif" font-size="14" lengthAdjust="spacing" textLength="50" x="189.5" y="55.9951">CLUBS,</text><text fill="#000000" font-family="sans-serif" font-size="14" lengthAdjust="spacing" textLength="80" x="189.5" y="72.292">DIAMONDS,</text><text fill="#000000" font-family="sans-serif" font-size="14" lengthAdjust="spacing" textLength="60" x="189.5" y="88.5889">HEARTS,</text><text fill="#000000" font-family="sans-serif" font-size="14" lengthAdjust="spacing" textLength="56" x="189.5" y="104.8857">SPADES</text><line style="stroke:#181818;stroke-width:0.5;" x1="184.5" x2="274.5" y1="112.1875" y2="112.1875"/></g><!--MD5=[0f690a215a17a0cf4b9f948ca5dd1b3e]
class Rank--><g id="elem_Rank"><rect codeLine="58" fill="#F1F1F1" height="194.6719" id="Rank" rx="2.5" ry="2.5" style="stroke:#181818;stroke-width:0.5;" width="67" x="44" y="180"/><ellipse cx="59" cy="196" fill="#EB937F" rx="11" ry="11" style="stroke:#181818;stroke-width:1.0;"/><path d="M63.1094,202 L55.3906,202 L55.3906,189.6094 L63.1094,189.6094 L63.1094,191.7656 L57.8438,191.7656 L57.8438,194.4375 L62.6094,194.4375 L62.6094,196.5938 L57.8438,196.5938 L57.8438,199.8438 L63.1094,199.8438 L63.1094,202 Z " fill="#000000"/><text fill="#000000" font-family="sans-serif" font-size="14" lengthAdjust="spacing" textLength="35" x="73" y="200.8467">Rank</text><line style="stroke:#181818;stroke-width:0.5;" x1="45" x2="110" y1="212" y2="212"/><text fill="#000000" font-family="sans-serif" font-size="14" lengthAdjust="spacing" textLength="32" x="50" y="228.9951">ACE,</text><text fill="#000000" font-family="sans-serif" font-size="14" lengthAdjust="spacing" textLength="25" x="50" y="245.292">SIX,</text><text fill="#000000" font-family="sans-serif" font-size="14" lengthAdjust="spacing" textLength="50" x="50" y="261.5889">SEVEN,</text><text fill="#000000" font-family="sans-serif" font-size="14" lengthAdjust="spacing" textLength="46" x="50" y="277.8857">EIGHT,</text><text fill="#000000" font-family="sans-serif" font-size="14" lengthAdjust="spacing" textLength="36" x="50" y="294.1826">NINE,</text><text fill="#000000" font-family="sans-serif" font-size="14" lengthAdjust="spacing" textLength="32" x="50" y="310.4795">TEN,</text><text fill="#000000" font-family="sans-serif" font-size="14" lengthAdjust="spacing" textLength="35" x="50" y="326.7764">JACK,</text><text fill="#000000" font-family="sans-serif" font-size="14" lengthAdjust="spacing" textLength="53" x="50" y="343.0732">QUEEN,</text><text fill="#000000" font-family="sans-serif" font-size="14" lengthAdjust="spacing" textLength="33" x="50" y="359.3701">KING</text><line style="stroke:#181818;stroke-width:0.5;" x1="45" x2="110" y1="366.6719" y2="366.6719"/></g><!--MD5=[831236ba57dae0bc776a9527ec9f7aa2]
link Player to User--><g id="link_Player_User"><path codeLine="70" d="M467.83,94.39 C429.51,116.26 377.78,147.66 335.5,180 C316.23,194.74 296.46,212.51 279.46,228.77 " fill="none" id="Player-User" style="stroke:#181818;stroke-width:1.0;"/><text fill="#000000" font-family="sans-serif" font-size="13" lengthAdjust="spacing" textLength="7" x="453.0134" y="94.6361">*</text><text fill="#000000" font-family="sans-serif" font-size="13" lengthAdjust="spacing" textLength="8" x="277.5012" y="217.9466">1</text></g><!--MD5=[86fb2dafc5e601216a471b22a40ae449]
link Player to Game--><g id="link_Player_Game"><path codeLine="71" d="M504.07,104.38 C487.77,139.64 463.95,191.16 446.62,228.64 " fill="none" id="Player-Game" style="stroke:#181818;stroke-width:1.0;"/><text fill="#000000" font-family="sans-serif" font-size="13" lengthAdjust="spacing" textLength="7" x="493.849" y="123.5923">*</text><text fill="#000000" font-family="sans-serif" font-size="13" lengthAdjust="spacing" textLength="7" x="442.2384" y="217.7983">*</text></g><!--MD5=[6f1a36173ced94510e3af98aa3ec7bae]
link Player to ScoreAnnouncement--><g id="link_Player_ScoreAnnouncement"><path codeLine="72" d="M540.93,104.38 C559.84,145.28 588.86,208.05 606.13,245.41 " fill="none" id="Player-ScoreAnnouncement" style="stroke:#181818;stroke-width:1.0;"/><text fill="#000000" font-family="sans-serif" font-size="13" lengthAdjust="spacing" textLength="8" x="535.0494" y="123.5923">1</text><text fill="#000000" font-family="sans-serif" font-size="13" lengthAdjust="spacing" textLength="7" x="595.4443" y="234.2945">*</text></g><!--MD5=[56fbd05464c9cb1c8c48b2b6b42054b4]
link Player to Hand--><g id="link_Player_Hand"><path codeLine="73" d="M577.21,85.2 C622,104.34 684.72,136.41 727.5,180 C748.16,201.05 762.87,231.99 771.25,253.12 " fill="none" id="Player-Hand" style="stroke:#181818;stroke-width:1.0;"/><text fill="#000000" font-family="sans-serif" font-size="13" lengthAdjust="spacing" textLength="8" x="585.0992" y="84.2112">1</text><text fill="#000000" font-family="sans-serif" font-size="13" lengthAdjust="spacing" textLength="7" x="761.3859" y="242.4323">*</text></g><!--MD5=[0c6d6594ac49b4842669681d57c95d8d]
link ScoreAnnouncement to Match--><g id="link_ScoreAnnouncement_Match"><path codeLine="75" d="M623.04,309.56 C625.8,343.45 630.24,397.81 633.26,434.78 " fill="none" id="ScoreAnnouncement-Match" style="stroke:#181818;stroke-width:1.0;"/><text fill="#000000" font-family="sans-serif" font-size="13" lengthAdjust="spacing" textLength="7" x="615.842" y="329.7692">*</text><text fill="#000000" font-family="sans-serif" font-size="13" lengthAdjust="spacing" textLength="8" x="624.0609" y="423.9051">1</text></g><!--MD5=[ebc4fdae77490ce4a26bbddba5e34eab]
link Hand to Match--><g id="link_Hand_Match"><path codeLine="77" d="M769.02,301.66 C759.44,321.82 744.25,351.42 727.5,375 C712.59,395.99 693.69,417.32 676.99,434.81 " fill="none" id="Hand-Match" style="stroke:#181818;stroke-width:1.0;"/><text fill="#000000" font-family="sans-serif" font-size="13" lengthAdjust="spacing" textLength="7" x="758.6124" y="321.4602">*</text><text fill="#000000" font-family="sans-serif" font-size="13" lengthAdjust="spacing" textLength="8" x="675.0337" y="423.9401">1</text></g><!--MD5=[2f16b817737525477c59504130fd53f7]
link Hand to Card--><g id="link_Hand_Card"><path codeLine="78" d="M776.85,301.55 C770.03,360.65 751.26,522.38 734.5,657 C727.23,715.4 718.35,782.98 712.81,824.74 " fill="none" id="Hand-Card" style="stroke:#181818;stroke-width:1.0;"/><text fill="#000000" font-family="sans-serif" font-size="13" lengthAdjust="spacing" textLength="24" x="779.2459" y="321.7186">1..5</text><text fill="#000000" font-family="sans-serif" font-size="13" lengthAdjust="spacing" textLength="8" x="705.027" y="813.8585">1</text></g><!--MD5=[70c92096be01b0f4dd26a6744feaffbd]
link Game to Match--><g id="link_Game_Match"><path codeLine="80" d="M466.18,326.44 C480.69,342.37 497.37,359.88 513.5,375 C535.75,395.85 561.82,417.32 584.23,434.96 " fill="none" id="Game-Match" style="stroke:#181818;stroke-width:1.0;"/><text fill="#000000" font-family="sans-serif" font-size="13" lengthAdjust="spacing" textLength="24" x="446.1683" y="346.1073">1..9</text><text fill="#000000" font-family="sans-serif" font-size="13" lengthAdjust="spacing" textLength="8" x="566.5586" y="423.8163">1</text></g><!--MD5=[7a51bdac25b04a43197b4f59647f1e71]
link Match to Round--><g id="link_Match_Round"><path codeLine="82" d="M639.08,516.33 C640.28,534.94 641.72,557.05 642.92,575.66 " fill="none" id="Match-Round" style="stroke:#181818;stroke-width:1.0;"/><text fill="#000000" font-family="sans-serif" font-size="13" lengthAdjust="spacing" textLength="24" x="613.6964" y="535.535">1..5</text><text fill="#000000" font-family="sans-serif" font-size="13" lengthAdjust="spacing" textLength="8" x="633.8713" y="565.0657">1</text></g><!--MD5=[c7db1d6b3f1b159da7039dc5c02cede1]
link Round to Turn--><g id="link_Round_Turn"><path codeLine="84" d="M651.99,657.27 C655.21,676.97 658.98,700.07 661.72,716.84 " fill="none" id="Round-Turn" style="stroke:#181818;stroke-width:1.0;"/><text fill="#000000" font-family="sans-serif" font-size="13" lengthAdjust="spacing" textLength="7" x="645.4478" y="676.7695">*</text><text fill="#000000" font-family="sans-serif" font-size="13" lengthAdjust="spacing" textLength="8" x="651.7264" y="705.811">1</text></g><!--MD5=[b98c477802494507a24b45e125e8f0bc]
link Turn to Card--><g id="link_Turn_Card"><path codeLine="86" d="M673.4,765.04 C679.15,781.81 687.08,804.95 693.85,824.69 " fill="none" id="Turn-Card" style="stroke:#181818;stroke-width:1.0;"/><text fill="#000000" font-family="sans-serif" font-size="13" lengthAdjust="spacing" textLength="8" x="666.3994" y="785.206">1</text><text fill="#000000" font-family="sans-serif" font-size="13" lengthAdjust="spacing" textLength="8" x="682.9267" y="813.8002">1</text></g><!--MD5=[e47a8f49377d0f9dd1a1234547fc6916]
link GameState to Suit--></g></svg>