<?xml version="1.0" encoding="UTF-8" standalone="no"?><svg xmlns="http://www.w3.org/2000/svg" xmlns:xlink="http://www.w3.org/1999/xlink" contentStyleType="text/css" height="1326px" preserveAspectRatio="none" style="width:973px;height:1326px;background:#FFFFFF;" version="1.1" viewBox="0 0 973 1326" width="973px" zoomAndPan="magnify"><defs/><g><!--MD5=[eb2010727d4e3940a277b741f33ef8ad]
cluster domain classes--><g id="cluster_domain classes"><path d="M443.5,196 L565.5,196 A3.75,3.75 0 0 1 568,198.5 L575,218.2969 L963.5,218.2969 A2.5,2.5 0 0 1 966,220.7969 L966,1316.5 A2.5,2.5 0 0 1 963.5,1319 L443.5,1319 A2.5,2.5 0 0 1 441,1316.5 L441,198.5 A2.5,2.5 0 0 1 443.5,196 " style="stroke:#000000;stroke-width:1.5;fill:none;"/><line style="stroke:#000000;stroke-width:1.5;fill:none;" x1="441" x2="575" y1="218.2969" y2="218.2969"/><text fill="#000000" font-family="sans-serif" font-size="14" font-weight="bold" lengthAdjust="spacing" textLength="121" x="445" y="210.9951">domain classes</text></g><path d="M347.5,6 L412.5,6 A3.75,3.75 0 0 1 415,8.5 L422,28.2969 L426.5,28.2969 A2.5,2.5 0 0 1 429,30.7969 L429,56.0938 A2.5,2.5 0 0 1 426.5,58.5938 L347.5,58.5938 A2.5,2.5 0 0 1 345,56.0938 L345,8.5 A2.5,2.5 0 0 1 347.5,6 " fill="#F1F1F1" style="stroke:#181818;stroke-width:0.5;"/><line style="stroke:#181818;stroke-width:0.5;" x1="345" x2="422" y1="28.2969" y2="28.2969"/><text fill="#000000" font-family="sans-serif" font-size="14" lengthAdjust="spacing" textLength="64" x="349" y="20.9951">validation</text><path d="M393,119 L491,119 A3.75,3.75 0 0 1 493.5,121.5 L500.5,141.2969 L505,141.2969 A2.5,2.5 0 0 1 507.5,143.7969 L507.5,169.0938 A2.5,2.5 0 0 1 505,171.5938 L393,171.5938 A2.5,2.5 0 0 1 390.5,169.0938 L390.5,121.5 A2.5,2.5 0 0 1 393,119 " fill="#F1F1F1" style="stroke:#181818;stroke-width:0.5;"/><line style="stroke:#181818;stroke-width:0.5;" x1="390.5" x2="500.5" y1="141.2969" y2="141.2969"/><text fill="#000000" font-family="sans-serif" font-size="14" lengthAdjust="spacing" textLength="97" x="394.5" y="133.9951">restresources</text><path d="M466.5,6 L543.5,6 A3.75,3.75 0 0 1 546,8.5 L553,28.2969 L557.5,28.2969 A2.5,2.5 0 0 1 560,30.7969 L560,56.0938 A2.5,2.5 0 0 1 557.5,58.5938 L466.5,58.5938 A2.5,2.5 0 0 1 464,56.0938 L464,8.5 A2.5,2.5 0 0 1 466.5,6 " fill="#F1F1F1" style="stroke:#181818;stroke-width:0.5;"/><line style="stroke:#181818;stroke-width:0.5;" x1="464" x2="553" y1="28.2969" y2="28.2969"/><text fill="#000000" font-family="sans-serif" font-size="14" lengthAdjust="spacing" textLength="76" x="468" y="20.9951">sideeffects</text><!--MD5=[2cb47ba637a0d19583e6199456f6ad0b]
class Player--><g id="elem_Player"><rect codeLine="15" fill="#F1F1F1" height="96.8906" id="Player" rx="2.5" ry="2.5" style="stroke:#181818;stroke-width:0.5;" width="136" x="496" y="247"/><ellipse cx="539.35" cy="263" fill="#ADD1B2" rx="11" ry="11" style="stroke:#181818;stroke-width:1.0;"/><path d="M542.3188,268.6406 Q541.7406,268.9375 541.1,269.0781 Q540.4594,269.2344 539.7563,269.2344 Q537.2563,269.2344 535.9281,267.5938 Q534.6156,265.9375 534.6156,262.8125 Q534.6156,259.6875 535.9281,258.0313 Q537.2563,256.375 539.7563,256.375 Q540.4594,256.375 541.1,256.5313 Q541.7563,256.6875 542.3188,256.9844 L542.3188,259.7031 Q541.6938,259.125 541.1,258.8594 Q540.5063,258.5781 539.8813,258.5781 Q538.5375,258.5781 537.85,259.6563 Q537.1625,260.7188 537.1625,262.8125 Q537.1625,264.9063 537.85,265.9844 Q538.5375,267.0469 539.8813,267.0469 Q540.5063,267.0469 541.1,266.7813 Q541.6938,266.5 542.3188,265.9219 L542.3188,268.6406 Z " fill="#000000"/><text fill="#000000" font-family="sans-serif" font-size="14" lengthAdjust="spacing" textLength="41" x="559.65" y="267.8467">Player</text><line style="stroke:#181818;stroke-width:0.5;" x1="497" x2="631" y1="279" y2="279"/><rect fill="none" height="6" style="stroke:#C82930;stroke-width:1.0;" width="6" x="504" y="287"/><text fill="#000000" font-family="sans-serif" font-size="14" lengthAdjust="spacing" textLength="46" x="516" y="295.9951">long id</text><rect fill="none" height="6" style="stroke:#C82930;stroke-width:1.0;" width="6" x="504" y="303.2969"/><text fill="#000000" font-family="sans-serif" font-size="14" lengthAdjust="spacing" textLength="83" x="516" y="312.292">String name</text><rect fill="none" height="6" style="stroke:#C82930;stroke-width:1.0;" width="6" x="504" y="319.5938"/><text fill="#000000" font-family="sans-serif" font-size="14" lengthAdjust="spacing" textLength="110" x="516" y="328.5889">String sessionId</text><line style="stroke:#181818;stroke-width:0.5;" x1="497" x2="631" y1="335.8906" y2="335.8906"/></g><!--MD5=[3fd616f346a44cd59a91eb10b19e157c]
class User--><g id="elem_User"><rect codeLine="21" fill="#F1F1F1" height="96.8906" id="User" rx="2.5" ry="2.5" style="stroke:#181818;stroke-width:0.5;" width="172" x="473" y="461"/><ellipse cx="538.75" cy="477" fill="#ADD1B2" rx="11" ry="11" style="stroke:#181818;stroke-width:1.0;"/><path d="M541.7188,482.6406 Q541.1406,482.9375 540.5,483.0781 Q539.8594,483.2344 539.1563,483.2344 Q536.6563,483.2344 535.3281,481.5938 Q534.0156,479.9375 534.0156,476.8125 Q534.0156,473.6875 535.3281,472.0313 Q536.6563,470.375 539.1563,470.375 Q539.8594,470.375 540.5,470.5313 Q541.1563,470.6875 541.7188,470.9844 L541.7188,473.7031 Q541.0938,473.125 540.5,472.8594 Q539.9063,472.5781 539.2813,472.5781 Q537.9375,472.5781 537.25,473.6563 Q536.5625,474.7188 536.5625,476.8125 Q536.5625,478.9063 537.25,479.9844 Q537.9375,481.0469 539.2813,481.0469 Q539.9063,481.0469 540.5,480.7813 Q541.0938,480.5 541.7188,479.9219 L541.7188,482.6406 Z " fill="#000000"/><text fill="#000000" font-family="sans-serif" font-size="14" lengthAdjust="spacing" textLength="32" x="559.25" y="481.8467">User</text><line style="stroke:#181818;stroke-width:0.5;" x1="474" x2="644" y1="493" y2="493"/><rect fill="none" height="6" style="stroke:#C82930;stroke-width:1.0;" width="6" x="481" y="501"/><text fill="#000000" font-family="sans-serif" font-size="14" lengthAdjust="spacing" textLength="46" x="493" y="509.9951">long id</text><rect fill="none" height="6" style="stroke:#C82930;stroke-width:1.0;" width="6" x="481" y="517.2969"/><text fill="#000000" font-family="sans-serif" font-size="14" lengthAdjust="spacing" textLength="114" x="493" y="526.292">String username</text><rect fill="none" height="6" style="stroke:#C82930;stroke-width:1.0;" width="6" x="481" y="533.5938"/><text fill="#000000" font-family="sans-serif" font-size="14" lengthAdjust="spacing" textLength="146" x="493" y="542.5889">String passwordHash</text><line style="stroke:#181818;stroke-width:0.5;" x1="474" x2="644" y1="549.8906" y2="549.8906"/></g><!--MD5=[48e88c162c5505361c629eb6ff3812a8]
class GameState--><g id="elem_GameState"><rect codeLine="27" fill="#F1F1F1" height="96.8906" id="GameState" rx="2.5" ry="2.5" style="stroke:#181818;stroke-width:0.5;" width="141" x="673.5" y="247"/><ellipse cx="702.9" cy="263" fill="#EB937F" rx="11" ry="11" style="stroke:#181818;stroke-width:1.0;"/><path d="M707.0094,269 L699.2906,269 L699.2906,256.6094 L707.0094,256.6094 L707.0094,258.7656 L701.7438,258.7656 L701.7438,261.4375 L706.5094,261.4375 L706.5094,263.5938 L701.7438,263.5938 L701.7438,266.8438 L707.0094,266.8438 L707.0094,269 Z " fill="#000000"/><text fill="#000000" font-family="sans-serif" font-size="14" lengthAdjust="spacing" textLength="77" x="720.1" y="267.8467">GameState</text><line style="stroke:#181818;stroke-width:0.5;" x1="674.5" x2="813.5" y1="279" y2="279"/><text fill="#000000" font-family="sans-serif" font-size="14" lengthAdjust="spacing" textLength="129" x="679.5" y="295.9951">FINDING_PLAYERS,</text><text fill="#000000" font-family="sans-serif" font-size="14" lengthAdjust="spacing" textLength="62" x="679.5" y="312.292">PLAYING,</text><text fill="#000000" font-family="sans-serif" font-size="14" lengthAdjust="spacing" textLength="57" x="679.5" y="328.5889">CLOSED</text><line style="stroke:#181818;stroke-width:0.5;" x1="674.5" x2="813.5" y1="335.8906" y2="335.8906"/></g><!--MD5=[b6dcce5e5ef3c84b0b048d11301373dd]
class Game--><g id="elem_Game"><rect codeLine="33" fill="#F1F1F1" height="96.8906" id="Game" rx="2.5" ry="2.5" style="stroke:#181818;stroke-width:0.5;" width="142" x="482" y="667"/><ellipse cx="528.25" cy="683" fill="#ADD1B2" rx="11" ry="11" style="stroke:#181818;stroke-width:1.0;"/><path d="M531.2188,688.6406 Q530.6406,688.9375 530,689.0781 Q529.3594,689.2344 528.6563,689.2344 Q526.1563,689.2344 524.8281,687.5938 Q523.5156,685.9375 523.5156,682.8125 Q523.5156,679.6875 524.8281,678.0313 Q526.1563,676.375 528.6563,676.375 Q529.3594,676.375 530,676.5313 Q530.6563,676.6875 531.2188,676.9844 L531.2188,679.7031 Q530.5938,679.125 530,678.8594 Q529.4063,678.5781 528.7813,678.5781 Q527.4375,678.5781 526.75,679.6563 Q526.0625,680.7188 526.0625,682.8125 Q526.0625,684.9063 526.75,685.9844 Q527.4375,687.0469 528.7813,687.0469 Q529.4063,687.0469 530,686.7813 Q530.5938,686.5 531.2188,685.9219 L531.2188,688.6406 Z " fill="#000000"/><text fill="#000000" font-family="sans-serif" font-size="14" lengthAdjust="spacing" textLength="41" x="548.75" y="687.8467">Game</text><line style="stroke:#181818;stroke-width:0.5;" x1="483" x2="623" y1="699" y2="699"/><rect fill="none" height="6" style="stroke:#C82930;stroke-width:1.0;" width="6" x="490" y="707"/><text fill="#000000" font-family="sans-serif" font-size="14" lengthAdjust="spacing" textLength="46" x="502" y="715.9951">long id</text><rect fill="none" height="6" style="stroke:#C82930;stroke-width:1.0;" width="6" x="490" y="723.2969"/><text fill="#000000" font-family="sans-serif" font-size="14" lengthAdjust="spacing" textLength="116" x="502" y="732.292">GameState state</text><rect fill="none" height="6" style="stroke:#C82930;stroke-width:1.0;" width="6" x="490" y="739.5938"/><text fill="#000000" font-family="sans-serif" font-size="14" lengthAdjust="spacing" textLength="83" x="502" y="748.5889">String name</text><line style="stroke:#181818;stroke-width:0.5;" x1="483" x2="623" y1="755.8906" y2="755.8906"/></g><!--MD5=[23bb12025fb3ea604555f955dd7f38e8]
class Participation--><g id="elem_Participation"><rect codeLine="39" fill="#F1F1F1" height="96.8906" id="Participation" rx="2.5" ry="2.5" style="stroke:#181818;stroke-width:0.5;" width="159" x="680.5" y="461"/><ellipse cx="714.85" cy="477" fill="#ADD1B2" rx="11" ry="11" style="stroke:#181818;stroke-width:1.0;"/><path d="M717.8188,482.6406 Q717.2406,482.9375 716.6,483.0781 Q715.9594,483.2344 715.2563,483.2344 Q712.7563,483.2344 711.4281,481.5938 Q710.1156,479.9375 710.1156,476.8125 Q710.1156,473.6875 711.4281,472.0313 Q712.7563,470.375 715.2563,470.375 Q715.9594,470.375 716.6,470.5313 Q717.2563,470.6875 717.8188,470.9844 L717.8188,473.7031 Q717.1938,473.125 716.6,472.8594 Q716.0063,472.5781 715.3813,472.5781 Q714.0375,472.5781 713.35,473.6563 Q712.6625,474.7188 712.6625,476.8125 Q712.6625,478.9063 713.35,479.9844 Q714.0375,481.0469 715.3813,481.0469 Q716.0063,481.0469 716.6,480.7813 Q717.1938,480.5 717.8188,479.9219 L717.8188,482.6406 Z " fill="#000000"/><text fill="#000000" font-family="sans-serif" font-size="14" lengthAdjust="spacing" textLength="84" x="733.15" y="481.8467">Participation</text><line style="stroke:#181818;stroke-width:0.5;" x1="681.5" x2="838.5" y1="493" y2="493"/><rect fill="none" height="6" style="stroke:#C82930;stroke-width:1.0;" width="6" x="688.5" y="501"/><text fill="#000000" font-family="sans-serif" font-size="14" lengthAdjust="spacing" textLength="46" x="700.5" y="509.9951">long id</text><rect fill="none" height="6" style="stroke:#C82930;stroke-width:1.0;" width="6" x="688.5" y="517.2969"/><text fill="#000000" font-family="sans-serif" font-size="14" lengthAdjust="spacing" textLength="100" x="700.5" y="526.292">boolean active</text><rect fill="none" height="6" style="stroke:#C82930;stroke-width:1.0;" width="6" x="688.5" y="533.5938"/><text fill="#000000" font-family="sans-serif" font-size="14" lengthAdjust="spacing" textLength="133" x="700.5" y="542.5889">Integer playerOrder</text><line style="stroke:#181818;stroke-width:0.5;" x1="681.5" x2="838.5" y1="549.8906" y2="549.8906"/></g><!--MD5=[5f0899136ed8f523b18ed05779c24112]
class Match--><g id="elem_Match"><rect codeLine="45" fill="#F1F1F1" height="80.5938" id="Match" rx="2.5" ry="2.5" style="stroke:#181818;stroke-width:0.5;" width="145" x="688.5" y="824"/><ellipse cx="735.75" cy="840" fill="#ADD1B2" rx="11" ry="11" style="stroke:#181818;stroke-width:1.0;"/><path d="M738.7188,845.6406 Q738.1406,845.9375 737.5,846.0781 Q736.8594,846.2344 736.1563,846.2344 Q733.6563,846.2344 732.3281,844.5938 Q731.0156,842.9375 731.0156,839.8125 Q731.0156,836.6875 732.3281,835.0313 Q733.6563,833.375 736.1563,833.375 Q736.8594,833.375 737.5,833.5313 Q738.1563,833.6875 738.7188,833.9844 L738.7188,836.7031 Q738.0938,836.125 737.5,835.8594 Q736.9063,835.5781 736.2813,835.5781 Q734.9375,835.5781 734.25,836.6563 Q733.5625,837.7188 733.5625,839.8125 Q733.5625,841.9063 734.25,842.9844 Q734.9375,844.0469 736.2813,844.0469 Q736.9063,844.0469 737.5,843.7813 Q738.0938,843.5 738.7188,842.9219 L738.7188,845.6406 Z " fill="#000000"/><text fill="#000000" font-family="sans-serif" font-size="14" lengthAdjust="spacing" textLength="42" x="756.25" y="844.8467">Match</text><line style="stroke:#181818;stroke-width:0.5;" x1="689.5" x2="832.5" y1="856" y2="856"/><rect fill="none" height="6" style="stroke:#C82930;stroke-width:1.0;" width="6" x="696.5" y="864"/><text fill="#000000" font-family="sans-serif" font-size="14" lengthAdjust="spacing" textLength="46" x="708.5" y="872.9951">long id</text><rect fill="none" height="6" style="stroke:#C82930;stroke-width:1.0;" width="6" x="696.5" y="880.2969"/><text fill="#000000" font-family="sans-serif" font-size="14" lengthAdjust="spacing" textLength="119" x="708.5" y="889.292">int matchNumber</text><line style="stroke:#181818;stroke-width:0.5;" x1="689.5" x2="832.5" y1="896.5938" y2="896.5938"/></g><!--MD5=[99df87112e9e40b3a0ddb0db969130b7]
class ScoreAnnouncement--><g id="elem_ScoreAnnouncement"><rect codeLine="50" fill="#F1F1F1" height="64.2969" id="ScoreAnnouncement" rx="2.5" ry="2.5" style="stroke:#181818;stroke-width:0.5;" width="179" x="659.5" y="683.5"/><ellipse cx="674.5" cy="699.5" fill="#ADD1B2" rx="11" ry="11" style="stroke:#181818;stroke-width:1.0;"/><path d="M677.4688,705.1406 Q676.8906,705.4375 676.25,705.5781 Q675.6094,705.7344 674.9063,705.7344 Q672.4063,705.7344 671.0781,704.0938 Q669.7656,702.4375 669.7656,699.3125 Q669.7656,696.1875 671.0781,694.5313 Q672.4063,692.875 674.9063,692.875 Q675.6094,692.875 676.25,693.0313 Q676.9063,693.1875 677.4688,693.4844 L677.4688,696.2031 Q676.8438,695.625 676.25,695.3594 Q675.6563,695.0781 675.0313,695.0781 Q673.6875,695.0781 673,696.1563 Q672.3125,697.2188 672.3125,699.3125 Q672.3125,701.4063 673,702.4844 Q673.6875,703.5469 675.0313,703.5469 Q675.6563,703.5469 676.25,703.2813 Q676.8438,703 677.4688,702.4219 L677.4688,705.1406 Z " fill="#000000"/><text fill="#000000" font-family="sans-serif" font-size="14" lengthAdjust="spacing" textLength="147" x="688.5" y="704.3467">ScoreAnnouncement</text><line style="stroke:#181818;stroke-width:0.5;" x1="660.5" x2="837.5" y1="715.5" y2="715.5"/><rect fill="none" height="6" style="stroke:#C82930;stroke-width:1.0;" width="6" x="667.5" y="723.5"/><text fill="#000000" font-family="sans-serif" font-size="14" lengthAdjust="spacing" textLength="140" x="679.5" y="732.4951">int announcedScore</text><line style="stroke:#181818;stroke-width:0.5;" x1="660.5" x2="837.5" y1="739.7969" y2="739.7969"/></g><!--MD5=[b3a980551af4fb5504d75634056fd54d]
class Hand--><g id="elem_Hand"><rect codeLine="54" fill="#F1F1F1" height="48" id="Hand" rx="2.5" ry="2.5" style="stroke:#181818;stroke-width:0.5;" width="68" x="874" y="691.5"/><ellipse cx="889" cy="707.5" fill="#ADD1B2" rx="11" ry="11" style="stroke:#181818;stroke-width:1.0;"/><path d="M891.9688,713.1406 Q891.3906,713.4375 890.75,713.5781 Q890.1094,713.7344 889.4063,713.7344 Q886.9063,713.7344 885.5781,712.0938 Q884.2656,710.4375 884.2656,707.3125 Q884.2656,704.1875 885.5781,702.5313 Q886.9063,700.875 889.4063,700.875 Q890.1094,700.875 890.75,701.0313 Q891.4063,701.1875 891.9688,701.4844 L891.9688,704.2031 Q891.3438,703.625 890.75,703.3594 Q890.1563,703.0781 889.5313,703.0781 Q888.1875,703.0781 887.5,704.1563 Q886.8125,705.2188 886.8125,707.3125 Q886.8125,709.4063 887.5,710.4844 Q888.1875,711.5469 889.5313,711.5469 Q890.1563,711.5469 890.75,711.2813 Q891.3438,711 891.9688,710.4219 L891.9688,713.1406 Z " fill="#000000"/><text fill="#000000" font-family="sans-serif" font-size="14" lengthAdjust="spacing" textLength="36" x="903" y="712.3467">Hand</text><line style="stroke:#181818;stroke-width:0.5;" x1="875" x2="941" y1="723.5" y2="723.5"/><line style="stroke:#181818;stroke-width:0.5;" x1="875" x2="941" y1="731.5" y2="731.5"/></g><!--MD5=[dd91eae41778c45e12552e5329e240e8]
class Turn--><g id="elem_Turn"><rect codeLine="57" fill="#F1F1F1" height="48" id="Turn" rx="2.5" ry="2.5" style="stroke:#181818;stroke-width:0.5;" width="64" x="775" y="1106"/><ellipse cx="790" cy="1122" fill="#ADD1B2" rx="11" ry="11" style="stroke:#181818;stroke-width:1.0;"/><path d="M792.9688,1127.6406 Q792.3906,1127.9375 791.75,1128.0781 Q791.1094,1128.2344 790.4063,1128.2344 Q787.9063,1128.2344 786.5781,1126.5938 Q785.2656,1124.9375 785.2656,1121.8125 Q785.2656,1118.6875 786.5781,1117.0313 Q787.9063,1115.375 790.4063,1115.375 Q791.1094,1115.375 791.75,1115.5313 Q792.4063,1115.6875 792.9688,1115.9844 L792.9688,1118.7031 Q792.3438,1118.125 791.75,1117.8594 Q791.1563,1117.5781 790.5313,1117.5781 Q789.1875,1117.5781 788.5,1118.6563 Q787.8125,1119.7188 787.8125,1121.8125 Q787.8125,1123.9063 788.5,1124.9844 Q789.1875,1126.0469 790.5313,1126.0469 Q791.1563,1126.0469 791.75,1125.7813 Q792.3438,1125.5 792.9688,1124.9219 L792.9688,1127.6406 Z " fill="#000000"/><text fill="#000000" font-family="sans-serif" font-size="14" lengthAdjust="spacing" textLength="32" x="804" y="1126.8467">Turn</text><line style="stroke:#181818;stroke-width:0.5;" x1="776" x2="838" y1="1138" y2="1138"/><line style="stroke:#181818;stroke-width:0.5;" x1="776" x2="838" y1="1146" y2="1146"/></g><!--MD5=[d75b0a238b734941260681f0026bbb88]
class Round--><g id="elem_Round"><rect codeLine="61" fill="#F1F1F1" height="80.5938" id="Round" rx="2.5" ry="2.5" style="stroke:#181818;stroke-width:0.5;" width="143" x="702.5" y="965"/><ellipse cx="746.75" cy="981" fill="#ADD1B2" rx="11" ry="11" style="stroke:#181818;stroke-width:1.0;"/><path d="M749.7188,986.6406 Q749.1406,986.9375 748.5,987.0781 Q747.8594,987.2344 747.1563,987.2344 Q744.6563,987.2344 743.3281,985.5938 Q742.0156,983.9375 742.0156,980.8125 Q742.0156,977.6875 743.3281,976.0313 Q744.6563,974.375 747.1563,974.375 Q747.8594,974.375 748.5,974.5313 Q749.1563,974.6875 749.7188,974.9844 L749.7188,977.7031 Q749.0938,977.125 748.5,976.8594 Q747.9063,976.5781 747.2813,976.5781 Q745.9375,976.5781 745.25,977.6563 Q744.5625,978.7188 744.5625,980.8125 Q744.5625,982.9063 745.25,983.9844 Q745.9375,985.0469 747.2813,985.0469 Q747.9063,985.0469 748.5,984.7813 Q749.0938,984.5 749.7188,983.9219 L749.7188,986.6406 Z " fill="#000000"/><text fill="#000000" font-family="sans-serif" font-size="14" lengthAdjust="spacing" textLength="46" x="767.25" y="985.8467">Round</text><line style="stroke:#181818;stroke-width:0.5;" x1="703.5" x2="844.5" y1="997" y2="997"/><rect fill="none" height="6" style="stroke:#C82930;stroke-width:1.0;" width="6" x="710.5" y="1005"/><text fill="#000000" font-family="sans-serif" font-size="14" lengthAdjust="spacing" textLength="46" x="722.5" y="1013.9951">long id</text><rect fill="none" height="6" style="stroke:#C82930;stroke-width:1.0;" width="6" x="710.5" y="1021.2969"/><text fill="#000000" font-family="sans-serif" font-size="14" lengthAdjust="spacing" textLength="117" x="722.5" y="1030.292">int roundNumber</text><line style="stroke:#181818;stroke-width:0.5;" x1="703.5" x2="844.5" y1="1037.5938" y2="1037.5938"/></g><!--MD5=[5e305716458bbdabbd2d7f572ed2bae2]
class Card--><g id="elem_Card"><rect codeLine="66" fill="#F1F1F1" height="80.5938" id="Card" rx="2.5" ry="2.5" style="stroke:#181818;stroke-width:0.5;" width="95" x="826.5" y="1214"/><ellipse cx="855.45" cy="1230" fill="#ADD1B2" rx="11" ry="11" style="stroke:#181818;stroke-width:1.0;"/><path d="M858.4188,1235.6406 Q857.8406,1235.9375 857.2,1236.0781 Q856.5594,1236.2344 855.8563,1236.2344 Q853.3563,1236.2344 852.0281,1234.5938 Q850.7156,1232.9375 850.7156,1229.8125 Q850.7156,1226.6875 852.0281,1225.0313 Q853.3563,1223.375 855.8563,1223.375 Q856.5594,1223.375 857.2,1223.5313 Q857.8563,1223.6875 858.4188,1223.9844 L858.4188,1226.7031 Q857.7938,1226.125 857.2,1225.8594 Q856.6063,1225.5781 855.9813,1225.5781 Q854.6375,1225.5781 853.95,1226.6563 Q853.2625,1227.7188 853.2625,1229.8125 Q853.2625,1231.9063 853.95,1232.9844 Q854.6375,1234.0469 855.9813,1234.0469 Q856.6063,1234.0469 857.2,1233.7813 Q857.7938,1233.5 858.4188,1232.9219 L858.4188,1235.6406 Z " fill="#000000"/><text fill="#000000" font-family="sans-serif" font-size="14" lengthAdjust="spacing" textLength="32" x="872.55" y="1234.8467">Card</text><line style="stroke:#181818;stroke-width:0.5;" x1="827.5" x2="920.5" y1="1246" y2="1246"/><rect fill="none" height="6" style="stroke:#C82930;stroke-width:1.0;" width="6" x="834.5" y="1254"/><text fill="#000000" font-family="sans-serif" font-size="14" lengthAdjust="spacing" textLength="55" x="846.5" y="1262.9951">Suit suit</text><rect fill="none" height="6" style="stroke:#C82930;stroke-width:1.0;" width="6" x="834.5" y="1270.2969"/><text fill="#000000" font-family="sans-serif" font-size="14" lengthAdjust="spacing" textLength="69" x="846.5" y="1279.292">Rank rank</text><line style="stroke:#181818;stroke-width:0.5;" x1="827.5" x2="920.5" y1="1286.5938" y2="1286.5938"/></g><!--MD5=[8afaa0cc9be9ac1cdc24999fa1642fa3]
class Suit--><g id="elem_Suit"><rect codeLine="71" fill="#F1F1F1" height="113.1875" id="Suit" rx="2.5" ry="2.5" style="stroke:#181818;stroke-width:0.5;" width="92" x="850" y="239"/><ellipse cx="880.3" cy="255" fill="#EB937F" rx="11" ry="11" style="stroke:#181818;stroke-width:1.0;"/><path d="M884.4094,261 L876.6906,261 L876.6906,248.6094 L884.4094,248.6094 L884.4094,250.7656 L879.1438,250.7656 L879.1438,253.4375 L883.9094,253.4375 L883.9094,255.5938 L879.1438,255.5938 L879.1438,258.8438 L884.4094,258.8438 L884.4094,261 Z " fill="#000000"/><text fill="#000000" font-family="sans-serif" font-size="14" lengthAdjust="spacing" textLength="26" x="897.7" y="259.8467">Suit</text><line style="stroke:#181818;stroke-width:0.5;" x1="851" x2="941" y1="271" y2="271"/><text fill="#000000" font-family="sans-serif" font-size="14" lengthAdjust="spacing" textLength="50" x="856" y="287.9951">CLUBS,</text><text fill="#000000" font-family="sans-serif" font-size="14" lengthAdjust="spacing" textLength="80" x="856" y="304.292">DIAMONDS,</text><text fill="#000000" font-family="sans-serif" font-size="14" lengthAdjust="spacing" textLength="60" x="856" y="320.5889">HEARTS,</text><text fill="#000000" font-family="sans-serif" font-size="14" lengthAdjust="spacing" textLength="56" x="856" y="336.8857">SPADES</text><line style="stroke:#181818;stroke-width:0.5;" x1="851" x2="941" y1="344.1875" y2="344.1875"/></g><!--MD5=[0f690a215a17a0cf4b9f948ca5dd1b3e]
class Rank--><g id="elem_Rank"><rect codeLine="78" fill="#F1F1F1" height="194.6719" id="Rank" rx="2.5" ry="2.5" style="stroke:#181818;stroke-width:0.5;" width="67" x="874.5" y="412"/><ellipse cx="889.5" cy="428" fill="#EB937F" rx="11" ry="11" style="stroke:#181818;stroke-width:1.0;"/><path d="M893.6094,434 L885.8906,434 L885.8906,421.6094 L893.6094,421.6094 L893.6094,423.7656 L888.3438,423.7656 L888.3438,426.4375 L893.1094,426.4375 L893.1094,428.5938 L888.3438,428.5938 L888.3438,431.8438 L893.6094,431.8438 L893.6094,434 Z " fill="#000000"/><text fill="#000000" font-family="sans-serif" font-size="14" lengthAdjust="spacing" textLength="35" x="903.5" y="432.8467">Rank</text><line style="stroke:#181818;stroke-width:0.5;" x1="875.5" x2="940.5" y1="444" y2="444"/><text fill="#000000" font-family="sans-serif" font-size="14" lengthAdjust="spacing" textLength="32" x="880.5" y="460.9951">ACE,</text><text fill="#000000" font-family="sans-serif" font-size="14" lengthAdjust="spacing" textLength="25" x="880.5" y="477.292">SIX,</text><text fill="#000000" font-family="sans-serif" font-size="14" lengthAdjust="spacing" textLength="50" x="880.5" y="493.5889">SEVEN,</text><text fill="#000000" font-family="sans-serif" font-size="14" lengthAdjust="spacing" textLength="46" x="880.5" y="509.8857">EIGHT,</text><text fill="#000000" font-family="sans-serif" font-size="14" lengthAdjust="spacing" textLength="36" x="880.5" y="526.1826">NINE,</text><text fill="#000000" font-family="sans-serif" font-size="14" lengthAdjust="spacing" textLength="32" x="880.5" y="542.4795">TEN,</text><text fill="#000000" font-family="sans-serif" font-size="14" lengthAdjust="spacing" textLength="35" x="880.5" y="558.7764">JACK,</text><text fill="#000000" font-family="sans-serif" font-size="14" lengthAdjust="spacing" textLength="53" x="880.5" y="575.0732">QUEEN,</text><text fill="#000000" font-family="sans-serif" font-size="14" lengthAdjust="spacing" textLength="33" x="880.5" y="591.3701">KING</text><line style="stroke:#181818;stroke-width:0.5;" x1="875.5" x2="940.5" y1="598.6719" y2="598.6719"/></g><g id="elem_GMN3"><path d="M6,20 L6,45.1328 L310,45.1328 L310,30 L300,20 L6,20 " fill="#FEFFDD" style="stroke:#181818;stroke-width:0.5;"/><path d="M300,20 L300,30 L310,30 L300,20 " fill="#FEFFDD" style="stroke:#181818;stroke-width:1.0;"/><text fill="#000000" font-family="sans-serif" font-size="13" lengthAdjust="spacing" textLength="283" x="12" y="37.0669">Spring event handler validating the requests</text></g><g id="elem_GMN7"><path d="M542.5,133 L542.5,158.1328 L927.5,158.1328 L927.5,143 L917.5,133 L542.5,133 " fill="#FEFFDD" style="stroke:#181818;stroke-width:0.5;"/><path d="M917.5,133 L917.5,143 L927.5,143 L917.5,133 " fill="#FEFFDD" style="stroke:#181818;stroke-width:1.0;"/><text fill="#000000" font-family="sans-serif" font-size="13" lengthAdjust="spacing" textLength="364" x="548.5" y="150.0669">Spring data rest repositories which provide the endpoints</text></g><g id="elem_GMN11"><path d="M595.5,20 L595.5,45.1328 L892.5,45.1328 L892.5,30 L882.5,20 L595.5,20 " fill="#FEFFDD" style="stroke:#181818;stroke-width:0.5;"/><path d="M882.5,20 L882.5,30 L892.5,30 L882.5,20 " fill="#FEFFDD" style="stroke:#181818;stroke-width:1.0;"/><text fill="#000000" font-family="sans-serif" font-size="13" lengthAdjust="spacing" textLength="276" x="601.5" y="37.0669">Spring event handler executing side effects</text></g><!--MD5=[bee9a96c12e73e73364c10dd24be6ed6]
link GMN3 to validation--><g id="link_GMN3_validation"><path d="M310.07,32.5 C321.69,32.5 333.31,32.5 344.93,32.5 " fill="none" id="GMN3-validation" style="stroke:#181818;stroke-width:1.0;stroke-dasharray:7.0,7.0;"/></g><!--MD5=[7ea5f4c6bdce44b79a0fae0e3a28d248]
link restresources to GMN7--><g id="link_restresources_GMN7"><path d="M507.65,145.5 C519.2,145.5 530.74,145.5 542.29,145.5 " fill="none" id="restresources-GMN7" style="stroke:#181818;stroke-width:1.0;stroke-dasharray:7.0,7.0;"/></g><!--MD5=[3ea86f7ad5c591a0fc066241dd807e1c]
link sideeffects to GMN11--><g id="link_sideeffects_GMN11"><path d="M560.03,32.5 C571.77,32.5 583.51,32.5 595.24,32.5 " fill="none" id="sideeffects-GMN11" style="stroke:#181818;stroke-width:1.0;stroke-dasharray:7.0,7.0;"/></g><!--MD5=[831236ba57dae0bc776a9527ec9f7aa2]
link Player to User--><g id="link_Player_User"><path codeLine="90" d="M562.88,344.08 C562.06,378.87 560.95,425.87 560.13,460.72 " fill="none" id="Player-User" style="stroke:#181818;stroke-width:1.0;"/><text fill="#000000" font-family="sans-serif" font-size="13" lengthAdjust="spacing" textLength="7" x="555.2303" y="364.0502">*</text><text fill="#000000" font-family="sans-serif" font-size="13" lengthAdjust="spacing" textLength="8" x="551.7264" y="449.8895">1</text></g><!--MD5=[2948b15446720d046723ef865ff3eac8]
link Player to Participation--><g id="link_Player_Participation"><path codeLine="91" d="M607.99,344.08 C640.15,378.87 683.61,425.87 715.82,460.72 " fill="none" id="Player-Participation" style="stroke:#181818;stroke-width:1.0;"/><text fill="#000000" font-family="sans-serif" font-size="13" lengthAdjust="spacing" textLength="8" x="605.6136" y="364.0502">1</text><text fill="#000000" font-family="sans-serif" font-size="13" lengthAdjust="spacing" textLength="7" x="702.115" y="449.8895">*</text></g><!--MD5=[dbf2e35fe06e7f5c60e786b569169e48]
link Participation to Game--><g id="link_Participation_Game"><path codeLine="93" d="M712.23,558.2 C696.57,573.78 679.07,591.16 663,607 C643.04,626.69 620.94,648.31 601.83,666.97 " fill="none" id="Participation-Game" style="stroke:#181818;stroke-width:1.0;"/><text fill="#000000" font-family="sans-serif" font-size="13" lengthAdjust="spacing" textLength="7" x="698.3406" y="577.835">*</text><text fill="#000000" font-family="sans-serif" font-size="13" lengthAdjust="spacing" textLength="8" x="600.4144" y="655.8253">1</text></g><!--MD5=[c247174b8045f5cef37369dd583d2dab]
link Participation to ScoreAnnouncement--><g id="link_Participation_ScoreAnnouncement"><path codeLine="94" d="M757.43,558.07 C755.35,596.69 752.48,650.03 750.68,683.37 " fill="none" id="Participation-ScoreAnnouncement" style="stroke:#181818;stroke-width:1.0;"/><text fill="#000000" font-family="sans-serif" font-size="13" lengthAdjust="spacing" textLength="8" x="748.5061" y="578.0388">1</text><text fill="#000000" font-family="sans-serif" font-size="13" lengthAdjust="spacing" textLength="7" x="743.3046" y="672.2463">*</text></g><!--MD5=[4a26cb6579843e3e14e1f7ba4255fdc5]
link Participation to Hand--><g id="link_Participation_Hand"><path codeLine="95" d="M794.51,558.07 C824.92,599.99 867.91,659.24 891.28,691.46 " fill="none" id="Participation-Hand" style="stroke:#181818;stroke-width:1.0;"/><text fill="#000000" font-family="sans-serif" font-size="13" lengthAdjust="spacing" textLength="8" x="790.8005" y="578.0388">1</text><text fill="#000000" font-family="sans-serif" font-size="13" lengthAdjust="spacing" textLength="7" x="879.0986" y="680.4618">*</text></g><!--MD5=[0c6d6594ac49b4842669681d57c95d8d]
link ScoreAnnouncement to Match--><g id="link_ScoreAnnouncement_Match"><path codeLine="97" d="M751.54,747.67 C753.36,769.92 755.82,800.02 757.77,823.96 " fill="none" id="ScoreAnnouncement-Match" style="stroke:#181818;stroke-width:1.0;"/><text fill="#000000" font-family="sans-serif" font-size="13" lengthAdjust="spacing" textLength="7" x="744.342" y="767.9019">*</text><text fill="#000000" font-family="sans-serif" font-size="13" lengthAdjust="spacing" textLength="8" x="748.5273" y="812.8163">1</text></g><!--MD5=[ebc4fdae77490ce4a26bbddba5e34eab]
link Hand to Match--><g id="link_Hand_Match"><path codeLine="99" d="M884.71,739.79 C862.12,762.38 827.42,797.08 800.51,823.99 " fill="none" id="Hand-Match" style="stroke:#181818;stroke-width:1.0;"/><text fill="#000000" font-family="sans-serif" font-size="13" lengthAdjust="spacing" textLength="7" x="871.1799" y="759.6219">*</text><text fill="#000000" font-family="sans-serif" font-size="13" lengthAdjust="spacing" textLength="8" x="798.6133" y="812.8515">1</text></g><!--MD5=[2f16b817737525477c59504130fd53f7]
link Hand to Card--><g id="link_Hand_Card"><path codeLine="100" d="M906.54,739.57 C901.27,822.79 883.21,1108.1 876.52,1213.74 " fill="none" id="Hand-Card" style="stroke:#181818;stroke-width:1.0;"/><text fill="#000000" font-family="sans-serif" font-size="13" lengthAdjust="spacing" textLength="8" x="897.1409" y="759.7437">1</text><text fill="#000000" font-family="sans-serif" font-size="13" lengthAdjust="spacing" textLength="24" x="850.9499" y="1202.8585">1..5</text></g><!--MD5=[70c92096be01b0f4dd26a6744feaffbd]
link Game to Match--><g id="link_Game_Match"><path codeLine="102" d="M620.24,764.02 C647.54,783.32 678.72,805.35 704.78,823.77 " fill="none" id="Game-Match" style="stroke:#181818;stroke-width:1.0;"/><text fill="#000000" font-family="sans-serif" font-size="13" lengthAdjust="spacing" textLength="8" x="621.1331" y="783.9817">1</text><text fill="#000000" font-family="sans-serif" font-size="13" lengthAdjust="spacing" textLength="24" x="669.4811" y="812.8934">1..9</text></g><!--MD5=[7a51bdac25b04a43197b4f59647f1e71]
link Match to Round--><g id="link_Match_Round"><path codeLine="104" d="M764.73,905.33 C766.47,923.94 768.53,946.05 770.27,964.66 " fill="none" id="Match-Round" style="stroke:#181818;stroke-width:1.0;"/><text fill="#000000" font-family="sans-serif" font-size="13" lengthAdjust="spacing" textLength="8" x="756.6903" y="924.535">1</text><text fill="#000000" font-family="sans-serif" font-size="13" lengthAdjust="spacing" textLength="24" x="743.763" y="954.0657">1..5</text></g><!--MD5=[c7db1d6b3f1b159da7039dc5c02cede1]
link Round to Turn--><g id="link_Round_Turn"><path codeLine="106" d="M784.71,1046.27 C790.02,1065.97 796.24,1089.07 800.76,1105.84 " fill="none" id="Round-Turn" style="stroke:#181818;stroke-width:1.0;"/><text fill="#000000" font-family="sans-serif" font-size="13" lengthAdjust="spacing" textLength="8" x="777.7375" y="1065.7695">1</text><text fill="#000000" font-family="sans-serif" font-size="13" lengthAdjust="spacing" textLength="7" x="791.2641" y="1094.811">*</text></g><!--MD5=[b98c477802494507a24b45e125e8f0bc]
link Turn to Card--><g id="link_Turn_Card"><path codeLine="108" d="M819.6,1154.04 C828.78,1170.81 841.43,1193.95 852.23,1213.69 " fill="none" id="Turn-Card" style="stroke:#181818;stroke-width:1.0;"/><text fill="#000000" font-family="sans-serif" font-size="13" lengthAdjust="spacing" textLength="8" x="813.8038" y="1174.206">1</text><text fill="#000000" font-family="sans-serif" font-size="13" lengthAdjust="spacing" textLength="8" x="839.9618" y="1202.8002">1</text></g><!--MD5=[07e93fe4cc6eec2880e4fb37c224ab46]
link restresources to domain classes--><g id="link_restresources_domain classes"><path d="M449,172.28 C449,177.4975 449,183.2814 449,189.4133 C449,190.9463 449,192.5011 449,194.0741 C449,194.4674 449,194.8618 449,195.2573 C449,195.4551 449,195.6531 449,195.8514 " fill="none" id="restresources-to-domain classes" style="stroke:#181818;stroke-width:1.0;"/><polygon fill="#181818" points="449,195.8514,453,186.8514,449,190.8514,445,186.8514,449,195.8514" style="stroke:#181818;stroke-width:1.0;"/></g><!--MD5=[e70f8e4128362ac914fd8efb81e14742]
link validation to restresources--><g id="link_validation_restresources"><path d="M401.38,59.24 C410.54,75.64 422.44,96.94 432.05,114.16 " fill="none" id="validation-to-restresources" style="stroke:#181818;stroke-width:1.0;"/><polygon fill="#181818" points="434.7,118.89,433.8258,109.08,432.2718,114.5192,426.8326,112.9652,434.7,118.89" style="stroke:#181818;stroke-width:1.0;"/></g><!--MD5=[eaa3ccd51d80e4a2f6c12c4f50aa8689]
link sideeffects to restresources--><g id="link_sideeffects_restresources"><path d="M497.39,59.24 C488.09,75.64 475.99,96.94 466.22,114.16 " fill="none" id="sideeffects-to-restresources" style="stroke:#181818;stroke-width:1.0;"/><polygon fill="#181818" points="463.53,118.89,471.4579,113.0463,466.003,114.5444,464.5049,109.0895,463.53,118.89" style="stroke:#181818;stroke-width:1.0;"/></g><!--MD5=[e47a8f49377d0f9dd1a1234547fc6916]
link GameState to Suit--></g></svg>