<?xml version="1.0" encoding="UTF-8" standalone="no"?><svg xmlns="http://www.w3.org/2000/svg" xmlns:xlink="http://www.w3.org/1999/xlink" contentStyleType="text/css" height="1069px" preserveAspectRatio="none" style="width:719px;height:1069px;background:#FFFFFF;" version="1.1" viewBox="0 0 719 1069" width="719px" zoomAndPan="magnify"><defs/><g><!--MD5=[2cb47ba637a0d19583e6199456f6ad0b]
class Player--><g id="elem_Player"><rect codeLine="1" fill="#F1F1F1" height="96.8906" id="Player" rx="2.5" ry="2.5" style="stroke:#181818;stroke-width:0.5;" width="136" x="337.5" y="15"/><ellipse cx="380.85" cy="31" fill="#ADD1B2" rx="11" ry="11" style="stroke:#181818;stroke-width:1.0;"/><path d="M383.8188,36.6406 Q383.2406,36.9375 382.6,37.0781 Q381.9594,37.2344 381.2563,37.2344 Q378.7563,37.2344 377.4281,35.5938 Q376.1156,33.9375 376.1156,30.8125 Q376.1156,27.6875 377.4281,26.0313 Q378.7563,24.375 381.2563,24.375 Q381.9594,24.375 382.6,24.5313 Q383.2563,24.6875 383.8188,24.9844 L383.8188,27.7031 Q383.1938,27.125 382.6,26.8594 Q382.0063,26.5781 381.3813,26.5781 Q380.0375,26.5781 379.35,27.6563 Q378.6625,28.7188 378.6625,30.8125 Q378.6625,32.9063 379.35,33.9844 Q380.0375,35.0469 381.3813,35.0469 Q382.0063,35.0469 382.6,34.7813 Q383.1938,34.5 383.8188,33.9219 L383.8188,36.6406 Z " fill="#000000"/><text fill="#000000" font-family="sans-serif" font-size="14" lengthAdjust="spacing" textLength="41" x="401.15" y="35.8467">Player</text><line style="stroke:#181818;stroke-width:0.5;" x1="338.5" x2="472.5" y1="47" y2="47"/><rect fill="none" height="6" style="stroke:#C82930;stroke-width:1.0;" width="6" x="345.5" y="55"/><text fill="#000000" font-family="sans-serif" font-size="14" lengthAdjust="spacing" textLength="46" x="357.5" y="63.9951">long id</text><rect fill="none" height="6" style="stroke:#C82930;stroke-width:1.0;" width="6" x="345.5" y="71.2969"/><text fill="#000000" font-family="sans-serif" font-size="14" lengthAdjust="spacing" textLength="83" x="357.5" y="80.292">String name</text><rect fill="none" height="6" style="stroke:#C82930;stroke-width:1.0;" width="6" x="345.5" y="87.5938"/><text fill="#000000" font-family="sans-serif" font-size="14" lengthAdjust="spacing" textLength="110" x="357.5" y="96.5889">String sessionId</text><line style="stroke:#181818;stroke-width:0.5;" x1="338.5" x2="472.5" y1="103.8906" y2="103.8906"/></g><!--MD5=[3fd616f346a44cd59a91eb10b19e157c]
class User--><g id="elem_User"><rect codeLine="7" fill="#F1F1F1" height="96.8906" id="User" rx="2.5" ry="2.5" style="stroke:#181818;stroke-width:0.5;" width="172" x="232.5" y="229"/><ellipse cx="298.25" cy="245" fill="#ADD1B2" rx="11" ry="11" style="stroke:#181818;stroke-width:1.0;"/><path d="M301.2188,250.6406 Q300.6406,250.9375 300,251.0781 Q299.3594,251.2344 298.6563,251.2344 Q296.1563,251.2344 294.8281,249.5938 Q293.5156,247.9375 293.5156,244.8125 Q293.5156,241.6875 294.8281,240.0313 Q296.1563,238.375 298.6563,238.375 Q299.3594,238.375 300,238.5313 Q300.6563,238.6875 301.2188,238.9844 L301.2188,241.7031 Q300.5938,241.125 300,240.8594 Q299.4063,240.5781 298.7813,240.5781 Q297.4375,240.5781 296.75,241.6563 Q296.0625,242.7188 296.0625,244.8125 Q296.0625,246.9063 296.75,247.9844 Q297.4375,249.0469 298.7813,249.0469 Q299.4063,249.0469 300,248.7813 Q300.5938,248.5 301.2188,247.9219 L301.2188,250.6406 Z " fill="#000000"/><text fill="#000000" font-family="sans-serif" font-size="14" lengthAdjust="spacing" textLength="32" x="318.75" y="249.8467">User</text><line style="stroke:#181818;stroke-width:0.5;" x1="233.5" x2="403.5" y1="261" y2="261"/><rect fill="none" height="6" style="stroke:#C82930;stroke-width:1.0;" width="6" x="240.5" y="269"/><text fill="#000000" font-family="sans-serif" font-size="14" lengthAdjust="spacing" textLength="46" x="252.5" y="277.9951">long id</text><rect fill="none" height="6" style="stroke:#C82930;stroke-width:1.0;" width="6" x="240.5" y="285.2969"/><text fill="#000000" font-family="sans-serif" font-size="14" lengthAdjust="spacing" textLength="114" x="252.5" y="294.292">String username</text><rect fill="none" height="6" style="stroke:#C82930;stroke-width:1.0;" width="6" x="240.5" y="301.5938"/><text fill="#000000" font-family="sans-serif" font-size="14" lengthAdjust="spacing" textLength="146" x="252.5" y="310.5889">String passwordHash</text><line style="stroke:#181818;stroke-width:0.5;" x1="233.5" x2="403.5" y1="317.8906" y2="317.8906"/></g><!--MD5=[48e88c162c5505361c629eb6ff3812a8]
class GameState--><g id="elem_GameState"><rect codeLine="13" fill="#F1F1F1" height="96.8906" id="GameState" rx="2.5" ry="2.5" style="stroke:#181818;stroke-width:0.5;" width="141" x="7" y="15"/><ellipse cx="36.4" cy="31" fill="#EB937F" rx="11" ry="11" style="stroke:#181818;stroke-width:1.0;"/><path d="M40.5094,37 L32.7906,37 L32.7906,24.6094 L40.5094,24.6094 L40.5094,26.7656 L35.2438,26.7656 L35.2438,29.4375 L40.0094,29.4375 L40.0094,31.5938 L35.2438,31.5938 L35.2438,34.8438 L40.5094,34.8438 L40.5094,37 Z " fill="#000000"/><text fill="#000000" font-family="sans-serif" font-size="14" lengthAdjust="spacing" textLength="77" x="53.6" y="35.8467">GameState</text><line style="stroke:#181818;stroke-width:0.5;" x1="8" x2="147" y1="47" y2="47"/><text fill="#000000" font-family="sans-serif" font-size="14" lengthAdjust="spacing" textLength="129" x="13" y="63.9951">FINDING_PLAYERS,</text><text fill="#000000" font-family="sans-serif" font-size="14" lengthAdjust="spacing" textLength="62" x="13" y="80.292">PLAYING,</text><text fill="#000000" font-family="sans-serif" font-size="14" lengthAdjust="spacing" textLength="57" x="13" y="96.5889">CLOSED</text><line style="stroke:#181818;stroke-width:0.5;" x1="8" x2="147" y1="103.8906" y2="103.8906"/></g><!--MD5=[b6dcce5e5ef3c84b0b048d11301373dd]
class Game--><g id="elem_Game"><rect codeLine="19" fill="#F1F1F1" height="96.8906" id="Game" rx="2.5" ry="2.5" style="stroke:#181818;stroke-width:0.5;" width="142" x="252.5" y="435"/><ellipse cx="298.75" cy="451" fill="#ADD1B2" rx="11" ry="11" style="stroke:#181818;stroke-width:1.0;"/><path d="M301.7188,456.6406 Q301.1406,456.9375 300.5,457.0781 Q299.8594,457.2344 299.1563,457.2344 Q296.6563,457.2344 295.3281,455.5938 Q294.0156,453.9375 294.0156,450.8125 Q294.0156,447.6875 295.3281,446.0313 Q296.6563,444.375 299.1563,444.375 Q299.8594,444.375 300.5,444.5313 Q301.1563,444.6875 301.7188,444.9844 L301.7188,447.7031 Q301.0938,447.125 300.5,446.8594 Q299.9063,446.5781 299.2813,446.5781 Q297.9375,446.5781 297.25,447.6563 Q296.5625,448.7188 296.5625,450.8125 Q296.5625,452.9063 297.25,453.9844 Q297.9375,455.0469 299.2813,455.0469 Q299.9063,455.0469 300.5,454.7813 Q301.0938,454.5 301.7188,453.9219 L301.7188,456.6406 Z " fill="#000000"/><text fill="#000000" font-family="sans-serif" font-size="14" lengthAdjust="spacing" textLength="41" x="319.25" y="455.8467">Game</text><line style="stroke:#181818;stroke-width:0.5;" x1="253.5" x2="393.5" y1="467" y2="467"/><rect fill="none" height="6" style="stroke:#C82930;stroke-width:1.0;" width="6" x="260.5" y="475"/><text fill="#000000" font-family="sans-serif" font-size="14" lengthAdjust="spacing" textLength="46" x="272.5" y="483.9951">long id</text><rect fill="none" height="6" style="stroke:#C82930;stroke-width:1.0;" width="6" x="260.5" y="491.2969"/><text fill="#000000" font-family="sans-serif" font-size="14" lengthAdjust="spacing" textLength="116" x="272.5" y="500.292">GameState state</text><rect fill="none" height="6" style="stroke:#C82930;stroke-width:1.0;" width="6" x="260.5" y="507.5938"/><text fill="#000000" font-family="sans-serif" font-size="14" lengthAdjust="spacing" textLength="83" x="272.5" y="516.5889">String name</text><line style="stroke:#181818;stroke-width:0.5;" x1="253.5" x2="393.5" y1="523.8906" y2="523.8906"/></g><!--MD5=[23bb12025fb3ea604555f955dd7f38e8]
class Participation--><g id="elem_Participation"><rect codeLine="25" fill="#F1F1F1" height="96.8906" id="Participation" rx="2.5" ry="2.5" style="stroke:#181818;stroke-width:0.5;" width="159" x="440" y="229"/><ellipse cx="474.35" cy="245" fill="#ADD1B2" rx="11" ry="11" style="stroke:#181818;stroke-width:1.0;"/><path d="M477.3188,250.6406 Q476.7406,250.9375 476.1,251.0781 Q475.4594,251.2344 474.7563,251.2344 Q472.2563,251.2344 470.9281,249.5938 Q469.6156,247.9375 469.6156,244.8125 Q469.6156,241.6875 470.9281,240.0313 Q472.2563,238.375 474.7563,238.375 Q475.4594,238.375 476.1,238.5313 Q476.7563,238.6875 477.3188,238.9844 L477.3188,241.7031 Q476.6938,241.125 476.1,240.8594 Q475.5063,240.5781 474.8813,240.5781 Q473.5375,240.5781 472.85,241.6563 Q472.1625,242.7188 472.1625,244.8125 Q472.1625,246.9063 472.85,247.9844 Q473.5375,249.0469 474.8813,249.0469 Q475.5063,249.0469 476.1,248.7813 Q476.6938,248.5 477.3188,247.9219 L477.3188,250.6406 Z " fill="#000000"/><text fill="#000000" font-family="sans-serif" font-size="14" lengthAdjust="spacing" textLength="84" x="492.65" y="249.8467">Participation</text><line style="stroke:#181818;stroke-width:0.5;" x1="441" x2="598" y1="261" y2="261"/><rect fill="none" height="6" style="stroke:#C82930;stroke-width:1.0;" width="6" x="448" y="269"/><text fill="#000000" font-family="sans-serif" font-size="14" lengthAdjust="spacing" textLength="46" x="460" y="277.9951">long id</text><rect fill="none" height="6" style="stroke:#C82930;stroke-width:1.0;" width="6" x="448" y="285.2969"/><text fill="#000000" font-family="sans-serif" font-size="14" lengthAdjust="spacing" textLength="100" x="460" y="294.292">boolean active</text><rect fill="none" height="6" style="stroke:#C82930;stroke-width:1.0;" width="6" x="448" y="301.5938"/><text fill="#000000" font-family="sans-serif" font-size="14" lengthAdjust="spacing" textLength="133" x="460" y="310.5889">Integer playerOrder</text><line style="stroke:#181818;stroke-width:0.5;" x1="441" x2="598" y1="317.8906" y2="317.8906"/></g><!--MD5=[5f0899136ed8f523b18ed05779c24112]
class Match--><g id="elem_Match"><rect codeLine="31" fill="#F1F1F1" height="80.5938" id="Match" rx="2.5" ry="2.5" style="stroke:#181818;stroke-width:0.5;" width="145" x="463" y="592"/><ellipse cx="510.25" cy="608" fill="#ADD1B2" rx="11" ry="11" style="stroke:#181818;stroke-width:1.0;"/><path d="M513.2188,613.6406 Q512.6406,613.9375 512,614.0781 Q511.3594,614.2344 510.6563,614.2344 Q508.1563,614.2344 506.8281,612.5938 Q505.5156,610.9375 505.5156,607.8125 Q505.5156,604.6875 506.8281,603.0313 Q508.1563,601.375 510.6563,601.375 Q511.3594,601.375 512,601.5313 Q512.6563,601.6875 513.2188,601.9844 L513.2188,604.7031 Q512.5938,604.125 512,603.8594 Q511.4063,603.5781 510.7813,603.5781 Q509.4375,603.5781 508.75,604.6563 Q508.0625,605.7188 508.0625,607.8125 Q508.0625,609.9063 508.75,610.9844 Q509.4375,612.0469 510.7813,612.0469 Q511.4063,612.0469 512,611.7813 Q512.5938,611.5 513.2188,610.9219 L513.2188,613.6406 Z " fill="#000000"/><text fill="#000000" font-family="sans-serif" font-size="14" lengthAdjust="spacing" textLength="42" x="530.75" y="612.8467">Match</text><line style="stroke:#181818;stroke-width:0.5;" x1="464" x2="607" y1="624" y2="624"/><rect fill="none" height="6" style="stroke:#C82930;stroke-width:1.0;" width="6" x="471" y="632"/><text fill="#000000" font-family="sans-serif" font-size="14" lengthAdjust="spacing" textLength="46" x="483" y="640.9951">long id</text><rect fill="none" height="6" style="stroke:#C82930;stroke-width:1.0;" width="6" x="471" y="648.2969"/><text fill="#000000" font-family="sans-serif" font-size="14" lengthAdjust="spacing" textLength="119" x="483" y="657.292">int matchNumber</text><line style="stroke:#181818;stroke-width:0.5;" x1="464" x2="607" y1="664.5938" y2="664.5938"/></g><!--MD5=[99df87112e9e40b3a0ddb0db969130b7]
class ScoreAnnouncement--><g id="elem_ScoreAnnouncement"><rect codeLine="36" fill="#F1F1F1" height="64.2969" id="ScoreAnnouncement" rx="2.5" ry="2.5" style="stroke:#181818;stroke-width:0.5;" width="179" x="430" y="451.5"/><ellipse cx="445" cy="467.5" fill="#ADD1B2" rx="11" ry="11" style="stroke:#181818;stroke-width:1.0;"/><path d="M447.9688,473.1406 Q447.3906,473.4375 446.75,473.5781 Q446.1094,473.7344 445.4063,473.7344 Q442.9063,473.7344 441.5781,472.0938 Q440.2656,470.4375 440.2656,467.3125 Q440.2656,464.1875 441.5781,462.5313 Q442.9063,460.875 445.4063,460.875 Q446.1094,460.875 446.75,461.0313 Q447.4063,461.1875 447.9688,461.4844 L447.9688,464.2031 Q447.3438,463.625 446.75,463.3594 Q446.1563,463.0781 445.5313,463.0781 Q444.1875,463.0781 443.5,464.1563 Q442.8125,465.2188 442.8125,467.3125 Q442.8125,469.4063 443.5,470.4844 Q444.1875,471.5469 445.5313,471.5469 Q446.1563,471.5469 446.75,471.2813 Q447.3438,471 447.9688,470.4219 L447.9688,473.1406 Z " fill="#000000"/><text fill="#000000" font-family="sans-serif" font-size="14" lengthAdjust="spacing" textLength="147" x="459" y="472.3467">ScoreAnnouncement</text><line style="stroke:#181818;stroke-width:0.5;" x1="431" x2="608" y1="483.5" y2="483.5"/><rect fill="none" height="6" style="stroke:#C82930;stroke-width:1.0;" width="6" x="438" y="491.5"/><text fill="#000000" font-family="sans-serif" font-size="14" lengthAdjust="spacing" textLength="140" x="450" y="500.4951">int announcedScore</text><line style="stroke:#181818;stroke-width:0.5;" x1="431" x2="608" y1="507.7969" y2="507.7969"/></g><!--MD5=[b3a980551af4fb5504d75634056fd54d]
class Hand--><g id="elem_Hand"><rect codeLine="40" fill="#F1F1F1" height="48" id="Hand" rx="2.5" ry="2.5" style="stroke:#181818;stroke-width:0.5;" width="68" x="644.5" y="459.5"/><ellipse cx="659.5" cy="475.5" fill="#ADD1B2" rx="11" ry="11" style="stroke:#181818;stroke-width:1.0;"/><path d="M662.4688,481.1406 Q661.8906,481.4375 661.25,481.5781 Q660.6094,481.7344 659.9063,481.7344 Q657.4063,481.7344 656.0781,480.0938 Q654.7656,478.4375 654.7656,475.3125 Q654.7656,472.1875 656.0781,470.5313 Q657.4063,468.875 659.9063,468.875 Q660.6094,468.875 661.25,469.0313 Q661.9063,469.1875 662.4688,469.4844 L662.4688,472.2031 Q661.8438,471.625 661.25,471.3594 Q660.6563,471.0781 660.0313,471.0781 Q658.6875,471.0781 658,472.1563 Q657.3125,473.2188 657.3125,475.3125 Q657.3125,477.4063 658,478.4844 Q658.6875,479.5469 660.0313,479.5469 Q660.6563,479.5469 661.25,479.2813 Q661.8438,479 662.4688,478.4219 L662.4688,481.1406 Z " fill="#000000"/><text fill="#000000" font-family="sans-serif" font-size="14" lengthAdjust="spacing" textLength="36" x="673.5" y="480.3467">Hand</text><line style="stroke:#181818;stroke-width:0.5;" x1="645.5" x2="711.5" y1="491.5" y2="491.5"/><line style="stroke:#181818;stroke-width:0.5;" x1="645.5" x2="711.5" y1="499.5" y2="499.5"/></g><!--MD5=[dd91eae41778c45e12552e5329e240e8]
class Turn--><g id="elem_Turn"><rect codeLine="43" fill="#F1F1F1" height="48" id="Turn" rx="2.5" ry="2.5" style="stroke:#181818;stroke-width:0.5;" width="64" x="532.5" y="874"/><ellipse cx="547.5" cy="890" fill="#ADD1B2" rx="11" ry="11" style="stroke:#181818;stroke-width:1.0;"/><path d="M550.4688,895.6406 Q549.8906,895.9375 549.25,896.0781 Q548.6094,896.2344 547.9063,896.2344 Q545.4063,896.2344 544.0781,894.5938 Q542.7656,892.9375 542.7656,889.8125 Q542.7656,886.6875 544.0781,885.0313 Q545.4063,883.375 547.9063,883.375 Q548.6094,883.375 549.25,883.5313 Q549.9063,883.6875 550.4688,883.9844 L550.4688,886.7031 Q549.8438,886.125 549.25,885.8594 Q548.6563,885.5781 548.0313,885.5781 Q546.6875,885.5781 546,886.6563 Q545.3125,887.7188 545.3125,889.8125 Q545.3125,891.9063 546,892.9844 Q546.6875,894.0469 548.0313,894.0469 Q548.6563,894.0469 549.25,893.7813 Q549.8438,893.5 550.4688,892.9219 L550.4688,895.6406 Z " fill="#000000"/><text fill="#000000" font-family="sans-serif" font-size="14" lengthAdjust="spacing" textLength="32" x="561.5" y="894.8467">Turn</text><line style="stroke:#181818;stroke-width:0.5;" x1="533.5" x2="595.5" y1="906" y2="906"/><line style="stroke:#181818;stroke-width:0.5;" x1="533.5" x2="595.5" y1="914" y2="914"/></g><!--MD5=[d75b0a238b734941260681f0026bbb88]
class Round--><g id="elem_Round"><rect codeLine="47" fill="#F1F1F1" height="80.5938" id="Round" rx="2.5" ry="2.5" style="stroke:#181818;stroke-width:0.5;" width="143" x="473" y="733"/><ellipse cx="517.25" cy="749" fill="#ADD1B2" rx="11" ry="11" style="stroke:#181818;stroke-width:1.0;"/><path d="M520.2188,754.6406 Q519.6406,754.9375 519,755.0781 Q518.3594,755.2344 517.6563,755.2344 Q515.1563,755.2344 513.8281,753.5938 Q512.5156,751.9375 512.5156,748.8125 Q512.5156,745.6875 513.8281,744.0313 Q515.1563,742.375 517.6563,742.375 Q518.3594,742.375 519,742.5313 Q519.6563,742.6875 520.2188,742.9844 L520.2188,745.7031 Q519.5938,745.125 519,744.8594 Q518.4063,744.5781 517.7813,744.5781 Q516.4375,744.5781 515.75,745.6563 Q515.0625,746.7188 515.0625,748.8125 Q515.0625,750.9063 515.75,751.9844 Q516.4375,753.0469 517.7813,753.0469 Q518.4063,753.0469 519,752.7813 Q519.5938,752.5 520.2188,751.9219 L520.2188,754.6406 Z " fill="#000000"/><text fill="#000000" font-family="sans-serif" font-size="14" lengthAdjust="spacing" textLength="46" x="537.75" y="753.8467">Round</text><line style="stroke:#181818;stroke-width:0.5;" x1="474" x2="615" y1="765" y2="765"/><rect fill="none" height="6" style="stroke:#C82930;stroke-width:1.0;" width="6" x="481" y="773"/><text fill="#000000" font-family="sans-serif" font-size="14" lengthAdjust="spacing" textLength="46" x="493" y="781.9951">long id</text><rect fill="none" height="6" style="stroke:#C82930;stroke-width:1.0;" width="6" x="481" y="789.2969"/><text fill="#000000" font-family="sans-serif" font-size="14" lengthAdjust="spacing" textLength="117" x="493" y="798.292">int roundNumber</text><line style="stroke:#181818;stroke-width:0.5;" x1="474" x2="615" y1="805.5938" y2="805.5938"/></g><!--MD5=[5e305716458bbdabbd2d7f572ed2bae2]
class Card--><g id="elem_Card"><rect codeLine="52" fill="#F1F1F1" height="80.5938" id="Card" rx="2.5" ry="2.5" style="stroke:#181818;stroke-width:0.5;" width="95" x="559" y="982"/><ellipse cx="587.95" cy="998" fill="#ADD1B2" rx="11" ry="11" style="stroke:#181818;stroke-width:1.0;"/><path d="M590.9188,1003.6406 Q590.3406,1003.9375 589.7,1004.0781 Q589.0594,1004.2344 588.3563,1004.2344 Q585.8563,1004.2344 584.5281,1002.5938 Q583.2156,1000.9375 583.2156,997.8125 Q583.2156,994.6875 584.5281,993.0313 Q585.8563,991.375 588.3563,991.375 Q589.0594,991.375 589.7,991.5313 Q590.3563,991.6875 590.9188,991.9844 L590.9188,994.7031 Q590.2938,994.125 589.7,993.8594 Q589.1063,993.5781 588.4813,993.5781 Q587.1375,993.5781 586.45,994.6563 Q585.7625,995.7188 585.7625,997.8125 Q585.7625,999.9063 586.45,1000.9844 Q587.1375,1002.0469 588.4813,1002.0469 Q589.1063,1002.0469 589.7,1001.7813 Q590.2938,1001.5 590.9188,1000.9219 L590.9188,1003.6406 Z " fill="#000000"/><text fill="#000000" font-family="sans-serif" font-size="14" lengthAdjust="spacing" textLength="32" x="605.05" y="1002.8467">Card</text><line style="stroke:#181818;stroke-width:0.5;" x1="560" x2="653" y1="1014" y2="1014"/><rect fill="none" height="6" style="stroke:#C82930;stroke-width:1.0;" width="6" x="567" y="1022"/><text fill="#000000" font-family="sans-serif" font-size="14" lengthAdjust="spacing" textLength="55" x="579" y="1030.9951">Suit suit</text><rect fill="none" height="6" style="stroke:#C82930;stroke-width:1.0;" width="6" x="567" y="1038.2969"/><text fill="#000000" font-family="sans-serif" font-size="14" lengthAdjust="spacing" textLength="69" x="579" y="1047.292">Rank rank</text><line style="stroke:#181818;stroke-width:0.5;" x1="560" x2="653" y1="1054.5938" y2="1054.5938"/></g><!--MD5=[8afaa0cc9be9ac1cdc24999fa1642fa3]
class Suit--><g id="elem_Suit"><rect codeLine="57" fill="#F1F1F1" height="113.1875" id="Suit" rx="2.5" ry="2.5" style="stroke:#181818;stroke-width:0.5;" width="92" x="183.5" y="7"/><ellipse cx="213.8" cy="23" fill="#EB937F" rx="11" ry="11" style="stroke:#181818;stroke-width:1.0;"/><path d="M217.9094,29 L210.1906,29 L210.1906,16.6094 L217.9094,16.6094 L217.9094,18.7656 L212.6438,18.7656 L212.6438,21.4375 L217.4094,21.4375 L217.4094,23.5938 L212.6438,23.5938 L212.6438,26.8438 L217.9094,26.8438 L217.9094,29 Z " fill="#000000"/><text fill="#000000" font-family="sans-serif" font-size="14" lengthAdjust="spacing" textLength="26" x="231.2" y="27.8467">Suit</text><line style="stroke:#181818;stroke-width:0.5;" x1="184.5" x2="274.5" y1="39" y2="39"/><text fill="#000000" font-family="sans-serif" font-size="14" lengthAdjust="spacing" textLength="50" x="189.5" y="55.9951">CLUBS,</text><text fill="#000000" font-family="sans-serif" font-size="14" lengthAdjust="spacing" textLength="80" x="189.5" y="72.292">DIAMONDS,</text><text fill="#000000" font-family="sans-serif" font-size="14" lengthAdjust="spacing" textLength="60" x="189.5" y="88.5889">HEARTS,</text><text fill="#000000" font-family="sans-serif" font-size="14" lengthAdjust="spacing" textLength="56" x="189.5" y="104.8857">SPADES</text><line style="stroke:#181818;stroke-width:0.5;" x1="184.5" x2="274.5" y1="112.1875" y2="112.1875"/></g><!--MD5=[0f690a215a17a0cf4b9f948ca5dd1b3e]
class Rank--><g id="elem_Rank"><rect codeLine="64" fill="#F1F1F1" height="194.6719" id="Rank" rx="2.5" ry="2.5" style="stroke:#181818;stroke-width:0.5;" width="67" x="44" y="180"/><ellipse cx="59" cy="196" fill="#EB937F" rx="11" ry="11" style="stroke:#181818;stroke-width:1.0;"/><path d="M63.1094,202 L55.3906,202 L55.3906,189.6094 L63.1094,189.6094 L63.1094,191.7656 L57.8438,191.7656 L57.8438,194.4375 L62.6094,194.4375 L62.6094,196.5938 L57.8438,196.5938 L57.8438,199.8438 L63.1094,199.8438 L63.1094,202 Z " fill="#000000"/><text fill="#000000" font-family="sans-serif" font-size="14" lengthAdjust="spacing" textLength="35" x="73" y="200.8467">Rank</text><line style="stroke:#181818;stroke-width:0.5;" x1="45" x2="110" y1="212" y2="212"/><text fill="#000000" font-family="sans-serif" font-size="14" lengthAdjust="spacing" textLength="32" x="50" y="228.9951">ACE,</text><text fill="#000000" font-family="sans-serif" font-size="14" lengthAdjust="spacing" textLength="25" x="50" y="245.292">SIX,</text><text fill="#000000" font-family="sans-serif" font-size="14" lengthAdjust="spacing" textLength="50" x="50" y="261.5889">SEVEN,</text><text fill="#000000" font-family="sans-serif" font-size="14" lengthAdjust="spacing" textLength="46" x="50" y="277.8857">EIGHT,</text><text fill="#000000" font-family="sans-serif" font-size="14" lengthAdjust="spacing" textLength="36" x="50" y="294.1826">NINE,</text><text fill="#000000" font-family="sans-serif" font-size="14" lengthAdjust="spacing" textLength="32" x="50" y="310.4795">TEN,</text><text fill="#000000" font-family="sans-serif" font-size="14" lengthAdjust="spacing" textLength="35" x="50" y="326.7764">JACK,</text><text fill="#000000" font-family="sans-serif" font-size="14" lengthAdjust="spacing" textLength="53" x="50" y="343.0732">QUEEN,</text><text fill="#000000" font-family="sans-serif" font-size="14" lengthAdjust="spacing" textLength="33" x="50" y="359.3701">KING</text><line style="stroke:#181818;stroke-width:0.5;" x1="45" x2="110" y1="366.6719" y2="366.6719"/></g><!--MD5=[831236ba57dae0bc776a9527ec9f7aa2]
link Player to User--><g id="link_Player_User"><path codeLine="76" d="M385.98,112.08 C371.7,146.87 352.41,193.87 338.11,228.72 " fill="none" id="Player-User" style="stroke:#181818;stroke-width:1.0;"/><text fill="#000000" font-family="sans-serif" font-size="13" lengthAdjust="spacing" textLength="7" x="375.7428" y="132.0502">*</text><text fill="#000000" font-family="sans-serif" font-size="13" lengthAdjust="spacing" textLength="8" x="332.3052" y="217.8895">1</text></g><!--MD5=[2948b15446720d046723ef865ff3eac8]
link Player to Participation--><g id="link_Player_Participation"><path codeLine="77" d="M431.08,112.08 C449.79,146.87 475.07,193.87 493.8,228.72 " fill="none" id="Player-Participation" style="stroke:#181818;stroke-width:1.0;"/><text fill="#000000" font-family="sans-serif" font-size="13" lengthAdjust="spacing" textLength="8" x="426.1147" y="132.0502">1</text><text fill="#000000" font-family="sans-serif" font-size="13" lengthAdjust="spacing" textLength="7" x="482.6938" y="217.8895">*</text></g><!--MD5=[dbf2e35fe06e7f5c60e786b569169e48]
link Participation to Game--><g id="link_Participation_Game"><path codeLine="79" d="M473.79,326.07 C442.35,358.8 400.74,402.11 369.28,434.85 " fill="none" id="Participation-Game" style="stroke:#181818;stroke-width:1.0;"/><text fill="#000000" font-family="sans-serif" font-size="13" lengthAdjust="spacing" textLength="7" x="459.8698" y="346.0388">*</text><text fill="#000000" font-family="sans-serif" font-size="13" lengthAdjust="spacing" textLength="8" x="367.1553" y="424.0378">1</text></g><!--MD5=[c247174b8045f5cef37369dd583d2dab]
link Participation to ScoreAnnouncement--><g id="link_Participation_ScoreAnnouncement"><path codeLine="80" d="M519.5,326.07 C519.5,364.69 519.5,418.03 519.5,451.37 " fill="none" id="Participation-ScoreAnnouncement" style="stroke:#181818;stroke-width:1.0;"/><text fill="#000000" font-family="sans-serif" font-size="13" lengthAdjust="spacing" textLength="8" x="510.9375" y="346.0388">1</text><text fill="#000000" font-family="sans-serif" font-size="13" lengthAdjust="spacing" textLength="7" x="511.7781" y="440.2463">*</text></g><!--MD5=[4a26cb6579843e3e14e1f7ba4255fdc5]
link Participation to Hand--><g id="link_Participation_Hand"><path codeLine="81" d="M556.58,326.07 C589.25,367.99 635.43,427.24 660.54,459.46 " fill="none" id="Participation-Hand" style="stroke:#181818;stroke-width:1.0;"/><text fill="#000000" font-family="sans-serif" font-size="13" lengthAdjust="spacing" textLength="8" x="553.2319" y="346.0388">1</text><text fill="#000000" font-family="sans-serif" font-size="13" lengthAdjust="spacing" textLength="7" x="648.0409" y="448.4618">*</text></g><!--MD5=[0c6d6594ac49b4842669681d57c95d8d]
link ScoreAnnouncement to Match--><g id="link_ScoreAnnouncement_Match"><path codeLine="83" d="M522.89,515.67 C525.31,537.92 528.59,568.02 531.2,591.96 " fill="none" id="ScoreAnnouncement-Match" style="stroke:#181818;stroke-width:1.0;"/><text fill="#000000" font-family="sans-serif" font-size="13" lengthAdjust="spacing" textLength="7" x="515.8673" y="535.9019">*</text><text fill="#000000" font-family="sans-serif" font-size="13" lengthAdjust="spacing" textLength="8" x="521.7734" y="580.8163">1</text></g><!--MD5=[ebc4fdae77490ce4a26bbddba5e34eab]
link Hand to Match--><g id="link_Hand_Match"><path codeLine="85" d="M655.84,507.79 C633.87,530.38 600.11,565.08 573.93,591.99 " fill="none" id="Hand-Match" style="stroke:#181818;stroke-width:1.0;"/><text fill="#000000" font-family="sans-serif" font-size="13" lengthAdjust="spacing" textLength="7" x="642.4635" y="527.6219">*</text><text fill="#000000" font-family="sans-serif" font-size="13" lengthAdjust="spacing" textLength="8" x="571.8477" y="580.8515">1</text></g><!--MD5=[2f16b817737525477c59504130fd53f7]
link Hand to Card--><g id="link_Hand_Card"><path codeLine="86" d="M675.41,507.57 C664.25,590.79 626,876.1 611.83,981.74 " fill="none" id="Hand-Card" style="stroke:#181818;stroke-width:1.0;"/><text fill="#000000" font-family="sans-serif" font-size="13" lengthAdjust="spacing" textLength="8" x="665.5932" y="527.7437">1</text><text fill="#000000" font-family="sans-serif" font-size="13" lengthAdjust="spacing" textLength="24" x="614.7003" y="970.8585">1..5</text></g><!--MD5=[70c92096be01b0f4dd26a6744feaffbd]
link Game to Match--><g id="link_Game_Match"><path codeLine="88" d="M392.04,532.02 C419.86,551.32 451.64,573.35 478.2,591.77 " fill="none" id="Game-Match" style="stroke:#181818;stroke-width:1.0;"/><text fill="#000000" font-family="sans-serif" font-size="13" lengthAdjust="spacing" textLength="8" x="393.1159" y="551.9817">1</text><text fill="#000000" font-family="sans-serif" font-size="13" lengthAdjust="spacing" textLength="24" x="442.7222" y="580.8934">1..9</text></g><!--MD5=[7a51bdac25b04a43197b4f59647f1e71]
link Match to Round--><g id="link_Match_Round"><path codeLine="90" d="M538.08,673.33 C539.28,691.94 540.72,714.05 541.92,732.66 " fill="none" id="Match-Round" style="stroke:#181818;stroke-width:1.0;"/><text fill="#000000" font-family="sans-serif" font-size="13" lengthAdjust="spacing" textLength="8" x="529.8714" y="692.535">1</text><text fill="#000000" font-family="sans-serif" font-size="13" lengthAdjust="spacing" textLength="24" x="515.5963" y="722.0657">1..5</text></g><!--MD5=[c7db1d6b3f1b159da7039dc5c02cede1]
link Round to Turn--><g id="link_Round_Turn"><path codeLine="92" d="M550.99,814.27 C554.21,833.97 557.98,857.07 560.72,873.84 " fill="none" id="Round-Turn" style="stroke:#181818;stroke-width:1.0;"/><text fill="#000000" font-family="sans-serif" font-size="13" lengthAdjust="spacing" textLength="8" x="543.3713" y="833.7695">1</text><text fill="#000000" font-family="sans-serif" font-size="13" lengthAdjust="spacing" textLength="7" x="551.8545" y="862.811">*</text></g><!--MD5=[b98c477802494507a24b45e125e8f0bc]
link Turn to Card--><g id="link_Turn_Card"><path codeLine="94" d="M572.4,922.04 C578.15,938.81 586.08,961.95 592.85,981.69 " fill="none" id="Turn-Card" style="stroke:#181818;stroke-width:1.0;"/><text fill="#000000" font-family="sans-serif" font-size="13" lengthAdjust="spacing" textLength="8" x="565.3994" y="942.206">1</text><text fill="#000000" font-family="sans-serif" font-size="13" lengthAdjust="spacing" textLength="8" x="581.9267" y="970.8002">1</text></g><!--MD5=[e47a8f49377d0f9dd1a1234547fc6916]
link GameState to Suit--></g></svg>