<?xml version="1.0" encoding="UTF-8" standalone="no"?><svg xmlns="http://www.w3.org/2000/svg" xmlns:xlink="http://www.w3.org/1999/xlink" contentStyleType="text/css" height="1750px" preserveAspectRatio="none" style="width:1018px;height:1750px;background:#FFFFFF;" version="1.1" viewBox="0 0 1018 1750" width="1018px" zoomAndPan="magnify"><defs/><g><ellipse cx="209.5" cy="20" fill="#222222" rx="10" ry="10" style="stroke:#222222;stroke-width:1.0;"/><rect fill="#F1F1F1" height="33.9688" rx="12.5" ry="12.5" style="stroke:#181818;stroke-width:0.5;" width="187" x="116" y="50"/><text fill="#000000" font-family="sans-serif" font-size="12" lengthAdjust="spacing" textLength="167" x="126" y="71.1387">PersonEntersStartingPage</text><rect fill="#F1F1F1" height="61.9063" rx="12.5" ry="12.5" style="stroke:#181818;stroke-width:0.5;" width="135" x="142" y="103.9688"/><text fill="#000000" font-family="sans-serif" font-size="12" lengthAdjust="spacing" textLength="115" x="152" y="125.1074">EnterPlayersName</text><text fill="#000000" font-family="sans-serif" font-size="12" lengthAdjust="spacing" textLength="85" x="152" y="139.0762">POST /players</text><text fill="#000000" font-family="sans-serif" font-size="12" lengthAdjust="spacing" textLength="4" x="152" y="153.0449"> </text><rect fill="#F1F1F1" height="33.9688" rx="12.5" ry="12.5" style="stroke:#181818;stroke-width:0.5;" width="73" x="173" y="185.875"/><text fill="#000000" font-family="sans-serif" font-size="12" lengthAdjust="spacing" textLength="53" x="183" y="207.0137">ClickPlay</text><rect fill="#F1F1F1" height="61.9063" rx="12.5" ry="12.5" style="stroke:#181818;stroke-width:0.5;" width="94" x="162.5" y="239.8438"/><text fill="#000000" font-family="sans-serif" font-size="12" lengthAdjust="spacing" textLength="70" x="172.5" y="260.9824">EnterLobby</text><text fill="#000000" font-family="sans-serif" font-size="12" lengthAdjust="spacing" textLength="74" x="172.5" y="274.9512">GET /games</text><text fill="#000000" font-family="sans-serif" font-size="12" lengthAdjust="spacing" textLength="4" x="172.5" y="288.9199"> </text><rect fill="#F1F1F1" height="75.875" rx="12.5" ry="12.5" style="stroke:#181818;stroke-width:0.5;" width="146" x="136.5" y="321.75"/><text fill="#000000" font-family="sans-serif" font-size="12" lengthAdjust="spacing" textLength="69" x="146.5" y="342.8887">EnterRoom</text><text fill="#000000" font-family="sans-serif" font-size="12" lengthAdjust="spacing" textLength="126" x="146.5" y="356.8574">POST /participations</text><text fill="#000000" font-family="sans-serif" font-size="12" lengthAdjust="spacing" textLength="126" x="146.5" y="370.8262">(Oder POST /games)</text><text fill="#000000" font-family="sans-serif" font-size="12" lengthAdjust="spacing" textLength="4" x="146.5" y="384.7949"> </text><polygon fill="#F1F1F1" points="167.5,549.625,251.5,549.625,263.5,561.625,251.5,573.625,167.5,573.625,155.5,561.625,167.5,549.625" style="stroke:#181818;stroke-width:0.5;"/><text fill="#000000" font-family="sans-serif" font-size="11" lengthAdjust="spacing" textLength="84" x="167.5" y="565.4331">PlayersInRoom</text><text fill="#000000" font-family="sans-serif" font-size="11" lengthAdjust="spacing" textLength="24" x="131.5" y="559.0308">else</text><text fill="#000000" font-family="sans-serif" font-size="11" lengthAdjust="spacing" textLength="231" x="263.5" y="559.0308">NoOfPlayers &gt; 1 and SomeoneClickStart</text><rect fill="#F1F1F1" height="33.9688" rx="12.5" ry="12.5" style="stroke:#181818;stroke-width:0.5;" width="47" x="11" y="583.625"/><text fill="#000000" font-family="sans-serif" font-size="12" lengthAdjust="spacing" textLength="27" x="21" y="604.7637">Wait</text><rect fill="#F1F1F1" height="47.9375" rx="12.5" ry="12.5" style="stroke:#181818;stroke-width:0.5;" width="279" x="255" y="583.625"/><text fill="#000000" font-family="sans-serif" font-size="12" lengthAdjust="spacing" textLength="69" x="265" y="604.7637">start game</text><text fill="#000000" font-family="sans-serif" font-size="12" lengthAdjust="spacing" textLength="259" x="265" y="618.7324">PATCH /games/1 {gameState: "PLAYING"}</text><rect fill="#F1F1F1" height="33.9688" rx="12.5" ry="12.5" style="stroke:#181818;stroke-width:0.5;" width="87" x="351" y="695.5625"/><text fill="#000000" font-family="sans-serif" font-size="12" lengthAdjust="spacing" textLength="67" x="361" y="716.7012">StartGame</text><rect fill="#F1F1F1" height="33.9688" rx="12.5" ry="12.5" style="stroke:#181818;stroke-width:0.5;" width="89" x="350" y="793.5313"/><text fill="#000000" font-family="sans-serif" font-size="12" lengthAdjust="spacing" textLength="69" x="360" y="814.6699">StartMatch</text><rect fill="#F1F1F1" height="33.9688" rx="12.5" ry="12.5" style="stroke:#181818;stroke-width:0.5;" width="117" x="336" y="847.5"/><text fill="#000000" font-family="sans-serif" font-size="12" lengthAdjust="spacing" textLength="97" x="346" y="868.6387">DistributeCards</text><rect fill="#F1F1F1" height="33.9688" rx="12.5" ry="12.5" style="stroke:#181818;stroke-width:0.5;" width="152" x="318.5" y="901.4688"/><text fill="#000000" font-family="sans-serif" font-size="12" lengthAdjust="spacing" textLength="128" x="332.5" y="922.6074">GET /games/1 pollen</text><rect fill="#F1F1F1" height="47.9375" rx="12.5" ry="12.5" style="stroke:#181818;stroke-width:0.5;" width="653" x="68" y="955.4375"/><text fill="#000000" font-family="sans-serif" font-size="12" lengthAdjust="spacing" textLength="99" x="78" y="976.5762">AnnounceTricks</text><text fill="#000000" font-family="sans-serif" font-size="12" lengthAdjust="spacing" textLength="633" x="78" y="990.5449">POST /scoreannouncements {announcedScore: 3, participations: /participations/1, game: /games/1}</text><rect fill="#F1F1F1" height="61.9063" rx="12.5" ry="12.5" style="stroke:#181818;stroke-width:0.5;" width="166" x="311.5" y="1023.375"/><text fill="#000000" font-family="sans-serif" font-size="12" lengthAdjust="spacing" textLength="146" x="321.5" y="1044.5137">DisplayAnnouncements</text><text fill="#000000" font-family="sans-serif" font-size="12" lengthAdjust="spacing" textLength="128" x="321.5" y="1058.4824">GET /games/1 pollen</text><text fill="#000000" font-family="sans-serif" font-size="12" lengthAdjust="spacing" textLength="4" x="321.5" y="1072.4512"> </text><rect fill="#F1F1F1" height="33.9688" rx="12.5" ry="12.5" style="stroke:#181818;stroke-width:0.5;" width="85" x="352" y="1120.2813"/><text fill="#000000" font-family="sans-serif" font-size="12" lengthAdjust="spacing" textLength="65" x="362" y="1141.4199">PlayRound</text><rect fill="#F1F1F1" height="47.9375" rx="12.5" ry="12.5" style="stroke:#181818;stroke-width:0.5;" width="240" x="274.5" y="1218.25"/><text fill="#000000" font-family="sans-serif" font-size="12" lengthAdjust="spacing" textLength="99" x="284.5" y="1239.3887">PlayerPlaysCard</text><text fill="#000000" font-family="sans-serif" font-size="12" lengthAdjust="spacing" textLength="220" x="284.5" y="1253.3574">PATCH /cards/1 {round: /rounds/1}</text><polygon fill="#F1F1F1" points="394.5,1174.25,406.5,1186.25,394.5,1198.25,382.5,1186.25,394.5,1174.25" style="stroke:#181818;stroke-width:0.5;"/><polygon fill="#F1F1F1" points="340.5,1286.1875,448.5,1286.1875,460.5,1298.1875,448.5,1310.1875,340.5,1310.1875,328.5,1298.1875,340.5,1286.1875" style="stroke:#181818;stroke-width:0.5;"/><text fill="#000000" font-family="sans-serif" font-size="11" lengthAdjust="spacing" textLength="108" x="340.5" y="1301.9956">NotEveryonePlayed</text><rect fill="#F1F1F1" height="33.9688" rx="12.5" ry="12.5" style="stroke:#181818;stroke-width:0.5;" width="100" x="344.5" y="1330.1875"/><text fill="#000000" font-family="sans-serif" font-size="12" lengthAdjust="spacing" textLength="80" x="354.5" y="1351.3262">DisplayScore</text><polygon fill="#F1F1F1" points="394.5,749.5313,406.5,761.5313,394.5,773.5313,382.5,761.5313,394.5,749.5313" style="stroke:#181818;stroke-width:0.5;"/><polygon fill="#F1F1F1" points="340.5,1384.1563,448.5,1384.1563,460.5,1396.1563,448.5,1408.1563,340.5,1408.1563,328.5,1396.1563,340.5,1384.1563" style="stroke:#181818;stroke-width:0.5;"/><text fill="#000000" font-family="sans-serif" font-size="11" lengthAdjust="spacing" textLength="108" x="340.5" y="1399.9644">MatchesPlayed &lt; 9</text><rect fill="#F1F1F1" height="33.9688" rx="12.5" ry="12.5" style="stroke:#181818;stroke-width:0.5;" width="117" x="731" y="1074.8594"/><text fill="#000000" font-family="sans-serif" font-size="12" lengthAdjust="spacing" textLength="93" x="745" y="1095.998">PlayNextRound</text><rect fill="#F1F1F1" height="33.9688" rx="12.5" ry="12.5" style="stroke:#181818;stroke-width:0.5;" width="137" x="326" y="1428.1563"/><text fill="#000000" font-family="sans-serif" font-size="12" lengthAdjust="spacing" textLength="117" x="336" y="1449.2949">DisplayScoreBoard</text><polygon fill="#F1F1F1" points="394.5,651.5625,406.5,663.5625,394.5,675.5625,382.5,663.5625,394.5,651.5625" style="stroke:#181818;stroke-width:0.5;"/><polygon fill="#F1F1F1" points="360.5,1482.125,428.5,1482.125,440.5,1494.125,428.5,1506.125,360.5,1506.125,348.5,1494.125,360.5,1482.125" style="stroke:#181818;stroke-width:0.5;"/><text fill="#000000" font-family="sans-serif" font-size="11" lengthAdjust="spacing" textLength="68" x="360.5" y="1497.9331">ThatWasFun</text><rect fill="#F1F1F1" height="33.9688" rx="12.5" ry="12.5" style="stroke:#181818;stroke-width:0.5;" width="84" x="858" y="1074.8594"/><text fill="#000000" font-family="sans-serif" font-size="12" lengthAdjust="spacing" textLength="60" x="872" y="1095.998">PlayAgain</text><rect fill="#F1F1F1" height="33.9688" rx="12.5" ry="12.5" style="stroke:#181818;stroke-width:0.5;" width="91" x="349" y="1526.125"/><text fill="#000000" font-family="sans-serif" font-size="12" lengthAdjust="spacing" textLength="71" x="359" y="1547.2637">LeaveRoom</text><ellipse cx="394.5" cy="1591.0938" rx="11" ry="11" style="stroke:#222222;stroke-width:1.0;fill:none;"/><ellipse cx="394.5" cy="1591.0938" fill="#222222" rx="6" ry="6" style="stroke:#111111;stroke-width:1.0;"/><polygon fill="#F1F1F1" points="209.5,505.625,221.5,517.625,209.5,529.625,197.5,517.625,209.5,505.625" style="stroke:#181818;stroke-width:0.5;"/><polygon fill="#F1F1F1" points="164.5,1622.0938,254.5,1622.0938,266.5,1634.0938,254.5,1646.0938,164.5,1646.0938,152.5,1634.0938,164.5,1622.0938" style="stroke:#181818;stroke-width:0.5;"/><text fill="#000000" font-family="sans-serif" font-size="11" lengthAdjust="spacing" textLength="90" x="164.5" y="1637.9019">MorePlayersJoin</text><polygon fill="#F1F1F1" points="209.5,461.625,221.5,473.625,209.5,485.625,197.5,473.625,209.5,461.625" style="stroke:#181818;stroke-width:0.5;"/><polygon fill="#F1F1F1" points="155.5,1666.0938,263.5,1666.0938,275.5,1678.0938,263.5,1690.0938,155.5,1690.0938,143.5,1678.0938,155.5,1666.0938" style="stroke:#181818;stroke-width:0.5;"/><text fill="#000000" font-family="sans-serif" font-size="11" lengthAdjust="spacing" textLength="108" x="155.5" y="1681.9019">SomeoneClickStart</text><polygon fill="#F1F1F1" points="209.5,417.625,221.5,429.625,209.5,441.625,197.5,429.625,209.5,417.625" style="stroke:#181818;stroke-width:0.5;"/><line style="stroke:#181818;stroke-width:1.0;" x1="209.5" x2="209.5" y1="30" y2="50"/><polygon fill="#181818" points="205.5,40,209.5,50,213.5,40,209.5,44" style="stroke:#181818;stroke-width:1.0;"/><line style="stroke:#181818;stroke-width:1.0;" x1="209.5" x2="209.5" y1="83.9688" y2="103.9688"/><polygon fill="#181818" points="205.5,93.9688,209.5,103.9688,213.5,93.9688,209.5,97.9688" style="stroke:#181818;stroke-width:1.0;"/><line style="stroke:#181818;stroke-width:1.0;" x1="209.5" x2="209.5" y1="165.875" y2="185.875"/><polygon fill="#181818" points="205.5,175.875,209.5,185.875,213.5,175.875,209.5,179.875" style="stroke:#181818;stroke-width:1.0;"/><line style="stroke:#181818;stroke-width:1.0;" x1="209.5" x2="209.5" y1="219.8438" y2="239.8438"/><polygon fill="#181818" points="205.5,229.8438,209.5,239.8438,213.5,229.8438,209.5,233.8438" style="stroke:#181818;stroke-width:1.0;"/><line style="stroke:#181818;stroke-width:1.0;" x1="209.5" x2="209.5" y1="301.75" y2="321.75"/><polygon fill="#181818" points="205.5,311.75,209.5,321.75,213.5,311.75,209.5,315.75" style="stroke:#181818;stroke-width:1.0;"/><line style="stroke:#181818;stroke-width:1.0;" x1="394.5" x2="394.5" y1="827.5" y2="847.5"/><polygon fill="#181818" points="390.5,837.5,394.5,847.5,398.5,837.5,394.5,841.5" style="stroke:#181818;stroke-width:1.0;"/><line style="stroke:#181818;stroke-width:1.0;" x1="394.5" x2="394.5" y1="881.4688" y2="901.4688"/><polygon fill="#181818" points="390.5,891.4688,394.5,901.4688,398.5,891.4688,394.5,895.4688" style="stroke:#181818;stroke-width:1.0;"/><line style="stroke:#181818;stroke-width:1.0;" x1="394.5" x2="394.5" y1="935.4375" y2="955.4375"/><polygon fill="#181818" points="390.5,945.4375,394.5,955.4375,398.5,945.4375,394.5,949.4375" style="stroke:#181818;stroke-width:1.0;"/><line style="stroke:#181818;stroke-width:1.0;" x1="394.5" x2="394.5" y1="1003.375" y2="1023.375"/><polygon fill="#181818" points="390.5,1013.375,394.5,1023.375,398.5,1013.375,394.5,1017.375" style="stroke:#181818;stroke-width:1.0;"/><line style="stroke:#181818;stroke-width:1.0;" x1="394.5" x2="394.5" y1="1085.2813" y2="1120.2813"/><polygon fill="#181818" points="390.5,1110.2813,394.5,1120.2813,398.5,1110.2813,394.5,1114.2813" style="stroke:#181818;stroke-width:1.0;"/><line style="stroke:#181818;stroke-width:1.0;" x1="394.5" x2="394.5" y1="1198.25" y2="1218.25"/><polygon fill="#181818" points="390.5,1208.25,394.5,1218.25,398.5,1208.25,394.5,1212.25" style="stroke:#181818;stroke-width:1.0;"/><line style="stroke:#181818;stroke-width:1.0;" x1="460.5" x2="526.5" y1="1298.1875" y2="1298.1875"/><polygon fill="#181818" points="522.5,1252.2188,526.5,1242.2188,530.5,1252.2188,526.5,1248.2188" style="stroke:#181818;stroke-width:1.0;"/><line style="stroke:#181818;stroke-width:1.0;" x1="526.5" x2="526.5" y1="1186.25" y2="1298.1875"/><line style="stroke:#181818;stroke-width:1.0;" x1="526.5" x2="406.5" y1="1186.25" y2="1186.25"/><polygon fill="#181818" points="416.5,1182.25,406.5,1186.25,416.5,1190.25,412.5,1186.25" style="stroke:#181818;stroke-width:1.0;"/><line style="stroke:#181818;stroke-width:1.0;" x1="394.5" x2="394.5" y1="1266.1875" y2="1286.1875"/><polygon fill="#181818" points="390.5,1276.1875,394.5,1286.1875,398.5,1276.1875,394.5,1280.1875" style="stroke:#181818;stroke-width:1.0;"/><line style="stroke:#181818;stroke-width:1.0;" x1="394.5" x2="394.5" y1="1154.25" y2="1174.25"/><polygon fill="#181818" points="390.5,1164.25,394.5,1174.25,398.5,1164.25,394.5,1168.25" style="stroke:#181818;stroke-width:1.0;"/><line style="stroke:#181818;stroke-width:1.0;" x1="394.5" x2="394.5" y1="1310.1875" y2="1330.1875"/><polygon fill="#181818" points="390.5,1320.1875,394.5,1330.1875,398.5,1320.1875,394.5,1324.1875" style="stroke:#181818;stroke-width:1.0;"/><line style="stroke:#181818;stroke-width:1.0;" x1="394.5" x2="394.5" y1="773.5313" y2="793.5313"/><polygon fill="#181818" points="390.5,783.5313,394.5,793.5313,398.5,783.5313,394.5,787.5313" style="stroke:#181818;stroke-width:1.0;"/><line style="stroke:#181818;stroke-width:1.0;" x1="460.5" x2="789.5" y1="1396.1563" y2="1396.1563"/><line style="stroke:#181818;stroke-width:1.0;" x1="789.5" x2="789.5" y1="1108.8281" y2="1396.1563"/><polygon fill="#181818" points="785.5,1118.8281,789.5,1108.8281,793.5,1118.8281,789.5,1114.8281" style="stroke:#181818;stroke-width:1.0;"/><line style="stroke:#181818;stroke-width:1.0;" x1="789.5" x2="789.5" y1="761.5313" y2="1074.8594"/><line style="stroke:#181818;stroke-width:1.0;" x1="789.5" x2="406.5" y1="761.5313" y2="761.5313"/><polygon fill="#181818" points="416.5,757.5313,406.5,761.5313,416.5,765.5313,412.5,761.5313" style="stroke:#181818;stroke-width:1.0;"/><line style="stroke:#181818;stroke-width:1.0;" x1="394.5" x2="394.5" y1="1364.1563" y2="1384.1563"/><polygon fill="#181818" points="390.5,1374.1563,394.5,1384.1563,398.5,1374.1563,394.5,1378.1563" style="stroke:#181818;stroke-width:1.0;"/><line style="stroke:#181818;stroke-width:1.0;" x1="394.5" x2="394.5" y1="729.5313" y2="749.5313"/><polygon fill="#181818" points="390.5,739.5313,394.5,749.5313,398.5,739.5313,394.5,743.5313" style="stroke:#181818;stroke-width:1.0;"/><line style="stroke:#181818;stroke-width:1.0;" x1="394.5" x2="394.5" y1="1408.1563" y2="1428.1563"/><polygon fill="#181818" points="390.5,1418.1563,394.5,1428.1563,398.5,1418.1563,394.5,1422.1563" style="stroke:#181818;stroke-width:1.0;"/><line style="stroke:#181818;stroke-width:1.0;" x1="394.5" x2="394.5" y1="675.5625" y2="695.5625"/><polygon fill="#181818" points="390.5,685.5625,394.5,695.5625,398.5,685.5625,394.5,689.5625" style="stroke:#181818;stroke-width:1.0;"/><line style="stroke:#181818;stroke-width:1.0;" x1="440.5" x2="900" y1="1494.125" y2="1494.125"/><line style="stroke:#181818;stroke-width:1.0;" x1="900" x2="900" y1="1108.8281" y2="1494.125"/><polygon fill="#181818" points="896,1118.8281,900,1108.8281,904,1118.8281,900,1114.8281" style="stroke:#181818;stroke-width:1.0;"/><line style="stroke:#181818;stroke-width:1.0;" x1="900" x2="900" y1="663.5625" y2="1074.8594"/><line style="stroke:#181818;stroke-width:1.0;" x1="900" x2="406.5" y1="663.5625" y2="663.5625"/><polygon fill="#181818" points="416.5,659.5625,406.5,663.5625,416.5,667.5625,412.5,663.5625" style="stroke:#181818;stroke-width:1.0;"/><line style="stroke:#181818;stroke-width:1.0;" x1="394.5" x2="394.5" y1="1462.125" y2="1482.125"/><polygon fill="#181818" points="390.5,1472.125,394.5,1482.125,398.5,1472.125,394.5,1476.125" style="stroke:#181818;stroke-width:1.0;"/><line style="stroke:#181818;stroke-width:1.0;" x1="394.5" x2="394.5" y1="631.5625" y2="651.5625"/><polygon fill="#181818" points="390.5,641.5625,394.5,651.5625,398.5,641.5625,394.5,645.5625" style="stroke:#181818;stroke-width:1.0;"/><line style="stroke:#181818;stroke-width:1.0;" x1="394.5" x2="394.5" y1="1506.125" y2="1526.125"/><polygon fill="#181818" points="390.5,1516.125,394.5,1526.125,398.5,1516.125,394.5,1520.125" style="stroke:#181818;stroke-width:1.0;"/><line style="stroke:#181818;stroke-width:1.0;" x1="394.5" x2="394.5" y1="1560.0938" y2="1580.0938"/><polygon fill="#181818" points="390.5,1570.0938,394.5,1580.0938,398.5,1570.0938,394.5,1574.0938" style="stroke:#181818;stroke-width:1.0;"/><line style="stroke:#181818;stroke-width:1.0;" x1="155.5" x2="34.5" y1="561.625" y2="561.625"/><line style="stroke:#181818;stroke-width:1.0;" x1="34.5" x2="34.5" y1="561.625" y2="583.625"/><polygon fill="#181818" points="30.5,573.625,34.5,583.625,38.5,573.625,34.5,577.625" style="stroke:#181818;stroke-width:1.0;"/><line style="stroke:#181818;stroke-width:1.0;" x1="263.5" x2="394.5" y1="561.625" y2="561.625"/><line style="stroke:#181818;stroke-width:1.0;" x1="394.5" x2="394.5" y1="561.625" y2="583.625"/><polygon fill="#181818" points="390.5,573.625,394.5,583.625,398.5,573.625,394.5,577.625" style="stroke:#181818;stroke-width:1.0;"/><line style="stroke:#181818;stroke-width:1.0;" x1="34.5" x2="34.5" y1="617.5938" y2="1607.0938"/><line style="stroke:#181818;stroke-width:1.0;" x1="34.5" x2="209.5" y1="1607.0938" y2="1607.0938"/><line style="stroke:#181818;stroke-width:1.0;" x1="209.5" x2="209.5" y1="1607.0938" y2="1622.0938"/><polygon fill="#181818" points="205.5,1612.0938,209.5,1622.0938,213.5,1612.0938,209.5,1616.0938" style="stroke:#181818;stroke-width:1.0;"/><line style="stroke:#181818;stroke-width:1.0;" x1="209.5" x2="209.5" y1="529.625" y2="549.625"/><polygon fill="#181818" points="205.5,539.625,209.5,549.625,213.5,539.625,209.5,543.625" style="stroke:#181818;stroke-width:1.0;"/><line style="stroke:#181818;stroke-width:1.0;" x1="266.5" x2="956" y1="1634.0938" y2="1634.0938"/><polygon fill="#181818" points="952,1109.3594,956,1099.3594,960,1109.3594,956,1105.3594" style="stroke:#181818;stroke-width:1.0;"/><line style="stroke:#181818;stroke-width:1.0;" x1="956" x2="956" y1="517.625" y2="1634.0938"/><line style="stroke:#181818;stroke-width:1.0;" x1="956" x2="221.5" y1="517.625" y2="517.625"/><polygon fill="#181818" points="231.5,513.625,221.5,517.625,231.5,521.625,227.5,517.625" style="stroke:#181818;stroke-width:1.0;"/><line style="stroke:#181818;stroke-width:1.0;" x1="209.5" x2="209.5" y1="485.625" y2="505.625"/><polygon fill="#181818" points="205.5,495.625,209.5,505.625,213.5,495.625,209.5,499.625" style="stroke:#181818;stroke-width:1.0;"/><line style="stroke:#181818;stroke-width:1.0;" x1="275.5" x2="974" y1="1678.0938" y2="1678.0938"/><polygon fill="#181818" points="970,1109.3594,974,1099.3594,978,1109.3594,974,1105.3594" style="stroke:#181818;stroke-width:1.0;"/><line style="stroke:#181818;stroke-width:1.0;" x1="974" x2="974" y1="473.625" y2="1678.0938"/><line style="stroke:#181818;stroke-width:1.0;" x1="974" x2="221.5" y1="473.625" y2="473.625"/><polygon fill="#181818" points="231.5,469.625,221.5,473.625,231.5,477.625,227.5,473.625" style="stroke:#181818;stroke-width:1.0;"/><line style="stroke:#181818;stroke-width:1.0;" x1="209.5" x2="209.5" y1="1646.0938" y2="1666.0938"/><polygon fill="#181818" points="205.5,1656.0938,209.5,1666.0938,213.5,1656.0938,209.5,1660.0938" style="stroke:#181818;stroke-width:1.0;"/><line style="stroke:#181818;stroke-width:1.0;" x1="209.5" x2="209.5" y1="441.625" y2="461.625"/><polygon fill="#181818" points="205.5,451.625,209.5,461.625,213.5,451.625,209.5,455.625" style="stroke:#181818;stroke-width:1.0;"/><line style="stroke:#181818;stroke-width:1.0;" x1="209.5" x2="209.5" y1="1690.0938" y2="1738.0938"/><line style="stroke:#181818;stroke-width:1.0;" x1="209.5" x2="992" y1="1738.0938" y2="1738.0938"/><polygon fill="#181818" points="988,1103.3594,992,1093.3594,996,1103.3594,992,1099.3594" style="stroke:#181818;stroke-width:1.0;"/><line style="stroke:#181818;stroke-width:1.0;" x1="992" x2="992" y1="429.625" y2="1738.0938"/><line style="stroke:#181818;stroke-width:1.0;" x1="992" x2="221.5" y1="429.625" y2="429.625"/><polygon fill="#181818" points="231.5,425.625,221.5,429.625,231.5,433.625,227.5,429.625" style="stroke:#181818;stroke-width:1.0;"/><line style="stroke:#181818;stroke-width:1.0;" x1="209.5" x2="209.5" y1="397.625" y2="417.625"/><polygon fill="#181818" points="205.5,407.625,209.5,417.625,213.5,407.625,209.5,411.625" style="stroke:#181818;stroke-width:1.0;"/><!--MD5=[d1515f8b4e2ebd644e24ec873fc583bb]
@startuml
'https://plantuml.com/activity-diagram-beta

start
:PersonEntersStartingPage;
:EnterPlayersName
POST /players
;
:ClickPlay;
:EnterLobby
GET /games
;
'if (EnterRoom) then (CreateNewRoom)
    ':CreateNewRoom;
'else (ExistingRoom)
    ':EnterExistingRoom;
'endif
:EnterRoom
POST /participations
(Oder POST /games)
;
repeat
repeat
repeat
    if (PlayersInRoom) then (else)
        :Wait;
    else (NoOfPlayers > 1 and SomeoneClickStart)
        :start game
        PATCH /games/1 {gameState: "PLAYING"};
        repeat
        :StartGame;
        repeat
            :StartMatch;
            :DistributeCards;
            : GET /games/1 pollen;
            :AnnounceTricks
            POST /scoreannouncements {announcedScore: 3, participations: /participations/1, game: /games/1};
            :DisplayAnnouncements
            GET /games/1 pollen
            ;
            :PlayRound;
            repeat
            :PlayerPlaysCard
            PATCH /cards/1 {round: /rounds/1};
            repeat while (NotEveryonePlayed)
            :DisplayScore;
            backward: PlayNextRound;
        repeat while (MatchesPlayed < 9)
        :DisplayScoreBoard;
        backward: PlayAgain;
        repeat while (ThatWasFun)
        :LeaveRoom;
        stop
    endif
repeat while (MorePlayersJoin)
repeat while (SomeoneClickStart)

@enduml

@startuml

start
:PersonEntersStartingPage;
:EnterPlayersName
POST /players
;
:ClickPlay;
:EnterLobby
GET /games
;
:EnterRoom
POST /participations
(Oder POST /games)
;
repeat
repeat
repeat
    if (PlayersInRoom) then (else)
        :Wait;
    else (NoOfPlayers > 1 and SomeoneClickStart)
        :start game
        PATCH /games/1 {gameState: "PLAYING"};
        repeat
        :StartGame;
        repeat
            :StartMatch;
            :DistributeCards;
            : GET /games/1 pollen;
            :AnnounceTricks
            POST /scoreannouncements {announcedScore: 3, participations: /participations/1, game: /games/1};
            :DisplayAnnouncements
            GET /games/1 pollen
            ;
            :PlayRound;
            repeat
            :PlayerPlaysCard
            PATCH /cards/1 {round: /rounds/1};
            repeat while (NotEveryonePlayed)
            :DisplayScore;
            backward: PlayNextRound;
        repeat while (MatchesPlayed < 9)
        :DisplayScoreBoard;
        backward: PlayAgain;
        repeat while (ThatWasFun)
        :LeaveRoom;
        stop
    endif
repeat while (MorePlayersJoin)
repeat while (SomeoneClickStart)

@enduml

PlantUML version 1.2022.2(Sat Mar 05 16:30:19 UTC 2022)
(GPL source distribution)
Java Runtime: OpenJDK Runtime Environment
JVM: OpenJDK 64-Bit Server VM
Default Encoding: UTF-8
Language: en
Country: null
--></g></svg>