<?xml version="1.0" encoding="UTF-8" standalone="no"?><svg xmlns="http://www.w3.org/2000/svg" xmlns:xlink="http://www.w3.org/1999/xlink" contentStyleType="text/css" height="961px" preserveAspectRatio="none" style="width:717px;height:961px;background:#FFFFFF;" version="1.1" viewBox="0 0 717 961" width="717px" zoomAndPan="magnify"><defs/><g><!--MD5=[2cb47ba637a0d19583e6199456f6ad0b]
class Player--><g id="elem_Player"><rect codeLine="1" fill="#F1F1F1" height="96.8906" id="Player" rx="2.5" ry="2.5" style="stroke:#181818;stroke-width:0.5;" width="136" x="333.5" y="15"/><ellipse cx="376.85" cy="31" fill="#ADD1B2" rx="11" ry="11" style="stroke:#181818;stroke-width:1.0;"/><path d="M379.8188,36.6406 Q379.2406,36.9375 378.6,37.0781 Q377.9594,37.2344 377.2563,37.2344 Q374.7563,37.2344 373.4281,35.5938 Q372.1156,33.9375 372.1156,30.8125 Q372.1156,27.6875 373.4281,26.0313 Q374.7563,24.375 377.2563,24.375 Q377.9594,24.375 378.6,24.5313 Q379.2563,24.6875 379.8188,24.9844 L379.8188,27.7031 Q379.1938,27.125 378.6,26.8594 Q378.0063,26.5781 377.3813,26.5781 Q376.0375,26.5781 375.35,27.6563 Q374.6625,28.7188 374.6625,30.8125 Q374.6625,32.9063 375.35,33.9844 Q376.0375,35.0469 377.3813,35.0469 Q378.0063,35.0469 378.6,34.7813 Q379.1938,34.5 379.8188,33.9219 L379.8188,36.6406 Z " fill="#000000"/><text fill="#000000" font-family="sans-serif" font-size="14" lengthAdjust="spacing" textLength="41" x="397.15" y="35.8467">Player</text><line style="stroke:#181818;stroke-width:0.5;" x1="334.5" x2="468.5" y1="47" y2="47"/><rect fill="none" height="6" style="stroke:#C82930;stroke-width:1.0;" width="6" x="341.5" y="55"/><text fill="#000000" font-family="sans-serif" font-size="14" lengthAdjust="spacing" textLength="46" x="353.5" y="63.9951">long id</text><rect fill="none" height="6" style="stroke:#C82930;stroke-width:1.0;" width="6" x="341.5" y="71.2969"/><text fill="#000000" font-family="sans-serif" font-size="14" lengthAdjust="spacing" textLength="83" x="353.5" y="80.292">String name</text><rect fill="none" height="6" style="stroke:#C82930;stroke-width:1.0;" width="6" x="341.5" y="87.5938"/><text fill="#000000" font-family="sans-serif" font-size="14" lengthAdjust="spacing" textLength="110" x="353.5" y="96.5889">String sessionId</text><line style="stroke:#181818;stroke-width:0.5;" x1="334.5" x2="468.5" y1="103.8906" y2="103.8906"/></g><!--MD5=[3fd616f346a44cd59a91eb10b19e157c]
class User--><g id="elem_User"><rect codeLine="7" fill="#F1F1F1" height="96.8906" id="User" rx="2.5" ry="2.5" style="stroke:#181818;stroke-width:0.5;" width="172" x="230.5" y="229"/><ellipse cx="296.25" cy="245" fill="#ADD1B2" rx="11" ry="11" style="stroke:#181818;stroke-width:1.0;"/><path d="M299.2188,250.6406 Q298.6406,250.9375 298,251.0781 Q297.3594,251.2344 296.6563,251.2344 Q294.1563,251.2344 292.8281,249.5938 Q291.5156,247.9375 291.5156,244.8125 Q291.5156,241.6875 292.8281,240.0313 Q294.1563,238.375 296.6563,238.375 Q297.3594,238.375 298,238.5313 Q298.6563,238.6875 299.2188,238.9844 L299.2188,241.7031 Q298.5938,241.125 298,240.8594 Q297.4063,240.5781 296.7813,240.5781 Q295.4375,240.5781 294.75,241.6563 Q294.0625,242.7188 294.0625,244.8125 Q294.0625,246.9063 294.75,247.9844 Q295.4375,249.0469 296.7813,249.0469 Q297.4063,249.0469 298,248.7813 Q298.5938,248.5 299.2188,247.9219 L299.2188,250.6406 Z " fill="#000000"/><text fill="#000000" font-family="sans-serif" font-size="14" lengthAdjust="spacing" textLength="32" x="316.75" y="249.8467">User</text><line style="stroke:#181818;stroke-width:0.5;" x1="231.5" x2="401.5" y1="261" y2="261"/><rect fill="none" height="6" style="stroke:#C82930;stroke-width:1.0;" width="6" x="238.5" y="269"/><text fill="#000000" font-family="sans-serif" font-size="14" lengthAdjust="spacing" textLength="46" x="250.5" y="277.9951">long id</text><rect fill="none" height="6" style="stroke:#C82930;stroke-width:1.0;" width="6" x="238.5" y="285.2969"/><text fill="#000000" font-family="sans-serif" font-size="14" lengthAdjust="spacing" textLength="114" x="250.5" y="294.292">String username</text><rect fill="none" height="6" style="stroke:#C82930;stroke-width:1.0;" width="6" x="238.5" y="301.5938"/><text fill="#000000" font-family="sans-serif" font-size="14" lengthAdjust="spacing" textLength="146" x="250.5" y="310.5889">String passwordHash</text><line style="stroke:#181818;stroke-width:0.5;" x1="231.5" x2="401.5" y1="317.8906" y2="317.8906"/></g><!--MD5=[48e88c162c5505361c629eb6ff3812a8]
class GameState--><g id="elem_GameState"><rect codeLine="13" fill="#F1F1F1" height="96.8906" id="GameState" rx="2.5" ry="2.5" style="stroke:#181818;stroke-width:0.5;" width="141" x="7" y="15"/><ellipse cx="36.4" cy="31" fill="#EB937F" rx="11" ry="11" style="stroke:#181818;stroke-width:1.0;"/><path d="M40.5094,37 L32.7906,37 L32.7906,24.6094 L40.5094,24.6094 L40.5094,26.7656 L35.2438,26.7656 L35.2438,29.4375 L40.0094,29.4375 L40.0094,31.5938 L35.2438,31.5938 L35.2438,34.8438 L40.5094,34.8438 L40.5094,37 Z " fill="#000000"/><text fill="#000000" font-family="sans-serif" font-size="14" lengthAdjust="spacing" textLength="77" x="53.6" y="35.8467">GameState</text><line style="stroke:#181818;stroke-width:0.5;" x1="8" x2="147" y1="47" y2="47"/><text fill="#000000" font-family="sans-serif" font-size="14" lengthAdjust="spacing" textLength="129" x="13" y="63.9951">FINDING_PLAYERS,</text><text fill="#000000" font-family="sans-serif" font-size="14" lengthAdjust="spacing" textLength="62" x="13" y="80.292">PLAYING,</text><text fill="#000000" font-family="sans-serif" font-size="14" lengthAdjust="spacing" textLength="57" x="13" y="96.5889">CLOSED</text><line style="stroke:#181818;stroke-width:0.5;" x1="8" x2="147" y1="103.8906" y2="103.8906"/></g><!--MD5=[b6dcce5e5ef3c84b0b048d11301373dd]
class Game--><g id="elem_Game"><rect codeLine="19" fill="#F1F1F1" height="96.8906" id="Game" rx="2.5" ry="2.5" style="stroke:#181818;stroke-width:0.5;" width="142" x="250.5" y="435"/><ellipse cx="296.75" cy="451" fill="#ADD1B2" rx="11" ry="11" style="stroke:#181818;stroke-width:1.0;"/><path d="M299.7188,456.6406 Q299.1406,456.9375 298.5,457.0781 Q297.8594,457.2344 297.1563,457.2344 Q294.6563,457.2344 293.3281,455.5938 Q292.0156,453.9375 292.0156,450.8125 Q292.0156,447.6875 293.3281,446.0313 Q294.6563,444.375 297.1563,444.375 Q297.8594,444.375 298.5,444.5313 Q299.1563,444.6875 299.7188,444.9844 L299.7188,447.7031 Q299.0938,447.125 298.5,446.8594 Q297.9063,446.5781 297.2813,446.5781 Q295.9375,446.5781 295.25,447.6563 Q294.5625,448.7188 294.5625,450.8125 Q294.5625,452.9063 295.25,453.9844 Q295.9375,455.0469 297.2813,455.0469 Q297.9063,455.0469 298.5,454.7813 Q299.0938,454.5 299.7188,453.9219 L299.7188,456.6406 Z " fill="#000000"/><text fill="#000000" font-family="sans-serif" font-size="14" lengthAdjust="spacing" textLength="41" x="317.25" y="455.8467">Game</text><line style="stroke:#181818;stroke-width:0.5;" x1="251.5" x2="391.5" y1="467" y2="467"/><rect fill="none" height="6" style="stroke:#C82930;stroke-width:1.0;" width="6" x="258.5" y="475"/><text fill="#000000" font-family="sans-serif" font-size="14" lengthAdjust="spacing" textLength="46" x="270.5" y="483.9951">long id</text><rect fill="none" height="6" style="stroke:#C82930;stroke-width:1.0;" width="6" x="258.5" y="491.2969"/><text fill="#000000" font-family="sans-serif" font-size="14" lengthAdjust="spacing" textLength="116" x="270.5" y="500.292">GameState state</text><rect fill="none" height="6" style="stroke:#C82930;stroke-width:1.0;" width="6" x="258.5" y="507.5938"/><text fill="#000000" font-family="sans-serif" font-size="14" lengthAdjust="spacing" textLength="83" x="270.5" y="516.5889">String name</text><line style="stroke:#181818;stroke-width:0.5;" x1="251.5" x2="391.5" y1="523.8906" y2="523.8906"/></g><!--MD5=[23bb12025fb3ea604555f955dd7f38e8]
class Participation--><g id="elem_Participation"><rect codeLine="25" fill="#F1F1F1" height="96.8906" id="Participation" rx="2.5" ry="2.5" style="stroke:#181818;stroke-width:0.5;" width="159" x="438" y="229"/><ellipse cx="472.35" cy="245" fill="#ADD1B2" rx="11" ry="11" style="stroke:#181818;stroke-width:1.0;"/><path d="M475.3188,250.6406 Q474.7406,250.9375 474.1,251.0781 Q473.4594,251.2344 472.7563,251.2344 Q470.2563,251.2344 468.9281,249.5938 Q467.6156,247.9375 467.6156,244.8125 Q467.6156,241.6875 468.9281,240.0313 Q470.2563,238.375 472.7563,238.375 Q473.4594,238.375 474.1,238.5313 Q474.7563,238.6875 475.3188,238.9844 L475.3188,241.7031 Q474.6938,241.125 474.1,240.8594 Q473.5063,240.5781 472.8813,240.5781 Q471.5375,240.5781 470.85,241.6563 Q470.1625,242.7188 470.1625,244.8125 Q470.1625,246.9063 470.85,247.9844 Q471.5375,249.0469 472.8813,249.0469 Q473.5063,249.0469 474.1,248.7813 Q474.6938,248.5 475.3188,247.9219 L475.3188,250.6406 Z " fill="#000000"/><text fill="#000000" font-family="sans-serif" font-size="14" lengthAdjust="spacing" textLength="84" x="490.65" y="249.8467">Participation</text><line style="stroke:#181818;stroke-width:0.5;" x1="439" x2="596" y1="261" y2="261"/><rect fill="none" height="6" style="stroke:#C82930;stroke-width:1.0;" width="6" x="446" y="269"/><text fill="#000000" font-family="sans-serif" font-size="14" lengthAdjust="spacing" textLength="46" x="458" y="277.9951">long id</text><rect fill="none" height="6" style="stroke:#C82930;stroke-width:1.0;" width="6" x="446" y="285.2969"/><text fill="#000000" font-family="sans-serif" font-size="14" lengthAdjust="spacing" textLength="100" x="458" y="294.292">boolean active</text><rect fill="none" height="6" style="stroke:#C82930;stroke-width:1.0;" width="6" x="446" y="301.5938"/><text fill="#000000" font-family="sans-serif" font-size="14" lengthAdjust="spacing" textLength="133" x="458" y="310.5889">Integer playerOrder</text><line style="stroke:#181818;stroke-width:0.5;" x1="439" x2="596" y1="317.8906" y2="317.8906"/></g><!--MD5=[5f0899136ed8f523b18ed05779c24112]
class Match--><g id="elem_Match"><rect codeLine="31" fill="#F1F1F1" height="80.5938" id="Match" rx="2.5" ry="2.5" style="stroke:#181818;stroke-width:0.5;" width="145" x="461" y="592"/><ellipse cx="508.25" cy="608" fill="#ADD1B2" rx="11" ry="11" style="stroke:#181818;stroke-width:1.0;"/><path d="M511.2188,613.6406 Q510.6406,613.9375 510,614.0781 Q509.3594,614.2344 508.6563,614.2344 Q506.1563,614.2344 504.8281,612.5938 Q503.5156,610.9375 503.5156,607.8125 Q503.5156,604.6875 504.8281,603.0313 Q506.1563,601.375 508.6563,601.375 Q509.3594,601.375 510,601.5313 Q510.6563,601.6875 511.2188,601.9844 L511.2188,604.7031 Q510.5938,604.125 510,603.8594 Q509.4063,603.5781 508.7813,603.5781 Q507.4375,603.5781 506.75,604.6563 Q506.0625,605.7188 506.0625,607.8125 Q506.0625,609.9063 506.75,610.9844 Q507.4375,612.0469 508.7813,612.0469 Q509.4063,612.0469 510,611.7813 Q510.5938,611.5 511.2188,610.9219 L511.2188,613.6406 Z " fill="#000000"/><text fill="#000000" font-family="sans-serif" font-size="14" lengthAdjust="spacing" textLength="42" x="528.75" y="612.8467">Match</text><line style="stroke:#181818;stroke-width:0.5;" x1="462" x2="605" y1="624" y2="624"/><rect fill="none" height="6" style="stroke:#C82930;stroke-width:1.0;" width="6" x="469" y="632"/><text fill="#000000" font-family="sans-serif" font-size="14" lengthAdjust="spacing" textLength="46" x="481" y="640.9951">long id</text><rect fill="none" height="6" style="stroke:#C82930;stroke-width:1.0;" width="6" x="469" y="648.2969"/><text fill="#000000" font-family="sans-serif" font-size="14" lengthAdjust="spacing" textLength="119" x="481" y="657.292">int matchNumber</text><line style="stroke:#181818;stroke-width:0.5;" x1="462" x2="605" y1="664.5938" y2="664.5938"/></g><!--MD5=[99df87112e9e40b3a0ddb0db969130b7]
class ScoreAnnouncement--><g id="elem_ScoreAnnouncement"><rect codeLine="36" fill="#F1F1F1" height="64.2969" id="ScoreAnnouncement" rx="2.5" ry="2.5" style="stroke:#181818;stroke-width:0.5;" width="179" x="428" y="451.5"/><ellipse cx="443" cy="467.5" fill="#ADD1B2" rx="11" ry="11" style="stroke:#181818;stroke-width:1.0;"/><path d="M445.9688,473.1406 Q445.3906,473.4375 444.75,473.5781 Q444.1094,473.7344 443.4063,473.7344 Q440.9063,473.7344 439.5781,472.0938 Q438.2656,470.4375 438.2656,467.3125 Q438.2656,464.1875 439.5781,462.5313 Q440.9063,460.875 443.4063,460.875 Q444.1094,460.875 444.75,461.0313 Q445.4063,461.1875 445.9688,461.4844 L445.9688,464.2031 Q445.3438,463.625 444.75,463.3594 Q444.1563,463.0781 443.5313,463.0781 Q442.1875,463.0781 441.5,464.1563 Q440.8125,465.2188 440.8125,467.3125 Q440.8125,469.4063 441.5,470.4844 Q442.1875,471.5469 443.5313,471.5469 Q444.1563,471.5469 444.75,471.2813 Q445.3438,471 445.9688,470.4219 L445.9688,473.1406 Z " fill="#000000"/><text fill="#000000" font-family="sans-serif" font-size="14" lengthAdjust="spacing" textLength="147" x="457" y="472.3467">ScoreAnnouncement</text><line style="stroke:#181818;stroke-width:0.5;" x1="429" x2="606" y1="483.5" y2="483.5"/><rect fill="none" height="6" style="stroke:#C82930;stroke-width:1.0;" width="6" x="436" y="491.5"/><text fill="#000000" font-family="sans-serif" font-size="14" lengthAdjust="spacing" textLength="140" x="448" y="500.4951">int announcedScore</text><line style="stroke:#181818;stroke-width:0.5;" x1="429" x2="606" y1="507.7969" y2="507.7969"/></g><!--MD5=[b3a980551af4fb5504d75634056fd54d]
class Hand--><g id="elem_Hand"><rect codeLine="40" fill="#F1F1F1" height="48" id="Hand" rx="2.5" ry="2.5" style="stroke:#181818;stroke-width:0.5;" width="68" x="642.5" y="459.5"/><ellipse cx="657.5" cy="475.5" fill="#ADD1B2" rx="11" ry="11" style="stroke:#181818;stroke-width:1.0;"/><path d="M660.4688,481.1406 Q659.8906,481.4375 659.25,481.5781 Q658.6094,481.7344 657.9063,481.7344 Q655.4063,481.7344 654.0781,480.0938 Q652.7656,478.4375 652.7656,475.3125 Q652.7656,472.1875 654.0781,470.5313 Q655.4063,468.875 657.9063,468.875 Q658.6094,468.875 659.25,469.0313 Q659.9063,469.1875 660.4688,469.4844 L660.4688,472.2031 Q659.8438,471.625 659.25,471.3594 Q658.6563,471.0781 658.0313,471.0781 Q656.6875,471.0781 656,472.1563 Q655.3125,473.2188 655.3125,475.3125 Q655.3125,477.4063 656,478.4844 Q656.6875,479.5469 658.0313,479.5469 Q658.6563,479.5469 659.25,479.2813 Q659.8438,479 660.4688,478.4219 L660.4688,481.1406 Z " fill="#000000"/><text fill="#000000" font-family="sans-serif" font-size="14" lengthAdjust="spacing" textLength="36" x="671.5" y="480.3467">Hand</text><line style="stroke:#181818;stroke-width:0.5;" x1="643.5" x2="709.5" y1="491.5" y2="491.5"/><line style="stroke:#181818;stroke-width:0.5;" x1="643.5" x2="709.5" y1="499.5" y2="499.5"/></g><!--MD5=[d75b0a238b734941260681f0026bbb88]
class Round--><g id="elem_Round"><rect codeLine="44" fill="#F1F1F1" height="80.5938" id="Round" rx="2.5" ry="2.5" style="stroke:#181818;stroke-width:0.5;" width="143" x="471" y="733"/><ellipse cx="515.25" cy="749" fill="#ADD1B2" rx="11" ry="11" style="stroke:#181818;stroke-width:1.0;"/><path d="M518.2188,754.6406 Q517.6406,754.9375 517,755.0781 Q516.3594,755.2344 515.6563,755.2344 Q513.1563,755.2344 511.8281,753.5938 Q510.5156,751.9375 510.5156,748.8125 Q510.5156,745.6875 511.8281,744.0313 Q513.1563,742.375 515.6563,742.375 Q516.3594,742.375 517,742.5313 Q517.6563,742.6875 518.2188,742.9844 L518.2188,745.7031 Q517.5938,745.125 517,744.8594 Q516.4063,744.5781 515.7813,744.5781 Q514.4375,744.5781 513.75,745.6563 Q513.0625,746.7188 513.0625,748.8125 Q513.0625,750.9063 513.75,751.9844 Q514.4375,753.0469 515.7813,753.0469 Q516.4063,753.0469 517,752.7813 Q517.5938,752.5 518.2188,751.9219 L518.2188,754.6406 Z " fill="#000000"/><text fill="#000000" font-family="sans-serif" font-size="14" lengthAdjust="spacing" textLength="46" x="535.75" y="753.8467">Round</text><line style="stroke:#181818;stroke-width:0.5;" x1="472" x2="613" y1="765" y2="765"/><rect fill="none" height="6" style="stroke:#C82930;stroke-width:1.0;" width="6" x="479" y="773"/><text fill="#000000" font-family="sans-serif" font-size="14" lengthAdjust="spacing" textLength="46" x="491" y="781.9951">long id</text><rect fill="none" height="6" style="stroke:#C82930;stroke-width:1.0;" width="6" x="479" y="789.2969"/><text fill="#000000" font-family="sans-serif" font-size="14" lengthAdjust="spacing" textLength="117" x="491" y="798.292">int roundNumber</text><line style="stroke:#181818;stroke-width:0.5;" x1="472" x2="613" y1="805.5938" y2="805.5938"/></g><!--MD5=[5e305716458bbdabbd2d7f572ed2bae2]
class Card--><g id="elem_Card"><rect codeLine="49" fill="#F1F1F1" height="80.5938" id="Card" rx="2.5" ry="2.5" style="stroke:#181818;stroke-width:0.5;" width="95" x="557" y="874"/><ellipse cx="585.95" cy="890" fill="#ADD1B2" rx="11" ry="11" style="stroke:#181818;stroke-width:1.0;"/><path d="M588.9188,895.6406 Q588.3406,895.9375 587.7,896.0781 Q587.0594,896.2344 586.3563,896.2344 Q583.8563,896.2344 582.5281,894.5938 Q581.2156,892.9375 581.2156,889.8125 Q581.2156,886.6875 582.5281,885.0313 Q583.8563,883.375 586.3563,883.375 Q587.0594,883.375 587.7,883.5313 Q588.3563,883.6875 588.9188,883.9844 L588.9188,886.7031 Q588.2938,886.125 587.7,885.8594 Q587.1063,885.5781 586.4813,885.5781 Q585.1375,885.5781 584.45,886.6563 Q583.7625,887.7188 583.7625,889.8125 Q583.7625,891.9063 584.45,892.9844 Q585.1375,894.0469 586.4813,894.0469 Q587.1063,894.0469 587.7,893.7813 Q588.2938,893.5 588.9188,892.9219 L588.9188,895.6406 Z " fill="#000000"/><text fill="#000000" font-family="sans-serif" font-size="14" lengthAdjust="spacing" textLength="32" x="603.05" y="894.8467">Card</text><line style="stroke:#181818;stroke-width:0.5;" x1="558" x2="651" y1="906" y2="906"/><rect fill="none" height="6" style="stroke:#C82930;stroke-width:1.0;" width="6" x="565" y="914"/><text fill="#000000" font-family="sans-serif" font-size="14" lengthAdjust="spacing" textLength="55" x="577" y="922.9951">Suit suit</text><rect fill="none" height="6" style="stroke:#C82930;stroke-width:1.0;" width="6" x="565" y="930.2969"/><text fill="#000000" font-family="sans-serif" font-size="14" lengthAdjust="spacing" textLength="69" x="577" y="939.292">Rank rank</text><line style="stroke:#181818;stroke-width:0.5;" x1="558" x2="651" y1="946.5938" y2="946.5938"/></g><!--MD5=[8afaa0cc9be9ac1cdc24999fa1642fa3]
class Suit--><g id="elem_Suit"><rect codeLine="54" fill="#F1F1F1" height="113.1875" id="Suit" rx="2.5" ry="2.5" style="stroke:#181818;stroke-width:0.5;" width="83" x="183" y="7"/><ellipse cx="209.25" cy="23" fill="#EB937F" rx="11" ry="11" style="stroke:#181818;stroke-width:1.0;"/><path d="M213.3594,29 L205.6406,29 L205.6406,16.6094 L213.3594,16.6094 L213.3594,18.7656 L208.0938,18.7656 L208.0938,21.4375 L212.8594,21.4375 L212.8594,23.5938 L208.0938,23.5938 L208.0938,26.8438 L213.3594,26.8438 L213.3594,29 Z " fill="#000000"/><text fill="#000000" font-family="sans-serif" font-size="14" lengthAdjust="spacing" textLength="26" x="225.75" y="27.8467">Suit</text><line style="stroke:#181818;stroke-width:0.5;" x1="184" x2="265" y1="39" y2="39"/><text fill="#000000" font-family="sans-serif" font-size="14" lengthAdjust="spacing" textLength="41" x="189" y="55.9951">CLUB,</text><text fill="#000000" font-family="sans-serif" font-size="14" lengthAdjust="spacing" textLength="71" x="189" y="72.292">DIAMOND,</text><text fill="#000000" font-family="sans-serif" font-size="14" lengthAdjust="spacing" textLength="51" x="189" y="88.5889">HEART,</text><text fill="#000000" font-family="sans-serif" font-size="14" lengthAdjust="spacing" textLength="47" x="189" y="104.8857">SPADE</text><line style="stroke:#181818;stroke-width:0.5;" x1="184" x2="265" y1="112.1875" y2="112.1875"/></g><!--MD5=[0f690a215a17a0cf4b9f948ca5dd1b3e]
class Rank--><g id="elem_Rank"><rect codeLine="61" fill="#F1F1F1" height="194.6719" id="Rank" rx="2.5" ry="2.5" style="stroke:#181818;stroke-width:0.5;" width="67" x="44" y="180"/><ellipse cx="59" cy="196" fill="#EB937F" rx="11" ry="11" style="stroke:#181818;stroke-width:1.0;"/><path d="M63.1094,202 L55.3906,202 L55.3906,189.6094 L63.1094,189.6094 L63.1094,191.7656 L57.8438,191.7656 L57.8438,194.4375 L62.6094,194.4375 L62.6094,196.5938 L57.8438,196.5938 L57.8438,199.8438 L63.1094,199.8438 L63.1094,202 Z " fill="#000000"/><text fill="#000000" font-family="sans-serif" font-size="14" lengthAdjust="spacing" textLength="35" x="73" y="200.8467">Rank</text><line style="stroke:#181818;stroke-width:0.5;" x1="45" x2="110" y1="212" y2="212"/><text fill="#000000" font-family="sans-serif" font-size="14" lengthAdjust="spacing" textLength="32" x="50" y="228.9951">ACE,</text><text fill="#000000" font-family="sans-serif" font-size="14" lengthAdjust="spacing" textLength="25" x="50" y="245.292">SIX,</text><text fill="#000000" font-family="sans-serif" font-size="14" lengthAdjust="spacing" textLength="50" x="50" y="261.5889">SEVEN,</text><text fill="#000000" font-family="sans-serif" font-size="14" lengthAdjust="spacing" textLength="46" x="50" y="277.8857">EIGHT,</text><text fill="#000000" font-family="sans-serif" font-size="14" lengthAdjust="spacing" textLength="36" x="50" y="294.1826">NINE,</text><text fill="#000000" font-family="sans-serif" font-size="14" lengthAdjust="spacing" textLength="32" x="50" y="310.4795">TEN,</text><text fill="#000000" font-family="sans-serif" font-size="14" lengthAdjust="spacing" textLength="35" x="50" y="326.7764">JACK,</text><text fill="#000000" font-family="sans-serif" font-size="14" lengthAdjust="spacing" textLength="53" x="50" y="343.0732">QUEEN,</text><text fill="#000000" font-family="sans-serif" font-size="14" lengthAdjust="spacing" textLength="33" x="50" y="359.3701">KING</text><line style="stroke:#181818;stroke-width:0.5;" x1="45" x2="110" y1="366.6719" y2="366.6719"/></g><!--MD5=[831236ba57dae0bc776a9527ec9f7aa2]
link Player to User--><g id="link_Player_User"><path codeLine="73" d="M382.42,112.08 C368.47,146.87 349.63,193.87 335.66,228.72 " fill="none" id="Player-User" style="stroke:#181818;stroke-width:1.0;"/><text fill="#000000" font-family="sans-serif" font-size="13" lengthAdjust="spacing" textLength="7" x="372.2447" y="132.0502">*</text><text fill="#000000" font-family="sans-serif" font-size="13" lengthAdjust="spacing" textLength="8" x="329.7919" y="217.8895">1</text></g><!--MD5=[2948b15446720d046723ef865ff3eac8]
link Player to Participation--><g id="link_Player_Participation"><path codeLine="74" d="M427.53,112.08 C446.57,146.87 472.29,193.87 491.35,228.72 " fill="none" id="Player-Participation" style="stroke:#181818;stroke-width:1.0;"/><text fill="#000000" font-family="sans-serif" font-size="13" lengthAdjust="spacing" textLength="8" x="422.628" y="132.0502">1</text><text fill="#000000" font-family="sans-serif" font-size="13" lengthAdjust="spacing" textLength="7" x="480.1805" y="217.8895">*</text></g><!--MD5=[dbf2e35fe06e7f5c60e786b569169e48]
link Participation to Game--><g id="link_Participation_Game"><path codeLine="76" d="M471.79,326.07 C440.35,358.8 398.74,402.11 367.28,434.85 " fill="none" id="Participation-Game" style="stroke:#181818;stroke-width:1.0;"/><text fill="#000000" font-family="sans-serif" font-size="13" lengthAdjust="spacing" textLength="7" x="457.8698" y="346.0388">*</text><text fill="#000000" font-family="sans-serif" font-size="13" lengthAdjust="spacing" textLength="8" x="365.1553" y="424.0378">1</text></g><!--MD5=[c247174b8045f5cef37369dd583d2dab]
link Participation to ScoreAnnouncement--><g id="link_Participation_ScoreAnnouncement"><path codeLine="77" d="M517.5,326.07 C517.5,364.69 517.5,418.03 517.5,451.37 " fill="none" id="Participation-ScoreAnnouncement" style="stroke:#181818;stroke-width:1.0;"/><text fill="#000000" font-family="sans-serif" font-size="13" lengthAdjust="spacing" textLength="8" x="508.9375" y="346.0388">1</text><text fill="#000000" font-family="sans-serif" font-size="13" lengthAdjust="spacing" textLength="7" x="509.7781" y="440.2463">*</text></g><!--MD5=[4a26cb6579843e3e14e1f7ba4255fdc5]
link Participation to Hand--><g id="link_Participation_Hand"><path codeLine="78" d="M554.58,326.07 C587.25,367.99 633.43,427.24 658.54,459.46 " fill="none" id="Participation-Hand" style="stroke:#181818;stroke-width:1.0;"/><text fill="#000000" font-family="sans-serif" font-size="13" lengthAdjust="spacing" textLength="8" x="551.2319" y="346.0388">1</text><text fill="#000000" font-family="sans-serif" font-size="13" lengthAdjust="spacing" textLength="7" x="646.0409" y="448.4618">*</text></g><!--MD5=[0c6d6594ac49b4842669681d57c95d8d]
link ScoreAnnouncement to Match--><g id="link_ScoreAnnouncement_Match"><path codeLine="80" d="M520.89,515.67 C523.31,537.92 526.59,568.02 529.2,591.96 " fill="none" id="ScoreAnnouncement-Match" style="stroke:#181818;stroke-width:1.0;"/><text fill="#000000" font-family="sans-serif" font-size="13" lengthAdjust="spacing" textLength="7" x="513.8673" y="535.9019">*</text><text fill="#000000" font-family="sans-serif" font-size="13" lengthAdjust="spacing" textLength="8" x="519.7734" y="580.8163">1</text></g><!--MD5=[ebc4fdae77490ce4a26bbddba5e34eab]
link Hand to Match--><g id="link_Hand_Match"><path codeLine="82" d="M653.84,507.79 C631.87,530.38 598.11,565.08 571.93,591.99 " fill="none" id="Hand-Match" style="stroke:#181818;stroke-width:1.0;"/><text fill="#000000" font-family="sans-serif" font-size="13" lengthAdjust="spacing" textLength="7" x="640.4635" y="527.6219">*</text><text fill="#000000" font-family="sans-serif" font-size="13" lengthAdjust="spacing" textLength="8" x="569.8477" y="580.8515">1</text></g><!--MD5=[2f16b817737525477c59504130fd53f7]
link Hand to Card--><g id="link_Hand_Card"><path codeLine="83" d="M674.36,507.84 C669.17,562.01 654.6,700.27 631.5,814 C627.47,833.82 621.74,855.53 616.59,873.6 " fill="none" id="Hand-Card" style="stroke:#181818;stroke-width:1.0;"/><text fill="#000000" font-family="sans-serif" font-size="13" lengthAdjust="spacing" textLength="8" x="664.8634" y="527.6841">1</text><text fill="#000000" font-family="sans-serif" font-size="13" lengthAdjust="spacing" textLength="24" x="592.6043" y="862.9961">1..5</text></g><!--MD5=[70c92096be01b0f4dd26a6744feaffbd]
link Game to Match--><g id="link_Game_Match"><path codeLine="85" d="M390.04,532.02 C417.86,551.32 449.64,573.35 476.2,591.77 " fill="none" id="Game-Match" style="stroke:#181818;stroke-width:1.0;"/><text fill="#000000" font-family="sans-serif" font-size="13" lengthAdjust="spacing" textLength="8" x="391.1159" y="551.9817">1</text><text fill="#000000" font-family="sans-serif" font-size="13" lengthAdjust="spacing" textLength="24" x="440.7222" y="580.8934">1..9</text></g><!--MD5=[7a51bdac25b04a43197b4f59647f1e71]
link Match to Round--><g id="link_Match_Round"><path codeLine="87" d="M536.08,673.33 C537.28,691.94 538.72,714.05 539.92,732.66 " fill="none" id="Match-Round" style="stroke:#181818;stroke-width:1.0;"/><text fill="#000000" font-family="sans-serif" font-size="13" lengthAdjust="spacing" textLength="8" x="527.8714" y="692.535">1</text><text fill="#000000" font-family="sans-serif" font-size="13" lengthAdjust="spacing" textLength="24" x="513.5963" y="722.0657">1..5</text></g><!--MD5=[dabd1d0dea4e282335ad7f4495eecc99]
link Round to Card--><g id="link_Round_Card"><path codeLine="89" d="M560.27,814.33 C568.57,832.94 578.43,855.05 586.73,873.66 " fill="none" id="Round-Card" style="stroke:#181818;stroke-width:1.0;"/><text fill="#000000" font-family="sans-serif" font-size="13" lengthAdjust="spacing" textLength="8" x="554.2925" y="833.535">1</text><text fill="#000000" font-family="sans-serif" font-size="13" lengthAdjust="spacing" textLength="24" x="557.9854" y="863.0657">1..7</text></g><!--MD5=[e47a8f49377d0f9dd1a1234547fc6916]
link GameState to Suit--></g></svg>