<?xml version="1.0" encoding="UTF-8" standalone="no"?><svg xmlns="http://www.w3.org/2000/svg" xmlns:xlink="http://www.w3.org/1999/xlink" contentStyleType="text/css" height="1069px" preserveAspectRatio="none" style="width:824px;height:1069px;background:#FFFFFF;" version="1.1" viewBox="0 0 824 1069" width="824px" zoomAndPan="magnify"><defs/><g><!--MD5=[2cb47ba637a0d19583e6199456f6ad0b]
class Player--><g id="elem_Player"><rect codeLine="1" fill="#F1F1F1" height="96.8906" id="Player" rx="2.5" ry="2.5" style="stroke:#181818;stroke-width:0.5;" width="136" x="432.5" y="7"/><ellipse cx="475.85" cy="23" fill="#ADD1B2" rx="11" ry="11" style="stroke:#181818;stroke-width:1.0;"/><path d="M478.8188,28.6406 Q478.2406,28.9375 477.6,29.0781 Q476.9594,29.2344 476.2563,29.2344 Q473.7563,29.2344 472.4281,27.5938 Q471.1156,25.9375 471.1156,22.8125 Q471.1156,19.6875 472.4281,18.0313 Q473.7563,16.375 476.2563,16.375 Q476.9594,16.375 477.6,16.5313 Q478.2563,16.6875 478.8188,16.9844 L478.8188,19.7031 Q478.1938,19.125 477.6,18.8594 Q477.0063,18.5781 476.3813,18.5781 Q475.0375,18.5781 474.35,19.6563 Q473.6625,20.7188 473.6625,22.8125 Q473.6625,24.9063 474.35,25.9844 Q475.0375,27.0469 476.3813,27.0469 Q477.0063,27.0469 477.6,26.7813 Q478.1938,26.5 478.8188,25.9219 L478.8188,28.6406 Z " fill="#000000"/><text fill="#000000" font-family="sans-serif" font-size="14" lengthAdjust="spacing" textLength="41" x="496.15" y="27.8467">Player</text><line style="stroke:#181818;stroke-width:0.5;" x1="433.5" x2="567.5" y1="39" y2="39"/><rect fill="none" height="6" style="stroke:#C82930;stroke-width:1.0;" width="6" x="440.5" y="47"/><text fill="#000000" font-family="sans-serif" font-size="14" lengthAdjust="spacing" textLength="46" x="452.5" y="55.9951">long id</text><rect fill="none" height="6" style="stroke:#C82930;stroke-width:1.0;" width="6" x="440.5" y="63.2969"/><text fill="#000000" font-family="sans-serif" font-size="14" lengthAdjust="spacing" textLength="83" x="452.5" y="72.292">String name</text><rect fill="none" height="6" style="stroke:#C82930;stroke-width:1.0;" width="6" x="440.5" y="79.5938"/><text fill="#000000" font-family="sans-serif" font-size="14" lengthAdjust="spacing" textLength="110" x="452.5" y="88.5889">String sessionId</text><line style="stroke:#181818;stroke-width:0.5;" x1="433.5" x2="567.5" y1="95.8906" y2="95.8906"/></g><!--MD5=[3fd616f346a44cd59a91eb10b19e157c]
class User--><g id="elem_User"><rect codeLine="7" fill="#F1F1F1" height="96.8906" id="User" rx="2.5" ry="2.5" style="stroke:#181818;stroke-width:0.5;" width="172" x="337.5" y="213"/><ellipse cx="403.25" cy="229" fill="#ADD1B2" rx="11" ry="11" style="stroke:#181818;stroke-width:1.0;"/><path d="M406.2188,234.6406 Q405.6406,234.9375 405,235.0781 Q404.3594,235.2344 403.6563,235.2344 Q401.1563,235.2344 399.8281,233.5938 Q398.5156,231.9375 398.5156,228.8125 Q398.5156,225.6875 399.8281,224.0313 Q401.1563,222.375 403.6563,222.375 Q404.3594,222.375 405,222.5313 Q405.6563,222.6875 406.2188,222.9844 L406.2188,225.7031 Q405.5938,225.125 405,224.8594 Q404.4063,224.5781 403.7813,224.5781 Q402.4375,224.5781 401.75,225.6563 Q401.0625,226.7188 401.0625,228.8125 Q401.0625,230.9063 401.75,231.9844 Q402.4375,233.0469 403.7813,233.0469 Q404.4063,233.0469 405,232.7813 Q405.5938,232.5 406.2188,231.9219 L406.2188,234.6406 Z " fill="#000000"/><text fill="#000000" font-family="sans-serif" font-size="14" lengthAdjust="spacing" textLength="32" x="423.75" y="233.8467">User</text><line style="stroke:#181818;stroke-width:0.5;" x1="338.5" x2="508.5" y1="245" y2="245"/><rect fill="none" height="6" style="stroke:#C82930;stroke-width:1.0;" width="6" x="345.5" y="253"/><text fill="#000000" font-family="sans-serif" font-size="14" lengthAdjust="spacing" textLength="46" x="357.5" y="261.9951">long id</text><rect fill="none" height="6" style="stroke:#C82930;stroke-width:1.0;" width="6" x="345.5" y="269.2969"/><text fill="#000000" font-family="sans-serif" font-size="14" lengthAdjust="spacing" textLength="114" x="357.5" y="278.292">String username</text><rect fill="none" height="6" style="stroke:#C82930;stroke-width:1.0;" width="6" x="345.5" y="285.5938"/><text fill="#000000" font-family="sans-serif" font-size="14" lengthAdjust="spacing" textLength="146" x="357.5" y="294.5889">String passwordHash</text><line style="stroke:#181818;stroke-width:0.5;" x1="338.5" x2="508.5" y1="301.8906" y2="301.8906"/></g><!--MD5=[48e88c162c5505361c629eb6ff3812a8]
class GameState--><g id="elem_GameState"><rect codeLine="13" fill="#F1F1F1" height="96.8906" id="GameState" rx="2.5" ry="2.5" style="stroke:#181818;stroke-width:0.5;" width="141" x="7" y="7"/><ellipse cx="36.4" cy="23" fill="#EB937F" rx="11" ry="11" style="stroke:#181818;stroke-width:1.0;"/><path d="M40.5094,29 L32.7906,29 L32.7906,16.6094 L40.5094,16.6094 L40.5094,18.7656 L35.2438,18.7656 L35.2438,21.4375 L40.0094,21.4375 L40.0094,23.5938 L35.2438,23.5938 L35.2438,26.8438 L40.5094,26.8438 L40.5094,29 Z " fill="#000000"/><text fill="#000000" font-family="sans-serif" font-size="14" lengthAdjust="spacing" textLength="77" x="53.6" y="27.8467">GameState</text><line style="stroke:#181818;stroke-width:0.5;" x1="8" x2="147" y1="39" y2="39"/><text fill="#000000" font-family="sans-serif" font-size="14" lengthAdjust="spacing" textLength="129" x="13" y="55.9951">FINDING_PLAYERS,</text><text fill="#000000" font-family="sans-serif" font-size="14" lengthAdjust="spacing" textLength="62" x="13" y="72.292">PLAYING,</text><text fill="#000000" font-family="sans-serif" font-size="14" lengthAdjust="spacing" textLength="57" x="13" y="88.5889">CLOSED</text><line style="stroke:#181818;stroke-width:0.5;" x1="8" x2="147" y1="95.8906" y2="95.8906"/></g><!--MD5=[b6dcce5e5ef3c84b0b048d11301373dd]
class Game--><g id="elem_Game"><rect codeLine="19" fill="#F1F1F1" height="96.8906" id="Game" rx="2.5" ry="2.5" style="stroke:#181818;stroke-width:0.5;" width="142" x="357.5" y="419"/><ellipse cx="403.75" cy="435" fill="#ADD1B2" rx="11" ry="11" style="stroke:#181818;stroke-width:1.0;"/><path d="M406.7188,440.6406 Q406.1406,440.9375 405.5,441.0781 Q404.8594,441.2344 404.1563,441.2344 Q401.6563,441.2344 400.3281,439.5938 Q399.0156,437.9375 399.0156,434.8125 Q399.0156,431.6875 400.3281,430.0313 Q401.6563,428.375 404.1563,428.375 Q404.8594,428.375 405.5,428.5313 Q406.1563,428.6875 406.7188,428.9844 L406.7188,431.7031 Q406.0938,431.125 405.5,430.8594 Q404.9063,430.5781 404.2813,430.5781 Q402.9375,430.5781 402.25,431.6563 Q401.5625,432.7188 401.5625,434.8125 Q401.5625,436.9063 402.25,437.9844 Q402.9375,439.0469 404.2813,439.0469 Q404.9063,439.0469 405.5,438.7813 Q406.0938,438.5 406.7188,437.9219 L406.7188,440.6406 Z " fill="#000000"/><text fill="#000000" font-family="sans-serif" font-size="14" lengthAdjust="spacing" textLength="41" x="424.25" y="439.8467">Game</text><line style="stroke:#181818;stroke-width:0.5;" x1="358.5" x2="498.5" y1="451" y2="451"/><rect fill="none" height="6" style="stroke:#C82930;stroke-width:1.0;" width="6" x="365.5" y="459"/><text fill="#000000" font-family="sans-serif" font-size="14" lengthAdjust="spacing" textLength="46" x="377.5" y="467.9951">long id</text><rect fill="none" height="6" style="stroke:#C82930;stroke-width:1.0;" width="6" x="365.5" y="475.2969"/><text fill="#000000" font-family="sans-serif" font-size="14" lengthAdjust="spacing" textLength="116" x="377.5" y="484.292">GameState state</text><rect fill="none" height="6" style="stroke:#C82930;stroke-width:1.0;" width="6" x="365.5" y="491.5938"/><text fill="#000000" font-family="sans-serif" font-size="14" lengthAdjust="spacing" textLength="83" x="377.5" y="500.5889">String name</text><line style="stroke:#181818;stroke-width:0.5;" x1="358.5" x2="498.5" y1="507.8906" y2="507.8906"/></g><!--MD5=[23bb12025fb3ea604555f955dd7f38e8]
class Participation--><g id="elem_Participation"><rect codeLine="25" fill="#F1F1F1" height="96.8906" id="Participation" rx="2.5" ry="2.5" style="stroke:#181818;stroke-width:0.5;" width="159" x="545" y="213"/><ellipse cx="579.35" cy="229" fill="#ADD1B2" rx="11" ry="11" style="stroke:#181818;stroke-width:1.0;"/><path d="M582.3188,234.6406 Q581.7406,234.9375 581.1,235.0781 Q580.4594,235.2344 579.7563,235.2344 Q577.2563,235.2344 575.9281,233.5938 Q574.6156,231.9375 574.6156,228.8125 Q574.6156,225.6875 575.9281,224.0313 Q577.2563,222.375 579.7563,222.375 Q580.4594,222.375 581.1,222.5313 Q581.7563,222.6875 582.3188,222.9844 L582.3188,225.7031 Q581.6938,225.125 581.1,224.8594 Q580.5063,224.5781 579.8813,224.5781 Q578.5375,224.5781 577.85,225.6563 Q577.1625,226.7188 577.1625,228.8125 Q577.1625,230.9063 577.85,231.9844 Q578.5375,233.0469 579.8813,233.0469 Q580.5063,233.0469 581.1,232.7813 Q581.6938,232.5 582.3188,231.9219 L582.3188,234.6406 Z " fill="#000000"/><text fill="#000000" font-family="sans-serif" font-size="14" lengthAdjust="spacing" textLength="84" x="597.65" y="233.8467">Participation</text><line style="stroke:#181818;stroke-width:0.5;" x1="546" x2="703" y1="245" y2="245"/><rect fill="none" height="6" style="stroke:#C82930;stroke-width:1.0;" width="6" x="553" y="253"/><text fill="#000000" font-family="sans-serif" font-size="14" lengthAdjust="spacing" textLength="46" x="565" y="261.9951">long id</text><rect fill="none" height="6" style="stroke:#C82930;stroke-width:1.0;" width="6" x="553" y="269.2969"/><text fill="#000000" font-family="sans-serif" font-size="14" lengthAdjust="spacing" textLength="100" x="565" y="278.292">boolean active</text><rect fill="none" height="6" style="stroke:#C82930;stroke-width:1.0;" width="6" x="553" y="285.5938"/><text fill="#000000" font-family="sans-serif" font-size="14" lengthAdjust="spacing" textLength="133" x="565" y="294.5889">Integer playerOrder</text><line style="stroke:#181818;stroke-width:0.5;" x1="546" x2="703" y1="301.8906" y2="301.8906"/></g><!--MD5=[5f0899136ed8f523b18ed05779c24112]
class Match--><g id="elem_Match"><rect codeLine="31" fill="#F1F1F1" height="96.8906" id="Match" rx="2.5" ry="2.5" style="stroke:#181818;stroke-width:0.5;" width="186" x="537.5" y="576"/><ellipse cx="605.25" cy="592" fill="#ADD1B2" rx="11" ry="11" style="stroke:#181818;stroke-width:1.0;"/><path d="M608.2188,597.6406 Q607.6406,597.9375 607,598.0781 Q606.3594,598.2344 605.6563,598.2344 Q603.1563,598.2344 601.8281,596.5938 Q600.5156,594.9375 600.5156,591.8125 Q600.5156,588.6875 601.8281,587.0313 Q603.1563,585.375 605.6563,585.375 Q606.3594,585.375 607,585.5313 Q607.6563,585.6875 608.2188,585.9844 L608.2188,588.7031 Q607.5938,588.125 607,587.8594 Q606.4063,587.5781 605.7813,587.5781 Q604.4375,587.5781 603.75,588.6563 Q603.0625,589.7188 603.0625,591.8125 Q603.0625,593.9063 603.75,594.9844 Q604.4375,596.0469 605.7813,596.0469 Q606.4063,596.0469 607,595.7813 Q607.5938,595.5 608.2188,594.9219 L608.2188,597.6406 Z " fill="#000000"/><text fill="#000000" font-family="sans-serif" font-size="14" lengthAdjust="spacing" textLength="42" x="625.75" y="596.8467">Match</text><line style="stroke:#181818;stroke-width:0.5;" x1="538.5" x2="722.5" y1="608" y2="608"/><rect fill="none" height="6" style="stroke:#C82930;stroke-width:1.0;" width="6" x="545.5" y="616"/><text fill="#000000" font-family="sans-serif" font-size="14" lengthAdjust="spacing" textLength="46" x="557.5" y="624.9951">long id</text><rect fill="none" height="6" style="stroke:#C82930;stroke-width:1.0;" width="6" x="545.5" y="632.2969"/><text fill="#000000" font-family="sans-serif" font-size="14" lengthAdjust="spacing" textLength="119" x="557.5" y="641.292">int matchNumber</text><rect fill="none" height="6" style="stroke:#C82930;stroke-width:1.0;" width="6" x="545.5" y="648.5938"/><text fill="#000000" font-family="sans-serif" font-size="14" lengthAdjust="spacing" textLength="160" x="557.5" y="657.5889">MatchState matchstate</text><line style="stroke:#181818;stroke-width:0.5;" x1="538.5" x2="722.5" y1="664.8906" y2="664.8906"/></g><!--MD5=[99f6b3a515749813b582928e9bdbe090]
class MatchState--><g id="elem_MatchState"><rect codeLine="37" fill="#F1F1F1" height="96.8906" id="MatchState" rx="2.5" ry="2.5" style="stroke:#181818;stroke-width:0.5;" width="167" x="183" y="7"/><ellipse cx="223.65" cy="23" fill="#EB937F" rx="11" ry="11" style="stroke:#181818;stroke-width:1.0;"/><path d="M227.7594,29 L220.0406,29 L220.0406,16.6094 L227.7594,16.6094 L227.7594,18.7656 L222.4938,18.7656 L222.4938,21.4375 L227.2594,21.4375 L227.2594,23.5938 L222.4938,23.5938 L222.4938,26.8438 L227.7594,26.8438 L227.7594,29 Z " fill="#000000"/><text fill="#000000" font-family="sans-serif" font-size="14" lengthAdjust="spacing" textLength="78" x="243.35" y="27.8467">MatchState</text><line style="stroke:#181818;stroke-width:0.5;" x1="184" x2="349" y1="39" y2="39"/><text fill="#000000" font-family="sans-serif" font-size="14" lengthAdjust="spacing" textLength="155" x="189" y="55.9951">ANNOUNCING_TRICKS,</text><text fill="#000000" font-family="sans-serif" font-size="14" lengthAdjust="spacing" textLength="118" x="189" y="72.292">PLAYING_CARDS,</text><text fill="#000000" font-family="sans-serif" font-size="14" lengthAdjust="spacing" textLength="63" x="189" y="88.5889">FINISHED</text><line style="stroke:#181818;stroke-width:0.5;" x1="184" x2="349" y1="95.8906" y2="95.8906"/></g><!--MD5=[99df87112e9e40b3a0ddb0db969130b7]
class ScoreAnnouncement--><g id="elem_ScoreAnnouncement"><rect codeLine="43" fill="#F1F1F1" height="64.2969" id="ScoreAnnouncement" rx="2.5" ry="2.5" style="stroke:#181818;stroke-width:0.5;" width="179" x="535" y="435.5"/><ellipse cx="550" cy="451.5" fill="#ADD1B2" rx="11" ry="11" style="stroke:#181818;stroke-width:1.0;"/><path d="M552.9688,457.1406 Q552.3906,457.4375 551.75,457.5781 Q551.1094,457.7344 550.4063,457.7344 Q547.9063,457.7344 546.5781,456.0938 Q545.2656,454.4375 545.2656,451.3125 Q545.2656,448.1875 546.5781,446.5313 Q547.9063,444.875 550.4063,444.875 Q551.1094,444.875 551.75,445.0313 Q552.4063,445.1875 552.9688,445.4844 L552.9688,448.2031 Q552.3438,447.625 551.75,447.3594 Q551.1563,447.0781 550.5313,447.0781 Q549.1875,447.0781 548.5,448.1563 Q547.8125,449.2188 547.8125,451.3125 Q547.8125,453.4063 548.5,454.4844 Q549.1875,455.5469 550.5313,455.5469 Q551.1563,455.5469 551.75,455.2813 Q552.3438,455 552.9688,454.4219 L552.9688,457.1406 Z " fill="#000000"/><text fill="#000000" font-family="sans-serif" font-size="14" lengthAdjust="spacing" textLength="147" x="564" y="456.3467">ScoreAnnouncement</text><line style="stroke:#181818;stroke-width:0.5;" x1="536" x2="713" y1="467.5" y2="467.5"/><rect fill="none" height="6" style="stroke:#C82930;stroke-width:1.0;" width="6" x="543" y="475.5"/><text fill="#000000" font-family="sans-serif" font-size="14" lengthAdjust="spacing" textLength="140" x="555" y="484.4951">int announcedScore</text><line style="stroke:#181818;stroke-width:0.5;" x1="536" x2="713" y1="491.7969" y2="491.7969"/></g><!--MD5=[b3a980551af4fb5504d75634056fd54d]
class Hand--><g id="elem_Hand"><rect codeLine="47" fill="#F1F1F1" height="48" id="Hand" rx="2.5" ry="2.5" style="stroke:#181818;stroke-width:0.5;" width="68" x="749.5" y="443.5"/><ellipse cx="764.5" cy="459.5" fill="#ADD1B2" rx="11" ry="11" style="stroke:#181818;stroke-width:1.0;"/><path d="M767.4688,465.1406 Q766.8906,465.4375 766.25,465.5781 Q765.6094,465.7344 764.9063,465.7344 Q762.4063,465.7344 761.0781,464.0938 Q759.7656,462.4375 759.7656,459.3125 Q759.7656,456.1875 761.0781,454.5313 Q762.4063,452.875 764.9063,452.875 Q765.6094,452.875 766.25,453.0313 Q766.9063,453.1875 767.4688,453.4844 L767.4688,456.2031 Q766.8438,455.625 766.25,455.3594 Q765.6563,455.0781 765.0313,455.0781 Q763.6875,455.0781 763,456.1563 Q762.3125,457.2188 762.3125,459.3125 Q762.3125,461.4063 763,462.4844 Q763.6875,463.5469 765.0313,463.5469 Q765.6563,463.5469 766.25,463.2813 Q766.8438,463 767.4688,462.4219 L767.4688,465.1406 Z " fill="#000000"/><text fill="#000000" font-family="sans-serif" font-size="14" lengthAdjust="spacing" textLength="36" x="778.5" y="464.3467">Hand</text><line style="stroke:#181818;stroke-width:0.5;" x1="750.5" x2="816.5" y1="475.5" y2="475.5"/><line style="stroke:#181818;stroke-width:0.5;" x1="750.5" x2="816.5" y1="483.5" y2="483.5"/></g><!--MD5=[dd91eae41778c45e12552e5329e240e8]
class Turn--><g id="elem_Turn"><rect codeLine="50" fill="#F1F1F1" height="48" id="Turn" rx="2.5" ry="2.5" style="stroke:#181818;stroke-width:0.5;" width="64" x="642.5" y="874"/><ellipse cx="657.5" cy="890" fill="#ADD1B2" rx="11" ry="11" style="stroke:#181818;stroke-width:1.0;"/><path d="M660.4688,895.6406 Q659.8906,895.9375 659.25,896.0781 Q658.6094,896.2344 657.9063,896.2344 Q655.4063,896.2344 654.0781,894.5938 Q652.7656,892.9375 652.7656,889.8125 Q652.7656,886.6875 654.0781,885.0313 Q655.4063,883.375 657.9063,883.375 Q658.6094,883.375 659.25,883.5313 Q659.9063,883.6875 660.4688,883.9844 L660.4688,886.7031 Q659.8438,886.125 659.25,885.8594 Q658.6563,885.5781 658.0313,885.5781 Q656.6875,885.5781 656,886.6563 Q655.3125,887.7188 655.3125,889.8125 Q655.3125,891.9063 656,892.9844 Q656.6875,894.0469 658.0313,894.0469 Q658.6563,894.0469 659.25,893.7813 Q659.8438,893.5 660.4688,892.9219 L660.4688,895.6406 Z " fill="#000000"/><text fill="#000000" font-family="sans-serif" font-size="14" lengthAdjust="spacing" textLength="32" x="671.5" y="894.8467">Turn</text><line style="stroke:#181818;stroke-width:0.5;" x1="643.5" x2="705.5" y1="906" y2="906"/><line style="stroke:#181818;stroke-width:0.5;" x1="643.5" x2="705.5" y1="914" y2="914"/></g><!--MD5=[d75b0a238b734941260681f0026bbb88]
class Round--><g id="elem_Round"><rect codeLine="54" fill="#F1F1F1" height="80.5938" id="Round" rx="2.5" ry="2.5" style="stroke:#181818;stroke-width:0.5;" width="143" x="573" y="733"/><ellipse cx="617.25" cy="749" fill="#ADD1B2" rx="11" ry="11" style="stroke:#181818;stroke-width:1.0;"/><path d="M620.2188,754.6406 Q619.6406,754.9375 619,755.0781 Q618.3594,755.2344 617.6563,755.2344 Q615.1563,755.2344 613.8281,753.5938 Q612.5156,751.9375 612.5156,748.8125 Q612.5156,745.6875 613.8281,744.0313 Q615.1563,742.375 617.6563,742.375 Q618.3594,742.375 619,742.5313 Q619.6563,742.6875 620.2188,742.9844 L620.2188,745.7031 Q619.5938,745.125 619,744.8594 Q618.4063,744.5781 617.7813,744.5781 Q616.4375,744.5781 615.75,745.6563 Q615.0625,746.7188 615.0625,748.8125 Q615.0625,750.9063 615.75,751.9844 Q616.4375,753.0469 617.7813,753.0469 Q618.4063,753.0469 619,752.7813 Q619.5938,752.5 620.2188,751.9219 L620.2188,754.6406 Z " fill="#000000"/><text fill="#000000" font-family="sans-serif" font-size="14" lengthAdjust="spacing" textLength="46" x="637.75" y="753.8467">Round</text><line style="stroke:#181818;stroke-width:0.5;" x1="574" x2="715" y1="765" y2="765"/><rect fill="none" height="6" style="stroke:#C82930;stroke-width:1.0;" width="6" x="581" y="773"/><text fill="#000000" font-family="sans-serif" font-size="14" lengthAdjust="spacing" textLength="46" x="593" y="781.9951">long id</text><rect fill="none" height="6" style="stroke:#C82930;stroke-width:1.0;" width="6" x="581" y="789.2969"/><text fill="#000000" font-family="sans-serif" font-size="14" lengthAdjust="spacing" textLength="117" x="593" y="798.292">int roundNumber</text><line style="stroke:#181818;stroke-width:0.5;" x1="574" x2="715" y1="805.5938" y2="805.5938"/></g><!--MD5=[5e305716458bbdabbd2d7f572ed2bae2]
class Card--><g id="elem_Card"><rect codeLine="59" fill="#F1F1F1" height="80.5938" id="Card" rx="2.5" ry="2.5" style="stroke:#181818;stroke-width:0.5;" width="95" x="669" y="982"/><ellipse cx="697.95" cy="998" fill="#ADD1B2" rx="11" ry="11" style="stroke:#181818;stroke-width:1.0;"/><path d="M700.9188,1003.6406 Q700.3406,1003.9375 699.7,1004.0781 Q699.0594,1004.2344 698.3563,1004.2344 Q695.8563,1004.2344 694.5281,1002.5938 Q693.2156,1000.9375 693.2156,997.8125 Q693.2156,994.6875 694.5281,993.0313 Q695.8563,991.375 698.3563,991.375 Q699.0594,991.375 699.7,991.5313 Q700.3563,991.6875 700.9188,991.9844 L700.9188,994.7031 Q700.2938,994.125 699.7,993.8594 Q699.1063,993.5781 698.4813,993.5781 Q697.1375,993.5781 696.45,994.6563 Q695.7625,995.7188 695.7625,997.8125 Q695.7625,999.9063 696.45,1000.9844 Q697.1375,1002.0469 698.4813,1002.0469 Q699.1063,1002.0469 699.7,1001.7813 Q700.2938,1001.5 700.9188,1000.9219 L700.9188,1003.6406 Z " fill="#000000"/><text fill="#000000" font-family="sans-serif" font-size="14" lengthAdjust="spacing" textLength="32" x="715.05" y="1002.8467">Card</text><line style="stroke:#181818;stroke-width:0.5;" x1="670" x2="763" y1="1014" y2="1014"/><rect fill="none" height="6" style="stroke:#C82930;stroke-width:1.0;" width="6" x="677" y="1022"/><text fill="#000000" font-family="sans-serif" font-size="14" lengthAdjust="spacing" textLength="55" x="689" y="1030.9951">Suit suit</text><rect fill="none" height="6" style="stroke:#C82930;stroke-width:1.0;" width="6" x="677" y="1038.2969"/><text fill="#000000" font-family="sans-serif" font-size="14" lengthAdjust="spacing" textLength="69" x="689" y="1047.292">Rank rank</text><line style="stroke:#181818;stroke-width:0.5;" x1="670" x2="763" y1="1054.5938" y2="1054.5938"/></g><!--MD5=[8afaa0cc9be9ac1cdc24999fa1642fa3]
class Suit--><g id="elem_Suit"><rect codeLine="64" fill="#F1F1F1" height="113.1875" id="Suit" rx="2.5" ry="2.5" style="stroke:#181818;stroke-width:0.5;" width="92" x="31.5" y="205"/><ellipse cx="61.8" cy="221" fill="#EB937F" rx="11" ry="11" style="stroke:#181818;stroke-width:1.0;"/><path d="M65.9094,227 L58.1906,227 L58.1906,214.6094 L65.9094,214.6094 L65.9094,216.7656 L60.6438,216.7656 L60.6438,219.4375 L65.4094,219.4375 L65.4094,221.5938 L60.6438,221.5938 L60.6438,224.8438 L65.9094,224.8438 L65.9094,227 Z " fill="#000000"/><text fill="#000000" font-family="sans-serif" font-size="14" lengthAdjust="spacing" textLength="26" x="79.2" y="225.8467">Suit</text><line style="stroke:#181818;stroke-width:0.5;" x1="32.5" x2="122.5" y1="237" y2="237"/><text fill="#000000" font-family="sans-serif" font-size="14" lengthAdjust="spacing" textLength="50" x="37.5" y="253.9951">CLUBS,</text><text fill="#000000" font-family="sans-serif" font-size="14" lengthAdjust="spacing" textLength="80" x="37.5" y="270.292">DIAMONDS,</text><text fill="#000000" font-family="sans-serif" font-size="14" lengthAdjust="spacing" textLength="60" x="37.5" y="286.5889">HEARTS,</text><text fill="#000000" font-family="sans-serif" font-size="14" lengthAdjust="spacing" textLength="56" x="37.5" y="302.8857">SPADES</text><line style="stroke:#181818;stroke-width:0.5;" x1="32.5" x2="122.5" y1="310.1875" y2="310.1875"/></g><!--MD5=[0f690a215a17a0cf4b9f948ca5dd1b3e]
class Rank--><g id="elem_Rank"><rect codeLine="71" fill="#F1F1F1" height="194.6719" id="Rank" rx="2.5" ry="2.5" style="stroke:#181818;stroke-width:0.5;" width="67" x="159" y="164"/><ellipse cx="174" cy="180" fill="#EB937F" rx="11" ry="11" style="stroke:#181818;stroke-width:1.0;"/><path d="M178.1094,186 L170.3906,186 L170.3906,173.6094 L178.1094,173.6094 L178.1094,175.7656 L172.8438,175.7656 L172.8438,178.4375 L177.6094,178.4375 L177.6094,180.5938 L172.8438,180.5938 L172.8438,183.8438 L178.1094,183.8438 L178.1094,186 Z " fill="#000000"/><text fill="#000000" font-family="sans-serif" font-size="14" lengthAdjust="spacing" textLength="35" x="188" y="184.8467">Rank</text><line style="stroke:#181818;stroke-width:0.5;" x1="160" x2="225" y1="196" y2="196"/><text fill="#000000" font-family="sans-serif" font-size="14" lengthAdjust="spacing" textLength="32" x="165" y="212.9951">ACE,</text><text fill="#000000" font-family="sans-serif" font-size="14" lengthAdjust="spacing" textLength="25" x="165" y="229.292">SIX,</text><text fill="#000000" font-family="sans-serif" font-size="14" lengthAdjust="spacing" textLength="50" x="165" y="245.5889">SEVEN,</text><text fill="#000000" font-family="sans-serif" font-size="14" lengthAdjust="spacing" textLength="46" x="165" y="261.8857">EIGHT,</text><text fill="#000000" font-family="sans-serif" font-size="14" lengthAdjust="spacing" textLength="36" x="165" y="278.1826">NINE,</text><text fill="#000000" font-family="sans-serif" font-size="14" lengthAdjust="spacing" textLength="32" x="165" y="294.4795">TEN,</text><text fill="#000000" font-family="sans-serif" font-size="14" lengthAdjust="spacing" textLength="35" x="165" y="310.7764">JACK,</text><text fill="#000000" font-family="sans-serif" font-size="14" lengthAdjust="spacing" textLength="53" x="165" y="327.0732">QUEEN,</text><text fill="#000000" font-family="sans-serif" font-size="14" lengthAdjust="spacing" textLength="33" x="165" y="343.3701">KING</text><line style="stroke:#181818;stroke-width:0.5;" x1="160" x2="225" y1="350.6719" y2="350.6719"/></g><!--MD5=[831236ba57dae0bc776a9527ec9f7aa2]
link Player to User--><g id="link_Player_User"><path codeLine="83" d="M482.54,104.07 C470.19,136.8 453.84,180.11 441.48,212.85 " fill="none" id="Player-User" style="stroke:#181818;stroke-width:1.0;"/><text fill="#000000" font-family="sans-serif" font-size="13" lengthAdjust="spacing" textLength="7" x="472.5222" y="124.0388">*</text><text fill="#000000" font-family="sans-serif" font-size="13" lengthAdjust="spacing" textLength="8" x="435.4459" y="202.0378">1</text></g><!--MD5=[2948b15446720d046723ef865ff3eac8]
link Player to Participation--><g id="link_Player_Participation"><path codeLine="84" d="M529.42,104.07 C549.31,136.8 575.63,180.11 595.54,212.85 " fill="none" id="Player-Participation" style="stroke:#181818;stroke-width:1.0;"/><text fill="#000000" font-family="sans-serif" font-size="13" lengthAdjust="spacing" textLength="8" x="524.9244" y="124.0388">1</text><text fill="#000000" font-family="sans-serif" font-size="13" lengthAdjust="spacing" textLength="7" x="583.9753" y="202.0378">*</text></g><!--MD5=[dbf2e35fe06e7f5c60e786b569169e48]
link Participation to Game--><g id="link_Participation_Game"><path codeLine="86" d="M578.79,310.07 C547.35,342.8 505.74,386.11 474.28,418.85 " fill="none" id="Participation-Game" style="stroke:#181818;stroke-width:1.0;"/><text fill="#000000" font-family="sans-serif" font-size="13" lengthAdjust="spacing" textLength="7" x="564.8698" y="330.0388">*</text><text fill="#000000" font-family="sans-serif" font-size="13" lengthAdjust="spacing" textLength="8" x="472.1553" y="408.0378">1</text></g><!--MD5=[c247174b8045f5cef37369dd583d2dab]
link Participation to ScoreAnnouncement--><g id="link_Participation_ScoreAnnouncement"><path codeLine="87" d="M624.5,310.07 C624.5,348.69 624.5,402.03 624.5,435.37 " fill="none" id="Participation-ScoreAnnouncement" style="stroke:#181818;stroke-width:1.0;"/><text fill="#000000" font-family="sans-serif" font-size="13" lengthAdjust="spacing" textLength="8" x="615.9375" y="330.0388">1</text><text fill="#000000" font-family="sans-serif" font-size="13" lengthAdjust="spacing" textLength="7" x="616.7781" y="424.2463">*</text></g><!--MD5=[4a26cb6579843e3e14e1f7ba4255fdc5]
link Participation to Hand--><g id="link_Participation_Hand"><path codeLine="88" d="M661.58,310.07 C694.25,351.99 740.43,411.24 765.54,443.46 " fill="none" id="Participation-Hand" style="stroke:#181818;stroke-width:1.0;"/><text fill="#000000" font-family="sans-serif" font-size="13" lengthAdjust="spacing" textLength="8" x="658.2319" y="330.0388">1</text><text fill="#000000" font-family="sans-serif" font-size="13" lengthAdjust="spacing" textLength="7" x="753.0409" y="432.4618">*</text></g><!--MD5=[0c6d6594ac49b4842669681d57c95d8d]
link ScoreAnnouncement to Match--><g id="link_ScoreAnnouncement_Match"><path codeLine="90" d="M625.71,499.87 C626.56,521.72 627.7,551.26 628.66,575.98 " fill="none" id="ScoreAnnouncement-Match" style="stroke:#181818;stroke-width:1.0;"/><text fill="#000000" font-family="sans-serif" font-size="13" lengthAdjust="spacing" textLength="7" x="618.2592" y="519.7702">*</text><text fill="#000000" font-family="sans-serif" font-size="13" lengthAdjust="spacing" textLength="8" x="619.8023" y="564.8367">1</text></g><!--MD5=[ebc4fdae77490ce4a26bbddba5e34eab]
link Hand to Match--><g id="link_Hand_Match"><path codeLine="92" d="M760.59,491.71 C738.75,513.83 705.2,547.82 677.64,575.75 " fill="none" id="Hand-Match" style="stroke:#181818;stroke-width:1.0;"/><text fill="#000000" font-family="sans-serif" font-size="13" lengthAdjust="spacing" textLength="7" x="747.1526" y="511.5224">*</text><text fill="#000000" font-family="sans-serif" font-size="13" lengthAdjust="spacing" textLength="8" x="675.7066" y="564.9238">1</text></g><!--MD5=[2f16b817737525477c59504130fd53f7]
link Hand to Card--><g id="link_Hand_Card"><path codeLine="93" d="M780.71,491.56 C770.39,576.7 734.37,874 721.29,981.95 " fill="none" id="Hand-Card" style="stroke:#181818;stroke-width:1.0;"/><text fill="#000000" font-family="sans-serif" font-size="13" lengthAdjust="spacing" textLength="8" x="770.9701" y="511.7312">1</text><text fill="#000000" font-family="sans-serif" font-size="13" lengthAdjust="spacing" textLength="24" x="724.1758" y="970.8046">1..5</text></g><!--MD5=[70c92096be01b0f4dd26a6744feaffbd]
link Game to Match--><g id="link_Game_Match"><path codeLine="95" d="M490.48,516.06 C515.18,535.01 543.56,556.79 568.29,575.76 " fill="none" id="Game-Match" style="stroke:#181818;stroke-width:1.0;"/><text fill="#000000" font-family="sans-serif" font-size="13" lengthAdjust="spacing" textLength="8" x="490.6334" y="536.0274">1</text><text fill="#000000" font-family="sans-serif" font-size="13" lengthAdjust="spacing" textLength="24" x="533.8542" y="564.9352">1..9</text></g><!--MD5=[7a51bdac25b04a43197b4f59647f1e71]
link Match to Round--><g id="link_Match_Round"><path codeLine="97" d="M635.05,673.23 C636.88,692.51 638.98,714.5 640.73,732.88 " fill="none" id="Match-Round" style="stroke:#181818;stroke-width:1.0;"/><text fill="#000000" font-family="sans-serif" font-size="13" lengthAdjust="spacing" textLength="8" x="627.1239" y="692.8691">1</text><text fill="#000000" font-family="sans-serif" font-size="13" lengthAdjust="spacing" textLength="24" x="614.1181" y="722.0217">1..5</text></g><!--MD5=[c7db1d6b3f1b159da7039dc5c02cede1]
link Round to Turn--><g id="link_Round_Turn"><path codeLine="99" d="M654.24,814.27 C659.06,833.97 664.72,857.07 668.83,873.84 " fill="none" id="Round-Turn" style="stroke:#181818;stroke-width:1.0;"/><text fill="#000000" font-family="sans-serif" font-size="13" lengthAdjust="spacing" textLength="8" x="647.1189" y="833.7695">1</text><text fill="#000000" font-family="sans-serif" font-size="13" lengthAdjust="spacing" textLength="7" x="659.4802" y="862.811">*</text></g><!--MD5=[b98c477802494507a24b45e125e8f0bc]
link Turn to Card--><g id="link_Turn_Card"><path codeLine="101" d="M682.4,922.04 C688.15,938.81 696.08,961.95 702.85,981.69 " fill="none" id="Turn-Card" style="stroke:#181818;stroke-width:1.0;"/><text fill="#000000" font-family="sans-serif" font-size="13" lengthAdjust="spacing" textLength="8" x="675.3994" y="942.206">1</text><text fill="#000000" font-family="sans-serif" font-size="13" lengthAdjust="spacing" textLength="8" x="691.9267" y="970.8002">1</text></g><!--MD5=[73fb65a6a03c8791848a6c4b89986757]
link GameState to MatchState--></g></svg>