<?xml version="1.0" encoding="UTF-8" standalone="no"?><svg xmlns="http://www.w3.org/2000/svg" xmlns:xlink="http://www.w3.org/1999/xlink" contentStyleType="text/css" height="961px" preserveAspectRatio="none" style="width:809px;height:961px;background:#FFFFFF;" version="1.1" viewBox="0 0 809 961" width="809px" zoomAndPan="magnify"><defs/><g><!--MD5=[2cb47ba637a0d19583e6199456f6ad0b]
class Player--><g id="elem_Player"><rect codeLine="1" fill="#F1F1F1" height="96.8906" id="Player" rx="2.5" ry="2.5" style="stroke:#181818;stroke-width:0.5;" width="137" x="438.5" y="7"/><ellipse cx="480.95" cy="23" fill="#ADD1B2" rx="11" ry="11" style="stroke:#181818;stroke-width:1.0;"/><path d="M483.4188,28.875 Q482.8406,29.1875 482.2,29.3438 Q481.5594,29.5 480.8563,29.5 Q478.3563,29.5 477.0281,27.8281 Q475.7156,26.1563 475.7156,23 Q475.7156,19.8438 477.0281,18.1719 Q478.3563,16.5 480.8563,16.5 Q481.5594,16.5 482.2,16.6563 Q482.8563,16.8125 483.4188,17.125 L483.4188,19.9219 Q482.7938,19.3594 482.2,19.0938 Q481.6063,18.8125 480.9813,18.8125 Q479.6375,18.8125 478.95,19.875 Q478.2625,20.9375 478.2625,23 Q478.2625,25.0781 478.95,26.1406 Q479.6375,27.1875 480.9813,27.1875 Q481.6063,27.1875 482.2,26.9219 Q482.7938,26.6563 483.4188,26.0781 L483.4188,28.875 Z " fill="#000000"/><text fill="#000000" font-family="sans-serif" font-size="14" lengthAdjust="spacing" textLength="44" x="501.05" y="27.8467">Player</text><line style="stroke:#181818;stroke-width:0.5;" x1="439.5" x2="574.5" y1="39" y2="39"/><rect fill="none" height="6" style="stroke:#C82930;stroke-width:1.0;" width="6" x="446.5" y="47"/><text fill="#000000" font-family="sans-serif" font-size="14" lengthAdjust="spacing" textLength="48" x="458.5" y="55.9951">long id</text><rect fill="none" height="6" style="stroke:#C82930;stroke-width:1.0;" width="6" x="446.5" y="63.2969"/><text fill="#000000" font-family="sans-serif" font-size="14" lengthAdjust="spacing" textLength="87" x="458.5" y="72.292">String name</text><rect fill="none" height="6" style="stroke:#C82930;stroke-width:1.0;" width="6" x="446.5" y="79.5938"/><text fill="#000000" font-family="sans-serif" font-size="14" lengthAdjust="spacing" textLength="111" x="458.5" y="88.5889">String sessionId</text><line style="stroke:#181818;stroke-width:0.5;" x1="439.5" x2="574.5" y1="95.8906" y2="95.8906"/></g><!--MD5=[3fd616f346a44cd59a91eb10b19e157c]
class User--><g id="elem_User"><rect codeLine="7" fill="#F1F1F1" height="96.8906" id="User" rx="2.5" ry="2.5" style="stroke:#181818;stroke-width:0.5;" width="175" x="339.5" y="213"/><ellipse cx="406.75" cy="229" fill="#ADD1B2" rx="11" ry="11" style="stroke:#181818;stroke-width:1.0;"/><path d="M409.2188,234.875 Q408.6406,235.1875 408,235.3438 Q407.3594,235.5 406.6563,235.5 Q404.1563,235.5 402.8281,233.8281 Q401.5156,232.1563 401.5156,229 Q401.5156,225.8438 402.8281,224.1719 Q404.1563,222.5 406.6563,222.5 Q407.3594,222.5 408,222.6563 Q408.6563,222.8125 409.2188,223.125 L409.2188,225.9219 Q408.5938,225.3594 408,225.0938 Q407.4063,224.8125 406.7813,224.8125 Q405.4375,224.8125 404.75,225.875 Q404.0625,226.9375 404.0625,229 Q404.0625,231.0781 404.75,232.1406 Q405.4375,233.1875 406.7813,233.1875 Q407.4063,233.1875 408,232.9219 Q408.5938,232.6563 409.2188,232.0781 L409.2188,234.875 Z " fill="#000000"/><text fill="#000000" font-family="sans-serif" font-size="14" lengthAdjust="spacing" textLength="32" x="427.25" y="233.8467">User</text><line style="stroke:#181818;stroke-width:0.5;" x1="340.5" x2="513.5" y1="245" y2="245"/><rect fill="none" height="6" style="stroke:#C82930;stroke-width:1.0;" width="6" x="347.5" y="253"/><text fill="#000000" font-family="sans-serif" font-size="14" lengthAdjust="spacing" textLength="48" x="359.5" y="261.9951">long id</text><rect fill="none" height="6" style="stroke:#C82930;stroke-width:1.0;" width="6" x="347.5" y="269.2969"/><text fill="#000000" font-family="sans-serif" font-size="14" lengthAdjust="spacing" textLength="118" x="359.5" y="278.292">String username</text><rect fill="none" height="6" style="stroke:#C82930;stroke-width:1.0;" width="6" x="347.5" y="285.5938"/><text fill="#000000" font-family="sans-serif" font-size="14" lengthAdjust="spacing" textLength="149" x="359.5" y="294.5889">String passwordHash</text><line style="stroke:#181818;stroke-width:0.5;" x1="340.5" x2="513.5" y1="301.8906" y2="301.8906"/></g><!--MD5=[48e88c162c5505361c629eb6ff3812a8]
class GameState--><g id="elem_GameState"><rect codeLine="13" fill="#F1F1F1" height="96.8906" id="GameState" rx="2.5" ry="2.5" style="stroke:#181818;stroke-width:0.5;" width="144" x="7" y="7"/><ellipse cx="36.4" cy="23" fill="#EB937F" rx="11" ry="11" style="stroke:#181818;stroke-width:1.0;"/><path d="M40.5094,29.5 L32.7906,29.5 L32.7906,16.5 L40.5094,16.5 L40.5094,18.7813 L35.2438,18.7813 L35.2438,21.5 L40.0094,21.5 L40.0094,23.7813 L35.2438,23.7813 L35.2438,27.2344 L40.5094,27.2344 L40.5094,29.5 Z " fill="#000000"/><text fill="#000000" font-family="sans-serif" font-size="14" lengthAdjust="spacing" textLength="80" x="53.6" y="27.8467">GameState</text><line style="stroke:#181818;stroke-width:0.5;" x1="8" x2="150" y1="39" y2="39"/><text fill="#000000" font-family="sans-serif" font-size="14" lengthAdjust="spacing" textLength="132" x="13" y="55.9951">FINDING_PLAYERS,</text><text fill="#000000" font-family="sans-serif" font-size="14" lengthAdjust="spacing" textLength="64" x="13" y="72.292">PLAYING,</text><text fill="#000000" font-family="sans-serif" font-size="14" lengthAdjust="spacing" textLength="58" x="13" y="88.5889">CLOSED</text><line style="stroke:#181818;stroke-width:0.5;" x1="8" x2="150" y1="95.8906" y2="95.8906"/></g><!--MD5=[b6dcce5e5ef3c84b0b048d11301373dd]
class Game--><g id="elem_Game"><rect codeLine="19" fill="#F1F1F1" height="96.8906" id="Game" rx="2.5" ry="2.5" style="stroke:#181818;stroke-width:0.5;" width="145" x="467.5" y="419"/><ellipse cx="514.25" cy="435" fill="#ADD1B2" rx="11" ry="11" style="stroke:#181818;stroke-width:1.0;"/><path d="M516.7188,440.875 Q516.1406,441.1875 515.5,441.3438 Q514.8594,441.5 514.1563,441.5 Q511.6563,441.5 510.3281,439.8281 Q509.0156,438.1563 509.0156,435 Q509.0156,431.8438 510.3281,430.1719 Q511.6563,428.5 514.1563,428.5 Q514.8594,428.5 515.5,428.6563 Q516.1563,428.8125 516.7188,429.125 L516.7188,431.9219 Q516.0938,431.3594 515.5,431.0938 Q514.9063,430.8125 514.2813,430.8125 Q512.9375,430.8125 512.25,431.875 Q511.5625,432.9375 511.5625,435 Q511.5625,437.0781 512.25,438.1406 Q512.9375,439.1875 514.2813,439.1875 Q514.9063,439.1875 515.5,438.9219 Q516.0938,438.6563 516.7188,438.0781 L516.7188,440.875 Z " fill="#000000"/><text fill="#000000" font-family="sans-serif" font-size="14" lengthAdjust="spacing" textLength="43" x="534.75" y="439.8467">Game</text><line style="stroke:#181818;stroke-width:0.5;" x1="468.5" x2="611.5" y1="451" y2="451"/><rect fill="none" height="6" style="stroke:#C82930;stroke-width:1.0;" width="6" x="475.5" y="459"/><text fill="#000000" font-family="sans-serif" font-size="14" lengthAdjust="spacing" textLength="48" x="487.5" y="467.9951">long id</text><rect fill="none" height="6" style="stroke:#C82930;stroke-width:1.0;" width="6" x="475.5" y="475.2969"/><text fill="#000000" font-family="sans-serif" font-size="14" lengthAdjust="spacing" textLength="119" x="487.5" y="484.292">GameState state</text><rect fill="none" height="6" style="stroke:#C82930;stroke-width:1.0;" width="6" x="475.5" y="491.5938"/><text fill="#000000" font-family="sans-serif" font-size="14" lengthAdjust="spacing" textLength="87" x="487.5" y="500.5889">String name</text><line style="stroke:#181818;stroke-width:0.5;" x1="468.5" x2="611.5" y1="507.8906" y2="507.8906"/></g><!--MD5=[23bb12025fb3ea604555f955dd7f38e8]
class Participation--><g id="elem_Participation"><rect codeLine="25" fill="#F1F1F1" height="96.8906" id="Participation" rx="2.5" ry="2.5" style="stroke:#181818;stroke-width:0.5;" width="167" x="549.5" y="213"/><ellipse cx="585.2" cy="229" fill="#ADD1B2" rx="11" ry="11" style="stroke:#181818;stroke-width:1.0;"/><path d="M587.6688,234.875 Q587.0906,235.1875 586.45,235.3438 Q585.8094,235.5 585.1063,235.5 Q582.6063,235.5 581.2781,233.8281 Q579.9656,232.1563 579.9656,229 Q579.9656,225.8438 581.2781,224.1719 Q582.6063,222.5 585.1063,222.5 Q585.8094,222.5 586.45,222.6563 Q587.1063,222.8125 587.6688,223.125 L587.6688,225.9219 Q587.0438,225.3594 586.45,225.0938 Q585.8563,224.8125 585.2313,224.8125 Q583.8875,224.8125 583.2,225.875 Q582.5125,226.9375 582.5125,229 Q582.5125,231.0781 583.2,232.1406 Q583.8875,233.1875 585.2313,233.1875 Q585.8563,233.1875 586.45,232.9219 Q587.0438,232.6563 587.6688,232.0781 L587.6688,234.875 Z " fill="#000000"/><text fill="#000000" font-family="sans-serif" font-size="14" lengthAdjust="spacing" textLength="89" x="603.8" y="233.8467">Participation</text><line style="stroke:#181818;stroke-width:0.5;" x1="550.5" x2="715.5" y1="245" y2="245"/><rect fill="none" height="6" style="stroke:#C82930;stroke-width:1.0;" width="6" x="557.5" y="253"/><text fill="#000000" font-family="sans-serif" font-size="14" lengthAdjust="spacing" textLength="48" x="569.5" y="261.9951">long id</text><rect fill="none" height="6" style="stroke:#C82930;stroke-width:1.0;" width="6" x="557.5" y="269.2969"/><text fill="#000000" font-family="sans-serif" font-size="14" lengthAdjust="spacing" textLength="105" x="569.5" y="278.292">boolean active</text><rect fill="none" height="6" style="stroke:#C82930;stroke-width:1.0;" width="6" x="557.5" y="285.5938"/><text fill="#000000" font-family="sans-serif" font-size="14" lengthAdjust="spacing" textLength="141" x="569.5" y="294.5889">Integer playerOrder</text><line style="stroke:#181818;stroke-width:0.5;" x1="550.5" x2="715.5" y1="301.8906" y2="301.8906"/></g><!--MD5=[5f0899136ed8f523b18ed05779c24112]
class Match--><g id="elem_Match"><rect codeLine="31" fill="#F1F1F1" height="96.8906" id="Match" rx="2.5" ry="2.5" style="stroke:#181818;stroke-width:0.5;" width="190" x="482" y="576"/><ellipse cx="551.25" cy="592" fill="#ADD1B2" rx="11" ry="11" style="stroke:#181818;stroke-width:1.0;"/><path d="M553.7188,597.875 Q553.1406,598.1875 552.5,598.3438 Q551.8594,598.5 551.1563,598.5 Q548.6563,598.5 547.3281,596.8281 Q546.0156,595.1563 546.0156,592 Q546.0156,588.8438 547.3281,587.1719 Q548.6563,585.5 551.1563,585.5 Q551.8594,585.5 552.5,585.6563 Q553.1563,585.8125 553.7188,586.125 L553.7188,588.9219 Q553.0938,588.3594 552.5,588.0938 Q551.9063,587.8125 551.2813,587.8125 Q549.9375,587.8125 549.25,588.875 Q548.5625,589.9375 548.5625,592 Q548.5625,594.0781 549.25,595.1406 Q549.9375,596.1875 551.2813,596.1875 Q551.9063,596.1875 552.5,595.9219 Q553.0938,595.6563 553.7188,595.0781 L553.7188,597.875 Z " fill="#000000"/><text fill="#000000" font-family="sans-serif" font-size="14" lengthAdjust="spacing" textLength="43" x="571.75" y="596.8467">Match</text><line style="stroke:#181818;stroke-width:0.5;" x1="483" x2="671" y1="608" y2="608"/><rect fill="none" height="6" style="stroke:#C82930;stroke-width:1.0;" width="6" x="490" y="616"/><text fill="#000000" font-family="sans-serif" font-size="14" lengthAdjust="spacing" textLength="48" x="502" y="624.9951">long id</text><rect fill="none" height="6" style="stroke:#C82930;stroke-width:1.0;" width="6" x="490" y="632.2969"/><text fill="#000000" font-family="sans-serif" font-size="14" lengthAdjust="spacing" textLength="124" x="502" y="641.292">int matchNumber</text><rect fill="none" height="6" style="stroke:#C82930;stroke-width:1.0;" width="6" x="490" y="648.5938"/><text fill="#000000" font-family="sans-serif" font-size="14" lengthAdjust="spacing" textLength="164" x="502" y="657.5889">MatchState matchstate</text><line style="stroke:#181818;stroke-width:0.5;" x1="483" x2="671" y1="664.8906" y2="664.8906"/></g><!--MD5=[99f6b3a515749813b582928e9bdbe090]
class MatchState--><g id="elem_MatchState"><rect codeLine="37" fill="#F1F1F1" height="96.8906" id="MatchState" rx="2.5" ry="2.5" style="stroke:#181818;stroke-width:0.5;" width="170" x="186" y="7"/><ellipse cx="227.1" cy="23" fill="#EB937F" rx="11" ry="11" style="stroke:#181818;stroke-width:1.0;"/><path d="M231.2094,29.5 L223.4906,29.5 L223.4906,16.5 L231.2094,16.5 L231.2094,18.7813 L225.9438,18.7813 L225.9438,21.5 L230.7094,21.5 L230.7094,23.7813 L225.9438,23.7813 L225.9438,27.2344 L231.2094,27.2344 L231.2094,29.5 Z " fill="#000000"/><text fill="#000000" font-family="sans-serif" font-size="14" lengthAdjust="spacing" textLength="80" x="246.9" y="27.8467">MatchState</text><line style="stroke:#181818;stroke-width:0.5;" x1="187" x2="355" y1="39" y2="39"/><text fill="#000000" font-family="sans-serif" font-size="14" lengthAdjust="spacing" textLength="158" x="192" y="55.9951">ANNOUNCING_TRICKS,</text><text fill="#000000" font-family="sans-serif" font-size="14" lengthAdjust="spacing" textLength="121" x="192" y="72.292">PLAYING_CARDS,</text><text fill="#000000" font-family="sans-serif" font-size="14" lengthAdjust="spacing" textLength="66" x="192" y="88.5889">FINISHED</text><line style="stroke:#181818;stroke-width:0.5;" x1="187" x2="355" y1="95.8906" y2="95.8906"/></g><!--MD5=[b3a980551af4fb5504d75634056fd54d]
class Hand--><g id="elem_Hand"><rect codeLine="43" fill="#F1F1F1" height="64.2969" id="Hand" rx="2.5" ry="2.5" style="stroke:#181818;stroke-width:0.5;" width="155" x="647.5" y="435.5"/><ellipse cx="701.75" cy="451.5" fill="#ADD1B2" rx="11" ry="11" style="stroke:#181818;stroke-width:1.0;"/><path d="M704.2188,457.375 Q703.6406,457.6875 703,457.8438 Q702.3594,458 701.6563,458 Q699.1563,458 697.8281,456.3281 Q696.5156,454.6563 696.5156,451.5 Q696.5156,448.3438 697.8281,446.6719 Q699.1563,445 701.6563,445 Q702.3594,445 703,445.1563 Q703.6563,445.3125 704.2188,445.625 L704.2188,448.4219 Q703.5938,447.8594 703,447.5938 Q702.4063,447.3125 701.7813,447.3125 Q700.4375,447.3125 699.75,448.375 Q699.0625,449.4375 699.0625,451.5 Q699.0625,453.5781 699.75,454.6406 Q700.4375,455.6875 701.7813,455.6875 Q702.4063,455.6875 703,455.4219 Q703.5938,455.1563 704.2188,454.5781 L704.2188,457.375 Z " fill="#000000"/><text fill="#000000" font-family="sans-serif" font-size="14" lengthAdjust="spacing" textLength="38" x="722.25" y="456.3467">Hand</text><line style="stroke:#181818;stroke-width:0.5;" x1="648.5" x2="801.5" y1="467.5" y2="467.5"/><text fill="#000000" font-family="sans-serif" font-size="14" lengthAdjust="spacing" textLength="143" x="653.5" y="484.4951">int announcedScore</text><line style="stroke:#181818;stroke-width:0.5;" x1="648.5" x2="801.5" y1="491.7969" y2="491.7969"/></g><!--MD5=[d75b0a238b734941260681f0026bbb88]
class Round--><g id="elem_Round"><rect codeLine="48" fill="#F1F1F1" height="80.5938" id="Round" rx="2.5" ry="2.5" style="stroke:#181818;stroke-width:0.5;" width="147" x="514.5" y="733"/><ellipse cx="560.75" cy="749" fill="#ADD1B2" rx="11" ry="11" style="stroke:#181818;stroke-width:1.0;"/><path d="M563.2188,754.875 Q562.6406,755.1875 562,755.3438 Q561.3594,755.5 560.6563,755.5 Q558.1563,755.5 556.8281,753.8281 Q555.5156,752.1563 555.5156,749 Q555.5156,745.8438 556.8281,744.1719 Q558.1563,742.5 560.6563,742.5 Q561.3594,742.5 562,742.6563 Q562.6563,742.8125 563.2188,743.125 L563.2188,745.9219 Q562.5938,745.3594 562,745.0938 Q561.4063,744.8125 560.7813,744.8125 Q559.4375,744.8125 558.75,745.875 Q558.0625,746.9375 558.0625,749 Q558.0625,751.0781 558.75,752.1406 Q559.4375,753.1875 560.7813,753.1875 Q561.4063,753.1875 562,752.9219 Q562.5938,752.6563 563.2188,752.0781 L563.2188,754.875 Z " fill="#000000"/><text fill="#000000" font-family="sans-serif" font-size="14" lengthAdjust="spacing" textLength="46" x="581.25" y="753.8467">Round</text><line style="stroke:#181818;stroke-width:0.5;" x1="515.5" x2="660.5" y1="765" y2="765"/><rect fill="none" height="6" style="stroke:#C82930;stroke-width:1.0;" width="6" x="522.5" y="773"/><text fill="#000000" font-family="sans-serif" font-size="14" lengthAdjust="spacing" textLength="48" x="534.5" y="781.9951">long id</text><rect fill="none" height="6" style="stroke:#C82930;stroke-width:1.0;" width="6" x="522.5" y="789.2969"/><text fill="#000000" font-family="sans-serif" font-size="14" lengthAdjust="spacing" textLength="121" x="534.5" y="798.292">int roundNumber</text><line style="stroke:#181818;stroke-width:0.5;" x1="515.5" x2="660.5" y1="805.5938" y2="805.5938"/></g><!--MD5=[5e305716458bbdabbd2d7f572ed2bae2]
class Card--><g id="elem_Card"><rect codeLine="53" fill="#F1F1F1" height="80.5938" id="Card" rx="2.5" ry="2.5" style="stroke:#181818;stroke-width:0.5;" width="98" x="602" y="874"/><ellipse cx="631.4" cy="890" fill="#ADD1B2" rx="11" ry="11" style="stroke:#181818;stroke-width:1.0;"/><path d="M633.8688,895.875 Q633.2906,896.1875 632.65,896.3438 Q632.0094,896.5 631.3063,896.5 Q628.8063,896.5 627.4781,894.8281 Q626.1656,893.1563 626.1656,890 Q626.1656,886.8438 627.4781,885.1719 Q628.8063,883.5 631.3063,883.5 Q632.0094,883.5 632.65,883.6563 Q633.3063,883.8125 633.8688,884.125 L633.8688,886.9219 Q633.2438,886.3594 632.65,886.0938 Q632.0563,885.8125 631.4313,885.8125 Q630.0875,885.8125 629.4,886.875 Q628.7125,887.9375 628.7125,890 Q628.7125,892.0781 629.4,893.1406 Q630.0875,894.1875 631.4313,894.1875 Q632.0563,894.1875 632.65,893.9219 Q633.2438,893.6563 633.8688,893.0781 L633.8688,895.875 Z " fill="#000000"/><text fill="#000000" font-family="sans-serif" font-size="14" lengthAdjust="spacing" textLength="34" x="648.6" y="894.8467">Card</text><line style="stroke:#181818;stroke-width:0.5;" x1="603" x2="699" y1="906" y2="906"/><rect fill="none" height="6" style="stroke:#C82930;stroke-width:1.0;" width="6" x="610" y="914"/><text fill="#000000" font-family="sans-serif" font-size="14" lengthAdjust="spacing" textLength="56" x="622" y="922.9951">Suit suit</text><rect fill="none" height="6" style="stroke:#C82930;stroke-width:1.0;" width="6" x="610" y="930.2969"/><text fill="#000000" font-family="sans-serif" font-size="14" lengthAdjust="spacing" textLength="72" x="622" y="939.292">Rank rank</text><line style="stroke:#181818;stroke-width:0.5;" x1="603" x2="699" y1="946.5938" y2="946.5938"/></g><!--MD5=[8afaa0cc9be9ac1cdc24999fa1642fa3]
class Suit--><g id="elem_Suit"><rect codeLine="58" fill="#F1F1F1" height="113.1875" id="Suit" rx="2.5" ry="2.5" style="stroke:#181818;stroke-width:0.5;" width="85" x="36.5" y="205"/><ellipse cx="63.2" cy="221" fill="#EB937F" rx="11" ry="11" style="stroke:#181818;stroke-width:1.0;"/><path d="M67.3094,227.5 L59.5906,227.5 L59.5906,214.5 L67.3094,214.5 L67.3094,216.7813 L62.0438,216.7813 L62.0438,219.5 L66.8094,219.5 L66.8094,221.7813 L62.0438,221.7813 L62.0438,225.2344 L67.3094,225.2344 L67.3094,227.5 Z " fill="#000000"/><text fill="#000000" font-family="sans-serif" font-size="14" lengthAdjust="spacing" textLength="27" x="79.8" y="225.8467">Suit</text><line style="stroke:#181818;stroke-width:0.5;" x1="37.5" x2="120.5" y1="237" y2="237"/><text fill="#000000" font-family="sans-serif" font-size="14" lengthAdjust="spacing" textLength="42" x="42.5" y="253.9951">CLUB,</text><text fill="#000000" font-family="sans-serif" font-size="14" lengthAdjust="spacing" textLength="73" x="42.5" y="270.292">DIAMOND,</text><text fill="#000000" font-family="sans-serif" font-size="14" lengthAdjust="spacing" textLength="53" x="42.5" y="286.5889">HEART,</text><text fill="#000000" font-family="sans-serif" font-size="14" lengthAdjust="spacing" textLength="47" x="42.5" y="302.8857">SPADE</text><line style="stroke:#181818;stroke-width:0.5;" x1="37.5" x2="120.5" y1="310.1875" y2="310.1875"/></g><!--MD5=[0f690a215a17a0cf4b9f948ca5dd1b3e]
class Rank--><g id="elem_Rank"><rect codeLine="65" fill="#F1F1F1" height="194.6719" id="Rank" rx="2.5" ry="2.5" style="stroke:#181818;stroke-width:0.5;" width="68" x="157" y="164"/><ellipse cx="172" cy="180" fill="#EB937F" rx="11" ry="11" style="stroke:#181818;stroke-width:1.0;"/><path d="M176.1094,186.5 L168.3906,186.5 L168.3906,173.5 L176.1094,173.5 L176.1094,175.7813 L170.8438,175.7813 L170.8438,178.5 L175.6094,178.5 L175.6094,180.7813 L170.8438,180.7813 L170.8438,184.2344 L176.1094,184.2344 L176.1094,186.5 Z " fill="#000000"/><text fill="#000000" font-family="sans-serif" font-size="14" lengthAdjust="spacing" textLength="36" x="186" y="184.8467">Rank</text><line style="stroke:#181818;stroke-width:0.5;" x1="158" x2="224" y1="196" y2="196"/><text fill="#000000" font-family="sans-serif" font-size="14" lengthAdjust="spacing" textLength="33" x="163" y="212.9951">ACE,</text><text fill="#000000" font-family="sans-serif" font-size="14" lengthAdjust="spacing" textLength="27" x="163" y="229.292">SIX,</text><text fill="#000000" font-family="sans-serif" font-size="14" lengthAdjust="spacing" textLength="51" x="163" y="245.5889">SEVEN,</text><text fill="#000000" font-family="sans-serif" font-size="14" lengthAdjust="spacing" textLength="48" x="163" y="261.8857">EIGHT,</text><text fill="#000000" font-family="sans-serif" font-size="14" lengthAdjust="spacing" textLength="37" x="163" y="278.1826">NINE,</text><text fill="#000000" font-family="sans-serif" font-size="14" lengthAdjust="spacing" textLength="32" x="163" y="294.4795">TEN,</text><text fill="#000000" font-family="sans-serif" font-size="14" lengthAdjust="spacing" textLength="37" x="163" y="310.7764">JACK,</text><text fill="#000000" font-family="sans-serif" font-size="14" lengthAdjust="spacing" textLength="53" x="163" y="327.0732">QUEEN,</text><text fill="#000000" font-family="sans-serif" font-size="14" lengthAdjust="spacing" textLength="34" x="163" y="343.3701">KING</text><line style="stroke:#181818;stroke-width:0.5;" x1="158" x2="224" y1="350.6719" y2="350.6719"/></g><!--MD5=[831236ba57dae0bc776a9527ec9f7aa2]
link Player to User--><g id="link_Player_User"><path codeLine="77" d="M488.1424,104.0583 C475.3928,136.8886 458.6216,180.0745 445.8694,212.9112 " fill="none" id="Player-User" style="stroke:#181818;stroke-width:1.0;"/><text fill="#000000" font-family="sans-serif" font-size="13" lengthAdjust="spacing" textLength="7" x="477.9984" y="124.0254">*</text><text fill="#000000" font-family="sans-serif" font-size="13" lengthAdjust="spacing" textLength="8" x="439.9604" y="202.1076">1</text></g><!--MD5=[2948b15446720d046723ef865ff3eac8]
link Player to Participation--><g id="link_Player_Participation"><path codeLine="78" d="M536.7007,104.0583 C556.7814,136.8886 583.196,180.0745 603.2806,212.9112 " fill="none" id="Player-Participation" style="stroke:#181818;stroke-width:1.0;"/><text fill="#000000" font-family="sans-serif" font-size="13" lengthAdjust="spacing" textLength="8" x="532.3149" y="124.0254">1</text><text fill="#000000" font-family="sans-serif" font-size="13" lengthAdjust="spacing" textLength="7" x="591.6091" y="202.1076">*</text></g><!--MD5=[dbf2e35fe06e7f5c60e786b569169e48]
link Participation to Game--><g id="link_Participation_Game"><path codeLine="80" d="M611.0781,310.0583 C596.2566,342.8886 576.7601,386.0745 561.9357,418.9112 " fill="none" id="Participation-Game" style="stroke:#181818;stroke-width:1.0;"/><text fill="#000000" font-family="sans-serif" font-size="13" lengthAdjust="spacing" textLength="7" x="600.5031" y="330.0254">*</text><text fill="#000000" font-family="sans-serif" font-size="13" lengthAdjust="spacing" textLength="8" x="556.4579" y="408.1076">1</text></g><!--MD5=[4a26cb6579843e3e14e1f7ba4255fdc5]
link Participation to Hand--><g id="link_Participation_Hand"><path codeLine="81" d="M654.6862,310.0583 C671.9513,348.7172 695.6292,401.735 710.622,435.3059 " fill="none" id="Participation-Hand" style="stroke:#181818;stroke-width:1.0;"/><text fill="#000000" font-family="sans-serif" font-size="13" lengthAdjust="spacing" textLength="8" x="649.1733" y="330.0254">1</text><text fill="#000000" font-family="sans-serif" font-size="13" lengthAdjust="spacing" textLength="7" x="700.1023" y="424.5419">*</text></g><!--MD5=[ebc4fdae77490ce4a26bbddba5e34eab]
link Hand to Match--><g id="link_Hand_Match"><path codeLine="83" d="M694.6929,499.6501 C673.9734,521.6295 646.1342,551.1617 622.7332,575.9857 " fill="none" id="Hand-Match" style="stroke:#181818;stroke-width:1.0;"/><text fill="#000000" font-family="sans-serif" font-size="13" lengthAdjust="spacing" textLength="7" x="680.7202" y="519.8779">*</text><text fill="#000000" font-family="sans-serif" font-size="13" lengthAdjust="spacing" textLength="8" x="620.8628" y="564.8433">1</text></g><!--MD5=[2f16b817737525477c59504130fd53f7]
link Hand to Card--><g id="link_Hand_Card"><path codeLine="84" d="M722.2362,499.7568 C716.6283,561.3018 702.4197,699.5549 679,814 C674.933,833.8741 669.0653,855.5947 663.7509,873.742 " fill="none" id="Hand-Card" style="stroke:#181818;stroke-width:1.0;"/><text fill="#000000" font-family="sans-serif" font-size="13" lengthAdjust="spacing" textLength="8" x="712.8412" y="520.0066">1</text><text fill="#000000" font-family="sans-serif" font-size="13" lengthAdjust="spacing" textLength="24" x="639.8753" y="862.8608">1..5</text></g><!--MD5=[70c92096be01b0f4dd26a6744feaffbd]
link Game to Match--><g id="link_Game_Match"><path codeLine="86" d="M551.5042,516.3152 C555.9803,535.3083 561.0972,557.0205 565.5665,575.9848 " fill="none" id="Game-Match" style="stroke:#181818;stroke-width:1.0;"/><text fill="#000000" font-family="sans-serif" font-size="13" lengthAdjust="spacing" textLength="8" x="544.5126" y="535.9657">1</text><text fill="#000000" font-family="sans-serif" font-size="13" lengthAdjust="spacing" textLength="24" x="538.1247" y="564.8422">1..9</text></g><!--MD5=[7a51bdac25b04a43197b4f59647f1e71]
link Match to Round--><g id="link_Match_Round"><path codeLine="88" d="M580.6018,673.2882 C582.0179,692.4693 583.6253,714.2424 584.9792,732.5819 " fill="none" id="Match-Round" style="stroke:#181818;stroke-width:1.0;"/><text fill="#000000" font-family="sans-serif" font-size="13" lengthAdjust="spacing" textLength="8" x="572.5483" y="692.9351">1</text><text fill="#000000" font-family="sans-serif" font-size="13" lengthAdjust="spacing" textLength="24" x="558.5853" y="721.9751">1..5</text></g><!--MD5=[dabd1d0dea4e282335ad7f4495eecc99]
link Round to Card--><g id="link_Round_Card"><path codeLine="90" d="M606.2222,814.283 C614.5805,832.9897 624.4654,855.1131 632.8187,873.8086 " fill="none" id="Round-Card" style="stroke:#181818;stroke-width:1.0;"/><text fill="#000000" font-family="sans-serif" font-size="13" lengthAdjust="spacing" textLength="8" x="600.4" y="833.7845">1</text><text fill="#000000" font-family="sans-serif" font-size="13" lengthAdjust="spacing" textLength="24" x="603.8199" y="862.9384">1..7</text></g><!--MD5=[747779a3c87ef8a0f28ab15ad772d1bc]
@startuml
class Player {
    - long id
    - String name
    - String sessionId
}

class User {
    - long id
    - String username
    - String passwordHash
}

enum GameState {
    FINDING_PLAYERS,
    PLAYING,
    CLOSED
}

class Game {
    - long id
    - GameState state
    - String name
}

class Participation {
    - long id
    - boolean active
    - Integer playerOrder
}

class Match {
    - long id
    - int matchNumber
    - MatchState matchstate
}

enum MatchState {
    ANNOUNCING_TRICKS,
    PLAYING_CARDS,
    FINISHED
}

class Hand {
    int announcedScore
}


class Round {
    - long id
    - int roundNumber
}

class Card {
    - Suit suit
    - Rank rank
}

enum Suit {
    CLUB,
    DIAMOND,
    HEART,
    SPADE
}

enum Rank {
  ACE,
  SIX,
  SEVEN,
  EIGHT,
  NINE,
  TEN,
  JACK,
  QUEEN,
  KING
}

Player "*" - - "1" User
Player "1" - - "*" Participation

Participation "*" - - "1" Game
Participation "1" - - "*" Hand

Hand "*" - - "1" Match
Hand "1" - - "1..5" Card

Game "1" - - "1..9" Match

Match "1" - - "1..5" Round

Round "1" - - "1..7" Card


@enduml

PlantUML version 1.2022.4(Sat Apr 09 15:29:17 CEST 2022)
(GPL source distribution)
Java Runtime: OpenJDK Runtime Environment
JVM: OpenJDK 64-Bit Server VM
Default Encoding: UTF-8
Language: de
Country: DE
--></g></svg>