<?xml version="1.0" encoding="UTF-8" standalone="no"?><svg xmlns="http://www.w3.org/2000/svg" xmlns:xlink="http://www.w3.org/1999/xlink" contentStyleType="text/css" height="689px" preserveAspectRatio="none" style="width:519px;height:689px;background:#FFFFFF;" version="1.1" viewBox="0 0 519 689" width="519px" zoomAndPan="magnify"><defs/><g><!--MD5=[37c281712b1f51d591729d8a39ba31ff]
class card--><g id="elem_card"><rect codeLine="8" fill="#F1F1F1" height="123.7813" id="card" rx="2.5" ry="2.5" style="stroke:#181818;stroke-width:0.5;" width="212" x="146" y="559"/><text fill="#000000" font-family="sans-serif" font-size="14" lengthAdjust="spacing" textLength="34" x="235" y="576.9951">Card</text><line style="stroke:#181818;stroke-width:0.5;" x1="147" x2="357" y1="585.2969" y2="585.2969"/><ellipse cx="157" cy="596.2969" fill="#000000" rx="3" ry="3" style="stroke:#000000;stroke-width:1.0;"/><text fill="#000000" font-family="sans-serif" font-size="14" lengthAdjust="spacing" textLength="186" x="166" y="602.292">id : DECIMAL «generated»</text><line style="stroke:#181818;stroke-width:1.0;" x1="147" x2="357" y1="609.5938" y2="609.5938"/><ellipse cx="157" cy="620.5938" fill="#000000" rx="3" ry="3" style="stroke:#000000;stroke-width:1.0;"/><text fill="#000000" font-family="sans-serif" font-size="14" lengthAdjust="spacing" textLength="143" x="166" y="626.5889">cardRank : INTEGER</text><ellipse cx="157" cy="636.8906" fill="#000000" rx="3" ry="3" style="stroke:#000000;stroke-width:1.0;"/><text fill="#000000" font-family="sans-serif" font-size="14" lengthAdjust="spacing" textLength="134" x="166" y="642.8857">cardSuit : INTEGER</text><ellipse cx="157" cy="653.1875" fill="#000000" rx="3" ry="3" style="stroke:#000000;stroke-width:1.0;"/><text fill="#000000" font-family="sans-serif" font-size="14" lengthAdjust="spacing" textLength="165" x="166" y="659.1826">handId : DECIMAL «FK»</text><text fill="#000000" font-family="sans-serif" font-size="14" lengthAdjust="spacing" textLength="171" x="166" y="675.4795">roundId : DECIMAL «FK»</text></g><!--MD5=[d0497865c591b752d9f81c3ace406775]
class game--><g id="elem_game"><rect codeLine="17" fill="#F1F1F1" height="123.7813" id="game" rx="2.5" ry="2.5" style="stroke:#181818;stroke-width:0.5;" width="224" x="7" y="24"/><text fill="#000000" font-family="sans-serif" font-size="14" lengthAdjust="spacing" textLength="43" x="97.5" y="41.9951">Game</text><line style="stroke:#181818;stroke-width:0.5;" x1="8" x2="230" y1="50.2969" y2="50.2969"/><ellipse cx="18" cy="61.2969" fill="#000000" rx="3" ry="3" style="stroke:#000000;stroke-width:1.0;"/><text fill="#000000" font-family="sans-serif" font-size="14" lengthAdjust="spacing" textLength="186" x="27" y="67.292">id : DECIMAL «generated»</text><line style="stroke:#181818;stroke-width:1.0;" x1="8" x2="230" y1="74.5938" y2="74.5938"/><ellipse cx="18" cy="85.5938" fill="#000000" rx="3" ry="3" style="stroke:#000000;stroke-width:1.0;"/><text fill="#000000" font-family="sans-serif" font-size="14" lengthAdjust="spacing" textLength="125" x="27" y="91.5889">name : VARCHAR</text><text fill="#000000" font-family="sans-serif" font-size="14" lengthAdjust="spacing" textLength="153" x="27" y="107.8857">gameState : INTEGER</text><text fill="#000000" font-family="sans-serif" font-size="14" lengthAdjust="spacing" textLength="198" x="27" y="124.1826">videoChatName : VARCHAR</text><text fill="#000000" font-family="sans-serif" font-size="14" lengthAdjust="spacing" textLength="190" x="27" y="140.4795">nextGame : DECIMAL «FK»</text></g><!--MD5=[7eb028927e4ee13535fc9116bb3c1f81]
class hand--><g id="elem_hand"><rect codeLine="35" fill="#F1F1F1" height="107.4844" id="hand" rx="2.5" ry="2.5" style="stroke:#181818;stroke-width:0.5;" width="252" x="260" y="392"/><text fill="#000000" font-family="sans-serif" font-size="14" lengthAdjust="spacing" textLength="38" x="367" y="409.9951">Hand</text><line style="stroke:#181818;stroke-width:0.5;" x1="261" x2="511" y1="418.2969" y2="418.2969"/><ellipse cx="271" cy="429.2969" fill="#000000" rx="3" ry="3" style="stroke:#000000;stroke-width:1.0;"/><text fill="#000000" font-family="sans-serif" font-size="14" lengthAdjust="spacing" textLength="186" x="280" y="435.292">id : DECIMAL «generated»</text><line style="stroke:#181818;stroke-width:1.0;" x1="261" x2="511" y1="442.5938" y2="442.5938"/><text fill="#000000" font-family="sans-serif" font-size="14" lengthAdjust="spacing" textLength="192" x="280" y="459.5889">announcedScore: INTEGER</text><ellipse cx="271" cy="469.8906" fill="#000000" rx="3" ry="3" style="stroke:#000000;stroke-width:1.0;"/><text fill="#000000" font-family="sans-serif" font-size="14" lengthAdjust="spacing" textLength="174" x="280" y="475.8857">matchId : DECIMAL «FK»</text><ellipse cx="271" cy="486.1875" fill="#000000" rx="3" ry="3" style="stroke:#000000;stroke-width:1.0;"/><text fill="#000000" font-family="sans-serif" font-size="14" lengthAdjust="spacing" textLength="226" x="280" y="492.1826">participation_id : DECIMAL «FK»</text></g><!--MD5=[db556c9717b588b131d01a750dd9c48e]
class match--><g id="elem_match"><rect codeLine="43" fill="#F1F1F1" height="107.4844" id="match" rx="2.5" ry="2.5" style="stroke:#181818;stroke-width:0.5;" width="212" x="13" y="216.5"/><text fill="#000000" font-family="sans-serif" font-size="14" lengthAdjust="spacing" textLength="43" x="97.5" y="234.4951">Match</text><line style="stroke:#181818;stroke-width:0.5;" x1="14" x2="224" y1="242.7969" y2="242.7969"/><ellipse cx="24" cy="253.7969" fill="#000000" rx="3" ry="3" style="stroke:#000000;stroke-width:1.0;"/><text fill="#000000" font-family="sans-serif" font-size="14" lengthAdjust="spacing" textLength="186" x="33" y="259.792">id : DECIMAL «generated»</text><line style="stroke:#181818;stroke-width:1.0;" x1="14" x2="224" y1="267.0938" y2="267.0938"/><ellipse cx="24" cy="278.0938" fill="#000000" rx="3" ry="3" style="stroke:#000000;stroke-width:1.0;"/><text fill="#000000" font-family="sans-serif" font-size="14" lengthAdjust="spacing" textLength="177" x="33" y="284.0889">matchNumber : INTEGER</text><ellipse cx="24" cy="294.3906" fill="#000000" rx="3" ry="3" style="stroke:#000000;stroke-width:1.0;"/><text fill="#000000" font-family="sans-serif" font-size="14" lengthAdjust="spacing" textLength="153" x="33" y="300.3857">matchState: INTEGER</text><ellipse cx="24" cy="310.6875" fill="#000000" rx="3" ry="3" style="stroke:#000000;stroke-width:1.0;"/><text fill="#000000" font-family="sans-serif" font-size="14" lengthAdjust="spacing" textLength="170" x="33" y="316.6826">gameId : DECIMAL «FK»</text></g><!--MD5=[1374ed400b2a5a91dae2a177bb3b7fef]
class participation--><g id="elem_participation"><rect codeLine="51" fill="#F1F1F1" height="123.7813" id="participation" rx="2.5" ry="2.5" style="stroke:#181818;stroke-width:0.5;" width="248" x="262" y="208"/><text fill="#000000" font-family="sans-serif" font-size="14" lengthAdjust="spacing" textLength="89" x="341.5" y="225.9951">Participation</text><line style="stroke:#181818;stroke-width:0.5;" x1="263" x2="509" y1="234.2969" y2="234.2969"/><ellipse cx="273" cy="245.2969" fill="#000000" rx="3" ry="3" style="stroke:#000000;stroke-width:1.0;"/><text fill="#000000" font-family="sans-serif" font-size="14" lengthAdjust="spacing" textLength="186" x="282" y="251.292">id : DECIMAL «generated»</text><line style="stroke:#181818;stroke-width:1.0;" x1="263" x2="509" y1="258.5938" y2="258.5938"/><ellipse cx="273" cy="269.5938" fill="#000000" rx="3" ry="3" style="stroke:#000000;stroke-width:1.0;"/><text fill="#000000" font-family="sans-serif" font-size="14" lengthAdjust="spacing" textLength="125" x="282" y="275.5889">active : BOOLEAN</text><text fill="#000000" font-family="sans-serif" font-size="14" lengthAdjust="spacing" textLength="222" x="282" y="291.8857">participationNumber : INTEGER</text><ellipse cx="273" cy="302.1875" fill="#000000" rx="3" ry="3" style="stroke:#000000;stroke-width:1.0;"/><text fill="#000000" font-family="sans-serif" font-size="14" lengthAdjust="spacing" textLength="174" x="282" y="308.1826">playerId : DECIMAL «FK»</text><ellipse cx="273" cy="318.4844" fill="#000000" rx="3" ry="3" style="stroke:#000000;stroke-width:1.0;"/><text fill="#000000" font-family="sans-serif" font-size="14" lengthAdjust="spacing" textLength="170" x="282" y="324.4795">gameId : DECIMAL «FK»</text></g><!--MD5=[308de564e57c8d51c168255b0b03c096]
class player--><g id="elem_player"><rect codeLine="61" fill="#F1F1F1" height="74.8906" id="player" rx="2.5" ry="2.5" style="stroke:#181818;stroke-width:0.5;" width="212" x="284" y="48.5"/><text fill="#000000" font-family="sans-serif" font-size="14" lengthAdjust="spacing" textLength="44" x="368" y="66.4951">Player</text><line style="stroke:#181818;stroke-width:0.5;" x1="285" x2="495" y1="74.7969" y2="74.7969"/><ellipse cx="295" cy="85.7969" fill="#000000" rx="3" ry="3" style="stroke:#000000;stroke-width:1.0;"/><text fill="#000000" font-family="sans-serif" font-size="14" lengthAdjust="spacing" textLength="186" x="304" y="91.792">id : DECIMAL «generated»</text><line style="stroke:#181818;stroke-width:1.0;" x1="285" x2="495" y1="99.0938" y2="99.0938"/><ellipse cx="295" cy="110.0938" fill="#000000" rx="3" ry="3" style="stroke:#000000;stroke-width:1.0;"/><text fill="#000000" font-family="sans-serif" font-size="14" lengthAdjust="spacing" textLength="125" x="304" y="116.0889">name : VARCHAR</text></g><!--MD5=[8ff828e554ef434670c2a4b547c92bc0]
class round--><g id="elem_round"><rect codeLine="67" fill="#F1F1F1" height="91.1875" id="round" rx="2.5" ry="2.5" style="stroke:#181818;stroke-width:0.5;" width="212" x="13" y="400"/><text fill="#000000" font-family="sans-serif" font-size="14" lengthAdjust="spacing" textLength="46" x="96" y="417.9951">Round</text><line style="stroke:#181818;stroke-width:0.5;" x1="14" x2="224" y1="426.2969" y2="426.2969"/><ellipse cx="24" cy="437.2969" fill="#000000" rx="3" ry="3" style="stroke:#000000;stroke-width:1.0;"/><text fill="#000000" font-family="sans-serif" font-size="14" lengthAdjust="spacing" textLength="186" x="33" y="443.292">id : DECIMAL «generated»</text><line style="stroke:#181818;stroke-width:1.0;" x1="14" x2="224" y1="450.5938" y2="450.5938"/><ellipse cx="24" cy="461.5938" fill="#000000" rx="3" ry="3" style="stroke:#000000;stroke-width:1.0;"/><text fill="#000000" font-family="sans-serif" font-size="14" lengthAdjust="spacing" textLength="174" x="33" y="467.5889">matchId : DECIMAL «FK»</text><ellipse cx="24" cy="477.8906" fill="#000000" rx="3" ry="3" style="stroke:#000000;stroke-width:1.0;"/><text fill="#000000" font-family="sans-serif" font-size="14" lengthAdjust="spacing" textLength="174" x="33" y="483.8857">roundNumber : INTEGER</text></g><!--MD5=[94949e77217e239ac153428e5465477c]
link round to card--><g id="link_round_card"><path codeLine="74" d="M185.5,499.1524 C185.5,499.1524 185.5,550.7306 185.5,550.7306 " fill="none" id="round-card" style="stroke:#181818;stroke-width:1.0;stroke-dasharray:7.0,7.0;"/><line style="stroke:#181818;stroke-width:1.0;" x1="185.5" x2="191.5" y1="550.7306" y2="558.7306"/><line style="stroke:#181818;stroke-width:1.0;" x1="185.5" x2="179.5" y1="550.7306" y2="558.7306"/><line style="stroke:#181818;stroke-width:1.0;" x1="185.5" x2="185.5" y1="550.7306" y2="558.7306"/><ellipse cx="185.5" cy="544.7306" fill="none" rx="4" ry="4" style="stroke:#181818;stroke-width:1.0;"/><line style="stroke:#181818;stroke-width:1.0;" x1="181.5" x2="189.5" y1="495.1524" y2="495.1524"/><line style="stroke:#181818;stroke-width:1.0;" x1="181.5" x2="189.5" y1="498.1524" y2="498.1524"/><line style="stroke:#181818;stroke-width:1.0;" x1="185.5" x2="185.5" y1="499.1524" y2="491.1524"/></g><!--MD5=[09dcaa670210d926f742a7939b6ec262]
link hand to card--><g id="link_hand_card"><path codeLine="75" d="M309,507.1094 C309,507.1094 309,550.7972 309,550.7972 " fill="none" id="hand-card" style="stroke:#181818;stroke-width:1.0;stroke-dasharray:7.0,7.0;"/><line style="stroke:#181818;stroke-width:1.0;" x1="309" x2="315" y1="550.7972" y2="558.7972"/><line style="stroke:#181818;stroke-width:1.0;" x1="309" x2="303" y1="550.7972" y2="558.7972"/><line style="stroke:#181818;stroke-width:1.0;" x1="309" x2="309" y1="550.7972" y2="558.7972"/><line style="stroke:#181818;stroke-width:1.0;" x1="313" x2="305" y1="548.7972" y2="548.7972"/><line style="stroke:#181818;stroke-width:1.0;" x1="305" x2="313" y1="503.1094" y2="503.1094"/><line style="stroke:#181818;stroke-width:1.0;" x1="305" x2="313" y1="506.1094" y2="506.1094"/><line style="stroke:#181818;stroke-width:1.0;" x1="309" x2="309" y1="507.1094" y2="499.1094"/></g><!--MD5=[f2f13420b7c6518d17ae6509690ba9cc]
link participation to hand--><g id="link_participation_hand"><path codeLine="76" d="M386,340.3689 C386,340.3689 386,383.7655 386,383.7655 " fill="none" id="participation-hand" style="stroke:#181818;stroke-width:1.0;stroke-dasharray:7.0,7.0;"/><line style="stroke:#181818;stroke-width:1.0;" x1="386" x2="392" y1="383.7655" y2="391.7655"/><line style="stroke:#181818;stroke-width:1.0;" x1="386" x2="380" y1="383.7655" y2="391.7655"/><line style="stroke:#181818;stroke-width:1.0;" x1="386" x2="386" y1="383.7655" y2="391.7655"/><ellipse cx="386" cy="377.7655" fill="none" rx="4" ry="4" style="stroke:#181818;stroke-width:1.0;"/><line style="stroke:#181818;stroke-width:1.0;" x1="382" x2="390" y1="336.3689" y2="336.3689"/><line style="stroke:#181818;stroke-width:1.0;" x1="382" x2="390" y1="339.3689" y2="339.3689"/><line style="stroke:#181818;stroke-width:1.0;" x1="386" x2="386" y1="340.3689" y2="332.3689"/></g><!--MD5=[86d0e9a94bcdcd6d64f5929334e36c3c]
link game to game--><g id="link_game_game"><path codeLine="77" d="M119,15.7546 C119,15.7546 119,6 119,6 C119,6 245.5,6 245.5,6 C245.5,6 245.5,178 245.5,178 C245.5,178 154.3333,178 154.3333,178 C154.3333,178 154.3333,156.1302 154.3333,156.1302 " fill="none" id="game-game" style="stroke:#181818;stroke-width:1.0;stroke-dasharray:7.0,7.0;"/><line style="stroke:#181818;stroke-width:1.0;" x1="154.3333" x2="154.3333" y1="159.1302" y2="148.1302"/><ellipse cx="154.3333" cy="159.1302" fill="none" rx="4" ry="4" style="stroke:#181818;stroke-width:1.0;"/><line style="stroke:#181818;stroke-width:1.0;" x1="150.3333" x2="158.3333" y1="152.1302" y2="152.1302"/><line style="stroke:#181818;stroke-width:1.0;" x1="119" x2="119" y1="12.7546" y2="23.7546"/><ellipse cx="119" cy="12.7546" fill="none" rx="4" ry="4" style="stroke:#181818;stroke-width:1.0;"/><line style="stroke:#181818;stroke-width:1.0;" x1="123" x2="115" y1="19.7546" y2="19.7546"/></g><!--MD5=[45b592eaa92796672ac42c47035acc5e]
link game to participation--><g id="link_game_participation"><path codeLine="78" d="M239.3254,136 C239.3254,136 273,136 273,136 C273,136 273,199.7075 273,199.7075 " fill="none" id="game-participation" style="stroke:#181818;stroke-width:1.0;stroke-dasharray:7.0,7.0;"/><line style="stroke:#181818;stroke-width:1.0;" x1="273" x2="279" y1="199.7075" y2="207.7075"/><line style="stroke:#181818;stroke-width:1.0;" x1="273" x2="267" y1="199.7075" y2="207.7075"/><line style="stroke:#181818;stroke-width:1.0;" x1="273" x2="273" y1="199.7075" y2="207.7075"/><line style="stroke:#181818;stroke-width:1.0;" x1="277" x2="269" y1="197.7075" y2="197.7075"/><line style="stroke:#181818;stroke-width:1.0;" x1="235.3254" x2="235.3254" y1="140" y2="132"/><line style="stroke:#181818;stroke-width:1.0;" x1="238.3254" x2="238.3254" y1="140" y2="132"/><line style="stroke:#181818;stroke-width:1.0;" x1="239.3254" x2="231.3254" y1="136" y2="136"/></g><!--MD5=[a70957515180f50f22ed486534df8d14]
link player to participation--><g id="link_player_participation"><path codeLine="81" d="M390,131.6792 C390,131.6792 390,199.7401 390,199.7401 " fill="none" id="player-participation" style="stroke:#181818;stroke-width:1.0;stroke-dasharray:7.0,7.0;"/><line style="stroke:#181818;stroke-width:1.0;" x1="390" x2="396" y1="199.7401" y2="207.7401"/><line style="stroke:#181818;stroke-width:1.0;" x1="390" x2="384" y1="199.7401" y2="207.7401"/><line style="stroke:#181818;stroke-width:1.0;" x1="390" x2="390" y1="199.7401" y2="207.7401"/><line style="stroke:#181818;stroke-width:1.0;" x1="394" x2="386" y1="197.7401" y2="197.7401"/><line style="stroke:#181818;stroke-width:1.0;" x1="386" x2="394" y1="127.6792" y2="127.6792"/><line style="stroke:#181818;stroke-width:1.0;" x1="386" x2="394" y1="130.6792" y2="130.6792"/><line style="stroke:#181818;stroke-width:1.0;" x1="390" x2="390" y1="131.6792" y2="123.6792"/></g><!--MD5=[4a7f41e8d98d404128a218619f76c3f3]
link match to round--><g id="link_match_round"><path codeLine="82" d="M119,331.6094 C119,331.6094 119,391.9119 119,391.9119 " fill="none" id="match-round" style="stroke:#181818;stroke-width:1.0;stroke-dasharray:7.0,7.0;"/><line style="stroke:#181818;stroke-width:1.0;" x1="119" x2="125" y1="391.9119" y2="399.9119"/><line style="stroke:#181818;stroke-width:1.0;" x1="119" x2="113" y1="391.9119" y2="399.9119"/><line style="stroke:#181818;stroke-width:1.0;" x1="119" x2="119" y1="391.9119" y2="399.9119"/><line style="stroke:#181818;stroke-width:1.0;" x1="123" x2="115" y1="389.9119" y2="389.9119"/><line style="stroke:#181818;stroke-width:1.0;" x1="115" x2="123" y1="327.6094" y2="327.6094"/><line style="stroke:#181818;stroke-width:1.0;" x1="115" x2="123" y1="330.6094" y2="330.6094"/><line style="stroke:#181818;stroke-width:1.0;" x1="119" x2="119" y1="331.6094" y2="323.6094"/></g><!--MD5=[2f96b88d42231009c1df848f79c38062]
link game to match--><g id="link_game_match"><path codeLine="83" d="M83.6667,156.0375 C83.6667,156.0375 83.6667,208.2327 83.6667,208.2327 " fill="none" id="game-match" style="stroke:#181818;stroke-width:1.0;stroke-dasharray:7.0,7.0;"/><line style="stroke:#181818;stroke-width:1.0;" x1="83.6667" x2="89.6667" y1="208.2327" y2="216.2327"/><line style="stroke:#181818;stroke-width:1.0;" x1="83.6667" x2="77.6667" y1="208.2327" y2="216.2327"/><line style="stroke:#181818;stroke-width:1.0;" x1="83.6667" x2="83.6667" y1="208.2327" y2="216.2327"/><line style="stroke:#181818;stroke-width:1.0;" x1="87.6667" x2="79.6667" y1="206.2327" y2="206.2327"/><line style="stroke:#181818;stroke-width:1.0;" x1="79.6667" x2="87.6667" y1="152.0375" y2="152.0375"/><line style="stroke:#181818;stroke-width:1.0;" x1="79.6667" x2="87.6667" y1="155.0375" y2="155.0375"/><line style="stroke:#181818;stroke-width:1.0;" x1="83.6667" x2="83.6667" y1="156.0375" y2="148.0375"/></g><!--MD5=[d47c1ce26e7926da8c71aeca7fad225c]
@startuml

' hide the spot
hide circle

' avoid problems with angled crows feet
skinparam linetype ortho

entity "Card" as card {
  *id : DECIMAL <<generated>>
  - -
  *cardRank : INTEGER
  *cardSuit : INTEGER
  *handId : DECIMAL <<FK>>
  roundId : DECIMAL <<FK>>
}

entity "Game" as game {
  *id : DECIMAL <<generated>>
  - -
  *name : VARCHAR
  gameState : INTEGER
  videoChatName : VARCHAR
  nextGame : DECIMAL <<FK>>
  'participationtogame_id : DECIMAL <<FK>>
}
/'
entity "ParticipationToGame" as participationtogame {
  *id : DECIMAL <<generated>>
- -
  *gameId : DECIMAL <<FK>>
  *participationId : DECIMAL <<FK>>

}'/

entity "Hand" as hand {
  *id : DECIMAL <<generated>>
  - -
  announcedScore: INTEGER
  *matchId : DECIMAL <<FK>>
  *participation_id : DECIMAL <<FK>>
}

entity "Match" as match {
  *id : DECIMAL <<generated>>
  - -
  *matchNumber : INTEGER
  *matchState: INTEGER
  *gameId : DECIMAL <<FK>>
}

entity "Participation" as participation {
  *id : DECIMAL <<generated>>
  - -
  *active : BOOLEAN
  participationNumber : INTEGER
  *playerId : DECIMAL <<FK>>
  *gameId : DECIMAL <<FK>>
  '*gameToParticipationId : DECIMAL <<FK>>
}

entity "Player" as player {
  *id : DECIMAL <<generated>>
  - -
  *name : VARCHAR
}

entity "Round" as round {
  *id : DECIMAL <<generated>>
  - -
  *matchId : DECIMAL <<FK>>
  *roundNumber : INTEGER
}

round ||..o{ card
hand ||..|{ card
participation ||..o{ hand
game |o..o| game
game ||..|{ participation
'game ||..o{ participationtogame
'participation ||..o{ participationtogame
player ||..|{ participation
match ||..|{ round
game ||..|{ match

@enduml

@startuml

hide circle

skinparam linetype ortho

entity "Card" as card {
  *id : DECIMAL <<generated>>
  - -
  *cardRank : INTEGER
  *cardSuit : INTEGER
  *handId : DECIMAL <<FK>>
  roundId : DECIMAL <<FK>>
}

entity "Game" as game {
  *id : DECIMAL <<generated>>
  - -
  *name : VARCHAR
  gameState : INTEGER
  videoChatName : VARCHAR
  nextGame : DECIMAL <<FK>>
}

entity "Hand" as hand {
  *id : DECIMAL <<generated>>
  - -
  announcedScore: INTEGER
  *matchId : DECIMAL <<FK>>
  *participation_id : DECIMAL <<FK>>
}

entity "Match" as match {
  *id : DECIMAL <<generated>>
  - -
  *matchNumber : INTEGER
  *matchState: INTEGER
  *gameId : DECIMAL <<FK>>
}

entity "Participation" as participation {
  *id : DECIMAL <<generated>>
  - -
  *active : BOOLEAN
  participationNumber : INTEGER
  *playerId : DECIMAL <<FK>>
  *gameId : DECIMAL <<FK>>
}

entity "Player" as player {
  *id : DECIMAL <<generated>>
  - -
  *name : VARCHAR
}

entity "Round" as round {
  *id : DECIMAL <<generated>>
  - -
  *matchId : DECIMAL <<FK>>
  *roundNumber : INTEGER
}

round ||..o{ card
hand ||..|{ card
participation ||..o{ hand
game |o..o| game
game ||..|{ participation
player ||..|{ participation
match ||..|{ round
game ||..|{ match

@enduml

PlantUML version 1.2022.4(Sat Apr 09 15:29:17 CEST 2022)
(GPL source distribution)
Java Runtime: OpenJDK Runtime Environment
JVM: OpenJDK 64-Bit Server VM
Default Encoding: UTF-8
Language: de
Country: DE
--></g></svg>