<?xml version="1.0" encoding="UTF-8" standalone="no"?><svg xmlns="http://www.w3.org/2000/svg" xmlns:xlink="http://www.w3.org/1999/xlink" contentStyleType="text/css" height="689px" preserveAspectRatio="none" style="width:619px;height:689px;background:#FFFFFF;" version="1.1" viewBox="0 0 619 689" width="619px" zoomAndPan="magnify"><defs/><g><!--MD5=[37c281712b1f51d591729d8a39ba31ff]
class card--><g id="elem_card"><rect codeLine="8" fill="#F1F1F1" height="123.7813" id="card" rx="2.5" ry="2.5" style="stroke:#181818;stroke-width:0.5;" width="212" x="247" y="559"/><text fill="#000000" font-family="sans-serif" font-size="14" lengthAdjust="spacing" textLength="34" x="336" y="576.9951">Card</text><line style="stroke:#181818;stroke-width:0.5;" x1="248" x2="458" y1="585.2969" y2="585.2969"/><ellipse cx="258" cy="596.2969" fill="#000000" rx="3" ry="3" style="stroke:#000000;stroke-width:1.0;"/><text fill="#000000" font-family="sans-serif" font-size="14" lengthAdjust="spacing" textLength="186" x="267" y="602.292">id : DECIMAL «generated»</text><line style="stroke:#181818;stroke-width:1.0;" x1="248" x2="458" y1="609.5938" y2="609.5938"/><ellipse cx="258" cy="620.5938" fill="#000000" rx="3" ry="3" style="stroke:#000000;stroke-width:1.0;"/><text fill="#000000" font-family="sans-serif" font-size="14" lengthAdjust="spacing" textLength="151" x="267" y="626.5889">cardRank : CardRank</text><ellipse cx="258" cy="636.8906" fill="#000000" rx="3" ry="3" style="stroke:#000000;stroke-width:1.0;"/><text fill="#000000" font-family="sans-serif" font-size="14" lengthAdjust="spacing" textLength="133" x="267" y="642.8857">cardSuit : CardSuit</text><ellipse cx="258" cy="653.1875" fill="#000000" rx="3" ry="3" style="stroke:#000000;stroke-width:1.0;"/><text fill="#000000" font-family="sans-serif" font-size="14" lengthAdjust="spacing" textLength="165" x="267" y="659.1826">handId : DECIMAL «FK»</text><text fill="#000000" font-family="sans-serif" font-size="14" lengthAdjust="spacing" textLength="171" x="267" y="675.4795">roundId : DECIMAL «FK»</text></g><g id="elem_GMN22576"><path d="M6,585.5 L6,656.0313 A0,0 0 0 0 6,656.0313 L212,656.0313 A0,0 0 0 0 212,656.0313 L212,626 L246.7267,622 L212,618 L212,595.5 L202,585.5 L6,585.5 A0,0 0 0 0 6,585.5 " fill="#FEFFDD" style="stroke:#181818;stroke-width:0.5;"/><path d="M202,585.5 L202,595.5 L212,595.5 L202,585.5 " fill="#FEFFDD" style="stroke:#181818;stroke-width:0.5;"/><text fill="#000000" font-family="sans-serif" font-size="13" lengthAdjust="spacing" textLength="163" x="12" y="602.5669">One Card can actually be</text><text fill="#000000" font-family="sans-serif" font-size="13" lengthAdjust="spacing" textLength="157" x="12" y="617.6997">assigned multiple times</text><text fill="#000000" font-family="sans-serif" font-size="13" lengthAdjust="spacing" textLength="166" x="12" y="632.8325">to a hand --&gt; should it be</text><text fill="#000000" font-family="sans-serif" font-size="13" lengthAdjust="spacing" textLength="185" x="12" y="647.9653">then an n-to-m relationship?</text></g><!--MD5=[d0497865c591b752d9f81c3ace406775]
class game--><g id="elem_game"><rect codeLine="19" fill="#F1F1F1" height="123.7813" id="game" rx="2.5" ry="2.5" style="stroke:#181818;stroke-width:0.5;" width="224" x="107" y="24"/><text fill="#000000" font-family="sans-serif" font-size="14" lengthAdjust="spacing" textLength="43" x="197.5" y="41.9951">Game</text><line style="stroke:#181818;stroke-width:0.5;" x1="108" x2="330" y1="50.2969" y2="50.2969"/><ellipse cx="118" cy="61.2969" fill="#000000" rx="3" ry="3" style="stroke:#000000;stroke-width:1.0;"/><text fill="#000000" font-family="sans-serif" font-size="14" lengthAdjust="spacing" textLength="186" x="127" y="67.292">id : DECIMAL «generated»</text><line style="stroke:#181818;stroke-width:1.0;" x1="108" x2="330" y1="74.5938" y2="74.5938"/><ellipse cx="118" cy="85.5938" fill="#000000" rx="3" ry="3" style="stroke:#000000;stroke-width:1.0;"/><text fill="#000000" font-family="sans-serif" font-size="14" lengthAdjust="spacing" textLength="125" x="127" y="91.5889">name : VARCHAR</text><text fill="#000000" font-family="sans-serif" font-size="14" lengthAdjust="spacing" textLength="171" x="127" y="107.8857">gameState : GameState</text><text fill="#000000" font-family="sans-serif" font-size="14" lengthAdjust="spacing" textLength="198" x="127" y="124.1826">videoChatName : VARCHAR</text><text fill="#000000" font-family="sans-serif" font-size="14" lengthAdjust="spacing" textLength="190" x="127" y="140.4795">nextGame : DECIMAL «FK»</text></g><!--MD5=[7eb028927e4ee13535fc9116bb3c1f81]
class hand--><g id="elem_hand"><rect codeLine="37" fill="#F1F1F1" height="107.4844" id="hand" rx="2.5" ry="2.5" style="stroke:#181818;stroke-width:0.5;" width="252" x="360" y="392"/><text fill="#000000" font-family="sans-serif" font-size="14" lengthAdjust="spacing" textLength="38" x="467" y="409.9951">Hand</text><line style="stroke:#181818;stroke-width:0.5;" x1="361" x2="611" y1="418.2969" y2="418.2969"/><ellipse cx="371" cy="429.2969" fill="#000000" rx="3" ry="3" style="stroke:#000000;stroke-width:1.0;"/><text fill="#000000" font-family="sans-serif" font-size="14" lengthAdjust="spacing" textLength="186" x="380" y="435.292">id : DECIMAL «generated»</text><line style="stroke:#181818;stroke-width:1.0;" x1="361" x2="611" y1="442.5938" y2="442.5938"/><text fill="#000000" font-family="sans-serif" font-size="14" lengthAdjust="spacing" textLength="192" x="380" y="459.5889">announcedScore: INTEGER</text><ellipse cx="371" cy="469.8906" fill="#000000" rx="3" ry="3" style="stroke:#000000;stroke-width:1.0;"/><text fill="#000000" font-family="sans-serif" font-size="14" lengthAdjust="spacing" textLength="174" x="380" y="475.8857">matchId : DECIMAL «FK»</text><ellipse cx="371" cy="486.1875" fill="#000000" rx="3" ry="3" style="stroke:#000000;stroke-width:1.0;"/><text fill="#000000" font-family="sans-serif" font-size="14" lengthAdjust="spacing" textLength="226" x="380" y="492.1826">participation_id : DECIMAL «FK»</text></g><!--MD5=[db556c9717b588b131d01a750dd9c48e]
class match--><g id="elem_match"><rect codeLine="45" fill="#F1F1F1" height="91.1875" id="match" rx="2.5" ry="2.5" style="stroke:#181818;stroke-width:0.5;" width="212" x="113" y="224.5"/><text fill="#000000" font-family="sans-serif" font-size="14" lengthAdjust="spacing" textLength="43" x="197.5" y="242.4951">Match</text><line style="stroke:#181818;stroke-width:0.5;" x1="114" x2="324" y1="250.7969" y2="250.7969"/><ellipse cx="124" cy="261.7969" fill="#000000" rx="3" ry="3" style="stroke:#000000;stroke-width:1.0;"/><text fill="#000000" font-family="sans-serif" font-size="14" lengthAdjust="spacing" textLength="186" x="133" y="267.792">id : DECIMAL «generated»</text><line style="stroke:#181818;stroke-width:1.0;" x1="114" x2="324" y1="275.0938" y2="275.0938"/><ellipse cx="124" cy="286.0938" fill="#000000" rx="3" ry="3" style="stroke:#000000;stroke-width:1.0;"/><text fill="#000000" font-family="sans-serif" font-size="14" lengthAdjust="spacing" textLength="177" x="133" y="292.0889">matchNumber : INTEGER</text><ellipse cx="124" cy="302.3906" fill="#000000" rx="3" ry="3" style="stroke:#000000;stroke-width:1.0;"/><text fill="#000000" font-family="sans-serif" font-size="14" lengthAdjust="spacing" textLength="170" x="133" y="308.3857">gameId : DECIMAL «FK»</text></g><!--MD5=[1374ed400b2a5a91dae2a177bb3b7fef]
class participation--><g id="elem_participation"><rect codeLine="52" fill="#F1F1F1" height="123.7813" id="participation" rx="2.5" ry="2.5" style="stroke:#181818;stroke-width:0.5;" width="248" x="362" y="208"/><text fill="#000000" font-family="sans-serif" font-size="14" lengthAdjust="spacing" textLength="89" x="441.5" y="225.9951">Participation</text><line style="stroke:#181818;stroke-width:0.5;" x1="363" x2="609" y1="234.2969" y2="234.2969"/><ellipse cx="373" cy="245.2969" fill="#000000" rx="3" ry="3" style="stroke:#000000;stroke-width:1.0;"/><text fill="#000000" font-family="sans-serif" font-size="14" lengthAdjust="spacing" textLength="186" x="382" y="251.292">id : DECIMAL «generated»</text><line style="stroke:#181818;stroke-width:1.0;" x1="363" x2="609" y1="258.5938" y2="258.5938"/><ellipse cx="373" cy="269.5938" fill="#000000" rx="3" ry="3" style="stroke:#000000;stroke-width:1.0;"/><text fill="#000000" font-family="sans-serif" font-size="14" lengthAdjust="spacing" textLength="125" x="382" y="275.5889">active : BOOLEAN</text><text fill="#000000" font-family="sans-serif" font-size="14" lengthAdjust="spacing" textLength="222" x="382" y="291.8857">participationNumber : INTEGER</text><ellipse cx="373" cy="302.1875" fill="#000000" rx="3" ry="3" style="stroke:#000000;stroke-width:1.0;"/><text fill="#000000" font-family="sans-serif" font-size="14" lengthAdjust="spacing" textLength="174" x="382" y="308.1826">playerId : DECIMAL «FK»</text><ellipse cx="373" cy="318.4844" fill="#000000" rx="3" ry="3" style="stroke:#000000;stroke-width:1.0;"/><text fill="#000000" font-family="sans-serif" font-size="14" lengthAdjust="spacing" textLength="170" x="382" y="324.4795">gameId : DECIMAL «FK»</text></g><!--MD5=[308de564e57c8d51c168255b0b03c096]
class player--><g id="elem_player"><rect codeLine="62" fill="#F1F1F1" height="74.8906" id="player" rx="2.5" ry="2.5" style="stroke:#181818;stroke-width:0.5;" width="212" x="384" y="48.5"/><text fill="#000000" font-family="sans-serif" font-size="14" lengthAdjust="spacing" textLength="44" x="468" y="66.4951">Player</text><line style="stroke:#181818;stroke-width:0.5;" x1="385" x2="595" y1="74.7969" y2="74.7969"/><ellipse cx="395" cy="85.7969" fill="#000000" rx="3" ry="3" style="stroke:#000000;stroke-width:1.0;"/><text fill="#000000" font-family="sans-serif" font-size="14" lengthAdjust="spacing" textLength="186" x="404" y="91.792">id : DECIMAL «generated»</text><line style="stroke:#181818;stroke-width:1.0;" x1="385" x2="595" y1="99.0938" y2="99.0938"/><ellipse cx="395" cy="110.0938" fill="#000000" rx="3" ry="3" style="stroke:#000000;stroke-width:1.0;"/><text fill="#000000" font-family="sans-serif" font-size="14" lengthAdjust="spacing" textLength="125" x="404" y="116.0889">name : VARCHAR</text></g><!--MD5=[8ff828e554ef434670c2a4b547c92bc0]
class round--><g id="elem_round"><rect codeLine="68" fill="#F1F1F1" height="91.1875" id="round" rx="2.5" ry="2.5" style="stroke:#181818;stroke-width:0.5;" width="212" x="113" y="400"/><text fill="#000000" font-family="sans-serif" font-size="14" lengthAdjust="spacing" textLength="46" x="196" y="417.9951">Round</text><line style="stroke:#181818;stroke-width:0.5;" x1="114" x2="324" y1="426.2969" y2="426.2969"/><ellipse cx="124" cy="437.2969" fill="#000000" rx="3" ry="3" style="stroke:#000000;stroke-width:1.0;"/><text fill="#000000" font-family="sans-serif" font-size="14" lengthAdjust="spacing" textLength="186" x="133" y="443.292">id : DECIMAL «generated»</text><line style="stroke:#181818;stroke-width:1.0;" x1="114" x2="324" y1="450.5938" y2="450.5938"/><ellipse cx="124" cy="461.5938" fill="#000000" rx="3" ry="3" style="stroke:#000000;stroke-width:1.0;"/><text fill="#000000" font-family="sans-serif" font-size="14" lengthAdjust="spacing" textLength="174" x="133" y="467.5889">matchId : DECIMAL «FK»</text><ellipse cx="124" cy="477.8906" fill="#000000" rx="3" ry="3" style="stroke:#000000;stroke-width:1.0;"/><text fill="#000000" font-family="sans-serif" font-size="14" lengthAdjust="spacing" textLength="174" x="133" y="483.8857">roundNumber : INTEGER</text></g><!--MD5=[94949e77217e239ac153428e5465477c]
link round to card--><g id="link_round_card"><path codeLine="75" d="M286,499.1524 C286,499.1524 286,550.7306 286,550.7306 " fill="none" id="round-card" style="stroke:#181818;stroke-width:1.0;stroke-dasharray:7.0,7.0;"/><line style="stroke:#181818;stroke-width:1.0;" x1="286" x2="292" y1="550.7306" y2="558.7306"/><line style="stroke:#181818;stroke-width:1.0;" x1="286" x2="280" y1="550.7306" y2="558.7306"/><line style="stroke:#181818;stroke-width:1.0;" x1="286" x2="286" y1="550.7306" y2="558.7306"/><ellipse cx="286" cy="544.7306" fill="none" rx="4" ry="4" style="stroke:#181818;stroke-width:1.0;"/><line style="stroke:#181818;stroke-width:1.0;" x1="282" x2="290" y1="495.1524" y2="495.1524"/><line style="stroke:#181818;stroke-width:1.0;" x1="282" x2="290" y1="498.1524" y2="498.1524"/><line style="stroke:#181818;stroke-width:1.0;" x1="286" x2="286" y1="499.1524" y2="491.1524"/></g><!--MD5=[09dcaa670210d926f742a7939b6ec262]
link hand to card--><g id="link_hand_card"><path codeLine="76" d="M409.5,507.1094 C409.5,507.1094 409.5,550.7972 409.5,550.7972 " fill="none" id="hand-card" style="stroke:#181818;stroke-width:1.0;stroke-dasharray:7.0,7.0;"/><line style="stroke:#181818;stroke-width:1.0;" x1="409.5" x2="415.5" y1="550.7972" y2="558.7972"/><line style="stroke:#181818;stroke-width:1.0;" x1="409.5" x2="403.5" y1="550.7972" y2="558.7972"/><line style="stroke:#181818;stroke-width:1.0;" x1="409.5" x2="409.5" y1="550.7972" y2="558.7972"/><line style="stroke:#181818;stroke-width:1.0;" x1="413.5" x2="405.5" y1="548.7972" y2="548.7972"/><line style="stroke:#181818;stroke-width:1.0;" x1="405.5" x2="413.5" y1="503.1094" y2="503.1094"/><line style="stroke:#181818;stroke-width:1.0;" x1="405.5" x2="413.5" y1="506.1094" y2="506.1094"/><line style="stroke:#181818;stroke-width:1.0;" x1="409.5" x2="409.5" y1="507.1094" y2="499.1094"/></g><!--MD5=[f2f13420b7c6518d17ae6509690ba9cc]
link participation to hand--><g id="link_participation_hand"><path codeLine="77" d="M486,340.3689 C486,340.3689 486,383.7655 486,383.7655 " fill="none" id="participation-hand" style="stroke:#181818;stroke-width:1.0;stroke-dasharray:7.0,7.0;"/><line style="stroke:#181818;stroke-width:1.0;" x1="486" x2="492" y1="383.7655" y2="391.7655"/><line style="stroke:#181818;stroke-width:1.0;" x1="486" x2="480" y1="383.7655" y2="391.7655"/><line style="stroke:#181818;stroke-width:1.0;" x1="486" x2="486" y1="383.7655" y2="391.7655"/><ellipse cx="486" cy="377.7655" fill="none" rx="4" ry="4" style="stroke:#181818;stroke-width:1.0;"/><line style="stroke:#181818;stroke-width:1.0;" x1="482" x2="490" y1="336.3689" y2="336.3689"/><line style="stroke:#181818;stroke-width:1.0;" x1="482" x2="490" y1="339.3689" y2="339.3689"/><line style="stroke:#181818;stroke-width:1.0;" x1="486" x2="486" y1="340.3689" y2="332.3689"/></g><!--MD5=[86d0e9a94bcdcd6d64f5929334e36c3c]
link game to game--><g id="link_game_game"><path codeLine="78" d="M219,15.7546 C219,15.7546 219,6 219,6 C219,6 345.5,6 345.5,6 C345.5,6 345.5,178 345.5,178 C345.5,178 254.3333,178 254.3333,178 C254.3333,178 254.3333,156.1302 254.3333,156.1302 " fill="none" id="game-game" style="stroke:#181818;stroke-width:1.0;stroke-dasharray:7.0,7.0;"/><line style="stroke:#181818;stroke-width:1.0;" x1="254.3333" x2="254.3333" y1="159.1302" y2="148.1302"/><ellipse cx="254.3333" cy="159.1302" fill="none" rx="4" ry="4" style="stroke:#181818;stroke-width:1.0;"/><line style="stroke:#181818;stroke-width:1.0;" x1="250.3333" x2="258.3333" y1="152.1302" y2="152.1302"/><line style="stroke:#181818;stroke-width:1.0;" x1="219" x2="219" y1="12.7546" y2="23.7546"/><ellipse cx="219" cy="12.7546" fill="none" rx="4" ry="4" style="stroke:#181818;stroke-width:1.0;"/><line style="stroke:#181818;stroke-width:1.0;" x1="223" x2="215" y1="19.7546" y2="19.7546"/></g><!--MD5=[45b592eaa92796672ac42c47035acc5e]
link game to participation--><g id="link_game_participation"><path codeLine="79" d="M339.3254,136 C339.3254,136 373,136 373,136 C373,136 373,199.7075 373,199.7075 " fill="none" id="game-participation" style="stroke:#181818;stroke-width:1.0;stroke-dasharray:7.0,7.0;"/><line style="stroke:#181818;stroke-width:1.0;" x1="373" x2="379" y1="199.7075" y2="207.7075"/><line style="stroke:#181818;stroke-width:1.0;" x1="373" x2="367" y1="199.7075" y2="207.7075"/><line style="stroke:#181818;stroke-width:1.0;" x1="373" x2="373" y1="199.7075" y2="207.7075"/><line style="stroke:#181818;stroke-width:1.0;" x1="377" x2="369" y1="197.7075" y2="197.7075"/><line style="stroke:#181818;stroke-width:1.0;" x1="335.3254" x2="335.3254" y1="140" y2="132"/><line style="stroke:#181818;stroke-width:1.0;" x1="338.3254" x2="338.3254" y1="140" y2="132"/><line style="stroke:#181818;stroke-width:1.0;" x1="339.3254" x2="331.3254" y1="136" y2="136"/></g><!--MD5=[a70957515180f50f22ed486534df8d14]
link player to participation--><g id="link_player_participation"><path codeLine="82" d="M490,131.6792 C490,131.6792 490,199.7401 490,199.7401 " fill="none" id="player-participation" style="stroke:#181818;stroke-width:1.0;stroke-dasharray:7.0,7.0;"/><line style="stroke:#181818;stroke-width:1.0;" x1="490" x2="496" y1="199.7401" y2="207.7401"/><line style="stroke:#181818;stroke-width:1.0;" x1="490" x2="484" y1="199.7401" y2="207.7401"/><line style="stroke:#181818;stroke-width:1.0;" x1="490" x2="490" y1="199.7401" y2="207.7401"/><line style="stroke:#181818;stroke-width:1.0;" x1="494" x2="486" y1="197.7401" y2="197.7401"/><line style="stroke:#181818;stroke-width:1.0;" x1="486" x2="494" y1="127.6792" y2="127.6792"/><line style="stroke:#181818;stroke-width:1.0;" x1="486" x2="494" y1="130.6792" y2="130.6792"/><line style="stroke:#181818;stroke-width:1.0;" x1="490" x2="490" y1="131.6792" y2="123.6792"/></g><!--MD5=[4a7f41e8d98d404128a218619f76c3f3]
link match to round--><g id="link_match_round"><path codeLine="83" d="M219,323.6524 C219,323.6524 219,391.7716 219,391.7716 " fill="none" id="match-round" style="stroke:#181818;stroke-width:1.0;stroke-dasharray:7.0,7.0;"/><line style="stroke:#181818;stroke-width:1.0;" x1="219" x2="225" y1="391.7716" y2="399.7716"/><line style="stroke:#181818;stroke-width:1.0;" x1="219" x2="213" y1="391.7716" y2="399.7716"/><line style="stroke:#181818;stroke-width:1.0;" x1="219" x2="219" y1="391.7716" y2="399.7716"/><line style="stroke:#181818;stroke-width:1.0;" x1="223" x2="215" y1="389.7716" y2="389.7716"/><line style="stroke:#181818;stroke-width:1.0;" x1="215" x2="223" y1="319.6524" y2="319.6524"/><line style="stroke:#181818;stroke-width:1.0;" x1="215" x2="223" y1="322.6524" y2="322.6524"/><line style="stroke:#181818;stroke-width:1.0;" x1="219" x2="219" y1="323.6524" y2="315.6524"/></g><!--MD5=[2f96b88d42231009c1df848f79c38062]
link game to match--><g id="link_game_match"><path codeLine="84" d="M183.6667,156.0375 C183.6667,156.0375 183.6667,216.2208 183.6667,216.2208 " fill="none" id="game-match" style="stroke:#181818;stroke-width:1.0;stroke-dasharray:7.0,7.0;"/><line style="stroke:#181818;stroke-width:1.0;" x1="183.6667" x2="189.6667" y1="216.2208" y2="224.2208"/><line style="stroke:#181818;stroke-width:1.0;" x1="183.6667" x2="177.6667" y1="216.2208" y2="224.2208"/><line style="stroke:#181818;stroke-width:1.0;" x1="183.6667" x2="183.6667" y1="216.2208" y2="224.2208"/><line style="stroke:#181818;stroke-width:1.0;" x1="187.6667" x2="179.6667" y1="214.2208" y2="214.2208"/><line style="stroke:#181818;stroke-width:1.0;" x1="179.6667" x2="187.6667" y1="152.0375" y2="152.0375"/><line style="stroke:#181818;stroke-width:1.0;" x1="179.6667" x2="187.6667" y1="155.0375" y2="155.0375"/><line style="stroke:#181818;stroke-width:1.0;" x1="183.6667" x2="183.6667" y1="156.0375" y2="148.0375"/></g><!--MD5=[37fc6a994fd0767c96c268e03f8f3748]
@startuml

' hide the spot
hide circle

' avoid problems with angled crows feet
skinparam linetype ortho

entity "Card" as card {
  *id : DECIMAL <<generated>>
  - -
  *cardRank : CardRank
  *cardSuit : CardSuit
  *handId : DECIMAL <<FK>>
  roundId : DECIMAL <<FK>>
}
note left of card: One Card can actually be\nassigned multiple times\nto a hand - -> should it be\nthen an n-to-m relationship?


entity "Game" as game {
  *id : DECIMAL <<generated>>
  - -
  *name : VARCHAR
  gameState : GameState
  videoChatName : VARCHAR
  nextGame : DECIMAL <<FK>>
  'participationtogame_id : DECIMAL <<FK>>
}
/'
entity "ParticipationToGame" as participationtogame {
  *id : DECIMAL <<generated>>
- -
  *gameId : DECIMAL <<FK>>
  *participationId : DECIMAL <<FK>>

}'/

entity "Hand" as hand {
  *id : DECIMAL <<generated>>
  - -
  announcedScore: INTEGER
  *matchId : DECIMAL <<FK>>
  *participation_id : DECIMAL <<FK>>
}

entity "Match" as match {
  *id : DECIMAL <<generated>>
  - -
  *matchNumber : INTEGER
  *gameId : DECIMAL <<FK>>
}

entity "Participation" as participation {
  *id : DECIMAL <<generated>>
  - -
  *active : BOOLEAN
  participationNumber : INTEGER
  *playerId : DECIMAL <<FK>>
  *gameId : DECIMAL <<FK>>
  '*gameToParticipationId : DECIMAL <<FK>>
}

entity "Player" as player {
  *id : DECIMAL <<generated>>
  - -
  *name : VARCHAR
}

entity "Round" as round {
  *id : DECIMAL <<generated>>
  - -
  *matchId : DECIMAL <<FK>>
  *roundNumber : INTEGER
}

round ||..o{ card
hand ||..|{ card
participation ||..o{ hand
game |o..o| game
game ||..|{ participation
'game ||..o{ participationtogame
'participation ||..o{ participationtogame
player ||..|{ participation
match ||..|{ round
game ||..|{ match

@enduml

@startuml

hide circle

skinparam linetype ortho

entity "Card" as card {
  *id : DECIMAL <<generated>>
  - -
  *cardRank : CardRank
  *cardSuit : CardSuit
  *handId : DECIMAL <<FK>>
  roundId : DECIMAL <<FK>>
}
note left of card: One Card can actually be\nassigned multiple times\nto a hand - -> should it be\nthen an n-to-m relationship?


entity "Game" as game {
  *id : DECIMAL <<generated>>
  - -
  *name : VARCHAR
  gameState : GameState
  videoChatName : VARCHAR
  nextGame : DECIMAL <<FK>>
}

entity "Hand" as hand {
  *id : DECIMAL <<generated>>
  - -
  announcedScore: INTEGER
  *matchId : DECIMAL <<FK>>
  *participation_id : DECIMAL <<FK>>
}

entity "Match" as match {
  *id : DECIMAL <<generated>>
  - -
  *matchNumber : INTEGER
  *gameId : DECIMAL <<FK>>
}

entity "Participation" as participation {
  *id : DECIMAL <<generated>>
  - -
  *active : BOOLEAN
  participationNumber : INTEGER
  *playerId : DECIMAL <<FK>>
  *gameId : DECIMAL <<FK>>
}

entity "Player" as player {
  *id : DECIMAL <<generated>>
  - -
  *name : VARCHAR
}

entity "Round" as round {
  *id : DECIMAL <<generated>>
  - -
  *matchId : DECIMAL <<FK>>
  *roundNumber : INTEGER
}

round ||..o{ card
hand ||..|{ card
participation ||..o{ hand
game |o..o| game
game ||..|{ participation
player ||..|{ participation
match ||..|{ round
game ||..|{ match

@enduml

PlantUML version 1.2022.4(Sat Apr 09 15:29:17 CEST 2022)
(GPL source distribution)
Java Runtime: OpenJDK Runtime Environment
JVM: OpenJDK 64-Bit Server VM
Default Encoding: UTF-8
Language: de
Country: DE
--></g></svg>